<?xml version="1.0" encoding="UTF-8" standalone="no"?>
<!-- Created with Inkscape (http://www.inkscape.org/) -->

<svg
   xmlns:osb="http://www.openswatchbook.org/uri/2009/osb"
   xmlns:dc="http://purl.org/dc/elements/1.1/"
   xmlns:cc="http://creativecommons.org/ns#"
   xmlns:rdf="http://www.w3.org/1999/02/22-rdf-syntax-ns#"
   xmlns:svg="http://www.w3.org/2000/svg"
   xmlns="http://www.w3.org/2000/svg"
   xmlns:sodipodi="http://sodipodi.sourceforge.net/DTD/sodipodi-0.dtd"
   xmlns:inkscape="http://www.inkscape.org/namespaces/inkscape"
   width="180mm"
   height="180mm"
   viewBox="0 0 637.79528 637.79527"
   id="svg3409"
   version="1.1"
   inkscape:version="0.91 r"
   sodipodi:docname="1.svg">
  <sodipodi:namedview
     id="base"
     pagecolor="#ffffff"
     bordercolor="#666666"
     borderopacity="1.0"
     inkscape:pageopacity="0.0"
     inkscape:pageshadow="2"
     inkscape:zoom="0.50000001"
     inkscape:cx="318.65796"
     inkscape:cy="393.89419"
     inkscape:document-units="mm"
     inkscape:current-layer="layer1"
     showgrid="false"
     inkscape:window-width="854"
     inkscape:window-height="684"
     inkscape:window-x="973"
     inkscape:window-y="148"
     inkscape:window-maximized="0"
     units="mm" />
  <defs
     id="defs3411">
    <linearGradient
       id="linearGradient4148"
       osb:paint="solid">
      <stop
         style="stop-color:#550044;stop-opacity:1;"
         offset="0"
         id="stop4150" />
    </linearGradient>
  </defs>
  <metadata
     id="metadata3414">
    <rdf:RDF>
      <cc:Work
         rdf:about="">
        <dc:format>image/svg+xml</dc:format>
        <dc:type
           rdf:resource="http://purl.org/dc/dcmitype/StillImage" />
        <dc:title />
      </cc:Work>
    </rdf:RDF>
  </metadata>
  <g
     transform="translate(0,-414.56693)"
     id="layer1"
     inkscape:groupmode="layer"
     inkscape:label="Layer 1">
    <g
       id="g4165"
       transform="matrix(1.3887554,0,0,1.1430114,-134.0496,-103.01291)">
      <ellipse
         ry="4.7695599"
         rx="4.8150549"
         cy="547.90515"
         cx="297.44193"
         id="path4179"
         style="fill:none;fill-opacity:1;stroke:#fc0000;stroke-width:0.20402777;stroke-miterlimit:4;stroke-dasharray:none;stroke-opacity:1" />
      <ellipse
         ry="13.428798"
         rx="13.03235"
         cy="548.01825"
         cx="292.47702"
         id="path4179-1"
         style="fill:none;fill-opacity:1;stroke:#fc0000;stroke-width:0.56322181;stroke-miterlimit:4;stroke-dasharray:none;stroke-opacity:1" />
      <ellipse
         ry="4.7695599"
         rx="4.8150549"
         cy="548.01831"
         cx="338.35059"
         id="path4179-19"
         style="fill:none;fill-opacity:1;stroke:#fc0000;stroke-width:0.20402777;stroke-miterlimit:4;stroke-dasharray:none;stroke-opacity:1" />
      <ellipse
         ry="13.428798"
         rx="13.03235"
         cy="547.66473"
         cx="343.12357"
         id="path4179-1-0"
         style="fill:none;fill-opacity:1;stroke:#fc0000;stroke-width:0.56322181;stroke-miterlimit:4;stroke-dasharray:none;stroke-opacity:1" />
      <ellipse
         ry="34.898708"
         rx="33.883541"
         cy="547.84149"
         cx="279.74911"
         id="path4179-1-4"
         style="fill:none;fill-opacity:1;stroke:#fc0000;stroke-width:1.46402526;stroke-miterlimit:4;stroke-dasharray:none;stroke-opacity:1" />
      <ellipse
         ry="34.898708"
         rx="33.883541"
         cy="547.48798"
         cx="356.55859"
         id="path4179-1-4-0"
         style="fill:none;fill-opacity:1;stroke:#fc0000;stroke-width:1.46402526;stroke-miterlimit:4;stroke-dasharray:none;stroke-opacity:1" />
      <ellipse
         ry="141.6683"
         rx="143.90314"
         cy="682.86224"
         cx="317.75"
         id="path4179-1-4-9"
         style="fill:none;fill-opacity:1;stroke:#fc0000;stroke-width:2.02576566;stroke-miterlimit:4;stroke-dasharray:none;stroke-opacity:1" />
      <ellipse
         ry="171.23526"
         rx="165.97009"
         cy="655.61224"
         cx="317.25"
         id="path4179-1-4-9-5"
         style="fill:none;fill-opacity:1;stroke:#fc0000;stroke-width:2.39182448;stroke-miterlimit:4;stroke-dasharray:none;stroke-opacity:1" />
      <ellipse
         ry="15.399794"
         rx="21.544083"
         cy="586.26001"
         cx="317.75128"
         id="path4179-1-3"
         style="fill:none;fill-opacity:1;stroke:#fc0000;stroke-width:0.77548075;stroke-miterlimit:4;stroke-dasharray:none;stroke-opacity:1" />
      <path
         inkscape:connector-curvature="0"
         id="path4283"
         d="m 317.49094,601.58164 0.35355,64.16994"
         style="fill:none;fill-rule:evenodd;stroke:#fa0000;stroke-width:1px;stroke-linecap:butt;stroke-linejoin:miter;stroke-opacity:1" />
      <path
         inkscape:connector-curvature="0"
         id="path4285"
         d="m 221.32442,606.17784 c 0,0 -24.57196,3.35876 -32.17336,17.32411 -7.6014,13.96536 23.68808,23.5113 34.1179,27.04684 10.42983,3.53553 49.67425,15.02602 94.57553,15.20279 44.90128,0.17678 107.30345,-11.84404 118.97071,-19.44543 11.66726,-7.6014 10.25305,-18.56156 7.6014,-21.56676 -2.65165,-3.0052 -1.76777,-6.54074 -16.08668,-18.03122"
         style="fill:none;fill-rule:evenodd;stroke:#fa0000;stroke-width:1px;stroke-linecap:butt;stroke-linejoin:miter;stroke-opacity:1" />
      <path
         inkscape:connector-curvature="0"
         id="path4287"
         d="m 224.24999,650.61222 c 0,0 -26.24999,-9 -25.87499,-10.5 0.375,-1.5 1.55944,21.04317 3.76915,29.61684 2.2097,8.57367 6.60584,27.88315 9.10584,33.75815 2.5,5.875 6.375,20 16.25,34.625 9.875,14.625 16.375,21.625 28.5,31 12.125,9.375 19.125,10.5 23.875,11.875 4.75,1.375 14.25,5.375 28.75,5.375 14.5,0 21.06354,-0.2257 39.44831,-5.17545 18.38478,-4.94975 35.7089,-15.55635 43.84062,-22.98097 8.13173,-7.42462 20.15255,-22.09708 22.98097,-28.28427 2.82843,-6.18718 15.02602,-30.22881 16.61701,-43.48706 1.59099,-13.25826 4.94975,-20.68288 5.48008,-31.64303 0.53033,-10.96016 0,-8.83884 0,-8.83884 0,0 -7.68979,3.97748 -9.05981,4.11006"
         style="fill:none;fill-rule:evenodd;stroke:#f40000;stroke-width:1px;stroke-linecap:butt;stroke-linejoin:miter;stroke-opacity:1" />
      <path
         sodipodi:nodetypes="cssssssssssc"
         inkscape:connector-curvature="0"
         id="path4289"
         d="m 313.99999,735.61221 c 0,0 17.75,-8.75 27.75,-8.25 10,0.5 16.652,-1.51585 25.25,6.75 8.23223,7.91421 3,16 3,16 -3.66236,8.00732 -13.75,16.25 -26,19 -12.25,2.75 -29,4.75 -32.25,4.5 -3.25,-0.25 -25.25,-2.5 -28.75,-4.5 -3.5,-2 -15,-7.25 -17.25,-14.25 -2.25,-7 -2.64636,-14.74395 0.78033,-20.35355 2.83967,-4.64863 10.71967,-8.89645 15.71967,-9.89645 5,-1 15.75,1 19,3 3.25,2 12.25,8.375 12.75,8 z"
         style="fill:none;fill-rule:evenodd;stroke:#f40000;stroke-width:1px;stroke-linecap:butt;stroke-linejoin:miter;stroke-opacity:1" />
      <path
         inkscape:connector-curvature="0"
         id="path4291"
         d="M 354.61404,610.06693 454.3161,575.41869"
         style="fill:none;fill-rule:evenodd;stroke:#f70000;stroke-width:1px;stroke-linecap:butt;stroke-linejoin:miter;stroke-opacity:1" />
      <path
         inkscape:connector-curvature="0"
         id="path4293"
         d="m 353.55338,629.51236 114.19774,0"
         style="fill:none;fill-rule:evenodd;stroke:#f10000;stroke-width:1px;stroke-linecap:butt;stroke-linejoin:miter;stroke-opacity:1" />
      <path
         inkscape:connector-curvature="0"
         id="path4295"
         d="M 353.55338,646.48292 454.3161,681.13116"
         style="fill:none;fill-rule:evenodd;stroke:#f50000;stroke-width:1px;stroke-linecap:butt;stroke-linejoin:miter;stroke-opacity:1" />
      <path
         inkscape:connector-curvature="0"
         id="path4297"
         d="M 294.50997,646.48292 193.74725,681.13116"
         style="fill:none;fill-rule:evenodd;stroke:#f60000;stroke-width:1px;stroke-linecap:butt;stroke-linejoin:miter;stroke-opacity:1" />
      <path
         inkscape:connector-curvature="0"
         id="path4299"
         d="m 294.15641,629.15881 -115.61195,0"
         style="fill:none;fill-rule:evenodd;stroke:#f90000;stroke-width:1px;stroke-linecap:butt;stroke-linejoin:miter;stroke-opacity:1" />
      <path
         inkscape:connector-curvature="0"
         id="path4301"
         d="M 294.50997,609.35982 192.33304,574.71159"
         style="fill:none;fill-rule:evenodd;stroke:#fa0000;stroke-width:1px;stroke-linecap:butt;stroke-linejoin:miter;stroke-opacity:1" />
      <ellipse
         ry="33.182549"
         rx="32.417381"
         cy="777.25476"
         cx="156.47771"
         id="path4179-1-4-4"
         style="fill:none;fill-opacity:1;stroke:#fc0000;stroke-width:1.39634681;stroke-miterlimit:4;stroke-dasharray:none;stroke-opacity:1" />
      <ellipse
         ry="33.182549"
         rx="32.417381"
         cy="836.36218"
         cx="492"
         id="path4179-1-4-4-2"
         style="fill:none;fill-opacity:1;stroke:#fc0000;stroke-width:1.39634681;stroke-miterlimit:4;stroke-dasharray:none;stroke-opacity:1" />
      <path
         inkscape:connector-curvature="0"
         id="path4333"
         d="m 454.13932,752.54894 c 0,0 -10.78338,11.31371 -9.54594,12.55114 1.23743,1.23744 41.54252,38.7141 42.4264,38.53732 0.88389,-0.17678 6.89429,-1.06066 11.49049,0.35356"
         style="fill:none;fill-rule:evenodd;stroke:#fe0000;stroke-width:1px;stroke-linecap:butt;stroke-linejoin:miter;stroke-opacity:1" />
      <path
         sodipodi:nodetypes="ccsssssscccssssc"
         inkscape:connector-curvature="0"
         id="path4335"
         d="m 168.02624,808.14521 c -7.24784,2.12132 -5.56846,4.33103 -5.56846,4.33103 0,0 11.66722,7.88597 18.04222,11.01097 6.375,3.125 22.1588,10.50076 28.62499,9.875 0.96875,-0.0937 -0.35172,8.1054 9.90133,37.62711 10.25305,29.52171 21.74353,44.37095 31.46625,53.74011 9.72272,9.36917 28.63782,14.14214 39.59798,14.14214 10.96015,0 18.91511,0.88388 21.38998,-0.88388 2.47487,-1.76777 9.01561,-8.48528 9.36916,-8.13173 0.35356,0.35355 8.66206,7.24784 8.66206,7.24784 l 62.40217,-0.35355 c 0,0 14.31892,-17.67767 18.56156,-25.10229 4.24264,-7.42462 13.96535,-26.33973 15.9099,-32.52691 1.94454,-6.18719 10.96015,-34.29468 9.01561,-36.76955 -1.94454,-2.47488 23.5113,8.66205 24.39518,8.3085 0.88389,-0.35355 3.57973,1.85616 7.77818,7.68979"
         style="fill:none;fill-rule:evenodd;stroke:#f80000;stroke-width:1px;stroke-linecap:butt;stroke-linejoin:miter;stroke-opacity:1" />
      <path
         inkscape:connector-curvature="0"
         id="path4337"
         d="m 255.24999,928.54971 c -5.5625,-4.6875 -6.4375,-2.4375 -6.4375,-2.4375 0,0 -8.5,5.875 -9.6875,8.5 -1.1875,2.625 -4.9375,7.9375 -3.125,15 1.8125,7.0625 8.375,12.625 10,13.6875 1.625,1.0625 12.8125,7.25 20.25,7.5 7.4375,0.25 21.125,0.5 27.75,-3 6.625,-3.5 13.6875,-7.6875 15.625,-11.0625 1.9375,-3.375 3.875,-8.25 3.75,-11.9375 -0.125,-3.6875 -1.625,-7.1875 -0.8125,-7.8125 0.8125,-0.625 4.25,-3.8125 4.25,-3.8125"
         style="fill:none;fill-rule:evenodd;stroke:#fa0000;stroke-width:1px;stroke-linecap:butt;stroke-linejoin:miter;stroke-opacity:1" />
      <path
         inkscape:connector-curvature="0"
         id="path4339"
         d="m 325.81249,933.98721 c 5.4375,3.75 3.875,3.8125 3.6875,5.9375 -0.1875,2.125 -0.6875,8.75 0,10.6875 0.6875,1.9375 4.25,8.5625 7.625,10.875 3.375,2.3125 9.375,5.9375 12.625,6.75 3.25,0.8125 9.75,2.5625 14.4375,2.625 4.6875,0.0625 13.625,0.0625 17.9375,-1.4375 4.3125,-1.5 14.625,-5.8125 17.6875,-9.5625 3.0625,-3.75 6.9375,-8 6.5625,-15 -0.375,-7 -4.4375,-12.125 -6.375,-13.75 -1.9375,-1.625 0.5625,-5.375 2.0625,-7.5625"
         style="fill:none;fill-rule:evenodd;stroke:#fa0000;stroke-width:1px;stroke-linecap:butt;stroke-linejoin:miter;stroke-opacity:1" />
      <path
         inkscape:connector-curvature="0"
         id="path4341"
         d="m 261.99999,870.61221 124.125,-0.5 c 0,0 -0.25,8.375 -2.75,13.625 -2.5,5.25 -9.75,17.5 -12.875,20.375 -3.125,2.875 -16.125,11.25 -19.25,12.5 -3.125,1.25 -26.5,4.625 -32,4.25 -5.5,-0.375 -20.375,-3.875 -25.875,-6.875 -5.5,-3 -15.75,-10 -19.875,-15.875 -4.125,-5.875 -9.25,-14.375 -10.25,-18.25 -1,-3.875 -1.34375,-6.96875 -1.34375,-7.78125 0,-0.8125 -0.125,-1.46875 2.96875,-1.5"
         style="fill:none;fill-rule:evenodd;stroke:#fd0000;stroke-width:1px;stroke-linecap:butt;stroke-linejoin:miter;stroke-opacity:1" />
      <path
         inkscape:connector-curvature="0"
         id="path4343"
         d="m 265.74999,818.36221 c -8.5,-3 -10,-0.3125 -10,-0.3125 0,0 -9.9375,7.875 -12.8125,13.375 -2.875,5.5 -7.125,11.1875 -8.3125,16.375 -1.1875,5.1875 -3.3125,13.8125 -1.6875,22.375 1.625,8.5625 3.25,16 8.5625,22.75 5.3125,6.75 14.625,16.1875 22.3125,19.8125 7.6875,3.625 13.8125,7.0625 22.5,9.1875 8.6875,2.125 17.75,4.125 26,4.5 8.25,0.375 27.36392,-0.0159 34.78854,-1.25333 7.42462,-1.23744 31.28948,-6.18719 41.18897,-13.61181 9.8995,-7.42462 19.18027,-14.84924 22.53903,-24.13002 3.35876,-9.28077 5.92202,-18.64994 4.24264,-28.54943 -1.67938,-9.8995 -4.41942,-16.7054 -7.24784,-21.21321 -2.82843,-4.5078 -9.36917,-14.49568 -12.1976,-17.4125 -2.82842,-2.91681 -5.12652,-5.43588 -6.7617,-6.98268 -1.63519,-1.54679 0.0884,-3.35876 4.37522,-5.56846"
         style="fill:none;fill-rule:evenodd;stroke:#f90000;stroke-width:1px;stroke-linecap:butt;stroke-linejoin:miter;stroke-opacity:1" />
      <path
         sodipodi:nodetypes="csssccsssscc"
         inkscape:connector-curvature="0"
         id="path4345"
         d="m 303.37499,835.48721 c 0,0 5.25,-2.4375 13.25,-2.8125 8,-0.375 12.75,-0.4375 15.9375,0.125 3.1875,0.5625 9.9375,1.6875 11.125,2.1875 1.1875,0.5 1.25,0.5 1.25,0.5 l -0.0625,6.6875 c 0,0 -4.1228,-1.4989 -6.4375,-1.8125 0,0 -1.8125,-1.3125 -10.4375,-1.375 -8.625,-0.0625 -10.75,-0.375 -14.75,0.5625 -4,0.9375 -7.3125,1.6875 -8.875,2.25 -1.5625,0.5625 -1.0625,-5.6875 -1.0625,-5.6875 0,0 -0.0625,-1 4,-2.0625"
         style="fill:none;fill-rule:evenodd;stroke:#fc0000;stroke-width:1px;stroke-linecap:butt;stroke-linejoin:miter;stroke-opacity:1" />
      <path
         sodipodi:nodetypes="cssscc"
         inkscape:connector-curvature="0"
         id="path4351"
         d="m 314.49999,839.29971 -2.78125,0.53125 c 0,0 0.84375,6.15625 4.15625,7.84375 3.3125,1.6875 3.5,3.4375 8.5,2.9375 5,-0.5 7.9375,-2 8.875,-3.75 0.9375,-1.75 2,-3.125 2.625,-5.75 l 0.25,-1.5 -2.59375,-0.40625"
         style="fill:none;fill-rule:evenodd;stroke:#fc0000;stroke-width:1px;stroke-linecap:butt;stroke-linejoin:miter;stroke-opacity:1" />
      <path
         inkscape:connector-curvature="0"
         id="path4353"
         d="m 322.12499,826.89346 c -3,0.125 -3.46875,2.5625 -3.46875,2.5625 0,0 -0.6875,3.03125 -0.15625,3.03125 0.53125,0 9.78125,-0.125 9.78125,-0.125 0,0 1.375,-0.53125 0.65625,-2.6875 -0.71875,-2.15625 -1.125,-3.0625 -3.1875,-2.96875"
         style="fill:none;fill-rule:evenodd;stroke:#f40000;stroke-width:1px;stroke-linecap:butt;stroke-linejoin:miter;stroke-opacity:1" />
    </g>
  </g>
  <WCB
     pausedposy="0"
     pausedposx="0"
     lastknownposy="0"
     lastknownposx="0"
     lastpathnc="0"
     lastpath="0"
     node="0"
     layer="0" />
</svg>
