<?xml version="1.0" encoding="UTF-8" standalone="no"?>
<!-- Created with Inkscape (http://www.inkscape.org/) -->

<svg
   xmlns:osb="http://www.openswatchbook.org/uri/2009/osb"
   xmlns:dc="http://purl.org/dc/elements/1.1/"
   xmlns:cc="http://creativecommons.org/ns#"
   xmlns:rdf="http://www.w3.org/1999/02/22-rdf-syntax-ns#"
   xmlns:svg="http://www.w3.org/2000/svg"
   xmlns="http://www.w3.org/2000/svg"
   xmlns:sodipodi="http://sodipodi.sourceforge.net/DTD/sodipodi-0.dtd"
   xmlns:inkscape="http://www.inkscape.org/namespaces/inkscape"
   width="180mm"
   height="180mm"
   viewBox="0 0 637.79528 637.79527"
   id="svg3409"
   version="1.1"
   inkscape:version="0.91 r"
   sodipodi:docname="2.svg">
  <sodipodi:namedview
     id="base"
     pagecolor="#ffffff"
     bordercolor="#666666"
     borderopacity="1.0"
     inkscape:pageopacity="0.0"
     inkscape:pageshadow="2"
     inkscape:zoom="0.9050967"
     inkscape:cx="143.39191"
     inkscape:cy="338.20666"
     inkscape:document-units="mm"
     inkscape:current-layer="layer1"
     showgrid="false"
     inkscape:window-width="1851"
     inkscape:window-height="904"
     inkscape:window-x="65"
     inkscape:window-y="24"
     inkscape:window-maximized="1"
     units="mm" />
  <defs
     id="defs3411">
    <linearGradient
       id="linearGradient4148"
       osb:paint="solid">
      <stop
         style="stop-color:#550044;stop-opacity:1;"
         offset="0"
         id="stop4150" />
    </linearGradient>
  </defs>
  <metadata
     id="metadata3414">
    <rdf:RDF>
      <cc:Work
         rdf:about="">
        <dc:format>image/svg+xml</dc:format>
        <dc:type
           rdf:resource="http://purl.org/dc/dcmitype/StillImage" />
        <dc:title />
      </cc:Work>
    </rdf:RDF>
  </metadata>
  <g
     transform="translate(0,-414.56693)"
     id="layer1"
     inkscape:groupmode="layer"
     inkscape:label="Layer 1">
    <g
       id="g4156"
       transform="matrix(1.5310591,0,0,1.3367336,-164.37754,-236.22527)">
      <path
         sodipodi:nodetypes="cssssscssssscssssssssscssc"
         inkscape:connector-curvature="0"
         id="path4743"
         d="m 248.24219,538.88564 c 0,0 14.0625,-11.23047 23.82812,-15.52734 9.76563,-4.29688 37.56512,-12.37473 57.03818,-13.8939 19.47306,-1.51918 44.88471,-0.13811 53.30922,1.93349 8.42452,2.07161 29.14054,10.49612 38.25558,16.98714 9.11505,6.49102 23.20195,19.19684 33.69806,36.46019 10.49612,17.26335 19.74927,44.19418 20.71602,47.92306 0,0 8.70073,0 13.25825,4.1432 4.55753,4.14321 9.52937,9.66748 14.50122,20.3017 4.97184,10.63423 -1.65728,33.69806 -4.97185,37.28884 -3.31456,3.59077 -11.87718,7.31966 -15.88228,7.45776 -4.0051,0.13811 -18.64442,-2.0716 -21.95898,-4.1432 -3.31456,-2.0716 -11.87718,-7.87209 -11.87718,-7.87209 0,0 -48.47549,19.61117 -53.44733,20.99224 -4.97185,1.38106 -56.07136,18.78252 -78.30656,23.06383 -22.23519,4.28131 -43.91796,6.76723 -54.27597,6.49102 -10.358,-0.27621 -24.85922,-1.65728 -37.84126,-6.49102 -12.98204,-4.83374 -25.54975,-12.70582 -28.86432,-15.19175 -3.31456,-2.48592 -11.73907,-12.98204 -12.98204,-15.19174 -1.24296,-2.20971 -5.24805,-13.39636 -5.10995,-21.82088 0.13811,-8.42451 5.66238,-23.06383 10.49612,-30.10728 4.83374,-7.04345 15.19175,-17.12524 24.85922,-22.92573 9.66748,-5.80048 14.91554,-7.31966 14.91554,-7.31966 0,0 -0.82864,-14.63932 0.1381,-21.82087 0.96675,-7.18155 4.28131,-18.09199 7.87209,-24.16869 3.59078,-6.0767 12.1534,-16.71092 18.64442,-21.68277"
         style="fill:none;fill-rule:evenodd;stroke:#1eec00;stroke-width:1px;stroke-linecap:butt;stroke-linejoin:miter;stroke-opacity:1" />
      <path
         inkscape:connector-curvature="0"
         id="path4745"
         d="m 285.32864,525.89911 c 0,0 6.76723,-1.65728 15.60606,5.52427 8.83884,7.18155 18.09199,18.09199 18.92063,20.71602 0.82865,2.62403 -5.52427,9.52937 -7.59587,9.80558 -2.0716,0.27621 -4.97184,1.79539 -6.90534,0.82864 -1.93349,-0.96675 -22.3733,-20.02548 -24.16869,-20.02548 -1.79539,0 -23.89247,18.50631 -26.3784,19.19684 -2.48592,0.69053 -8.2864,0.69053 -9.39126,-0.13811 -1.10485,-0.82864 -6.0767,-7.31966 -4.97184,-8.97694 1.10485,-1.65728 16.02039,-15.88228 18.09199,-17.67767 2.0716,-1.79539 11.46286,-9.39126 14.225,-10.08179 2.76213,-0.69054 34.5267,2.48592 37.97937,2.76213 3.45267,0.27622 55.51893,3.03835 57.0381,4.41942 1.51918,1.38107 -5.93859,6.35291 -10.49611,8.70073 -4.55753,2.34781 -6.0767,3.17645 -6.90534,4.41942 -0.82864,1.24296 -3.03835,5.66237 -2.62403,8.42451 0.41432,2.76214 3.72888,6.76723 6.2148,7.18155 2.48593,0.41432 9.39126,0.96675 11.46287,0.41432 2.0716,-0.55242 18.50631,-10.49611 21.26844,-11.18665 2.76214,-0.69053 6.35292,-1.51917 8.70073,-0.69053 2.34782,0.82864 15.19175,14.77743 16.71092,15.88228 1.51918,1.10485 8.70073,4.1432 10.0818,4.0051 1.38107,-0.13811 5.52427,-1.51918 6.62913,-2.90025 1.10485,-1.38106 2.76213,-6.07669 4.00509,-5.93859 1.24296,0.13811 4.69563,1.65728 10.0818,11.46287 5.38616,9.80558 7.18155,14.08689 8.56262,20.3017 1.38107,6.2148 3.86699,19.05873 4.55752,23.47815 0.69054,4.41942 0.96675,5.66238 0.41432,7.45777 -0.55242,1.79539 -6.2148,10.49611 -6.2148,10.49611 l 6.2148,-10.08179 c 0,0 5.10996,-5.38617 6.49102,-6.21481 1.38107,-0.82864 7.59588,-5.24806 12.42961,-4.69563 4.83374,0.55243 10.77233,2.20971 12.70583,3.86699"
         style="fill:none;fill-rule:evenodd;stroke:#f20000;stroke-width:1px;stroke-linecap:butt;stroke-linejoin:miter;stroke-opacity:1" />
      <path
         inkscape:connector-curvature="0"
         id="path4747"
         d="m 241.79688,596.1122 c 0,0 3.125,-12.69531 6.44531,-17.1875 3.32031,-4.49218 6.64062,-9.17968 13.47656,-12.69531 6.83594,-3.51562 14.45313,-4.88281 19.33594,-4.88281 4.88281,0 16.40625,2.73437 19.53125,5.07812 3.125,2.34375 8.00781,4.88282 10.9375,8.78907 2.92969,3.90625 8.98437,11.52343 9.375,18.55468"
         style="fill:none;fill-rule:evenodd;stroke:#fb0000;stroke-width:1px;stroke-linecap:butt;stroke-linejoin:miter;stroke-opacity:1" />
      <path
         sodipodi:nodetypes="cssszsc"
         inkscape:connector-curvature="0"
         id="path4749"
         d="m 348.63281,591.62002 c 0,0 2.34375,-9.17969 7.61719,-16.21094 5.27344,-7.03125 14.0625,-10.35156 16.79688,-10.9375 2.73437,-0.58594 15.23437,-2.53906 25.39062,1.17187 10.15625,3.71094 14.60136,5.67695 17.57813,8.78906 2.97677,3.11212 8.78906,7.22657 12.30468,13.28126 3.9045,6.72441 4.49219,10.54687 5.27344,12.10937"
         style="fill:none;fill-rule:evenodd;stroke:#f50000;stroke-width:1px;stroke-linecap:butt;stroke-linejoin:miter;stroke-opacity:1" />
      <path
         inkscape:connector-curvature="0"
         id="path4751"
         d="m 282.15218,593.57144 c 0,0 14.50121,1.10485 19.33495,4.69563 4.83374,3.59077 10.49612,9.11505 11.46286,14.08689 0.96675,4.97184 1.24297,12.01529 0,14.77743 -1.24296,2.76213 -7.73398,11.04854 -10.358,12.84393 -2.62403,1.79539 -8.70073,6.0767 -19.05874,6.0767 -10.35801,0 -16.71092,-0.96675 -22.51141,-5.93859 -5.80048,-4.97185 -11.73908,-10.63423 -11.60097,-18.50631 0.13811,-7.87209 3.59078,-15.74418 6.76723,-18.78253 3.17646,-3.03835 10.21991,-7.45777 13.94879,-8.28641 3.72888,-0.82864 14.08689,-1.38106 18.92063,-0.69053"
         style="fill:none;fill-rule:evenodd;stroke:#f60000;stroke-width:1px;stroke-linecap:butt;stroke-linejoin:miter;stroke-opacity:1" />
      <path
         inkscape:connector-curvature="0"
         id="path4753"
         d="m 287.48114,605.3342 c 0,0 5.24806,1.51918 6.21481,2.48593 0.96674,0.96674 3.31456,3.72888 3.59077,6.90534 0.27622,3.17645 0.27622,7.18155 -0.82864,8.56262 -1.10485,1.38107 -4.83373,4.55752 -5.93859,4.97184 -1.10485,0.41432 -6.2148,0.96675 -8.1483,0.55243 -1.93349,-0.41432 -5.66238,-2.90024 -7.73398,-5.66238 -2.0716,-2.76214 -1.65728,-6.62913 -0.82864,-9.11505 0.82864,-2.48592 2.90024,-5.52427 5.10995,-6.49102 2.20971,-0.96674 2.90024,-1.93349 6.21481,-2.0716 3.31456,-0.13811 5.38616,0.27621 7.45776,1.9335"
         style="fill:none;fill-rule:evenodd;stroke:#f40000;stroke-width:1px;stroke-linecap:butt;stroke-linejoin:miter;stroke-opacity:1" />
      <path
         inkscape:connector-curvature="0"
         id="path4753-3"
         d="m 372.31716,605.57647 c 0,0 5.24806,1.51918 6.21481,2.48593 0.96674,0.96674 3.31456,3.72888 3.59077,6.90534 0.27622,3.17645 0.27622,7.18155 -0.82864,8.56262 -1.10485,1.38107 -4.83373,4.55752 -5.93859,4.97184 -1.10485,0.41432 -6.2148,0.96675 -8.1483,0.55243 -1.93349,-0.41432 -5.66238,-2.90024 -7.73398,-5.66238 -2.0716,-2.76214 -1.65728,-6.62913 -0.82864,-9.11505 0.82864,-2.48592 2.90024,-5.52427 5.10995,-6.49102 2.20971,-0.96674 2.90024,-1.93349 6.21481,-2.0716 3.31456,-0.13811 5.38616,0.27621 7.45776,1.9335"
         style="fill:none;fill-rule:evenodd;stroke:#f60000;stroke-width:1px;stroke-linecap:butt;stroke-linejoin:miter;stroke-opacity:1" />
      <path
         sodipodi:nodetypes="csssssssssc"
         inkscape:connector-curvature="0"
         id="path4751-3"
         d="m 375.94247,594.69921 c 0,0 13.49824,1.66924 18.16307,5.47688 4.63843,3.78608 9.32425,9.11505 10.29099,14.08689 0.96675,4.97184 1.82891,11.03873 0.58594,13.80087 -1.24296,2.76213 -6.75742,10.26729 -9.38144,12.06268 -2.62403,1.79539 -7.91948,7.05326 -18.27749,7.05326 -10.35801,0 -15.34373,-0.96675 -21.14422,-5.93859 -5.80048,-4.97185 -11.15314,-11.41548 -11.01503,-19.28756 0.13811,-7.87209 3.20015,-14.18168 6.3766,-17.22003 3.17646,-3.03835 8.65741,-8.23902 12.38629,-9.06766 3.72888,-0.82864 14.08689,-1.38106 18.92063,-0.69053"
         style="fill:none;fill-rule:evenodd;stroke:#f60000;stroke-width:1px;stroke-linecap:butt;stroke-linejoin:miter;stroke-opacity:1" />
      <path
         inkscape:connector-curvature="0"
         id="path4785"
         d="m 203.90625,615.05752 -9.375,8.20312 c 0,0 -7.61719,-3.71094 -10.54687,-6.05469 -2.92969,-2.34375 -5.66407,-4.88281 -5.66407,-4.88281 0,0 2.92969,-6.83594 3.71094,-10.74219 0.78125,-3.90625 3.32031,-15.625 2.53906,-19.53125 -0.78125,-3.90625 -2.73437,-6.64062 -6.05468,-5.27343 -3.32032,1.36718 -3.51563,6.25 -3.51563,8.39843 0,2.14844 0,5.85938 0,5.85938 0,0 -4.49219,0.19531 -8.00781,7.61719 -3.51563,7.42187 3.125,-5.85938 3.32031,-6.83594 0.19531,-0.97656 -12.5,-19.33594 -13.67187,-19.92188 -1.17188,-0.58593 -2.92969,-0.97656 -3.71094,0.19532 -0.78125,1.17187 0.97656,18.55468 1.5625,21.67968 0.58594,3.125 -18.55469,-7.03125 -19.72656,-7.42187 -1.17188,-0.39063 -4.49219,0.58594 -5.07813,2.14844 -0.58594,1.5625 -0.58594,3.90625 0.58594,4.88281 1.17187,0.97656 11.71875,10.15625 12.5,10.54687 0.78125,0.39063 -14.25781,3.71094 -16.40625,4.49219 -2.14844,0.78125 -4.6875,2.34375 -3.32031,3.51563 1.36718,1.17187 18.16406,4.88281 20.89843,5.07812 2.73438,0.19531 -4.49218,7.42188 -7.42187,10.35156 -2.92969,2.92969 -1.5625,5.27344 -0.39063,5.66407 1.17188,0.39062 4.10157,0.78125 8.78907,-1.5625 4.6875,-2.34375 8.20312,-3.71094 15.03906,-3.32032 6.83594,0.39063 8.98437,-3.125 8.98437,-3.125 0,0 -2.53906,2.34375 -4.49218,3.125 -1.95313,0.78125 1.36718,10.15625 2.14843,11.71875 0.78125,1.5625 3.51563,7.8125 4.10157,8.59375 0.58593,0.78125 3.90625,5.85938 4.6875,6.44532 0.78125,0.58593 2.34375,0.78125 2.92968,-1.17188 0.58594,-1.95312 3.125,-9.57031 4.29688,-12.10937"
         style="fill:none;fill-rule:evenodd;stroke:#f20000;stroke-width:1px;stroke-linecap:butt;stroke-linejoin:miter;stroke-opacity:1" />
      <path
         inkscape:connector-curvature="0"
         id="path4787"
         d="m 272.85156,713.49502 c 0,0 0.78125,-3.71094 5.46875,-5.85938 4.6875,-2.14844 8.00782,-2.14844 11.71875,-2.14844"
         style="fill:none;fill-rule:evenodd;stroke:#f60000;stroke-width:1px;stroke-linecap:butt;stroke-linejoin:miter;stroke-opacity:1" />
      <path
         sodipodi:nodetypes="cssccssscsssssssssssscc"
         inkscape:connector-curvature="0"
         id="path4789"
         d="m 191.83034,695.63236 c 3.93604,3.52172 4.07415,3.79793 1.24296,9.73653 -2.83119,5.93859 -6.00765,7.94114 0.55243,12.22245 6.56007,4.28131 41.08677,25.89502 41.08677,25.89502 0,0 5.73143,-12.63677 6.97439,-13.74163 0,0 -5.59333,9.46032 -7.04345,13.94879 -1.45012,4.48847 -6.97439,23.4091 -7.52682,26.72367 -0.55242,3.31456 -2.41687,13.74162 -2.48592,22.30424 -0.0691,8.56262 0.20716,19.61117 0.20716,19.61117 0,0 -0.13811,1.65728 2.76214,1.65728 2.90024,0 -4.83374,9.80558 -6.62913,24.99733 -1.79539,15.19175 -0.41432,22.3733 -0.13811,23.47815 0.27622,1.10486 3.72889,1.38107 8.83884,1.38107 5.10995,0 99.85121,0.55243 101.09417,-0.1381 1.24296,-0.69054 3.59078,-7.87209 4.41942,-9.11505 0.82864,-1.24296 4.83374,2.76213 3.17646,-0.69054 -1.65729,-3.45267 -5.80049,-8.83883 -8.83884,-9.39126 -3.03835,-0.55243 4.69563,-0.55243 9.25316,10.35801 4.55752,10.91044 -1.65729,8.01019 8.56262,7.87209 10.2199,-0.13811 98.05582,1.51917 98.60825,0.27621 0.55242,-1.24296 3.17645,-13.25825 3.17645,-18.64442 0,-5.38616 -2.0716,-18.64441 -2.0716,-18.64441 0,0 -0.89769,-2.90025 8.35546,-1.38107 1.17391,0.069 4.35037,-0.27621 6.56008,-2.14066 2.2097,-1.86444 6.28385,-8.35546 6.28385,-10.15085 0,-1.79538 -4.83373,-10.01274 -4.76468,-12.22245 0.0691,-2.20971 3.59078,-3.93604 5.38617,-9.25315 1.79538,-5.31711 3.1074,-13.74163 3.03834,-17.1943 -0.0691,-3.45267 -3.45266,-20.16359 -2.69308,-21.88993 0.75959,-1.72633 14.81538,-3.43122 15.30366,-4.94489 0.48828,-1.51367 -1.80664,-13.81836 -2.29492,-15.03907 -0.48829,-1.2207 -5.66407,-14.30664 -6.54297,-15.91796 -0.87891,-1.61133 -7.70873,-13.33315 -8.53737,-14.09273 -0.82864,-0.75959 -7.52682,-9.87464 -8.70073,-10.28896 -1.17391,-0.41432 -17.40145,-3.72888 -21.06128,-4.41942 -3.65983,-0.69053 -14.01784,-2.48592 -15.46796,-2.69308 -1.45013,-0.20716 -5.24806,-1.79539 -1.9335,-2.9693 3.31456,-1.1739 7.1125,-2.83119 10.15085,-4.00509"
         style="fill:none;fill-rule:evenodd;stroke:#00f200;stroke-width:1px;stroke-linecap:butt;stroke-linejoin:miter;stroke-opacity:1" />
      <path
         inkscape:connector-curvature="0"
         id="path4791"
         d="m 413.86719,739.27627 c 0,0 -1.17188,25.78125 0.39062,27.14843 1.5625,1.36719 69.72657,-19.53125 69.72657,-19.53125"
         style="fill:none;fill-rule:evenodd;stroke:#00ea00;stroke-width:1px;stroke-linecap:butt;stroke-linejoin:miter;stroke-opacity:1" />
      <path
         inkscape:connector-curvature="0"
         id="path4793"
         d="m 224.83786,807.98223 c 0,0 -0.27621,4.21226 0,4.76469 0.27621,0.55243 -0.13811,1.17391 7.59587,1.10485 7.73398,-0.069 114.8319,-1.33332 114.8319,-1.33332 0,0 84.96093,-2.53906 86.32812,-1.17187 1.36719,1.36719 5.85938,3.125 5.85938,4.10156 0,0.97656 0.58593,7.22656 3.51562,8.98438 2.92969,1.75781 2.53906,-0.19532 6.44531,-0.39063 3.90625,-0.19531 6.64063,1.17188 9.76563,-0.19531"
         style="fill:none;fill-rule:evenodd;stroke:#00f400;stroke-width:1px;stroke-linecap:butt;stroke-linejoin:miter;stroke-opacity:1" />
      <path
         inkscape:connector-curvature="0"
         id="path4795"
         d="m 436.71875,760.95595 c 0,0 2.53906,13.37891 4.6875,17.48047 2.14844,4.10157 6.9336,12.69532 7.71485,14.0625 0.78125,1.36719 1.17187,7.61719 0.19531,8.00782 -0.97656,0.39062 -6.34766,1.5625 -8.20313,0.0976 -1.85547,-1.46484 1.17188,-20.11719 0.29297,-22.26562 -0.8789,-2.14844 -3.02734,-9.47266 -3.02734,-9.47266"
         style="fill:none;fill-rule:evenodd;stroke:#00f200;stroke-width:1px;stroke-linecap:butt;stroke-linejoin:miter;stroke-opacity:1" />
      <path
         inkscape:connector-curvature="0"
         id="path4797"
         d="m 449.31641,800.89736 c 0,0 -6.54297,-0.58594 -8.4961,-0.19531 -1.95312,0.39062 -4.88281,1.36719 -5.95703,4.0039 -1.07422,2.63672 -0.39062,7.71485 -0.29297,7.61719 0.0977,-0.0976 4.00391,1.66016 4.58985,2.73438 0.58594,1.07422 0.8789,5.66406 1.75781,7.22656"
         style="fill:none;fill-rule:evenodd;stroke:#00ef00;stroke-width:1px;stroke-linecap:butt;stroke-linejoin:miter;stroke-opacity:1" />
      <path
         inkscape:connector-curvature="0"
         id="path4799"
         d="m 239.45313,863.88564 c 0,0 12.10937,0 13.47656,0 1.36719,0 2.14844,7.03125 3.125,12.5 0.97656,5.46875 3.90625,17.57813 4.88281,20.89844 0.97656,3.32031 8.39844,4.6875 14.25781,3.90625 5.85938,-0.78125 12.30469,-1.5625 14.0625,-3.71094 1.75782,-2.14844 2.53907,-33.59375 2.53907,-33.59375 l 12.69531,0"
         style="fill:none;fill-rule:evenodd;stroke:#00f800;stroke-width:1px;stroke-linecap:butt;stroke-linejoin:miter;stroke-opacity:1" />
      <path
         inkscape:connector-curvature="0"
         id="path4801"
         d="m 259.10644,890.13076 c 0,0 2.61231,8.52051 2.61231,10.47363 0,1.95313 0.19531,6.83594 0.39063,9.17969 0.19531,2.34375 3.32031,9.96094 6.25,12.10937 2.92968,2.14844 11.71875,3.90625 14.45312,2.73438 2.73438,-1.17188 5.07813,-0.78125 6.25,-4.10156 1.17188,-3.32032 1.36719,-30.46875 1.36719,-30.46875"
         style="fill:none;fill-rule:evenodd;stroke:#00ec00;stroke-width:1px;stroke-linecap:butt;stroke-linejoin:miter;stroke-opacity:1"
         sodipodi:nodetypes="csssssc" />
      <path
         inkscape:connector-curvature="0"
         id="path4803"
         d="m 261.57427,899.06366 0.41432,10.21991 c 0,0 -2.76214,0.82864 -5.38617,4.1432 -2.62403,3.31456 -0.41432,9.25316 -1.65728,10.77233 -1.24296,1.51918 -10.35801,3.86699 -13.39636,4.69563 -3.03835,0.82864 -11.87718,3.72889 -13.12014,4.69563 -1.24296,0.96675 -5.38617,2.34782 -5.38617,3.86699 0,1.51918 4.14321,6.49102 6.0767,6.49102 1.9335,0 13.94879,-0.55242 15.74418,-1.38107 1.79538,-0.82864 12.42961,-4.1432 13.53446,-4.28131 1.10486,-0.1381 13.81068,-2.0716 16.02039,-2.34781 2.20971,-0.27622 17.81578,-0.96675 19.47306,-0.96675 1.65728,0 1.65728,-5.52427 1.51917,-6.49102 -0.1381,-0.96675 -5.93859,-6.0767 -6.49102,-7.18155 -0.55242,-1.10486 0.96675,-9.39126 0.96675,-11.87719"
         style="fill:none;fill-rule:evenodd;stroke:#00f400;stroke-width:1px;stroke-linecap:butt;stroke-linejoin:miter;stroke-opacity:1" />
      <path
         inkscape:connector-curvature="0"
         id="path4805"
         d="m 426.36719,863.49502 c -13.28125,-0.19532 -13.28125,-0.97657 -13.47656,4.29687 -0.19532,5.27344 -0.78125,14.45313 -0.78125,15.23438 0,0.78125 1.36718,11.52343 0.19531,13.28125 -1.17188,1.75781 -10.54688,2.34375 -12.30469,2.53906 -1.75781,0.19531 -16.01562,-1.75781 -17.57812,-2.53906 -1.5625,-0.78125 -3.51563,-13.47657 -4.29688,-16.40625 -0.78125,-2.92969 -2.73437,-16.79688 -4.49219,-16.79688 -1.75781,0 -10.9375,-0.19531 -10.9375,-0.19531"
         style="fill:none;fill-rule:evenodd;stroke:#00f200;stroke-width:1px;stroke-linecap:butt;stroke-linejoin:miter;stroke-opacity:1" />
      <path
         inkscape:connector-curvature="0"
         id="path4807"
         d="m 412.68152,889.44297 c 0,0 0.0138,9.98955 -0.57214,12.91923 -0.58594,2.92969 0,10.35157 -0.58594,11.13282 -0.58594,0.78125 -3.51563,7.22656 -4.88281,8.39843 -1.36719,1.17188 -15.42969,-0.19531 -16.79688,-1.36718 -1.36719,-1.17188 -2.73437,-9.57032 -3.32031,-10.74219 -0.58594,-1.17188 -5.66406,-15.625 -6.44531,-19.14063"
         style="fill:none;fill-rule:evenodd;stroke:#00ee00;stroke-width:1px;stroke-linecap:butt;stroke-linejoin:miter;stroke-opacity:1"
         sodipodi:nodetypes="csssssc" />
      <path
         inkscape:connector-curvature="0"
         id="path4809"
         d="m 411.71875,907.44033 c 0,0 0,4.6875 0,5.66406 0,0.97656 3.71094,-1.36719 4.6875,-0.97656 0.97656,0.39062 2.34375,8.78906 3.32031,10.15625 0.97657,1.36719 17.96875,5.46875 20.50782,6.44531 2.53906,0.97657 8.98437,3.51563 9.375,4.88282 0.39062,1.36718 -3.51563,5.07812 -8.20313,5.46875 -4.6875,0.39062 -15.03906,-0.39063 -17.77344,-1.36719 -2.73437,-0.97656 -8.00781,-2.92969 -10.9375,-2.53906 -2.92968,0.39062 -12.89062,1.75781 -15.82031,1.75781 -2.92969,0 -11.52344,0.19531 -13.47656,-0.58594 -1.95313,-0.78125 -5.46875,-2.53906 -5.46875,-4.88281 0,-2.34375 9.375,-10.54688 11.32812,-12.5 -0.97656,-0.97657 -2.73437,-9.375 -2.73437,-9.375"
         style="fill:none;fill-rule:evenodd;stroke:#00fb00;stroke-width:1px;stroke-linecap:butt;stroke-linejoin:miter;stroke-opacity:1" />
    </g>
  </g>
  <WCB
     pausedposy="0"
     pausedposx="0"
     lastknownposy="0"
     lastknownposx="0"
     lastpathnc="0"
     lastpath="0"
     node="0"
     layer="0" />
</svg>
