<?xml version="1.0" encoding="UTF-8" standalone="no"?>
<!-- Created with Inkscape (http://www.inkscape.org/) -->

<svg
   xmlns:osb="http://www.openswatchbook.org/uri/2009/osb"
   xmlns:dc="http://purl.org/dc/elements/1.1/"
   xmlns:cc="http://creativecommons.org/ns#"
   xmlns:rdf="http://www.w3.org/1999/02/22-rdf-syntax-ns#"
   xmlns:svg="http://www.w3.org/2000/svg"
   xmlns="http://www.w3.org/2000/svg"
   xmlns:sodipodi="http://sodipodi.sourceforge.net/DTD/sodipodi-0.dtd"
   xmlns:inkscape="http://www.inkscape.org/namespaces/inkscape"
   width="180mm"
   height="180mm"
   viewBox="0 0 637.79528 637.79527"
   id="svg3409"
   version="1.1"
   inkscape:version="0.91 r"
   sodipodi:docname="3.svg">
  <sodipodi:namedview
     id="base"
     pagecolor="#ffffff"
     bordercolor="#666666"
     borderopacity="1.0"
     inkscape:pageopacity="0.0"
     inkscape:pageshadow="2"
     inkscape:zoom="0.7071068"
     inkscape:cx="184.42409"
     inkscape:cy="229.56656"
     inkscape:document-units="mm"
     inkscape:current-layer="layer1"
     showgrid="false"
     inkscape:window-width="967"
     inkscape:window-height="758"
     inkscape:window-x="851"
     inkscape:window-y="91"
     inkscape:window-maximized="0"
     units="mm" />
  <defs
     id="defs3411">
    <linearGradient
       id="linearGradient4148"
       osb:paint="solid">
      <stop
         style="stop-color:#550044;stop-opacity:1;"
         offset="0"
         id="stop4150" />
    </linearGradient>
  </defs>
  <metadata
     id="metadata3414">
    <rdf:RDF>
      <cc:Work
         rdf:about="">
        <dc:format>image/svg+xml</dc:format>
        <dc:type
           rdf:resource="http://purl.org/dc/dcmitype/StillImage" />
        <dc:title />
      </cc:Work>
    </rdf:RDF>
  </metadata>
  <g
     transform="translate(0,-414.56693)"
     id="layer1"
     inkscape:groupmode="layer"
     inkscape:label="Layer 1">
    <g
       inkscape:label="Layer 1"
       id="layer1-5"
       transform="matrix(1.4110006,0,0,1.1629994,-143.63855,-102.44709)">
      <path
         sodipodi:nodetypes="csccc"
         inkscape:connector-curvature="0"
         id="path4189"
         d="m 428.26094,586.42472 c 4.90424,13.15323 15.09324,10.13519 15.09324,10.13519 2.19845,0 10.65405,-5.40544 7.77915,-15.49558 -2.87491,-10.09015 -15.08221,-8.12378 -15.08221,-8.12378 0,0 0.66763,-3.59397 0.69888,-4.14085"
         style="fill:none;fill-rule:evenodd;stroke:#050000;stroke-width:0.97752929px;stroke-linecap:butt;stroke-linejoin:miter;stroke-opacity:1" />
      <path
         sodipodi:nodetypes="ccsscccc"
         inkscape:connector-curvature="0"
         id="path4191"
         d="m 399.20597,539.97495 c -0.92807,0.48614 -3.40392,1.91273 -3.40392,1.91273 l -1.32121,-2.58033 c 0,0 -5.32703,-8.24329 -14.28996,-7.02706 -8.96293,1.21621 -14.94989,12.23655 -11.82133,19.57892 3.87857,6.59239 4.29585,7.08789 13.17422,10.06088 l 3.14008,0.47339 c 0,0 -0.0398,2.02085 -0.0398,3.12571"
         style="fill:none;fill-rule:evenodd;stroke:#020000;stroke-width:0.97752929px;stroke-linecap:butt;stroke-linejoin:miter;stroke-opacity:1" />
      <path
         inkscape:connector-curvature="0"
         id="path4193"
         d="m 413.5625,537.4872 c -1.28125,-0.0469 -3.47007,-0.0938 -3.47007,-0.0938 0,0 -6.90233,-48.94213 -36.66603,-50.38357 -29.76369,-1.44145 -54.64161,65.92805 -42.56401,84.65693 12.07759,18.72887 34.22789,9.09598 54.6761,1.06932 0,0 0.95837,3.13689 1.36998,4.03778"
         style="fill:none;fill-rule:evenodd;stroke:#050000;stroke-width:0.97752929px;stroke-linecap:butt;stroke-linejoin:miter;stroke-opacity:1"
         sodipodi:nodetypes="ccsscc" />
      <path
         inkscape:connector-curvature="0"
         id="path4195"
         d="m 432.04687,549.53408 c 0.48438,0.75 1.85696,3.19582 1.85696,3.19582 0,0 31.48626,-16.48242 50.14077,6.06867 18.6545,22.5511 -3.10909,49.56144 -17.09997,61.79254 -13.99088,12.23111 -46.50106,13.68909 -54.51293,-27.59088 0,0 -2.32233,0.003 -3.44733,-0.0599"
         style="fill:none;fill-rule:evenodd;stroke:#090000;stroke-width:0.97752929px;stroke-linecap:butt;stroke-linejoin:miter;stroke-opacity:1"
         sodipodi:nodetypes="ccsscc" />
      <path
         sodipodi:nodetypes="cccc"
         inkscape:connector-curvature="0"
         id="path4197"
         d="m 478.40625,553.45595 c -1.04687,-0.73437 -0.67835,-1.14553 -0.67835,-1.14553 6.33775,-35.41923 -13.29445,-54.66736 -13.29445,-54.66736 0,0 -28.33445,-6.2772 -59.18613,19.45907 0,0 -0.53638,0.12726 -0.19263,1.10382"
         style="fill:none;fill-rule:evenodd;stroke:#080000;stroke-width:0.97752929px;stroke-linecap:butt;stroke-linejoin:miter;stroke-opacity:1" />
      <path
         sodipodi:nodetypes="ccccccccccccccscc"
         inkscape:connector-curvature="0"
         id="path4199"
         d="m 340.59546,513.70121 c 0,0 -28.74902,-2.16217 -67.13743,4.8649 0,0 -13.19073,-4.68472 -18.26408,-9.90997 0,0 -20.63166,-13.69377 -39.23396,-12.25232 0,0 -20.63166,4.68471 -26.55058,30.81098 0,0 -5.58069,21.26137 6.76448,54.41471 0,0 -14.71274,27.74789 -18.94053,52.07234 0,0 -8.62471,43.9642 8.45559,72.61301 0,0 23.33745,57.11742 118.54745,72.61299 0,0 4.90424,-22.70282 21.98455,-23.96409 0,0 10.48494,-4.68471 28.91813,12.07214 0,0 21.13899,-3.7838 45.15288,1.98199 0,0 20.12431,-18.01811 34.32971,-6.12616 0,0 31.96215,-19.0992 41.60153,-39.82003 0,0 13.02359,-27.91928 13.67853,-57.8308 0.025,-1.14118 0.032,-2.28525 0.0195,-3.43079 0.17282,0.0998 -1.86024,-38.91913 -9.80849,-54.77506"
         style="fill:none;fill-rule:evenodd;stroke:#080000;stroke-width:0.97752929px;stroke-linecap:butt;stroke-linejoin:miter;stroke-opacity:1" />
      <path
         sodipodi:nodetypes="cc"
         inkscape:connector-curvature="0"
         id="path4201"
         d="m 523.05047,663.08161 c -14.40219,-2.41362 -31.99506,-1.30692 -33.11284,-1.26552 0,0 -0.0894,-2.82623 -0.17779,-3.7985 0,0 -0.74479,-9.62519 -0.92156,-11.1278"
         style="fill:none;fill-rule:evenodd;stroke:#050000;stroke-width:0.97752929px;stroke-linecap:butt;stroke-linejoin:miter;stroke-opacity:1" />
      <path
         inkscape:connector-curvature="0"
         id="path4203"
         d="m 521.8221,705.38932 c -6.76447,-2.70272 -34.74059,-5.23693 -37.20919,-5.60955 0,0 0.84687,-3.64157 1.01874,-4.43845 0.17188,-0.79687 0.7649,-3.30718 0.83119,-3.60549 0.0663,-0.29831 0.49694,-2.16013 0.60631,-2.70701"
         style="fill:none;fill-rule:evenodd;stroke:#0a0000;stroke-width:0.97752929px;stroke-linecap:butt;stroke-linejoin:miter;stroke-opacity:1"
         sodipodi:nodetypes="cc" />
      <path
         inkscape:connector-curvature="0"
         id="path4205"
         d="m 507.78581,754.21841 -37.86268,-21.13637 c 0,0 1.09838,-1.30437 1.54032,-2.05567 0,0 1.68383,-2.37255 1.90258,-2.73192 0.21875,-0.35938 1.5,-2.51563 1.65625,-2.82813 0.15625,-0.3125 0.79687,-1.51562 0.90625,-1.75"
         style="fill:none;fill-rule:evenodd;stroke:#000000;stroke-width:0.97752929px;stroke-linecap:butt;stroke-linejoin:miter;stroke-opacity:1"
         sodipodi:nodetypes="ccc" />
      <path
         inkscape:connector-curvature="0"
         id="path4207"
         d="m 161.11375,754.25163 c 2.53667,-3.7838 39.68934,-24.43196 40.54551,-24.90356 0,0 1.07441,1.12546 1.49629,1.55514 0.42187,0.42969 1.3125,1.36719 1.55469,1.60157 0.24218,0.23437 1.35937,1.35156 1.63281,1.58593 0.27344,0.23438 1.125,1.04688 1.32031,1.22657"
         style="fill:none;fill-rule:evenodd;stroke:#060000;stroke-width:0.97752929px;stroke-linecap:butt;stroke-linejoin:miter;stroke-opacity:1"
         sodipodi:nodetypes="cc" />
      <path
         inkscape:connector-curvature="0"
         id="path4209"
         d="m 153.15815,707.01095 28.24169,-7.74779 c 0,0 0.3708,-0.98468 2.22695,3.21377 0,0 2.16111,4.17689 2.50486,4.73939 0.34375,0.5625 2.8125,5.21875 3.3125,6.03125 0.5,0.8125 3.34375,5.125 3.65625,5.5"
         style="fill:none;fill-rule:evenodd;stroke:#0a0000;stroke-width:0.97752929px;stroke-linecap:butt;stroke-linejoin:miter;stroke-opacity:1"
         sodipodi:nodetypes="ccc" />
      <path
         inkscape:connector-curvature="0"
         id="path4211"
         d="m 130.83538,665.92965 c 17.75675,-2.8829 43.79998,-2.8829 43.79998,-2.8829 0,0 0.3941,0.12325 0.3499,-3.45647 0,0 -0.01,-2.81146 0.0214,-3.56146 0.0312,-0.75 0.1875,-4.40625 0.21875,-4.90625 0.0312,-0.5 0.15625,-3 0.21875,-3.53125"
         style="fill:none;fill-rule:evenodd;stroke:#0b0000;stroke-width:0.97752929px;stroke-linecap:butt;stroke-linejoin:miter;stroke-opacity:1"
         sodipodi:nodetypes="ccc" />
      <path
         sodipodi:nodetypes="csccccccccccc"
         inkscape:connector-curvature="0"
         id="path4213"
         d="m 434.05302,762.68692 c 16.40386,13.87395 12.00694,27.20736 12.00694,27.20736 -4.56602,10.4505 -10.99227,23.06318 -10.99227,23.06318 l 0.33822,17.83793 c -0.50733,12.25232 -9.30115,25.58573 -9.30115,25.58573 -9.63938,13.3334 -28.57991,16.03612 -28.57991,16.03612 -22.49188,3.96398 -45.66021,-1.80181 -45.66021,-1.80181 -18.60231,-5.94598 -22.32277,-10.81087 -22.32277,-10.81087 -9.97761,-12.61268 -9.80849,-20.00011 -9.80849,-20.00011 3.38223,-3.78381 5.07335,-18.55865 5.07335,-18.55865 -0.50734,-7.38743 -10.65405,-13.87395 -10.65405,-13.87395 -6.54589,-8.15463 -8.39508,-16.71234 -9.32058,-22.33703 -0.62864,-3.82063 -0.54564,-6.26759 -0.54564,-6.26759 0,0 0.0788,-1.64634 0.87431,-3.32572"
         style="fill:none;fill-rule:evenodd;stroke:#0b0000;stroke-width:0.97752929px;stroke-linecap:butt;stroke-linejoin:miter;stroke-opacity:1" />
      <path
         inkscape:connector-curvature="0"
         id="path4215"
         d="m 318.30648,786.47543 6.81606,-0.12741 c 0,0 0.95665,1.40149 2.03287,2.03852 1.07622,0.63704 7.41397,-7.38962 7.41397,-7.38962 0,0 1.91328,-9.17333 -2.51119,-12.1037 -4.42447,-2.93036 -15.78458,10.95702 -15.42584,12.2311 0.35874,1.27408 -0.95664,3.94963 1.67413,5.35111 z"
         style="fill:none;fill-rule:evenodd;stroke:#080000;stroke-width:0.97752929px;stroke-linecap:butt;stroke-linejoin:miter;stroke-opacity:1" />
      <path
         sodipodi:nodetypes="csssccc"
         inkscape:connector-curvature="0"
         id="path4217"
         d="m 422.78964,795.33024 c 0,0 1.82119,-2.76187 2.78025,-2.86667 1.1659,-0.12741 4.18531,-0.25482 7.17481,-0.25482 2.9895,0 -0.47832,-7.38961 -1.07623,-8.02666 -0.59789,-0.63703 -4.7832,-8.28147 -14.58877,-8.66369 0,0 -3.82657,2.03852 -2.51118,10.70222 0,0 2.00296,4.4274 8.22112,9.10962 z"
         style="fill:none;fill-rule:evenodd;stroke:#050000;stroke-width:0.97752929px;stroke-linecap:butt;stroke-linejoin:miter;stroke-opacity:1" />
      <path
         sodipodi:nodetypes="cccccccccc"
         inkscape:connector-curvature="0"
         id="path4278"
         d="m 313.79521,933.81686 c -0.0663,-1.5026 -0.62711,-1.38028 -0.62711,-1.38028 -14.94753,-10.70222 -13.74101,-23.64147 -13.74101,-23.64147 1.07622,-15.41628 16.02621,-27.85311 16.02621,-27.85311 10.50645,-9.16619 26.06278,-14.03662 26.06278,-14.03662 0,0 0.0994,-0.01 0.93905,0.3661 m -1.02199,-0.44194 c 0.62973,0.28727 0.71023,0.38975 0.71023,0.38975 0,0 -10.01549,23.60536 -10.85256,35.96387 0,0 -0.6732,0.18049 -1.89959,0.73844 0,0 -0.96763,0.44023 -1.38747,0.66672 -0.41985,0.2265 -1.06066,0.56348 -1.3424,0.74025"
         style="fill:none;fill-rule:evenodd;stroke:#0a0000;stroke-width:0.97752929px;stroke-linecap:butt;stroke-linejoin:miter;stroke-opacity:1" />
      <path
         inkscape:connector-curvature="0"
         id="path4280"
         d="m 361.91407,945.06533 c 0.35156,-0.92968 0.64967,-1.69441 0.64967,-1.69441 l 20.44772,0.008 c 0,0 0.12913,0.35848 0.54323,1.73348"
         style="fill:none;fill-rule:evenodd;stroke:#0a0000;stroke-width:0.97752929px;stroke-linecap:butt;stroke-linejoin:miter;stroke-opacity:1"
         sodipodi:nodetypes="cccc" />
      <path
         sodipodi:nodetypes="cccc"
         inkscape:connector-curvature="0"
         id="path4282"
         d="m 401.78028,871.49755 c 0.96122,-0.26517 1.54056,-0.35772 1.54056,-0.35772 0,0 8.49733,17.38885 8.49733,31.53107 0,0 0.005,0.20451 0.97751,0.40339"
         style="fill:none;fill-rule:evenodd;stroke:#020000;stroke-width:0.97752929px;stroke-linecap:butt;stroke-linejoin:miter;stroke-opacity:1" />
      <path
         sodipodi:nodetypes="ccccccccc"
         inkscape:connector-curvature="0"
         id="path4284"
         d="m 435.30469,832.29189 c 0.0781,-0.96875 0.191,-2.09832 0.191,-2.09832 0,0 7.41333,-3.45743 14.46855,-3.71225 0,0 20.10962,3.0528 33.97679,18.00784 0,0 12.6834,14.59468 12.17606,41.44166 0,0 -0.33823,30.99117 -15.89652,51.53181 0,0 -1.35289,8.28833 -28.57991,21.62174 0,0 -17.826,4.40438 -29.66383,-1.90196 0,0 0.4187,-0.49828 1.6687,-1.81078"
         style="fill:none;fill-rule:evenodd;stroke:#060000;stroke-width:0.97752929px;stroke-linecap:butt;stroke-linejoin:miter;stroke-opacity:1" />
      <path
         inkscape:connector-curvature="0"
         id="path4286"
         d="m 322.55129,848.981 c 0.0442,0.0939 0.45299,0.91151 0.60767,1.18772 0.15468,0.27621 0.44332,0.77571 0.44332,0.77571 -0.84556,15.3154 -16.89052,32.1035 -16.89052,32.1035 -5.7498,5.76579 -22.96395,3.69705 -22.96395,3.69705 -4.30489,-33.89034 -28.93841,-48.92441 -28.93841,-48.92441 -10.76221,-8.6637 -28.22092,-9.93777 -28.22092,-9.93777 l -5.26153,-23.69775 c -2.3916,-28.28443 14.11046,-35.92887 14.11046,-35.92887 7.65313,-3.05777 23.43772,-1.01925 23.43772,-1.01925 0,0 16.55093,7.70231 18.58027,14.36901 0,0 10.99227,6.48652 27.05791,26.66681 0,0 8.99417,-1.12796 10.34707,-0.40724 0,0 1.3004,0.97241 1.74048,1.34239 0.44141,0.3711 0.92969,0.72265 1.07813,0.85156"
         style="fill:none;fill-rule:evenodd;stroke:#090000;stroke-width:0.97752929px;stroke-linecap:butt;stroke-linejoin:miter;stroke-opacity:1"
         sodipodi:nodetypes="cccccccccccscsc" />
      <path
         sodipodi:nodetypes="ccccccc"
         inkscape:connector-curvature="0"
         id="path4288"
         d="m 226.52598,827.8203 c -0.18519,0.18519 -14.63681,-0.2558 -21.40485,5.47852 0,0 -19.73073,20.38516 -21.76359,43.31849 0,0 -2.08995,28.85655 5.08487,40.96024 0,0 9.20767,23.44295 23.91603,33.38071 0,0 13.15382,10.82962 27.86218,10.70221 0,0 18.77409,-0.50962 28.3405,-14.1422"
         style="fill:none;fill-rule:evenodd;stroke:#040000;stroke-width:0.97752929px;stroke-linecap:butt;stroke-linejoin:miter;stroke-opacity:1" />
      <path
         inkscape:connector-curvature="0"
         id="path4292"
         d="m 283.62823,886.61757 c 0,0 3.22866,27.01036 -5.38111,45.48441 l -9.686,15.41629"
         style="fill:none;fill-rule:evenodd;stroke:#0d0000;stroke-width:0.97752929px;stroke-linecap:butt;stroke-linejoin:miter;stroke-opacity:1" />
      <path
         inkscape:connector-curvature="0"
         id="path4294"
         d="m 276.34617,935.20345 c 1.03856,-1.94454 1.78136,-2.71924 1.78136,-2.71924 l 34.67826,0.38222 c 0,0 0.9618,0.18256 0.97285,0.73498"
         style="fill:none;fill-rule:evenodd;stroke:#0c0000;stroke-width:0.97752929px;stroke-linecap:butt;stroke-linejoin:miter;stroke-opacity:1"
         sodipodi:nodetypes="cccc" />
      <path
         inkscape:connector-curvature="0"
         id="path4168"
         d="m 374.14788,825.99965 c 0,0 1.67938,0 2.51906,0.53033 0.83969,0.53033 2.25391,1.85615 2.74004,2.56326 0.48614,0.70711 0.61872,0.79549 0.92808,1.54679 0.30936,0.75131 0.35355,1.98874 -0.0884,2.47488 -0.44194,0.48613 -2.69584,1.81196 -2.91681,2.51907 -0.22097,0.7071 -0.70711,3.66811 -0.48614,4.33103 0.22097,0.66291 1.41421,1.98873 1.81196,2.12132 0.39775,0.13258 1.59099,0.44194 2.87262,0.39774 1.28163,-0.0442 2.91682,-0.57452 3.57973,-0.88388 0.66291,-0.30936 1.90035,-1.10485 2.43068,-1.37002 0.53033,-0.26516 1.45841,-0.57452 1.98874,-0.39775 0.53033,0.17678 1.5026,0.61872 1.63518,1.50261 0.13259,0.88388 0.13259,1.37001 -0.13258,1.67937 -0.26516,0.30936 -3.40295,2.43068 -3.84489,2.78424 -0.44194,0.35355 -4.24264,1.72357 -4.72878,1.76776 -0.48613,0.0442 -3.35876,0.61872 -4.94975,-0.22097 -1.59099,-0.83969 -2.78423,-2.20971 -3.04939,-2.51907 -0.26517,-0.30935 -0.48614,-0.7071 -1.67938,-0.79549 -1.19325,-0.0884 -1.45841,0.66291 -2.56326,1.10485 -1.10486,0.44195 -4.86136,1.19325 -6.27558,0.88389 -1.41421,-0.30936 -3.88908,-1.10486 -4.72877,-2.38649 -0.83969,-1.28163 -1.63519,-1.94454 -1.63519,-2.69584 0,-0.7513 1.23744,-1.81196 2.51907,-1.94455 1.28163,-0.13258 0.53033,1.14905 3.57973,1.67938 3.0494,0.53033 2.60745,0.7955 4.94974,0.22097 2.3423,-0.57452 1.98874,-1.37002 1.94455,-2.69584 -0.0442,-1.32583 0.30936,-2.69585 0.0442,-2.96101 -0.26516,-0.26517 -1.98874,-1.28163 -2.2539,-1.85616 -0.26517,-0.57452 -0.7513,-1.28163 -0.61872,-2.74004 0.13258,-1.4584 -0.17678,-1.54679 2.65165,-3.57972 2.82843,-2.03294 3.44715,-1.17115 5.63476,-0.8176"
         style="fill:none;fill-rule:evenodd;stroke:#000000;stroke-width:1px;stroke-linecap:butt;stroke-linejoin:miter;stroke-opacity:1" />
    </g>
    <path
       style="fill:none;fill-rule:evenodd;stroke:#000e00;stroke-width:1.12159348px;stroke-linecap:butt;stroke-linejoin:miter;stroke-opacity:1"
       d="m 399.03113,556.18635 c -0.10354,-38.51132 48.17946,-38.23015 60.19703,-27.03381 27.60235,25.71612 7.57611,51.06977 -9.84289,55.96469 -30.61144,8.60216 -52.91904,-10.76695 -50.0433,-35.28621 1.18894,-10.13725 6.54713,-16.36256 12.04459,-19.8485"
       id="path3376"
       inkscape:connector-curvature="0"
       sodipodi:nodetypes="csssc" />
    <path
       style="fill:none;fill-rule:evenodd;stroke:#002100;stroke-width:0.55276644px;stroke-linecap:butt;stroke-linejoin:miter;stroke-opacity:1"
       d="m 191.38939,690.30101 c -0.0413,-23.40774 19.19809,-23.26409 24.0005,-16.45881 11.03028,15.63065 3.02753,31.04097 -3.93335,34.01619 -12.23277,5.22853 -21.14723,-6.54429 -19.99802,-21.44749 0.47512,-6.16158 2.61631,-9.94542 4.81319,-12.06422"
       id="path3376-2"
       inkscape:connector-curvature="0"
       sodipodi:nodetypes="csssc" />
    <path
       style="fill:none;fill-rule:evenodd;stroke:#000e00;stroke-width:0.55276644px;stroke-linecap:butt;stroke-linejoin:miter;stroke-opacity:1"
       d="m 421.6841,696.5044 c -0.0413,-23.40775 19.2091,-23.2732 24.01151,-16.46789 11.03029,15.63063 3.02753,31.04096 -3.93335,34.01618 -12.23277,5.22852 -21.14722,-6.5443 -19.99801,-21.4475 0.47511,-6.16156 2.61631,-9.9454 4.81319,-12.06421"
       id="path3376-2-9"
       inkscape:connector-curvature="0"
       sodipodi:nodetypes="csssc" />
    <path
       style="fill:none;fill-rule:evenodd;stroke:#000d00;stroke-width:0.59733456px;stroke-linecap:butt;stroke-linejoin:miter;stroke-opacity:1"
       d="m 299.14944,723.61481 c 3.17968,-17.23384 33.43849,-15.37084 40.03248,-9.92916 15.14533,12.49863 0.44906,23.12141 -10.88831,24.68469 -19.92392,2.74726 -32.28316,-6.72119 -28.41375,-17.58773 1.5997,-4.49269 5.4848,-7.08511 9.22647,-8.44694"
       id="path3376-2-6"
       inkscape:connector-curvature="0"
       sodipodi:nodetypes="csssc" />
    <path
       style="fill:none;fill-rule:evenodd;stroke:#000a00;stroke-width:1.15011585px;stroke-linecap:butt;stroke-linejoin:miter;stroke-opacity:1"
       d="m 298.99902,983.06652 c -0.0998,-41.96157 46.49547,-41.65522 58.09299,-29.4558 26.63759,28.02008 7.31136,55.64508 -9.49883,60.97868 -29.54147,9.3727 -51.06937,-11.7316 -48.29413,-38.44756 1.14737,-11.04547 6.31824,-17.82853 11.62359,-21.62681"
       id="path3376-2-4"
       inkscape:connector-curvature="0"
       sodipodi:nodetypes="csssc" />
    <path
       style="fill:none;fill-rule:evenodd;stroke:#001500;stroke-width:1.15011585px;stroke-linecap:butt;stroke-linejoin:miter;stroke-opacity:1"
       d="m 394.53192,983.6936 c -0.0998,-41.96159 46.49546,-41.65525 58.09298,-29.4558 26.63759,28.0201 7.31135,55.6451 -9.49882,60.9786 -29.54149,9.3729 -51.06937,-11.7315 -48.29414,-38.44747 1.14737,-11.04546 6.31824,-17.82853 11.6236,-21.62681"
       id="path3376-2-4-8"
       inkscape:connector-curvature="0"
       sodipodi:nodetypes="csssc" />
    <path
       style="fill:none;fill-rule:evenodd;stroke:#001200;stroke-width:0.23132002px;stroke-linecap:butt;stroke-linejoin:miter;stroke-opacity:1"
       d="m 342.51815,853.80867 c -0.0172,-9.85423 8.00908,-9.7823 10.00681,-6.91738 4.58844,6.58023 1.25942,13.0677 -1.63623,14.3202 -5.08866,2.20111 -8.79694,-2.75502 -8.3189,-9.02899 0.19765,-2.59391 1.08835,-4.18686 2.00223,-5.07884"
       id="path3376-2-4-5"
       inkscape:connector-curvature="0"
       sodipodi:nodetypes="csssc" />
    <path
       style="fill:none;fill-rule:evenodd;stroke:#001200;stroke-width:0.23132002px;stroke-linecap:butt;stroke-linejoin:miter;stroke-opacity:1"
       d="m 415.78853,856.78603 c -0.0172,-9.85425 8.00907,-9.78232 10.00679,-6.91739 4.58845,6.58022 1.25944,13.06772 -1.63622,14.32019 -5.08866,2.20112 -8.79694,-2.75501 -8.3189,-9.02898 0.19764,-2.59391 1.08835,-4.18685 2.00224,-5.07884"
       id="path3376-2-4-5-2"
       inkscape:connector-curvature="0"
       sodipodi:nodetypes="csssc" />
  </g>
  <WCB
     pausedposy="0"
     pausedposx="0"
     lastknownposy="0"
     lastknownposx="0"
     lastpathnc="0"
     lastpath="0"
     node="0"
     layer="0" />
</svg>
