<?xml version="1.0" encoding="UTF-8" standalone="no"?>
<!-- Created with Inkscape (http://www.inkscape.org/) -->

<svg
   xmlns:osb="http://www.openswatchbook.org/uri/2009/osb"
   xmlns:dc="http://purl.org/dc/elements/1.1/"
   xmlns:cc="http://creativecommons.org/ns#"
   xmlns:rdf="http://www.w3.org/1999/02/22-rdf-syntax-ns#"
   xmlns:svg="http://www.w3.org/2000/svg"
   xmlns="http://www.w3.org/2000/svg"
   xmlns:sodipodi="http://sodipodi.sourceforge.net/DTD/sodipodi-0.dtd"
   xmlns:inkscape="http://www.inkscape.org/namespaces/inkscape"
   width="180mm"
   height="180mm"
   viewBox="0 0 637.79528 637.79527"
   id="svg3409"
   version="1.1"
   inkscape:version="0.91 r"
   sodipodi:docname="4.svg">
  <sodipodi:namedview
     id="base"
     pagecolor="#ffffff"
     bordercolor="#666666"
     borderopacity="1.0"
     inkscape:pageopacity="0.0"
     inkscape:pageshadow="2"
     inkscape:zoom="0.45254835"
     inkscape:cx="474.97881"
     inkscape:cy="231.4217"
     inkscape:document-units="mm"
     inkscape:current-layer="layer1"
     showgrid="false"
     inkscape:window-width="852"
     inkscape:window-height="653"
     inkscape:window-x="853"
     inkscape:window-y="106"
     inkscape:window-maximized="0"
     units="mm" />
  <defs
     id="defs3411">
    <linearGradient
       id="linearGradient4148"
       osb:paint="solid">
      <stop
         style="stop-color:#550044;stop-opacity:1;"
         offset="0"
         id="stop4150" />
    </linearGradient>
  </defs>
  <metadata
     id="metadata3414">
    <rdf:RDF>
      <cc:Work
         rdf:about="">
        <dc:format>image/svg+xml</dc:format>
        <dc:type
           rdf:resource="http://purl.org/dc/dcmitype/StillImage" />
        <dc:title />
      </cc:Work>
    </rdf:RDF>
  </metadata>
  <g
     transform="translate(0,-414.56693)"
     id="layer1"
     inkscape:groupmode="layer"
     inkscape:label="Layer 1">
    <g
       id="g4335"
       transform="matrix(1.0557354,0,0,0.94404977,-2.0109439,40.581778)">
      <path
         inkscape:connector-curvature="0"
         id="path4167"
         d="m 145.3125,550.99502 c 0,0 -1.95312,-12.89063 -6.44531,-17.77344 -4.49219,-4.88281 -14.25781,-17.1875 -19.53125,-21.09375 -5.27344,-3.90625 -20.507815,-12.89062 -24.609377,-15.23437 -4.101563,-2.34375 -19.53125,-8.00782 -21.484375,-8.20313 -1.953125,-0.19531 -13.867188,-3.125 -16.796875,-3.125 -2.929688,0 -7.03125,-1.17187 -5.664063,-8.78906 1.367188,-7.61719 23.632813,-10.15625 32.421875,-11.13281 8.789063,-0.97657 28.125005,-2.14844 42.382815,0.78125 14.25781,2.92968 30.46875,7.8125 43.35937,14.84375 12.89063,7.03125 22.65625,14.0625 23.82813,13.86718 1.17187,-0.19531 1.36719,0.97657 8.98437,-2.73437 7.61719,-3.71094 6.44532,-3.125 12.10938,-4.49219"
         style="fill:none;fill-rule:evenodd;stroke:#00f800;stroke-width:1px;stroke-linecap:butt;stroke-linejoin:miter;stroke-opacity:1" />
      <path
         inkscape:connector-curvature="0"
         id="path4169"
         d="m 95.3125,464.66689 c 0,0 -11.71875,0.19532 -12.5,1.17188 -0.78125,0.97656 -1.757812,7.8125 -2.929687,15.82031 -1.171875,8.00781 2.334663,7.98718 5.078125,10.74219 2.743462,2.75501 8.080789,3.41073 10.359776,4.87354"
         style="fill:none;fill-rule:evenodd;stroke:#00fc00;stroke-width:1px;stroke-linecap:butt;stroke-linejoin:miter;stroke-opacity:1"
         sodipodi:nodetypes="cczzc" />
      <path
         inkscape:connector-curvature="0"
         id="path4171"
         d="m 113.08594,508.02627 c -4.6875,-2.92969 -3.41004,-8.20817 -3.125,-12.5 0.36343,-5.47212 3.51414,-10.40986 6.05469,-15.23438 2.34483,-4.45285 6.44531,-10.9375 8.39843,-12.5 1.95313,-1.5625 9.00641,0.7095 13.42584,1.61072 3.00005,0.61178 6.40782,1.76106 8.82924,2.5656"
         style="fill:none;fill-rule:evenodd;stroke:#00f600;stroke-width:1px;stroke-linecap:butt;stroke-linejoin:miter;stroke-opacity:1"
         sodipodi:nodetypes="caasac" />
      <path
         inkscape:connector-curvature="0"
         id="path4173"
         d="m 134.76563,528.53408 c -1.75782,-2.34375 -1.5625,-5.46875 1.36718,-10.54688 2.92969,-5.07812 8.98438,-12.89062 10.9375,-15.62499 1.95313,-2.73438 8.98438,-8.98438 10.74219,-10.9375 1.75781,-1.95313 6.64063,-7.8125 8.59375,-9.17969 1.95313,-1.36719 5.34466,0.21942 9.44622,2.95379 0,0 7.35168,4.46939 8.63361,5.23737"
         style="fill:none;fill-rule:evenodd;stroke:#00f800;stroke-width:1px;stroke-linecap:butt;stroke-linejoin:miter;stroke-opacity:1"
         sodipodi:nodetypes="cssssc" />
      <path
         inkscape:connector-curvature="0"
         id="path4175"
         d="m 440.03906,475.99502 c 0,0 8.39844,4.6875 8.78907,6.64062 0.39062,1.95313 -1.95313,-2.14843 10.74218,-7.61718 12.69532,-5.46875 26.17188,-11.71875 33.39844,-12.69532 7.22656,-0.97656 24.02344,-4.49218 33.39844,-3.71093 9.375,0.78125 17.96875,0 26.95312,2.53906 8.98438,2.53906 9.57032,5.27344 9.76563,7.61719 0.19531,2.34375 -4.10156,6.64062 -10.35156,8.59375 -6.25,1.95312 -15.82032,4.88281 -19.33594,7.22656 -3.51563,2.34375 -12.69531,7.42187 -16.40625,9.76562 -3.71094,2.34375 -9.76563,6.44532 -15.03906,11.32813 -5.27344,4.88281 -11.13282,8.98437 -11.91407,11.71875 -0.78125,2.73437 2.14844,10.54687 1.75782,13.86718"
         style="fill:none;fill-rule:evenodd;stroke:#00f500;stroke-width:1px;stroke-linecap:butt;stroke-linejoin:miter;stroke-opacity:1" />
      <path
         inkscape:connector-curvature="0"
         id="path4177"
         d="m 519.72656,458.61221 c 8.59375,0 8.39844,1.17187 10.9375,5.27343 2.53907,4.10157 3.32032,5.66407 3.51563,9.76563 0.19531,4.10156 0.19531,6.05469 -0.19531,8.00781 -0.39063,1.95313 -0.78125,3.32031 -7.61719,7.22656"
         style="fill:none;fill-rule:evenodd;stroke:#00fb00;stroke-width:1px;stroke-linecap:butt;stroke-linejoin:miter;stroke-opacity:1" />
      <path
         inkscape:connector-curvature="0"
         id="path4179"
         d="m 479.10156,466.81533 c 9.76563,-3.51562 9.76563,-0.78125 13.86719,3.90625 4.10156,4.6875 8.20313,10.54688 9.57031,13.86719 1.36719,3.32031 3.90625,7.03125 4.6875,12.30469 0.78125,5.27343 -2.73437,6.44531 -4.88281,8.59375"
         style="fill:none;fill-rule:evenodd;stroke:#00f600;stroke-width:1px;stroke-linecap:butt;stroke-linejoin:miter;stroke-opacity:1" />
      <path
         inkscape:connector-curvature="0"
         id="path4181"
         d="m 106.34223,622.57386 c 0,0 -6.0767,-4.41941 -7.181552,-8.01019 -1.104855,-3.59078 3.590772,2.48592 12.429612,-10.49612 8.83883,-12.98203 16.84903,-25.68786 24.58301,-29.83106 7.73398,-4.14321 20.71602,-2.48593 25.13543,0.55242 4.41942,3.03835 8.28641,12.1534 8.28641,18.78253 0,6.62912 -1.38107,13.53446 -5.52427,18.50631 -4.1432,4.97184 -11.87718,11.87718 -18.2301,13.53446 -6.35291,1.65729 -18.23009,4.41942 -27.62135,2.48593 -9.39127,-1.9335 -16.57282,-8.28641 -17.95389,-10.49612"
         style="fill:none;fill-rule:evenodd;stroke:#00e500;stroke-width:1px;stroke-linecap:butt;stroke-linejoin:miter;stroke-opacity:1" />
      <path
         inkscape:connector-curvature="0"
         id="path4183"
         d="m 515.93625,559.15163 c 0.14244,0.51198 0.42731,3.36446 0.42731,4.02272 0,0.65827 -1.13949,3.36446 0.64097,5.11983 1.78046,1.75537 4.55797,2.26736 5.0565,2.63306 0.49853,0.3657 0.85462,1.09711 2.63508,3.4376 1.78046,2.34049 3.42889,4.95049 3.42889,4.95049 0,0 4.49219,7.8125 3.90625,13.08594 -0.58594,5.27344 1.5625,-3.125 5.85938,3.51562 4.29687,6.64063 9.57031,16.40625 13.67187,19.92188 4.10156,3.51562 5.85938,3.90625 7.61719,5.07812 1.75781,1.17188 -6.05469,7.22657 -9.375,8.78907 -3.32031,1.5625 -10.9375,5.27343 -13.67188,5.66406 -2.73437,0.39062 0.78125,2.92969 -2.92968,12.89062 0,0 -1.49201,7.80208 -1.77689,9.52088 -0.28487,1.7188 -0.28487,3.18161 0.64097,4.60785 0.92584,1.42624 2.38581,3.76673 2.59947,4.68099 0.21365,0.91425 0.92584,3.94958 0.96145,4.42499"
         style="fill:none;fill-rule:evenodd;stroke:#00f800;stroke-width:1px;stroke-linecap:butt;stroke-linejoin:miter;stroke-opacity:1" />
      <path
         sodipodi:nodetypes="csssscccccccssccccccssssc"
         inkscape:connector-curvature="0"
         id="path4185"
         d="m 244.86334,755.29449 c 0,0 0.69054,19.33495 0.13811,20.99224 -0.55243,1.65728 -3.17645,4.41941 -4.69563,5.10995 -1.51917,0.69053 -8.97694,-0.27622 -11.18665,0.69053 -2.20971,0.96675 -5.80049,4.69563 -8.1483,5.66238 -2.34782,0.96675 -10.2199,0.69053 -11.60097,0.13811 -1.38107,-0.55243 -8.19802,-4.76378 -8.58865,-9.93956 -0.39062,-5.17578 -0.97656,1.85547 -4.98047,2.2461 -4.0039,0.39062 -9.66797,0.39062 -11.62109,-0.58594 -1.95313,-0.97656 -9.96094,-4.78516 -10.54688,-9.76563 -0.58593,-4.98046 1.76282,2.36991 -6.73075,-1.22087 -8.49357,-3.59078 -10.15085,-5.80049 -11.60097,-8.70073 0,0 -3.79794,-6.62913 -4.69563,-11.18665 -0.8977,-4.55752 -1.79539,-7.87209 -1.51918,-9.94369 0.27622,-2.0716 -0.41432,0.69053 -7.38871,-4.21226 -6.97439,-4.90279 -10.63422,-7.73398 -13.05109,-15.05364 -2.41687,-7.31966 0.27621,-14.15594 0.20716,-18.29915 -0.0691,-4.1432 -7.80304,-9.32221 -10.56517,-15.2608 -2.76214,-5.93859 -3.24551,-11.39381 -2.41687,-17.88483 0.82864,-6.49102 7.18155,-16.43471 7.18155,-16.43471 0,0 -1.45012,-5.59332 -2.27876,-7.73398 -0.82864,-2.14065 -2.62403,-8.2864 -2.62403,-11.39381 0,-3.1074 0.6973,-4.32527 -2.67184,-5.35066 -3.36914,-1.02539 -8.39844,-3.51562 -9.375,-4.29687 -0.97657,-0.78125 -4.29688,-3.71094 -4.83399,-4.39453"
         style="fill:none;fill-rule:evenodd;stroke:#00fc00;stroke-width:1px;stroke-linecap:butt;stroke-linejoin:miter;stroke-opacity:1" />
      <path
         sodipodi:nodetypes="ccssssssssssssssscssssssscssscsscssssscsssssssssscsssccscssscscssssssssssssssssscssssssssccccccccccccsssssssc"
         inkscape:connector-curvature="0"
         id="path4187"
         d="m 116.21687,597.36937 c 0,0 3.52172,-4.62657 3.65983,-5.59332 0.1381,-0.96675 1.10485,-7.31966 2.00255,-10.35801 0.89769,-3.03835 3.86699,-8.07925 5.59332,-9.94369 1.72634,-1.86444 5.86954,-2.69308 6.42197,-4.48847 0.55242,-1.79539 0.34526,-9.73653 0.20716,-12.2915 -0.13811,-2.55498 -0.69054,-8.83884 1.45012,-11.1176 2.14065,-2.27876 -0.13811,-2.69308 2.69308,-4.14321 2.83119,-1.45012 3.40549,-1.03621 4.2844,1.16106 0.8789,2.19726 2.19726,6.44531 2.34375,8.15429 0.14648,1.70899 -0.92774,-1.36718 4.05273,-3.32031 4.98047,-1.95312 6.54297,-3.02734 9.17969,-2.24609 2.63672,0.78125 2.24609,-4.88282 3.41797,-7.12891 1.17187,-2.24609 3.125,-4.00391 5.85937,-4.00391 2.73438,0 7.32422,0.6836 10.54688,2.34375 3.22265,1.66016 2.4414,-2.83203 2.24609,-5.66406 -0.19531,-2.83203 1.95313,-6.05469 4.58985,-7.42187 2.63671,-1.36719 4.6875,-1.66016 6.73828,-1.5625 2.05078,0.0977 0.74075,-4.13487 0.53359,-5.44688 -0.20716,-1.31202 -1.38107,-3.03835 -1.24296,-6.62913 0.1381,-3.59078 -0.27622,-7.1125 1.58822,-8.97694 1.86445,-1.86444 4.90279,-4.41942 7.66493,-5.59333 2.76214,-1.1739 -0.48337,-2.2097 0,-5.93859 0.48337,-3.72888 3.38362,-7.31966 4.35036,-8.35546 0.96675,-1.0358 3.45267,-5.86954 11.04855,-6.00764 7.59587,-0.13811 15.46796,1.45012 16.77997,0.0691 1.31202,-1.38107 5.17901,-8.83884 6.90534,-10.21991 1.72634,-1.38106 5.10995,-6.35291 8.42452,-7.73398 3.31456,-1.38106 3.52172,-5.31711 15.74417,-4.35036 12.22245,0.96675 14.50122,3.52172 17.95388,5.73143 3.45267,2.20971 0.8977,-0.82864 7.18156,-4.90279 6.28386,-4.07415 10.70327,-5.86954 16.71092,-5.179 6.00765,0.69053 14.15595,8.01019 19.12779,12.2915 4.97185,4.28131 4.35037,-4.48847 6.76723,-5.66238 2.41687,-1.17391 7.31966,-4.35036 8.97695,-4.76468 1.65728,-0.41432 8.49356,-2.0716 15.05364,-0.0691 6.56007,2.00255 3.72888,1.79539 7.80303,5.80048 4.07415,4.0051 3.93604,4.41942 9.46032,1.72634 5.52427,-2.69308 8.70072,-2.41687 13.12014,-2.48592 4.41942,-0.0691 8.97694,-2.14066 16.50376,2.90024 7.52682,5.0409 9.94369,11.1176 10.56517,12.49866 0.62148,1.38107 2.55498,7.59588 2.69308,8.90789 0.13811,1.31202 4.97185,0.27622 7.45777,-0.75959 2.48592,-1.0358 6.96283,-1.1859 11.25971,-1.08824 4.29687,0.0977 11.04454,1.1573 14.15194,5.92198 3.1074,4.76469 1.58823,4.97185 3.59078,6.83629 2.00255,1.86444 10.97949,7.80303 14.57026,10.01274 3.59078,2.20971 11.97413,6.13524 16.66163,11.21336 4.6875,5.07813 6.15234,8.49609 7.03125,11.81641 0.8789,3.32031 2.24609,9.47265 2.14843,10.15625 -0.0976,0.68359 -2.14843,3.32031 4.39454,4.0039 6.54296,0.6836 11.03515,5.3711 12.30468,7.03125 1.26953,1.66016 4.00391,4.88282 5.3711,9.17969 1.36718,4.29688 2.24609,9.08203 2.14843,11.13281 -0.0976,2.05078 -1.75781,5.85938 5.46875,8.00782 0,0 3.125,3.22265 6.44532,8.49609 3.32031,5.27344 3.32031,12.5 3.22265,16.40625 -0.0976,3.90625 -0.29297,20.50781 0.19532,21.67969 0.48828,1.17187 2.63671,7.42187 3.02734,9.57031 0.39062,2.14844 0.58594,6.25 0.39062,8.78906 -0.19531,2.53906 -1.75781,12.59766 -1.75781,12.59766 0,0 -0.39062,3.51562 -1.07422,5.37109 -0.68359,1.85547 -0.97656,5.3711 -0.8789,6.64063 0.0976,1.26953 2.63672,4.58984 3.22265,6.64062 0.58594,2.05078 1.46485,5.95703 1.07422,8.69141 -0.39062,2.73437 -0.39062,7.03125 -2.05078,10.44922 -1.66016,3.41797 -3.32031,6.83593 -4.78516,8.78906 -1.46484,1.95312 -2.24609,3.32031 -2.92968,4.10156 -0.6836,0.78125 -1.26953,4.19922 -1.26953,5.27344 0,1.07422 1.36718,1.95312 1.36718,5.46875 0,3.51562 0.29297,9.76563 0,10.64453 -0.29297,0.87891 -0.48828,5.17578 -4.29687,8.10547 -3.8086,2.92969 -4.78516,3.02734 -7.32422,3.02734 l -4.78516,0 c -0.39062,0 -1.26953,0.58594 -1.36718,5.66407 -0.0977,5.07812 0.97656,7.91015 0,9.375 -0.97657,1.46484 -1.17188,3.51562 -2.92969,4.98047 -1.75781,1.46484 -4.19922,3.61328 -6.25,3.90625 -2.05078,0.29296 -10.64453,0.48828 -11.23047,0.48828 -0.58594,0 -1.5625,0.8789 -2.92969,4.78515 -1.36719,3.90625 -4.88281,6.83594 -6.25,6.9336 -1.36719,0.0976 -4.78515,1.26953 -6.34765,0.39062 -1.5625,-0.8789 -1.85547,-1.36719 -4.19922,-3.51562 -2.34375,-2.14844 -5.13244,-6.3745 -6.23729,-9.13664 -1.10486,-2.76214 -2.34782,-7.18155 -1.79539,-12.2915 0.55243,-5.10996 3.31456,-11.04855 6.0767,-12.70583 2.76213,-1.65728 3.03835,-2.48592 3.17645,-7.73398 0.13811,-5.24806 0.13811,-14.08689 1.38107,-16.1585 1.24296,-2.0716 0.55243,-6.49101 6.49102,-8.97694 5.93859,-2.48592 -4.69563,-9.80558 -4.69563,-9.80558 0,0 -2.90024,-4.83374 -2.90024,-9.94369 0,-5.10995 -1.10486,-9.94369 0.82864,-13.39636 1.93349,-3.45267 4.28131,-10.35801 6.0767,-12.84393 1.79539,-2.48592 0.55242,-5.38616 -1.51918,-8.97694 -2.0716,-3.59078 -3.17645,-10.0818 -3.17645,-12.70583 0,-2.62402 0.82864,-12.15339 2.0716,-15.60606 1.24296,-3.45267 2.48592,-4.28131 2.62403,-8.56262 0.1381,-4.28131 -5.10995,-0.41432 -10.21991,-5.24806 -5.10995,-4.83374 -6.90534,-8.0102 -7.59587,-12.84393 -0.69053,-4.83374 -0.27621,-1.9335 -0.41432,-6.62913 -0.13811,-4.69563 0.96675,0.55243 -10.91044,-0.82864 -11.87718,-1.38107 -19.98415,-5.93787 -22.13259,-8.28163 -2.14843,-2.34375 1.36719,-4.29687 -0.39062,-7.42187 -1.75781,-3.125 -3.51563,-4.10156 -5.66406,-7.42188 -2.14844,-3.32031 0.78125,4.10157 -0.97657,6.64063 -1.75781,2.53906 -3.90625,3.71094 -6.25,3.71094 -2.34375,0 -1.95312,0.78125 -6.64062,-0.78125 -4.6875,-1.5625 -5.66406,-8.78907 -6.05469,-10.35157 -0.39062,-1.5625 -1.36719,-14.64843 -0.58594,-20.70312"
         style="fill:none;fill-rule:evenodd;stroke:#00f200;stroke-width:1px;stroke-linecap:butt;stroke-linejoin:miter;stroke-opacity:1" />
      <path
         inkscape:connector-curvature="0"
         id="path4189"
         d="m 418.94531,556.07314 5.85938,8.20313 c 0,0 1.36719,1.75781 -0.58594,6.25 -1.95312,4.49219 -4.10156,11.71875 -5.85937,14.0625 -1.75782,2.34375 -6.64063,7.03125 -8.39844,8.39844 -1.75781,1.36718 -9.57031,5.46875 -13.47656,6.25 -3.90625,0.78125 -14.84375,2.34375 -17.1875,2.34375 -2.34375,0 -14.0625,0.39062 -19.53125,-0.97657 -5.46875,-1.36718 -11.32813,-2.73437 -17.57813,-6.83593 -6.25,-4.10157 -12.89062,-9.57032 -15.23437,-11.91407 -2.34375,-2.34375 -7.61719,-6.44531 -9.96094,-11.13281 -2.34375,-4.6875 -2.53906,-9.96094 -2.73438,-14.0625 -0.19531,-4.10156 1.5625,-12.5 2.92969,-15.625 1.36719,-3.125 2.92969,-6.83594 6.05469,-10.74219 3.125,-3.90625 9.76562,-10.15625 14.84375,-12.10937"
         style="fill:none;fill-rule:evenodd;stroke:#00f500;stroke-width:1px;stroke-linecap:butt;stroke-linejoin:miter;stroke-opacity:1" />
      <path
         sodipodi:nodetypes="csssscscccccscccsccccccscccccccsc"
         inkscape:connector-curvature="0"
         id="path4191"
         d="m 320.80078,575.99502 c 0,0 -3.32031,-3.32032 -4.58984,-7.03125 -1.26953,-3.71094 2.92969,0.39062 -5.95703,-0.39063 -8.88672,-0.78125 -10.44922,-1.36719 -13.08594,-2.14844 -2.63672,-0.78125 -8.78906,-1.5625 -10.25391,-2.14843 -1.46484,-0.58594 0.39063,0.0977 -3.125,-0.97657 -3.51562,-1.07421 -3.01795,1.40742 -5.50387,5.41252 -2.48592,4.00509 -6.35291,8.01019 -8.70073,9.94368 -2.34781,1.9335 -6.76723,5.10996 -10.63422,6.35292 -3.86699,1.24296 -8.70073,2.76213 -11.32476,2.76213 -2.62403,0 0.13811,0.27622 -3.86699,0.41432 -4.0051,0.13811 1.9335,-0.96674 -0.41432,6.49102 -2.34782,7.45777 -1.79539,8.28641 -5.10995,12.56772 -3.31456,4.28131 -5.93859,7.31966 -9.25316,10.35801 -3.31456,3.03835 -4.69563,3.59078 -6.35291,4.0051 -1.65728,0.41432 -0.27621,6.35291 -0.27621,9.52937 0,3.17645 0.69053,9.39126 -1.51918,14.225 -2.20971,4.83373 -3.86699,7.04344 -6.62912,9.66747 -2.76214,2.62403 -3.03835,3.72888 -4.55753,4.83374 -1.51917,1.10485 3.03835,4.1432 4.83374,8.83883 1.79539,4.69563 4.1432,6.90534 4.0051,15.05364 -0.13811,8.1483 -0.55243,13.25826 -0.96675,16.43471 -0.41432,3.17646 5.38616,1.9335 9.39126,3.86699 4.0051,1.9335 6.90534,3.59078 8.56262,7.59588 1.65728,4.00509 1.79539,6.90534 1.79539,10.08179 0,3.17646 -0.27621,5.66238 -0.69053,8.83884 -0.41432,3.17645 3.31456,0.96674 5.93859,4.83373 2.62403,3.86699 4.55752,5.24806 5.93859,12.1534 1.38107,6.90534 -3.0227,4.91927 -3.45419,7.00906 -0.0286,4.0551 -0.13086,6.90534 -0.41432,8.83884 0.42161,2.19208 0.62305,6.80162 0.55395,8.52795 0,0 0.56161,4.42142 -1.35203,6.43842 -1.91364,2.01701 -3.62585,3.36168 -5.79128,3.4134"
         style="fill:none;fill-rule:evenodd;stroke:#00eb00;stroke-width:1px;stroke-linecap:butt;stroke-linejoin:miter;stroke-opacity:1" />
      <path
         inkscape:connector-curvature="0"
         id="path4193"
         d="m 265.29505,600.21459 59.90026,0.78043 c 0,0 -9.62304,-6.27989 -15.03906,-7.8125 -7.04667,-1.99405 -14.61413,-2.42504 -21.875,-1.5625 -6.50387,0.77261 -14.00116,3.26343 -18.76584,5.95651 -4.76469,2.69309 -4.90279,2.69309 -4.90279,2.69309 l 59.99598,0.76776"
         style="fill:none;fill-rule:evenodd;stroke:#00f900;stroke-width:1px;stroke-linecap:butt;stroke-linejoin:miter;stroke-opacity:1"
         sodipodi:nodetypes="ccaascc" />
      <path
         inkscape:connector-curvature="0"
         id="path4195"
         d="m 396.51638,602.47524 61.03143,0.0731 c 0,0 -3.57314,-4.17999 -5.9386,-5.38617 -5.29917,-2.70212 -11.51066,-3.02593 -17.40145,-3.59077 -7.38018,-0.70765 -15.03484,-1.531 -22.2352,0.27621 -5.50984,1.38291 -13.81067,6.62913 -15.19174,7.87209 -1.38107,1.24296 -0.82864,0.55243 -0.82864,0.55243 l 61.35973,0.34118"
         style="fill:none;fill-rule:evenodd;stroke:#00f500;stroke-width:1px;stroke-linecap:butt;stroke-linejoin:miter;stroke-opacity:1"
         sodipodi:nodetypes="ccaaascc" />
      <path
         sodipodi:nodetypes="caaaaaaaaaaaaaaasc"
         inkscape:connector-curvature="0"
         id="path4197"
         d="m 290.08779,630.67742 c 0,0 10.38995,-0.29246 15.06134,1.67751 4.81209,2.02931 8.92119,5.83763 12.22028,9.96821 2.87616,3.60105 5.073,7.9403 6.21481,12.42961 1.31708,5.17844 1.64001,10.78894 0.55242,16.02039 -0.87178,4.19338 -2.8464,8.2583 -5.52427,11.60097 -3.03436,3.78765 -7.19204,6.6718 -11.46286,8.97694 -3.42051,1.84619 -7.19676,3.20724 -11.04854,3.72888 -3.2441,0.43934 -6.60407,0.1313 -9.80559,-0.55243 -3.66218,-0.78211 -7.25839,-2.1235 -10.49611,-4.00509 -3.19537,-1.85698 -6.20121,-4.20048 -8.56262,-7.04345 -2.61987,-3.15413 -4.76494,-6.84362 -5.9386,-10.77233 -1.20267,-4.02581 -1.27955,-8.37777 -0.96674,-12.56772 0.26023,-3.48567 0.94586,-7.018 2.34781,-10.2199 1.76689,-4.03538 4.252,-7.88898 7.45777,-10.91044 2.93013,-2.76167 6.62166,-4.75172 10.35801,-6.2148 3.16544,-1.23953 6.51465,-2.29195 9.96101,-2.0716 4.72826,0.30232 9.76564,0.47541 12.56772,0.96674"
         style="fill:none;fill-rule:evenodd;stroke:#00f200;stroke-width:1px;stroke-linecap:butt;stroke-linejoin:miter;stroke-opacity:1" />
      <path
         sodipodi:nodetypes="caaaaaaaaaaaaaaaaac"
         inkscape:connector-curvature="0"
         id="path4199"
         d="m 297.48203,650.54049 c 0,0 4.91744,-0.18302 7.18156,0.62148 2.12356,0.75456 4.14137,2.07438 5.59332,3.79794 1.57956,1.87504 2.42558,4.3243 3.03835,6.69818 0.50786,1.96748 0.72901,4.05964 0.48337,6.0767 -0.19359,1.5896 -0.75391,3.15086 -1.51917,4.55752 -0.77477,1.42414 -1.85945,2.685 -3.03835,3.79794 -1.2725,1.20129 -2.6902,2.30983 -4.28131,3.03835 -1.48724,0.68096 -3.13708,1.01114 -4.76468,1.1739 -1.62761,0.16276 -3.2875,0.0505 -4.9028,-0.20716 -1.51118,-0.24108 -3.02543,-0.61161 -4.41941,-1.24296 -1.00031,-0.45305 -1.9428,-1.06426 -2.76214,-1.79539 -1.40294,-1.2519 -2.6888,-2.70054 -3.59078,-4.35036 -0.93932,-1.71813 -1.60445,-3.64452 -1.79538,-5.59332 -0.21464,-2.19081 -0.005,-4.49566 0.75958,-6.56008 0.77121,-2.08351 2.20955,-3.90334 3.72889,-5.52427 1.05478,-1.12531 2.27216,-2.15795 3.65983,-2.83119 1.79311,-0.86994 3.82241,-1.20661 5.80048,-1.45012 2.26169,-0.27843 4.97185,-0.48337 6.83629,0"
         style="fill:none;fill-rule:evenodd;stroke:#00f900;stroke-width:1px;stroke-linecap:butt;stroke-linejoin:miter;stroke-opacity:1" />
      <path
         sodipodi:nodetypes="caaaaaaaac"
         inkscape:connector-curvature="0"
         id="path4201"
         d="m 304.9398,654.26937 c 2.27876,-0.0691 3.07383,0.0188 4.0051,1.0358 0.75645,0.82607 0.77002,2.21581 0.55242,3.31457 -0.19481,0.98369 -0.74001,2.02006 -1.58822,2.55497 -0.88152,0.55592 -2.09389,0.58798 -3.10741,0.34527 -0.85679,-0.20518 -1.73242,-0.70959 -2.20971,-1.45012 -0.40388,-0.62663 -0.35113,-1.46423 -0.34526,-2.20971 0.005,-0.67734 0.0336,-1.40113 0.34526,-2.00255 0.28454,-0.54915 0.74545,-1.06395 1.31202,-1.31201 1.05511,-0.46196 2.69308,-0.27622 3.45267,-0.13811"
         style="fill:none;fill-rule:evenodd;stroke:#00ef00;stroke-width:1px;stroke-linecap:butt;stroke-linejoin:miter;stroke-opacity:1" />
      <path
         sodipodi:nodetypes="caaaaaaaaaaaaaaasc"
         inkscape:connector-curvature="0"
         id="path4197-8"
         d="m 414.84284,633.16557 c 0,0 15.33012,-1.79046 22.36122,0.76325 4.8398,1.75782 8.98723,5.49458 12.2915,9.52937 2.91908,3.56444 5.07132,7.92258 6.21481,12.42961 1.3119,5.17083 1.63564,10.79399 0.55242,16.02039 -0.87263,4.21032 -2.86567,8.27303 -5.52427,11.60097 -3.04779,3.81512 -7.21077,6.67848 -11.46286,8.97694 -3.43045,1.85433 -7.20532,3.20743 -11.04854,3.72888 -3.24524,0.44032 -6.60087,0.13282 -9.80559,-0.55243 -3.65404,-0.78132 -7.24882,-2.11535 -10.49611,-4.00509 -3.1816,-1.85151 -6.19196,-4.18393 -8.56263,-7.04345 -2.6047,-3.14181 -4.76275,-6.82666 -5.9386,-10.77233 -1.1975,-4.01831 -1.27917,-8.3777 -0.96674,-12.56772 0.26023,-3.48994 0.95225,-7.02663 2.34781,-10.2199 1.77167,-4.05386 4.27359,-7.90202 7.45778,-10.91044 2.94284,-2.78039 6.61307,-4.77507 10.35801,-6.2148 3.01806,-1.16029 6.30376,-1.62741 9.49809,-1.85218 4.19115,-0.2949 11.42111,0.9415 12.56772,1.14959"
         style="fill:none;fill-rule:evenodd;stroke:#00f600;stroke-width:1px;stroke-linecap:butt;stroke-linejoin:miter;stroke-opacity:1" />
      <path
         sodipodi:nodetypes="caaaaaaaaaaaaaaaaac"
         inkscape:connector-curvature="0"
         id="path4199-6"
         d="m 430.47991,649.20643 c 0,0 4.91744,-0.18302 7.18156,0.62148 2.12356,0.75456 4.14137,2.07438 5.59332,3.79794 1.57956,1.87504 2.42558,4.3243 3.03835,6.69818 0.50786,1.96748 0.72901,4.05964 0.48337,6.0767 -0.19359,1.5896 -0.75391,3.15086 -1.51917,4.55752 -0.77477,1.42414 -1.85945,2.685 -3.03835,3.79794 -1.2725,1.20129 -2.6902,2.30983 -4.28131,3.03835 -1.48724,0.68096 -3.13708,1.01114 -4.76468,1.1739 -1.62761,0.16276 -3.2875,0.0505 -4.9028,-0.20716 -1.51118,-0.24108 -3.02543,-0.61161 -4.41941,-1.24296 -1.00031,-0.45305 -1.9428,-1.06426 -2.76214,-1.79539 -1.40294,-1.2519 -2.6888,-2.70054 -3.59078,-4.35036 -0.93932,-1.71813 -1.60445,-3.64452 -1.79538,-5.59332 -0.21464,-2.19081 -0.005,-4.49566 0.75958,-6.56008 0.77121,-2.08351 2.20955,-3.90334 3.72889,-5.52427 1.05478,-1.12531 2.27216,-2.15795 3.65983,-2.83119 1.79311,-0.86994 3.82241,-1.20661 5.80048,-1.45012 2.26169,-0.27843 4.97185,-0.48337 6.83629,0"
         style="fill:none;fill-rule:evenodd;stroke:#00f900;stroke-width:1px;stroke-linecap:butt;stroke-linejoin:miter;stroke-opacity:1" />
      <path
         sodipodi:nodetypes="caaaaaaaac"
         inkscape:connector-curvature="0"
         id="path4201-0"
         d="m 436.8986,653.36653 c 2.27876,-0.0691 3.07383,0.0188 4.0051,1.0358 0.75645,0.82607 0.77002,2.21581 0.55242,3.31457 -0.19481,0.98369 -0.74001,2.02006 -1.58822,2.55497 -0.88152,0.55592 -2.09389,0.58798 -3.10741,0.34527 -0.85679,-0.20518 -1.73242,-0.70959 -2.20971,-1.45012 -0.40388,-0.62663 -0.35113,-1.46423 -0.34526,-2.20971 0.005,-0.67734 0.0336,-1.40113 0.34526,-2.00255 0.28454,-0.54915 0.74545,-1.06395 1.31202,-1.31201 1.05511,-0.46196 2.69308,-0.27622 3.45267,-0.13811"
         style="fill:none;fill-rule:evenodd;stroke:#00f200;stroke-width:1px;stroke-linecap:butt;stroke-linejoin:miter;stroke-opacity:1" />
      <path
         sodipodi:nodetypes="cssssssssc"
         inkscape:connector-curvature="0"
         id="path4201-0-7"
         d="m 392.36735,713.9134 c 2.27876,-0.0691 2.77209,0.11529 4.59104,0.25455 3.06242,0.23445 5.11319,1.82529 4.84929,4.09582 -0.2639,2.27053 -2.90381,3.49408 -6.56869,3.33622 -1.73314,-0.0747 -2.12388,-0.1002 -3.00975,-0.43598 -0.88587,-0.33578 -1.76913,-0.76654 -2.20971,-1.45012 -0.44058,-0.68358 -0.35086,-1.4983 -0.34526,-2.20971 0.006,-0.71141 0.0472,-1.42726 0.34526,-2.00255 0.29809,-0.57529 0.50118,-0.957 1.31202,-1.31201 0.81084,-0.35501 2.69308,-0.27622 3.45267,-0.13811"
         style="fill:none;fill-rule:evenodd;stroke:#00f200;stroke-width:1px;stroke-linecap:butt;stroke-linejoin:miter;stroke-opacity:1" />
      <path
         sodipodi:nodetypes="caaaaaaaaaaaaaaaaac"
         inkscape:connector-curvature="0"
         id="path4199-6-0"
         d="m 381.50331,706.75247 c 0,0 7.77575,0.52619 11.49356,1.59285 2.95219,0.847 5.93753,1.94284 8.40897,3.76624 2.0225,1.49218 3.94343,3.37391 4.97533,5.6657 0.83122,1.84608 1.1469,4.02575 0.76045,6.02597 -0.30456,1.57633 -1.18607,3.12456 -2.39,4.51948 -1.21889,1.41225 -2.92535,2.66258 -4.78003,3.76623 -2.00193,1.19126 -4.2323,2.29055 -6.73549,3.01299 -2.33977,0.67527 -4.93535,1.0027 -7.49594,1.1641 -2.5606,0.1614 -5.17199,0.0501 -7.71323,-0.20543 -2.37744,-0.23907 -4.7597,-0.60651 -6.95276,-1.23259 -1.57371,-0.44926 -3.05647,-1.05537 -4.34548,-1.7804 -2.20715,-1.24145 -4.2301,-2.67799 -5.64912,-4.31404 -1.47777,-1.70379 -2.52417,-3.6141 -2.82455,-5.54663 -0.33768,-2.17252 -0.008,-4.45813 1.19499,-6.50531 1.21329,-2.06612 3.47614,-3.87076 5.86641,-5.47816 1.65941,-1.11591 3.57463,-2.13993 5.75775,-2.80755 2.82098,-0.86268 6.04818,-1.32561 9.1255,-1.43802 3.59509,-0.13132 7.82187,0.41836 10.75506,0.89769"
         style="fill:none;fill-rule:evenodd;stroke:#00f900;stroke-width:1.24903858px;stroke-linecap:butt;stroke-linejoin:miter;stroke-opacity:1" />
      <path
         inkscape:connector-curvature="0"
         id="path4278"
         d="m 327.60612,758.20107 c 0,0 2.33101,8.28007 3.02154,8.97061 0.69054,0.69053 1.79539,1.10485 7.73398,1.65728"
         style="fill:none;fill-rule:evenodd;stroke:#00f600;stroke-width:1px;stroke-linecap:butt;stroke-linejoin:miter;stroke-opacity:1"
         sodipodi:nodetypes="ccc" />
      <path
         inkscape:connector-curvature="0"
         id="path4280"
         d="m 326.20825,767.30978 c 0,0 10.2199,1.38107 14.50121,1.9335 4.28131,0.55243 14.63932,1.93349 19.19684,1.93349 4.55753,0 8.28641,0.13811 18.92063,-0.41432 10.63423,-0.55242 12.29151,-0.1381 16.57282,-1.65728 4.28131,-1.51917 8.97694,-5.38616 9.80558,-6.76723"
         style="fill:none;fill-rule:evenodd;stroke:#00f400;stroke-width:1px;stroke-linecap:butt;stroke-linejoin:miter;stroke-opacity:1" />
      <path
         inkscape:connector-curvature="0"
         id="path4282"
         d="m 245.20861,768.75991 c 0,0 0,6.2148 -0.1381,6.83628 -0.13811,0.62148 -2.20971,4.28131 -3.52173,4.97185 -1.31201,0.69053 6.56007,5.179 8.83884,6.28386 2.27876,1.10485 29.49519,12.58062 35.64754,14.14312 6.15234,1.5625 26.75781,7.03125 39.45312,7.51953 12.69531,0.48828 30.27344,0.39062 37.10938,-0.48828 6.83593,-0.87891 28.22265,-4.19922 33.49609,-6.05469 5.27344,-1.85547 19.33594,-6.44531 21.19141,-7.22656 1.85547,-0.78125 13.18359,-6.44531 14.55078,-7.22656 1.36719,-0.78125 16.40625,-9.96094 19.82422,-12.20704 3.41797,-2.24609 12.10937,-9.375 13.18359,-10.44921 1.07422,-1.07422 0.97656,-3.22266 -0.48828,-5.27344 -1.46484,-2.05078 -1.36719,-1.36719 -1.46484,-2.05078 -0.0977,-0.6836 -2.23542,-4.10794 -2.58069,-7.00818 -0.34526,-2.90024 -0.48337,-7.59588 0.48338,-11.04855"
         style="fill:none;fill-rule:evenodd;stroke:#00f100;stroke-width:1px;stroke-linecap:butt;stroke-linejoin:miter;stroke-opacity:1" />
      <path
         sodipodi:nodetypes="csssssaaaasssssc"
         inkscape:connector-curvature="0"
         id="path4284"
         d="m 241.50391,781.26846 c 0,0 10.83984,6.93359 14.9414,8.10546 4.10157,1.17188 4.19922,5.17579 12.30469,10.0586 8.10547,4.88281 16.40625,9.17969 23.14453,11.62109 6.73828,2.44141 21.40073,6.80326 27.27027,7.90811 5.86954,1.10486 17.1943,2.20971 20.16359,1.86445 2.9693,-0.34527 4.68342,-2.50928 7.04345,-3.72889 2.67948,-1.3847 5.15509,-3.33505 8.07925,-4.07415 3.97381,-1.00441 8.28953,-1.23086 12.2915,-0.34526 3.51775,0.77845 6.08175,4.48289 9.66748,4.83373 2.58987,0.2534 2.0716,-0.62148 7.52682,-2.0716 5.45521,-1.45012 16.36565,-5.52427 18.92063,-7.52682 2.55497,-2.00255 8.97694,-6.2148 10.42706,-8.1483 1.45012,-1.93349 1.79539,-3.93604 5.45522,-5.59332 3.65983,-1.65729 8.70073,-4.48848 10.04727,-5.14448 1.34654,-0.65601 6.80176,-3.4872 8.21735,-4.48847"
         style="fill:none;fill-rule:evenodd;stroke:#00ef00;stroke-width:1px;stroke-linecap:butt;stroke-linejoin:miter;stroke-opacity:1" />
      <path
         sodipodi:nodetypes="caaaaaaaaaaac"
         inkscape:connector-curvature="0"
         id="path4286"
         d="m 347.65625,816.03408 c 0,0 -5.21385,3.83783 -6.83594,6.54297 -2.17303,3.62393 -3.3215,7.98263 -3.41797,12.20703 -0.10222,4.47602 0.75488,9.22834 3.02735,13.08594 2.02391,3.43565 5.42657,6.02609 8.88672,8.00781 2.99275,1.71403 6.42006,2.92831 9.86328,3.125 4.07277,0.23266 8.29081,-0.67149 12.01172,-2.34375 3.47401,-1.5613 6.81455,-3.87336 9.08203,-6.93359 2.10942,-2.84692 3.08249,-6.47387 3.71094,-9.96094 0.66974,-3.71617 0.99321,-7.68505 0,-11.32813 -0.72541,-2.6608 -2.35855,-5.07512 -4.19922,-7.1289 -2.35942,-2.63259 -5.42838,-4.59083 -8.4961,-6.34766 -2.32938,-1.33399 -4.19922,-2.92969 -7.42187,-3.125"
         style="fill:none;fill-rule:evenodd;stroke:#00ee00;stroke-width:1px;stroke-linecap:butt;stroke-linejoin:miter;stroke-opacity:1" />
      <path
         sodipodi:nodetypes="caaaaaaaac"
         inkscape:connector-curvature="0"
         id="path4201-0-75"
         d="m 357.79281,831.4697 c 2.96144,-0.0934 3.99469,0.0254 5.20496,1.39892 0.98307,1.11566 1.00071,2.9926 0.71792,4.47654 -0.25317,1.32854 -0.9617,2.72823 -2.06403,3.45066 -1.14561,0.75081 -2.72119,0.79411 -4.03834,0.46631 -1.11347,-0.27711 -2.25143,-0.95835 -2.87171,-1.95848 -0.52488,-0.8463 -0.45633,-1.97754 -0.4487,-2.98436 0.007,-0.9148 0.0437,-1.89232 0.4487,-2.70458 0.36978,-0.74166 0.96878,-1.43694 1.70508,-1.77196 1.37121,-0.6239 3.49989,-0.37305 4.48705,-0.18652"
         style="fill:none;fill-rule:evenodd;stroke:#00f200;stroke-width:1.32483089px;stroke-linecap:butt;stroke-linejoin:miter;stroke-opacity:1" />
      <path
         sodipodi:nodetypes="cacsczc"
         inkscape:connector-curvature="0"
         id="path4303"
         d="m 363.47656,838.39736 c 0,0 -0.87475,1.79628 -1.66015,2.34375 -0.71904,0.50122 -2.53907,0.6836 -2.53907,0.6836 0,0 0,3.32031 0,6.64062 0,3.32031 -0.0976,10.64453 -0.0976,10.64453 0,0 4.42369,0.26469 6.73828,-0.19531 2.31459,-0.46 6.93359,-2.63672 6.93359,-2.63672"
         style="fill:none;fill-rule:evenodd;stroke:#00ee00;stroke-width:1px;stroke-linecap:butt;stroke-linejoin:miter;stroke-opacity:1" />
      <path
         sodipodi:nodetypes="cssssssszczssscssscccsssscssssssssssssssc"
         inkscape:connector-curvature="0"
         id="path4305"
         d="m 252.73543,788.30202 c 0,0 -6.35291,-1.9335 -10.49611,-1.10486 -4.14321,0.82864 -6.90534,-0.27621 -18.78253,12.42961 -11.87718,12.70583 -27.06893,34.80292 -32.5932,40.87961 -5.52427,6.0767 -4.69563,8.83884 -7.45777,12.98204 -2.76213,4.14321 -6.35291,12.42961 -12.42961,20.71602 -6.0767,8.28641 -6.0767,13.81068 -7.45777,17.40146 -1.38106,3.59077 -1.38106,13.53446 -1.38106,17.12524 0,3.59078 0.26256,6.3297 3.86699,5.52427 3.60443,-0.80543 2.62402,-15.19175 2.62402,-15.19175 0,0 -1.61951,13.02865 0.55243,15.1227 2.17194,2.09405 2.48592,-0.41432 2.9693,0 0.48337,0.41432 3.31456,3.86699 4.07415,4.07415 0.75959,0.20716 2.90024,1.10485 4.1432,0.41432 1.24296,-0.69053 1.79539,-2.69308 1.79539,-2.69308 0,0 2.83119,3.45267 3.65983,3.65983 0.82864,0.20716 2.69308,1.1739 4.83374,0.82864 2.14065,-0.34527 2.96929,-1.24296 3.24551,-2.83119 0.27621,-1.58823 0.48337,-5.38617 0.48337,-5.38617 l 1.51918,0.8977 c 0,0 0,-6.35291 -0.34527,-6.56007 -0.34527,-0.20717 -1.51918,-0.75959 -0.34527,-0.20717 1.17391,0.55243 6.49102,3.79794 7.87209,3.93605 1.38107,0.13811 4.28131,0.27621 5.10995,-0.55243 0.82864,-0.82864 2.55498,-0.20716 2.55498,-3.72888 0,-3.52173 0.0889,-16.17585 -0.009,-17.73835 -0.0977,-1.5625 -0.39063,-1.5625 -0.97656,-2.34375 -0.58594,-0.78125 -0.58594,-1.75782 -0.58594,-3.125 0,-1.36719 -1.75781,-2.2461 -2.53906,-3.41797 -0.78125,-1.17188 1.95312,-7.03125 2.83203,-8.59375 0.8789,-1.5625 6.05468,-11.23047 6.54297,-12.40235 0.48828,-1.17187 6.64062,-11.91406 8.10546,-13.76953 1.46485,-1.85547 6.83594,-7.22656 7.91016,-8.6914 1.07422,-1.46485 11.45103,-13.54157 12.9702,-15.75127 1.51918,-2.20971 7.31966,-8.42452 8.28641,-10.0818 0.96675,-1.65728 4.21226,-6.49102 4.48847,-9.94369 0.27621,-3.45267 0.48337,-8.28641 -0.75959,-9.32221 -1.24296,-1.0358 -4.28131,-2.55497 -5.31711,-2.96929 -1.0358,-0.41432 -6.28386,-0.96675 -6.97439,-0.96675 -0.69054,0 -6.62913,0.79411 -7.69946,1.41559 -1.07032,0.62148 -3.57851,1.45242 -7.28945,5.04129"
         style="fill:none;fill-rule:evenodd;stroke:#00ea00;stroke-width:1px;stroke-linecap:butt;stroke-linejoin:miter;stroke-opacity:1" />
      <path
         inkscape:connector-curvature="0"
         id="path4307"
         d="m 412.30469,796.40517 c 0,0 6.83594,-2.14843 8.39844,-3.22265 1.5625,-1.07422 3.90625,2.83203 7.42187,6.54297 3.51563,3.71093 10.64453,13.08593 12.10938,15.13672 1.46484,2.05078 7.91015,12.69531 9.375,15.33203 1.46484,2.63672 6.83593,13.28125 7.42187,14.25781 0.58594,0.97656 6.15234,11.42578 7.12891,12.5 0.97656,1.07422 4.49218,8.78906 7.91015,12.10937 3.41797,3.32032 9.76563,10.64454 11.91407,13.37891 2.14843,2.73438 6.34765,8.88672 7.22656,11.42578 0.8789,2.53906 2.34375,7.32422 1.36719,8.59375 -0.97657,1.26953 -5.66407,0.48828 -7.91016,-0.78125 -2.24609,-1.26953 -5.85938,-4.88281 -8.00781,-6.44531 -2.14844,-1.5625 -6.25,-5.27344 -7.8125,-6.15234 -1.5625,-0.87891 -4.58985,-3.90625 -5.76172,-4.98047"
         style="fill:none;fill-rule:evenodd;stroke:#00ef00;stroke-width:1px;stroke-linecap:butt;stroke-linejoin:miter;stroke-opacity:1" />
      <path
         inkscape:connector-curvature="0"
         id="path4309"
         d="m 491.21094,893.57314 c 0,0 1.26953,4.78516 1.85547,7.32422 0.58593,2.53906 1.26953,4.29688 1.66015,7.22656 0.39063,2.92969 0.87891,6.25 -0.97656,7.51954 -1.85547,1.26953 -4.39453,0.78125 -6.44531,-0.0977 C 485.25391,914.66689 476.36719,903.24111 475,900.79971"
         style="fill:none;fill-rule:evenodd;stroke:#00db00;stroke-width:1px;stroke-linecap:butt;stroke-linejoin:miter;stroke-opacity:1" />
      <path
         inkscape:connector-curvature="0"
         id="path4311"
         d="m 478.67815,905.8309 c 0,0 6.28386,7.18155 6.83628,8.21735 0.55243,1.0358 0.75959,3.86699 -0.41432,5.0409 -1.17391,1.17391 -2.69308,2.69308 -6.00764,1.72633 -3.31457,-0.96674 -10.01275,-12.36055 -10.77233,-13.46541 0,0 6.56007,9.046 7.1125,10.28896 0.55242,1.24296 2.48592,4.0051 -0.48338,5.24806 -2.96929,1.24296 -4.83373,1.10485 -6.2148,0.41432 -1.38107,-0.69054 -5.52427,-5.0409 -5.66238,-5.59333 -0.13811,-0.55243 -9.55645,-14.95525 -11.50958,-18.8615 -1.95312,-3.90625 -8.39844,-14.0625 -9.57031,-16.40625 -1.17188,-2.34375 -3.8086,-8.69141 -5.27344,-7.8125 -1.46484,0.87891 -0.29297,-9.57031 -0.0977,-12.89062 0.19532,-3.32032 0.58594,-13.57422 -0.0976,-15.91797 -0.6836,-2.34375 -2.05078,-9.76563 -2.92969,-12.5 -0.87891,-2.73438 -2.34375,-9.66797 -3.41797,-12.01172 -1.07422,-2.34375 -3.61328,-9.08203 -4.58984,-11.52344 -0.97656,-2.44141 -4.6875,-8.69141 -5.56641,-9.47266 -0.8789,-0.78125 -1.95312,-2.05078 -2.73437,-2.73437 -0.78125,-0.68359 -1.26953,-2.63672 -9.375,0.19531 -8.10547,2.83203 -11.23047,4.10156 -15.03907,5.07813 -3.80859,0.97656 -10.2539,2.14843 -12.40234,2.4414"
         style="fill:none;fill-rule:evenodd;stroke:#00f800;stroke-width:1px;stroke-linecap:butt;stroke-linejoin:miter;stroke-opacity:1" />
      <path
         sodipodi:nodetypes="cssssssssssssssssssssssssssssssssc"
         inkscape:connector-curvature="0"
         id="path4313"
         d="m 241.60156,823.84658 c 0,0 -11.52343,15.03906 -13.08593,16.60156 -1.5625,1.5625 -1.75782,9.76563 -1.36719,12.30469 0.39062,2.53906 0.97656,16.99219 1.17187,21.48438 0.19532,4.49218 0.97657,7.03125 2.14844,8.78906 1.17188,1.75781 -1.36719,1.75781 -1.95312,6.64062 -0.58594,4.88282 -1.36719,15.82032 -0.58594,18.16407 0.78125,2.34375 5.46875,8.20312 6.83594,9.17968 1.36718,0.97657 1.5625,1.5625 1.17187,9.375 -0.39062,7.8125 3.125,8.59375 5.66406,10.74219 2.53907,2.14844 10.3645,5.65915 16.01563,5.66406 2.47909,0.002 -6.44531,0.19532 2.92969,6.83594 9.375,6.64063 6.83593,7.03125 15.23437,5.66406 8.39844,-1.36718 8.78906,-2.14843 12.5,0.58594 3.71094,2.73438 10.15625,3.71094 15.23438,3.71094 5.07812,0 8.78906,2.34375 13.47656,0.78125 4.6875,-1.5625 2.4414,-1.95313 8.20312,-0.0977 5.76172,1.85547 8.20313,1.85547 10.74219,1.85547 l 3.32031,0 c 2.14844,0 1.66016,1.95313 6.44532,-0.19531 4.78515,-2.14844 5.85937,-1.5625 7.8125,-3.90625 1.95312,-2.34375 2.34375,-5.76172 9.86328,-3.02735 7.51953,2.73438 7.51953,1.46485 11.23047,1.26954 3.71093,-0.19532 16.30859,0.78125 21.67968,-2.2461 5.3711,-3.02734 6.34766,-4.88281 8.20313,-7.32422 1.85547,-2.4414 2.34375,-2.05078 7.32422,-4.19922 4.98047,-2.14843 3.32031,-1.36718 4.88281,-4.29687 1.5625,-2.92969 2.53906,-6.93359 2.53906,-8.69141 0,-1.75781 0.39063,-3.80859 3.51563,-6.93359 3.125,-3.125 8.88672,-8.78906 9.375,-10.05859 0.48828,-1.26954 1.36718,-5.46875 1.17187,-10.64454 -0.19531,-5.17578 0.97656,-14.35546 1.36719,-17.57812 0.39062,-3.22266 1.36719,-15.625 1.75781,-19.14063 0.39063,-3.51562 0.58594,-9.76562 0.58594,-12.69531"
         style="fill:none;fill-rule:evenodd;stroke:#00f800;stroke-width:1px;stroke-linecap:butt;stroke-linejoin:miter;stroke-opacity:1" />
      <path
         inkscape:connector-curvature="0"
         id="path4315"
         d="m 285.32864,954.16828 c -3.44171,0.0286 -5.63546,0.50268 -10.0818,1.38106 -0.33484,2.79542 -0.83453,6.83783 -1.79539,9.94369 -0.72061,2.32927 -0.75269,5.1897 0.41432,7.31966 1.97454,3.60381 6.05774,5.96046 9.94369,7.04345 3.51946,0.98085 7.70394,0.95522 10.91044,-0.82864 1.73512,-0.96529 2.69648,-3.0272 3.59077,-4.83374 0.80534,-1.62685 1.29205,-3.43801 1.51918,-5.24806 0.29884,-2.3815 1.01613,-5.16729 -0.2289,-7.19974 -1.33628,-2.18141 -4.44748,-2.38861 -6.67644,-3.57259 -2.52803,-1.34285 -4.7498,-4.02874 -7.59587,-4.00509 z"
         style="fill:none;fill-rule:evenodd;stroke:#00fb00;stroke-width:1px;stroke-linecap:butt;stroke-linejoin:miter;stroke-opacity:1"
         sodipodi:nodetypes="scsaaaaaaas" />
      <path
         sodipodi:nodetypes="caaaaaaaaaaaaaaaaassc"
         inkscape:connector-curvature="0"
         id="path4317"
         d="m 274.97063,956.10177 c 0,0 -0.14812,6.49279 -1.79539,9.11505 -1.10197,1.7542 -3.35267,2.43668 -4.97185,3.72888 -1.55722,1.24276 -3.36803,2.2687 -4.55752,3.86699 -1.44,1.93489 -2.29596,4.29412 -2.90024,6.62913 -0.614,2.37256 -1.28966,4.9433 -0.69054,7.31966 0.56809,2.25326 2.54699,3.88802 3.86699,5.80048 1.57467,2.28143 3.11054,4.59582 4.83374,6.76724 3.16317,3.9859 6.27666,8.0844 10.0818,11.4629 3.88633,3.4506 8.19222,6.5211 12.84393,8.8388 4.69078,2.3372 9.73837,4.1577 14.91553,4.9718 4.63885,0.7295 9.80097,1.7807 14.08689,-0.1381 3.18246,-1.4248 5.89003,-4.4433 7.04345,-7.7339 0.94612,-2.6992 0.0895,-5.7755 -0.55243,-8.5627 -0.98239,-4.2653 -2.83753,-8.332 -4.97184,-12.15337 -2.0564,-3.68187 -4.66315,-7.06157 -7.45777,-10.2199 -1.96405,-2.21966 -4.31476,-4.06466 -6.49102,-6.0767 -2.10554,-1.94666 -4.97537,-3.25752 -6.35291,-5.80048 -1.53985,-2.84259 -0.89412,-6.44944 -1.61989,-9.61576 -0.74792,-3.26299 -2.0097,-4.35914 -3.68005,-4.71383 -1.70764,-0.3626 -3.677,-1.00027 -5.19618,-1.96701"
         style="fill:none;fill-rule:evenodd;stroke:#00f100;stroke-width:1px;stroke-linecap:butt;stroke-linejoin:miter;stroke-opacity:1" />
      <path
         sodipodi:nodetypes="caaaaaaaaaaaaaaac"
         inkscape:connector-curvature="0"
         id="path4319"
         d="m 273.03713,966.32167 c 0,0 -4.83448,2.3997 -7.18155,3.72889 -2.44584,1.38512 -5.26818,2.36037 -7.18156,4.41941 -1.90618,2.05129 -3.2574,4.72469 -3.86699,7.45777 -0.76224,3.41746 -0.54379,7.12832 0.41432,10.49612 1.09998,3.86647 3.48722,7.31019 5.9386,10.49614 3.49394,4.5409 7.98401,8.2373 12.2915,12.0153 3.69725,3.2427 7.43521,6.5013 11.60097,9.115 3.90656,2.4511 8.04249,4.6547 12.42961,6.0767 4.08938,1.3255 8.40783,2.2952 12.70583,2.2097 3.71933,-0.074 7.71192,-0.4482 10.91043,-2.3478 1.88042,-1.1168 2.99657,-3.2019 4.28132,-4.9718 1.04353,-1.4376 2.18128,-2.8788 2.76213,-4.5576 0.62172,-1.7969 0.77041,-3.7626 0.69054,-5.6623 -0.0948,-2.2552 -0.73199,-4.4674 -1.38107,-6.6292 -0.96856,-3.2259 -2.30882,-6.3371 -3.72889,-9.39123 -0.90311,-1.94232 -2.76213,-5.10995 -3.03835,-5.66238"
         style="fill:none;fill-rule:evenodd;stroke:#00ee00;stroke-width:1px;stroke-linecap:butt;stroke-linejoin:miter;stroke-opacity:1" />
      <path
         sodipodi:nodetypes="csaaaaaac"
         inkscape:connector-curvature="0"
         id="path4321"
         d="m 287.9031,1017.5271 c 0,0 -6.05342,-3.8428 -9.06548,-6.5969 -1.64626,-1.5053 -1.29008,-4.6276 -0.55243,-6.7673 1.06178,-3.0799 4.06574,-5.17096 6.62912,-7.18152 3.14534,-2.46701 6.80299,-4.27073 10.49612,-5.80048 2.61144,-1.08169 5.38574,-1.74954 8.1483,-2.34782 3.0924,-0.66972 6.36433,-2.30256 9.39126,-1.38107 3.866,1.17694 6.63569,4.85442 8.97695,8.1483 2.52148,3.54743 4.55752,10.08179 5.10995,12.01529"
         style="fill:none;fill-rule:evenodd;stroke:#00e800;stroke-width:1px;stroke-linecap:butt;stroke-linejoin:miter;stroke-opacity:1" />
      <path
         sodipodi:nodetypes="caaaaaaaaaaaac"
         inkscape:connector-curvature="0"
         id="path4323"
         d="m 352.53906,959.39346 c 0,0 1.68097,-3.16934 3.125,-4.10157 1.45948,-0.94221 3.63535,-2.13947 5.07813,-1.17187 3.34232,2.24152 1.27988,7.94641 1.95312,11.91406 0.63028,3.71452 1.21585,7.43804 1.95313,11.13281 0.87472,4.38354 0.0374,9.73784 2.92969,13.08594 2.11225,2.44513 5.81968,2.97217 8.98437,3.32031 2.87329,0.31608 6.09065,0.31106 8.59375,-1.17187 1.10899,-0.65701 1.71358,-1.98046 2.34375,-3.125 0.70362,-1.27794 1.27567,-2.66332 1.5625,-4.10156 0.41995,-2.10577 0.18284,-4.29593 0.19531,-6.44532 0.0404,-6.96724 -3.41886,-14.62357 -0.39062,-20.89843 0.60557,-1.25481 2.13076,-1.81365 3.32031,-2.53907 2.33718,-1.42526 3.125,0.19532 7.42188,-3.51562"
         style="fill:none;fill-rule:evenodd;stroke:#00f500;stroke-width:1px;stroke-linecap:butt;stroke-linejoin:miter;stroke-opacity:1" />
      <path
         sodipodi:nodetypes="caaaaaaaaaaaaaaaaaaaaaac"
         inkscape:connector-curvature="0"
         id="path4329"
         d="m 387.69531,966.62002 c 0,2.53906 0.18548,5.74954 1.17188,8.39844 0.46003,1.23538 1.06918,2.56335 2.14844,3.32031 1.42225,0.99752 3.40396,0.70816 5.07812,1.17187 2.44049,0.67598 4.81833,1.56058 7.22656,2.34375 2.99557,0.97418 6.08522,1.69788 8.98438,2.92969 2.17122,0.92252 4.16695,2.213 6.25,3.32031 3.06032,1.62681 6.26605,3.00591 9.17969,4.88282 2.69297,1.73476 5.75305,3.25427 7.61718,5.85937 2.24041,3.13092 3.94493,7.09462 3.71094,10.93752 -0.11857,1.9473 -1.33661,3.7371 -2.53906,5.2734 -1.51049,1.9299 -3.6167,3.3405 -5.66406,4.6875 -2.74865,1.8084 -5.64653,3.5177 -8.78907,4.4922 -3.38597,1.05 -7.00314,1.2712 -10.54687,1.3672 -4.37249,0.119 -8.74629,-0.4287 -13.08594,-0.9766 -3.67433,-0.4639 -7.35406,-1.0177 -10.9375,-1.9531 -3.26717,-0.8528 -6.44726,-2.0365 -9.57031,-3.3203 -3.07037,-1.2622 -6.15251,-2.5646 -8.98438,-4.2969 -2.65477,-1.6239 -5.32627,-3.3632 -7.42187,-5.664 -1.24075,-1.3622 -2.44945,-2.9086 -2.92969,-4.6875 -0.54326,-2.0123 -0.14999,-4.1945 0.19531,-6.25004 0.50828,-3.0258 1.65026,-5.91879 2.73438,-8.78907 0.95764,-2.53541 2.86824,-4.73917 3.32031,-7.42187 0.449,-2.6645 -0.69384,-8.08095 -0.69384,-8.08095 0,0 -0.76335,-3.81685 -0.977,-5.20652 -0.21366,-1.38967 -0.49853,-2.99876 -0.56975,-3.94958"
         style="fill:none;fill-rule:evenodd;stroke:#00e400;stroke-width:1px;stroke-linecap:butt;stroke-linejoin:miter;stroke-opacity:1" />
      <path
         sodipodi:nodetypes="csaaaaaaaaaaac"
         inkscape:connector-curvature="0"
         id="path4331"
         d="m 360.9375,990.44814 c 0.4155,0 -1.57221,5.28683 -1.95312,8.00782 -0.69552,4.96834 -2.49026,10.39774 -0.58594,15.03904 1.62598,3.9629 5.74248,6.5189 9.375,8.7891 3.72203,2.3261 8.10978,3.3964 12.30469,4.6875 5.11636,1.5747 10.34221,2.8455 15.625,3.7109 6.32277,1.0358 12.74104,2.0673 19.14062,1.7578 4.17043,-0.2017 8.38605,-0.9024 12.30469,-2.3437 3.09215,-1.1373 6.24949,-2.5678 8.59375,-4.8828 1.42215,-1.4044 2.39871,-3.2785 3.02735,-5.1758 1.20524,-3.6376 1.76256,-7.6256 1.26952,-11.4258 -0.39512,-3.0454 -1.49721,-6.1225 -3.32031,-8.5937 -1.87123,-2.53648 -4.83713,-4.05544 -7.42187,-5.85942 -2.75604,-1.92354 -4.88282,-3.32031 -8.59375,-5.27344"
         style="fill:none;fill-rule:evenodd;stroke:#00eb00;stroke-width:1px;stroke-linecap:butt;stroke-linejoin:miter;stroke-opacity:1" />
      <path
         sodipodi:nodetypes="caaaaasc"
         inkscape:connector-curvature="0"
         id="path4333"
         d="m 425.39063,991.42471 c 0,0 -5.90635,-4.46046 -9.375,-4.6875 -3.3604,-0.21995 -6.67349,1.55742 -9.57032,3.32031 -4.18714,2.54812 -7.50443,6.4243 -10.74218,10.15628 -2.50317,2.8853 -5.27979,5.7722 -6.64063,9.375 -1.06116,2.8094 -1.70724,6.0659 -0.97656,8.9843 0.47166,1.8839 1.3744,4.3257 3.27608,4.7679 4.21399,0.9799 9.70914,1.5393 11.91406,1.9531"
         style="fill:none;fill-rule:evenodd;stroke:#00ec00;stroke-width:1px;stroke-linecap:butt;stroke-linejoin:miter;stroke-opacity:1" />
    </g>
  </g>
  <WCB
     pausedposy="0"
     pausedposx="0"
     lastknownposy="0"
     lastknownposx="0"
     lastpathnc="0"
     lastpath="0"
     node="0"
     layer="0" />
</svg>
