<?xml version="1.0" encoding="UTF-8" standalone="no"?>
<!-- Created with Inkscape (http://www.inkscape.org/) -->

<svg
   xmlns:osb="http://www.openswatchbook.org/uri/2009/osb"
   xmlns:dc="http://purl.org/dc/elements/1.1/"
   xmlns:cc="http://creativecommons.org/ns#"
   xmlns:rdf="http://www.w3.org/1999/02/22-rdf-syntax-ns#"
   xmlns:svg="http://www.w3.org/2000/svg"
   xmlns="http://www.w3.org/2000/svg"
   xmlns:sodipodi="http://sodipodi.sourceforge.net/DTD/sodipodi-0.dtd"
   xmlns:inkscape="http://www.inkscape.org/namespaces/inkscape"
   width="180mm"
   height="180mm"
   viewBox="0 0 637.79528 637.79527"
   id="svg3409"
   version="1.1"
   inkscape:version="0.91 r"
   sodipodi:docname="1.svg">
  <sodipodi:namedview
     id="base"
     pagecolor="#ffffff"
     bordercolor="#666666"
     borderopacity="1.0"
     inkscape:pageopacity="0.0"
     inkscape:pageshadow="2"
     inkscape:zoom="0.50000001"
     inkscape:cx="530.85692"
     inkscape:cy="199.73691"
     inkscape:document-units="mm"
     inkscape:current-layer="layer1"
     showgrid="false"
     inkscape:window-width="836"
     inkscape:window-height="710"
     inkscape:window-x="954"
     inkscape:window-y="127"
     inkscape:window-maximized="0"
     units="mm"
     showguides="true"
     inkscape:guide-bbox="true" />
  <defs
     id="defs3411">
    <linearGradient
       id="linearGradient4148"
       osb:paint="solid">
      <stop
         style="stop-color:#550044;stop-opacity:1;"
         offset="0"
         id="stop4150" />
    </linearGradient>
  </defs>
  <metadata
     id="metadata3414">
    <rdf:RDF>
      <cc:Work
         rdf:about="">
        <dc:format>image/svg+xml</dc:format>
        <dc:type
           rdf:resource="http://purl.org/dc/dcmitype/StillImage" />
        <dc:title />
      </cc:Work>
    </rdf:RDF>
  </metadata>
  <g
     transform="translate(0,-414.56693)"
     id="layer1"
     inkscape:groupmode="layer"
     inkscape:label="Layer 1">
    <g
       id="g4169"
       transform="matrix(1.0269436,0,0,1.694147,-31.243225,-514.26231)">
      <path
         sodipodi:open="true"
         d="m 498.45473,713.92774 a 96.584419,95.806931 0 0 1 104.45893,24.49513 96.584419,95.806931 0 0 1 17.13518,105.10854 96.584419,95.806931 0 0 1 -91.3518,55.90504 96.584419,95.806931 0 0 1 -87.01248,-62.34536"
         sodipodi:end="2.7855172"
         sodipodi:start="4.3553575"
         sodipodi:ry="95.806931"
         sodipodi:rx="96.584419"
         sodipodi:cy="803.69293"
         sodipodi:cx="532.21045"
         sodipodi:type="arc"
         id="path4463"
         style="opacity:1;fill:none;fill-opacity:1;stroke:#000000;stroke-width:0.99921262;stroke-miterlimit:4;stroke-dasharray:none;stroke-opacity:1" />
      <ellipse
         ry="89.354767"
         rx="95.996689"
         cy="790.96423"
         cx="159.2345"
         id="path4474"
         style="opacity:1;fill:none;fill-opacity:1;stroke:#000000;stroke-width:0.99921262;stroke-miterlimit:4;stroke-dasharray:none;stroke-opacity:1" />
      <path
         d="m 172.13468,713.30789 a 78.348206,77.994759 0 0 1 60.95365,87.91427 78.348206,77.994759 0 0 1 -84.35693,66.02112 78.348206,77.994759 0 0 1 -71.430963,-79.7143 78.348206,77.994759 0 0 1 75.485043,-75.92181"
         sodipodi:open="true"
         sodipodi:end="4.676173"
         sodipodi:start="4.9247374"
         sodipodi:ry="77.994759"
         sodipodi:rx="78.348206"
         sodipodi:cy="789.55078"
         sodipodi:cx="155.62231"
         sodipodi:type="arc"
         id="path4521"
         style="opacity:1;fill:none;fill-opacity:1;stroke:#000000;stroke-width:0.99921262;stroke-miterlimit:4;stroke-dasharray:none;stroke-opacity:1" />
      <path
         sodipodi:open="true"
         d="m 514.31846,728.77998 a 79.732445,80.14399 0 0 1 96.02943,54.83579 79.732445,80.14399 0 0 1 -50.60654,98.67386 79.732445,80.14399 0 0 1 -100.14269,-46.81567"
         sodipodi:end="2.7712"
         sodipodi:start="4.4639486"
         sodipodi:ry="80.14399"
         sodipodi:rx="79.732445"
         sodipodi:cy="806.46332"
         sodipodi:cx="533.92407"
         sodipodi:type="arc"
         id="path4586"
         style="opacity:1;fill:none;fill-opacity:1;stroke:#000000;stroke-width:0.99921262;stroke-miterlimit:4;stroke-dasharray:none;stroke-opacity:1" />
      <path
         sodipodi:nodetypes="cc"
         inkscape:connector-curvature="0"
         id="path4682"
         d="m 279.36605,805.46062 c 52.27768,61.34949 261.94272,20.9474 259.59422,12.72792"
         style="fill:none;fill-rule:evenodd;stroke:#000000;stroke-width:0.99921262;stroke-linecap:butt;stroke-linejoin:miter;stroke-miterlimit:4;stroke-dasharray:none;stroke-opacity:1" />
      <path
         sodipodi:nodetypes="cccc"
         inkscape:connector-curvature="0"
         id="path4684"
         d="m 538.60725,819.0463 c 4.96848,-8.0145 -3.04898,-25.16481 -3.09346,-25.14551 -172.48347,-25.53846 -238.47039,-12.48045 -238.47007,-12.4818 -30.40559,16.26345 -15.69306,26.21116 -15.69306,26.21116"
         style="fill:none;fill-rule:evenodd;stroke:#000000;stroke-width:0.99921262;stroke-linecap:butt;stroke-linejoin:miter;stroke-miterlimit:4;stroke-dasharray:none;stroke-opacity:1" />
      <path
         sodipodi:nodetypes="cc"
         inkscape:connector-curvature="0"
         id="path4704"
         d="m 428.29598,663.53926 -52.0563,114.16741"
         style="fill:none;fill-rule:evenodd;stroke:#000000;stroke-width:0.99921262;stroke-linecap:butt;stroke-linejoin:miter;stroke-miterlimit:4;stroke-dasharray:none;stroke-opacity:1" />
      <path
         inkscape:connector-curvature="0"
         id="path4706"
         d="m 532.44575,793.50698 c 0,0 -0.64255,-85.6271 -99.63753,-122.39665 -14.14213,7.77817 2.82843,12.72792 2.82843,12.72792"
         style="fill:none;fill-rule:evenodd;stroke:#000000;stroke-width:0.99921262;stroke-linecap:butt;stroke-linejoin:miter;stroke-miterlimit:4;stroke-dasharray:none;stroke-opacity:1"
         sodipodi:nodetypes="ccc" />
      <path
         sodipodi:nodetypes="ccc"
         inkscape:connector-curvature="0"
         id="path4717"
         d="m 434.65626,683.44733 c 61.51824,26.16295 87.48951,108.50929 87.48951,108.50929 1.05365,0.14249 2.95578,0.42641 4.22002,0.60151"
         style="fill:none;fill-rule:evenodd;stroke:#000000;stroke-width:0.99921262;stroke-linecap:butt;stroke-linejoin:miter;stroke-miterlimit:4;stroke-dasharray:none;stroke-opacity:1" />
      <path
         sodipodi:nodetypes="cc"
         inkscape:connector-curvature="0"
         id="path4719"
         d="m 434.99205,683.48286 c -21.21321,61.51829 -41.95858,95.46126 -41.95858,95.46126"
         style="fill:none;fill-rule:evenodd;stroke:#000000;stroke-width:0.99921262;stroke-linecap:butt;stroke-linejoin:miter;stroke-miterlimit:4;stroke-dasharray:none;stroke-opacity:1" />
      <path
         sodipodi:nodetypes="cc"
         inkscape:connector-curvature="0"
         id="path4721"
         d="m 438.46508,663.64466 1.78921,10.69238"
         style="fill:none;fill-rule:evenodd;stroke:#000000;stroke-width:0.99921262;stroke-linecap:butt;stroke-linejoin:miter;stroke-miterlimit:4;stroke-dasharray:none;stroke-opacity:1" />
      <path
         sodipodi:nodetypes="ccccc"
         inkscape:connector-curvature="0"
         id="path4723"
         d="m 400.28131,655.55398 c 29.69849,16.97056 72.12489,2.82843 72.12489,2.82843 18.38478,-21.92031 -21.92031,-24.04163 -21.92031,-24.04163 -5.50947,9.77581 -19.14746,11.53683 -19.14746,11.53683 -47.94925,-0.22312 -30.2483,10.21558 -30.2483,10.21558"
         style="fill:none;fill-rule:evenodd;stroke:#000000;stroke-width:0.99921262;stroke-linecap:butt;stroke-linejoin:miter;stroke-miterlimit:4;stroke-dasharray:none;stroke-opacity:1" />
      <path
         sodipodi:nodetypes="cc"
         inkscape:connector-curvature="0"
         id="path4754"
         d="m 405.93817,713.53674 c -94.0452,-21.21321 -138.65821,-3.47822 -138.65821,-3.47822"
         style="fill:none;fill-rule:evenodd;stroke:#000000;stroke-width:0.99921262;stroke-linecap:butt;stroke-linejoin:miter;stroke-miterlimit:4;stroke-dasharray:none;stroke-opacity:1" />
      <path
         sodipodi:nodetypes="cc"
         inkscape:connector-curvature="0"
         id="path4756"
         d="M 399.92775,725.02722 C 305.17544,708.05666 276.37341,721.31491 276.37341,721.31491"
         style="fill:none;fill-rule:evenodd;stroke:#000000;stroke-width:0.99921262;stroke-linecap:butt;stroke-linejoin:miter;stroke-miterlimit:4;stroke-dasharray:none;stroke-opacity:1" />
      <path
         sodipodi:nodetypes="cc"
         inkscape:connector-curvature="0"
         id="path4758"
         d="m 195.97165,662.71344 c 96.87363,36.06244 106.72893,117.89035 106.72893,117.89035"
         style="fill:none;fill-rule:evenodd;stroke:#000000;stroke-width:0.99921262;stroke-linecap:butt;stroke-linejoin:miter;stroke-miterlimit:4;stroke-dasharray:none;stroke-opacity:1" />
      <path
         sodipodi:nodetypes="cc"
         inkscape:connector-curvature="0"
         id="path4760"
         d="m 187.70734,675.44136 c 78.78571,18.77563 112.80741,103.54599 96.4548,114.53974"
         style="fill:none;fill-rule:evenodd;stroke:#000000;stroke-width:0.99921262;stroke-linecap:butt;stroke-linejoin:miter;stroke-miterlimit:4;stroke-dasharray:none;stroke-opacity:1" />
      <path
         sodipodi:nodetypes="cccc"
         inkscape:connector-curvature="0"
         id="path4762"
         d="M 99.219551,721.50274 C 76.592131,708.06771 94.81118,699.3946 94.81118,699.3946 c 102.53049,-43.13351 154.85639,25.45585 154.85639,25.45585 0,21.92031 -14.31003,12.02081 -14.31003,12.02081"
         style="fill:none;fill-rule:evenodd;stroke:#000000;stroke-width:0.99921262;stroke-linecap:butt;stroke-linejoin:miter;stroke-miterlimit:4;stroke-dasharray:none;stroke-opacity:1" />
      <path
         sodipodi:nodetypes="cc"
         inkscape:connector-curvature="0"
         id="path4791"
         d="m 155.59112,701.22303 c -14.14214,43.13351 -3.50429,88.43492 -3.50429,88.43492"
         style="fill:none;fill-rule:evenodd;stroke:#000000;stroke-width:0.99921262;stroke-linecap:butt;stroke-linejoin:miter;stroke-miterlimit:4;stroke-dasharray:none;stroke-opacity:1" />
      <path
         sodipodi:nodetypes="cc"
         inkscape:connector-curvature="0"
         id="path4793"
         d="m 175.98386,702.77021 c -17.67767,48.79036 -8.34068,81.30931 -8.34068,81.30931"
         style="fill:none;fill-rule:evenodd;stroke:#000000;stroke-width:0.99921262;stroke-linecap:butt;stroke-linejoin:miter;stroke-miterlimit:4;stroke-dasharray:none;stroke-opacity:1" />
      <path
         sodipodi:nodetypes="cc"
         inkscape:connector-curvature="0"
         id="path4797"
         d="m 181.78532,687.41798 c 26.16295,-55.86144 82.02438,-83.48279 82.02438,-83.48279"
         style="fill:none;fill-rule:evenodd;stroke:#000000;stroke-width:0.99921262;stroke-linecap:butt;stroke-linejoin:miter;stroke-miterlimit:4;stroke-dasharray:none;stroke-opacity:1" />
      <path
         sodipodi:nodetypes="ccccc"
         inkscape:connector-curvature="0"
         id="path4828"
         d="m 271.58788,592.62148 c 28.99138,-17.67767 58.68986,-9.8995 58.68986,-9.8995 1.41421,-17.67767 -56.56854,-5.65685 -56.56854,-5.65685 -18.79899,4.37621 -10.6066,14.14213 -10.6066,14.14213 z"
         style="fill:none;fill-rule:evenodd;stroke:#000000;stroke-width:0.99921262;stroke-linecap:butt;stroke-linejoin:miter;stroke-miterlimit:4;stroke-dasharray:none;stroke-opacity:1" />
      <path
         sodipodi:nodetypes="ccccccc"
         inkscape:connector-curvature="0"
         id="path4857"
         d="m 197.34167,604.64229 c 19.09188,7.07107 17.67767,16.97057 17.67767,16.97057 l 6.36396,0 c 0,-20.5061 -23.33453,-26.16296 -23.33453,-26.16296 2.12132,-21.2132 -30.40559,-7.77817 -30.40559,-7.77817 -12.28598,24.66035 12.9489,26.91425 12.9489,26.91425 24.52776,0.66291 14.3631,-19.22446 17.89864,-19.22446"
         style="fill:none;fill-rule:evenodd;stroke:#000000;stroke-width:0.99921262;stroke-linecap:butt;stroke-linejoin:miter;stroke-miterlimit:4;stroke-dasharray:none;stroke-opacity:1" />
      <path
         sodipodi:nodetypes="cc"
         inkscape:connector-curvature="0"
         id="path4888"
         d="m 166.31736,589.43949 c 14.14214,7.07107 -0.53033,17.05895 -0.53033,17.05895"
         style="fill:none;fill-rule:evenodd;stroke:#000000;stroke-width:0.99921262;stroke-linecap:butt;stroke-linejoin:miter;stroke-miterlimit:4;stroke-dasharray:none;stroke-opacity:1" />
      <path
         sodipodi:nodetypes="ccccc"
         inkscape:connector-curvature="0"
         id="path4890"
         d="m 345.12698,806.16773 c 8.26332,4.06432 13.5981,7.78592 18.00327,10.06333 l 7.05483,2.09006 c -12.18609,16.63947 -26.47231,-0.83969 -26.47231,-0.83969 0,0 -4.61116,-8.48528 1.41421,-11.3137 z"
         style="fill:none;fill-rule:evenodd;stroke:#000000;stroke-width:0.99921262;stroke-linecap:butt;stroke-linejoin:miter;stroke-miterlimit:4;stroke-dasharray:none;stroke-opacity:1" />
      <path
         sodipodi:nodetypes="cccc"
         inkscape:connector-curvature="0"
         id="path4892"
         d="m 352.09128,809.94939 77.88852,-3.07456 c 7.07107,10.6066 -10.6066,9.19239 -10.6066,9.19239 l -56.56855,0"
         style="fill:none;fill-rule:evenodd;stroke:#000000;stroke-width:0.99921262;stroke-linecap:butt;stroke-linejoin:miter;stroke-miterlimit:4;stroke-dasharray:none;stroke-opacity:1" />
      <path
         sodipodi:nodetypes="cc"
         inkscape:connector-curvature="0"
         id="path4912"
         d="m 471.82778,727.38598 c -18.38478,-2.12132 2.07107,-16.46688 2.07107,-16.46688"
         style="fill:none;fill-rule:evenodd;stroke:#000000;stroke-width:0.99921262;stroke-linecap:butt;stroke-linejoin:miter;stroke-miterlimit:4;stroke-dasharray:none;stroke-opacity:1" />
      <path
         sodipodi:nodetypes="ccc"
         inkscape:connector-curvature="0"
         id="path4914"
         d="m 487.6427,703.70342 c 80.6102,-23.33452 116.2854,16.19728 116.2854,16.19728 -1.4142,12.02081 -9.14819,10.91596 -9.14819,10.91596"
         style="fill:none;fill-rule:evenodd;stroke:#000000;stroke-width:0.99921262;stroke-linecap:butt;stroke-linejoin:miter;stroke-miterlimit:4;stroke-dasharray:none;stroke-opacity:1" />
      <path
         sodipodi:nodetypes="ccccc"
         inkscape:connector-curvature="0"
         id="path4934"
         d="m 271.49949,592.70987 c 0,0 -2.82843,-2.56327 -8.39689,11.44628 17.76606,28.8588 80.75478,11.36235 80.75478,11.36235 -1.41422,-13.43503 -47.52076,-7.77817 -47.52076,-7.77817 -18.00816,-0.44209 -27.42696,-15.10708 -25.19068,-15.20724"
         style="fill:none;fill-rule:evenodd;stroke:#000000;stroke-width:0.99921262;stroke-linecap:butt;stroke-linejoin:miter;stroke-miterlimit:4;stroke-dasharray:none;stroke-opacity:1" />
      <path
         sodipodi:nodetypes="cc"
         inkscape:connector-curvature="0"
         id="path5612"
         d="m 163.872,685.55056 c 14.14213,-27.93071 50.0278,-68.58936 50.0278,-68.58936"
         style="fill:none;fill-rule:evenodd;stroke:#000000;stroke-width:0.99921262;stroke-linecap:butt;stroke-linejoin:miter;stroke-miterlimit:4;stroke-dasharray:none;stroke-opacity:1" />
      <path
         sodipodi:nodetypes="cc"
         inkscape:connector-curvature="0"
         id="path5614"
         d="m 220.08699,613.07212 c 10.96015,-14.49569 41.76219,-24.55235 41.76219,-24.55235"
         style="fill:none;fill-rule:evenodd;stroke:#000000;stroke-width:0.99921262;stroke-linecap:butt;stroke-linejoin:miter;stroke-miterlimit:4;stroke-dasharray:none;stroke-opacity:1" />
      <path
         sodipodi:nodetypes="cc"
         inkscape:connector-curvature="0"
         id="path5922"
         d="m 515.25,728.61221 c -5.75,1.5 -4.5,1.75 -4.5,1.75"
         style="fill:none;fill-rule:evenodd;stroke:#000000;stroke-width:0.99921262;stroke-linecap:butt;stroke-linejoin:miter;stroke-miterlimit:4;stroke-dasharray:none;stroke-opacity:1" />
      <ellipse
         ry="9.375"
         rx="10"
         cy="791.48724"
         cx="161.75"
         id="path4490"
         style="opacity:1;fill:none;fill-opacity:1;stroke:#000000;stroke-width:0.99921262;stroke-miterlimit:4;stroke-dasharray:none;stroke-opacity:1" />
      <path
         transform="matrix(0.9057277,0.12815157,-0.13534191,0.95654635,122.53513,14.401855)"
         inkscape:transform-center-y="-0.33194862"
         inkscape:transform-center-x="0.0096298253"
         d="m 163.75,793.36224 -2.44581,-0.82939 -2.0698,1.5446 0.033,-2.5824 -2.10861,-1.49119 2.46621,-0.76662 0.76661,-2.4662 1.49119,2.1086 2.5824,-0.033 -1.5446,2.06981 z"
         inkscape:randomized="0"
         inkscape:rounded="0"
         inkscape:flatsided="false"
         sodipodi:arg2="1.4137167"
         sodipodi:arg1="0.78539816"
         sodipodi:r2="1.9445436"
         sodipodi:r1="3.8890872"
         sodipodi:cy="790.61224"
         sodipodi:cx="161"
         sodipodi:sides="5"
         id="path4593"
         style="opacity:1;fill:none;fill-opacity:1;stroke:#000000;stroke-width:0.99921262;stroke-miterlimit:4;stroke-dasharray:none;stroke-opacity:1"
         sodipodi:type="star" />
      <path
         sodipodi:nodetypes="ccccc"
         inkscape:connector-curvature="0"
         id="path4658"
         d="m 439.125,782.48721 c -5.14221,-0.14765 14.71093,-48.77281 43.53661,-61.60983 l 10.88247,14.51662 c -32.45158,24.10468 -35.68035,48.6216 -35.68035,48.6216 z"
         style="fill:none;fill-rule:evenodd;stroke:#000000;stroke-width:1px;stroke-linecap:butt;stroke-linejoin:miter;stroke-opacity:1" />
    </g>
  </g>
  <WCB
     pausedposy="0"
     pausedposx="0"
     lastknownposy="0"
     lastknownposx="0"
     lastpathnc="0"
     lastpath="0"
     node="0"
     layer="0" />
</svg>
