<?xml version="1.0" encoding="UTF-8" standalone="no"?>
<!-- Created with Inkscape (http://www.inkscape.org/) -->

<svg
   xmlns:osb="http://www.openswatchbook.org/uri/2009/osb"
   xmlns:dc="http://purl.org/dc/elements/1.1/"
   xmlns:cc="http://creativecommons.org/ns#"
   xmlns:rdf="http://www.w3.org/1999/02/22-rdf-syntax-ns#"
   xmlns:svg="http://www.w3.org/2000/svg"
   xmlns="http://www.w3.org/2000/svg"
   xmlns:sodipodi="http://sodipodi.sourceforge.net/DTD/sodipodi-0.dtd"
   xmlns:inkscape="http://www.inkscape.org/namespaces/inkscape"
   width="180mm"
   height="180mm"
   viewBox="0 0 637.79528 637.79527"
   id="svg3409"
   version="1.1"
   inkscape:version="0.91 r13725"
   sodipodi:docname="qiche.svg">
  <sodipodi:namedview
     id="base"
     pagecolor="#ffffff"
     bordercolor="#666666"
     borderopacity="1.0"
     inkscape:pageopacity="0.0"
     inkscape:pageshadow="2"
     inkscape:zoom="0.99999999"
     inkscape:cx="8.0160987"
     inkscape:cy="416.26943"
     inkscape:document-units="mm"
     inkscape:current-layer="layer1"
     showgrid="false"
     inkscape:window-width="1920"
     inkscape:window-height="1018"
     inkscape:window-x="-8"
     inkscape:window-y="-8"
     inkscape:window-maximized="1"
     units="mm"
     showguides="true"
     inkscape:guide-bbox="true" />
  <defs
     id="defs3411">
    <linearGradient
       id="linearGradient4148"
       osb:paint="solid">
      <stop
         style="stop-color:#550044;stop-opacity:1;"
         offset="0"
         id="stop4150" />
    </linearGradient>
  </defs>
  <metadata
     id="metadata3414">
    <rdf:RDF>
      <cc:Work
         rdf:about="">
        <dc:format>image/svg+xml</dc:format>
        <dc:type
           rdf:resource="http://purl.org/dc/dcmitype/StillImage" />
        <dc:title />
      </cc:Work>
    </rdf:RDF>
  </metadata>
  <g
     transform="translate(0,-414.56693)"
     id="layer1"
     inkscape:groupmode="layer"
     inkscape:label="Layer 1">
    <g
       id="g4164"
       transform="matrix(1.0173203,0,0,1.7564621,-10.625823,-420.37357)">
      <path
         sodipodi:nodetypes="cccccc"
         inkscape:connector-curvature="0"
         id="path4234"
         d="m 321.97623,521.72198 -1.06066,219.20312 -94.75231,1.0606 0,-0.3535 c -12.37437,0.5078 -37.72936,-173.96599 32.52691,-217.08179 0,0 42.19071,-5.87788 63.28606,-2.82843 z"
         style="fill:none;fill-rule:evenodd;stroke:#000000;stroke-width:1px;stroke-linecap:butt;stroke-linejoin:miter;stroke-opacity:1" />
      <path
         sodipodi:nodetypes="cc"
         inkscape:connector-curvature="0"
         id="path4236"
         d="m 212.68902,621.59009 108.22655,0.54106"
         style="fill:none;fill-rule:evenodd;stroke:#000000;stroke-width:1px;stroke-linecap:butt;stroke-linejoin:miter;stroke-opacity:1" />
      <path
         sodipodi:nodetypes="cccc"
         inkscape:connector-curvature="0"
         id="path4238"
         d="m 333.15735,521.81037 c 0,1.76777 0.83969,220.52893 0.83969,220.52893 l 58.33631,-1.4142 c 18.4328,-38.25828 26.86369,-35.46404 60.6004,-44.7726"
         style="fill:none;fill-rule:evenodd;stroke:#000000;stroke-width:1px;stroke-linecap:butt;stroke-linejoin:miter;stroke-opacity:1" />
      <path
         sodipodi:nodetypes="csc"
         inkscape:connector-curvature="0"
         id="path4240"
         d="m 452.79098,696.7309 c 4.24264,-52.67944 -2.82843,-153.08861 -41.01219,-170.41272 -27.56518,-12.50643 -79.19596,-4.24264 -79.19596,-4.24264"
         style="fill:none;fill-rule:evenodd;stroke:#000000;stroke-width:1px;stroke-linecap:butt;stroke-linejoin:miter;stroke-opacity:1" />
      <path
         inkscape:connector-curvature="0"
         id="path4242"
         d="m 333.99704,622.4847 117.37973,-0.35355"
         style="fill:none;fill-rule:evenodd;stroke:#000000;stroke-width:1px;stroke-linecap:butt;stroke-linejoin:miter;stroke-opacity:1" />
      <path
         inkscape:connector-curvature="0"
         id="path4248"
         d="m 218.73864,757.1885 185.26197,0"
         style="fill:none;fill-rule:evenodd;stroke:#000000;stroke-width:1px;stroke-linecap:butt;stroke-linejoin:miter;stroke-opacity:1" />
      <path
         inkscape:connector-curvature="0"
         id="path4272"
         d="m 122.21856,756.835 c 6.71751,-37.4767 42.07285,-42.78 42.07285,-42.78 32.17336,-1.0606 45.25484,19.0919 45.25484,19.0919 16.97056,27.5772 4.59619,51.2652 4.59619,51.2652"
         style="opacity:0;fill:none;fill-rule:evenodd;stroke:#000000;stroke-width:1px;stroke-linecap:butt;stroke-linejoin:miter;stroke-opacity:1" />
      <path
         sodipodi:nodetypes="ccc"
         inkscape:connector-curvature="0"
         id="path4274"
         d="m 214.14244,785.60538 c -14.42767,27.9736 -41.01219,25.67682 -41.01219,25.67682 -38.97992,2.2916 -52.74834,-34.377 -50.91169,-54.8008"
         style="fill:none;fill-rule:evenodd;stroke:#000000;stroke-width:1px;stroke-linecap:butt;stroke-linejoin:miter;stroke-opacity:1" />
      <path
         d="m 156.82453,789.88883 a 31.69356,32.224201 0 0 1 -15.05879,-40.15953 31.69356,32.224201 0 0 1 37.5914,-19.65663 31.69356,32.224201 0 0 1 23.37012,35.81351 31.69356,32.224201 0 0 1 -32.42435,27.57488"
         sodipodi:open="true"
         sodipodi:end="1.6042421"
         sodipodi:start="2.047341"
         sodipodi:ry="32.224201"
         sodipodi:rx="31.69356"
         sodipodi:cy="761.25488"
         sodipodi:cx="171.36273"
         sodipodi:type="arc"
         id="path4288"
         style="opacity:1;fill:none;fill-opacity:1;stroke:#000000;stroke-width:0.99921262;stroke-miterlimit:4;stroke-dasharray:none;stroke-opacity:1" />
      <path
         d="m 438.44702,792.15217 a 32.427464,32.781574 0 0 1 -15.40749,-40.85415 32.427464,32.781574 0 0 1 38.46187,-19.99664 32.427464,32.781574 0 0 1 23.91128,36.43297 32.427464,32.781574 0 0 1 -33.17517,28.05184"
         sodipodi:open="true"
         sodipodi:end="1.6042421"
         sodipodi:start="2.047341"
         sodipodi:ry="32.781574"
         sodipodi:rx="32.427464"
         sodipodi:cy="763.02295"
         sodipodi:cx="453.32187"
         sodipodi:type="arc"
         id="path4290"
         style="opacity:1;fill:none;fill-opacity:1;stroke:#000000;stroke-width:0.99921262;stroke-miterlimit:4;stroke-dasharray:none;stroke-opacity:1" />
      <path
         d="m 431.41715,807.74961 a 48.522507,49.936844 0 0 1 -23.05484,-62.23398 48.522507,49.936844 0 0 1 57.55203,-30.46128 48.522507,49.936844 0 0 1 35.77941,55.49909 48.522507,49.936844 0 0 1 -49.64133,42.73194"
         sodipodi:open="true"
         sodipodi:end="1.6042421"
         sodipodi:start="2.047341"
         sodipodi:ry="49.936844"
         sodipodi:rx="48.522507"
         sodipodi:cy="763.37646"
         sodipodi:cx="453.67499"
         sodipodi:type="arc"
         id="path4292"
         style="opacity:0;fill:#ffffff;fill-opacity:1;stroke:#000000;stroke-width:1.179829;stroke-miterlimit:4;stroke-dasharray:none;stroke-opacity:1" />
      <path
         sodipodi:nodetypes="ccccccc"
         inkscape:connector-curvature="0"
         id="path4294"
         d="m 403.64706,757.5421 c -0.64645,65.5722 55.27933,56.6114 55.27933,56.6114 42.76892,-1.8284 41.94785,-55.8436 41.94785,-55.8436 l 0,0.2285 c -2.04788,-14.07587 -7.33103,-45.35451 -52.3259,-43.7763 l 0,0 c -32.0251,4.60741 -44.93472,25.00304 -44.90128,42.78 z"
         style="fill:none;fill-rule:evenodd;stroke:#000000;stroke-width:1px;stroke-linecap:butt;stroke-linejoin:miter;stroke-opacity:1" />
      <path
         sodipodi:nodetypes="cc"
         inkscape:connector-curvature="0"
         id="path4296"
         d="m 122.15422,756.9171 c -44.34068,-0.7618 -41.16144,-16.4033 -43.77628,-14.2242 7.181981,-4.19772 2.40901,-25.14576 2.40901,-25.14576"
         style="fill:none;fill-rule:evenodd;stroke:#000000;stroke-width:1px;stroke-linecap:butt;stroke-linejoin:miter;stroke-opacity:1" />
      <path
         sodipodi:nodetypes="cc"
         inkscape:connector-curvature="0"
         id="path4300"
         d="m 81.117984,717.67898 c -56.111164,-9.13606 -36.848142,40.1471 -2.651652,24.92549"
         style="fill:none;fill-rule:evenodd;stroke:#000000;stroke-width:1px;stroke-linecap:butt;stroke-linejoin:miter;stroke-opacity:1" />
      <path
         sodipodi:nodetypes="cccccc"
         inkscape:connector-curvature="0"
         id="path4302"
         d="m 60.346717,717.14865 c -7.77817,-22.981 -3.535537,-42.6916 -3.535537,-42.6916 0,0 22.72621,21.10035 37.12311,-4.94975 5.65685,-14.49569 -18.03122,-16.26346 -18.03122,-16.26346 l 0,0 c -16.26346,0.70711 -19.091887,21.03643 -19.091887,21.03643"
         style="fill:none;fill-rule:evenodd;stroke:#000000;stroke-width:1px;stroke-linecap:butt;stroke-linejoin:miter;stroke-opacity:1" />
      <path
         sodipodi:nodetypes="cccsc"
         inkscape:connector-curvature="0"
         id="path4304"
         d="m 69.00878,654.83484 85.02959,-26.69329 C 211.14925,493.95129 306.92828,474.2414 434.05265,516.06513 c 32.44481,35.041 18.73833,90.50967 33.23402,104.6518 14.49569,14.14214 120.03138,6.18718 116.8494,93.16127"
         style="fill:none;fill-rule:evenodd;stroke:#000000;stroke-width:1px;stroke-linecap:butt;stroke-linejoin:miter;stroke-opacity:1" />
      <path
         sodipodi:nodetypes="ccccc"
         inkscape:connector-curvature="0"
         id="path4306"
         d="m 561.68543,712.9944 33.94112,1.7677 c 4.48958,-0.35162 16.12578,13.96896 0.35355,24.7488 0,0 -24.17996,8.84139 -35.00178,0.7071 z"
         style="fill:none;fill-rule:evenodd;stroke:#000000;stroke-width:1px;stroke-linecap:butt;stroke-linejoin:miter;stroke-opacity:1" />
      <path
         sodipodi:nodetypes="cc"
         inkscape:connector-curvature="0"
         id="path4308"
         d="m 577.24177,743.4 c -20.85965,24.0416 -76.32463,15.5563 -76.32463,15.5563"
         style="fill:none;fill-rule:evenodd;stroke:#000000;stroke-width:1px;stroke-linecap:butt;stroke-linejoin:miter;stroke-opacity:1" />
      <path
         sodipodi:nodetypes="ccscc"
         inkscape:connector-curvature="0"
         id="path4310"
         d="m 152.91521,628.41116 c 31.46625,-3.53553 41.9693,-7.69423 41.9693,-7.69423 -0.037,-0.0247 9.54197,-36.93787 16.78306,-50.91169 10.32519,-19.92548 30.46178,-47.68883 28.99138,-46.66904 l -6.40815,-0.44195"
         style="fill:none;fill-rule:evenodd;stroke:#000000;stroke-width:1px;stroke-linecap:butt;stroke-linejoin:miter;stroke-opacity:1" />
      <path
         sodipodi:nodetypes="cc"
         inkscape:connector-curvature="0"
         id="path4312"
         d="m 122.125,756.48721 c 6.37384,-66.37258 120.38516,-62.73503 91.75758,29.75"
         style="fill:none;fill-rule:evenodd;stroke:#000000;stroke-width:1px;stroke-linecap:butt;stroke-linejoin:miter;stroke-opacity:1" />
      <path
         sodipodi:nodetypes="cc"
         inkscape:connector-curvature="0"
         id="path4314"
         d="m 170.75,793.48721 c -11.125,0.5 -14.875,-4.375 -14.875,-4.375"
         style="fill:none;fill-rule:evenodd;stroke:#000000;stroke-width:1px;stroke-linecap:butt;stroke-linejoin:miter;stroke-opacity:1" />
      <path
         inkscape:connector-curvature="0"
         id="path4316"
         d="m 452.75,795.98721 c -10.25,0.375 -15,-4.375 -15,-4.375"
         style="fill:none;fill-rule:evenodd;stroke:#000000;stroke-width:1px;stroke-linecap:butt;stroke-linejoin:miter;stroke-opacity:1" />
      <path
         d="m 281.58964,636.72764 a 17.786154,1.5366646 0 0 1 -8.45086,-1.91507 17.786154,1.5366646 0 0 1 21.09597,-0.93736 17.786154,1.5366646 0 0 1 13.1151,1.70782 17.786154,1.5366646 0 0 1 -18.19626,1.31496"
         sodipodi:open="true"
         sodipodi:end="1.6042421"
         sodipodi:start="2.047341"
         sodipodi:ry="1.5366646"
         sodipodi:rx="17.786154"
         sodipodi:cy="635.36218"
         sodipodi:cx="289.74835"
         sodipodi:type="arc"
         id="path4159"
         style="opacity:1;fill:#000000;fill-opacity:1;stroke:#000000;stroke-width:0.92525917;stroke-miterlimit:4;stroke-dasharray:none;stroke-opacity:1" />
      <path
         d="m 424.02529,635.16721 a 15.75,1.75 0 0 1 -7.48341,-2.18095 15.75,1.75 0 0 1 18.68091,-1.06749 15.75,1.75 0 0 1 11.6137,1.94492 15.75,1.75 0 0 1 -16.11316,1.49751"
         sodipodi:open="true"
         sodipodi:end="1.6042421"
         sodipodi:start="2.047341"
         sodipodi:ry="1.75"
         sodipodi:rx="15.75"
         sodipodi:cy="633.61218"
         sodipodi:cx="431.25"
         sodipodi:type="arc"
         id="path4179"
         style="opacity:1;fill:#000000;fill-opacity:1;stroke:#000000;stroke-width:0.99921262;stroke-miterlimit:4;stroke-dasharray:none;stroke-opacity:1" />
      <path
         inkscape:connector-curvature="0"
         id="path4194"
         d="m 289.15625,636.8622 -7.625,-0.15625"
         style="fill:none;fill-rule:evenodd;stroke:#000000;stroke-width:1px;stroke-linecap:butt;stroke-linejoin:miter;stroke-opacity:1" />
      <path
         inkscape:connector-curvature="0"
         id="path4198"
         d="M 431.46875,635.39345 423.4375,635.1747"
         style="fill:none;fill-rule:evenodd;stroke:#000000;stroke-width:1px;stroke-linecap:butt;stroke-linejoin:miter;stroke-opacity:1" />
      <path
         inkscape:connector-curvature="0"
         id="path4215"
         d="m 403.75797,756.96835 c 0,5.83363 0.17678,8.83883 0.17678,8.83883"
         style="fill:none;fill-rule:evenodd;stroke:#000000;stroke-width:1px;stroke-linecap:butt;stroke-linejoin:miter;stroke-opacity:1" />
      <path
         inkscape:connector-curvature="0"
         id="path4217"
         d="m 218.14244,756.96835 0.17678,5.65685"
         style="fill:none;fill-rule:evenodd;stroke:#000000;stroke-width:1px;stroke-linecap:butt;stroke-linejoin:miter;stroke-opacity:1" />
      <path
         inkscape:connector-curvature="0"
         id="path4219"
         d="m 122.32947,756.61479 -0.17677,6.8943"
         style="fill:none;fill-rule:evenodd;stroke:#000000;stroke-width:1px;stroke-linecap:butt;stroke-linejoin:miter;stroke-opacity:1" />
    </g>
  </g>
  <WCB
     pausedposy="0"
     pausedposx="0"
     lastknownposy="0"
     lastknownposx="0"
     lastpathnc="0"
     lastpath="0"
     node="0"
     layer="0" />
</svg>
