<?xml version="1.0" encoding="UTF-8" standalone="no"?>
<!-- Created with Inkscape (http://www.inkscape.org/) -->

<svg
   xmlns:osb="http://www.openswatchbook.org/uri/2009/osb"
   xmlns:dc="http://purl.org/dc/elements/1.1/"
   xmlns:cc="http://creativecommons.org/ns#"
   xmlns:rdf="http://www.w3.org/1999/02/22-rdf-syntax-ns#"
   xmlns:svg="http://www.w3.org/2000/svg"
   xmlns="http://www.w3.org/2000/svg"
   xmlns:sodipodi="http://sodipodi.sourceforge.net/DTD/sodipodi-0.dtd"
   xmlns:inkscape="http://www.inkscape.org/namespaces/inkscape"
   width="180mm"
   height="180mm"
   viewBox="0 0 637.79528 637.79527"
   id="svg3409"
   version="1.1"
   inkscape:version="0.91 r13725"
   sodipodi:docname="lunchuan.svg">
  <sodipodi:namedview
     id="base"
     pagecolor="#ffffff"
     bordercolor="#666666"
     borderopacity="1.0"
     inkscape:pageopacity="0.0"
     inkscape:pageshadow="2"
     inkscape:zoom="0.53984375"
     inkscape:cx="-92.674549"
     inkscape:cy="440.40704"
     inkscape:document-units="mm"
     inkscape:current-layer="layer1"
     showgrid="false"
     inkscape:window-width="1920"
     inkscape:window-height="1018"
     inkscape:window-x="-8"
     inkscape:window-y="-8"
     inkscape:window-maximized="1"
     units="mm"
     showguides="true"
     inkscape:guide-bbox="true" />
  <defs
     id="defs3411">
    <linearGradient
       id="linearGradient4148"
       osb:paint="solid">
      <stop
         style="stop-color:#550044;stop-opacity:1;"
         offset="0"
         id="stop4150" />
    </linearGradient>
  </defs>
  <metadata
     id="metadata3414">
    <rdf:RDF>
      <cc:Work
         rdf:about="">
        <dc:format>image/svg+xml</dc:format>
        <dc:type
           rdf:resource="http://purl.org/dc/dcmitype/StillImage" />
        <dc:title />
      </cc:Work>
    </rdf:RDF>
  </metadata>
  <g
     transform="translate(0,-414.56693)"
     id="layer1"
     inkscape:groupmode="layer"
     inkscape:label="Layer 1">
    <g
       id="g4166"
       transform="matrix(1.1600868,0,0,1.832276,-54.347488,-494.60352)">
      <path
         sodipodi:nodetypes="ccccccccc"
         inkscape:connector-curvature="0"
         id="path4342"
         d="m 96.65612,810.0084 c 62.57895,-66.8216 122.68302,-62.579 122.68302,-62.579 -1.88194,7.3068 -10.11001,14.6135 -19.44544,21.9203 0,8.1317 19.44544,-2.4749 19.44544,-2.4749 4.5962,3.182 1.06066,6.7175 1.06066,6.7175 23.73062,-2.1727 34.72472,-37.9193 119.50105,-29.6984 6.88649,6.0965 -90.63525,62.3646 27.22361,14.4956 6.71751,6.0105 0.70711,10.6067 0.70711,10.6067 68.94291,-35.7089 75.74881,-22.53907 75.74881,-22.53907"
         style="fill:none;fill-rule:evenodd;stroke:#000000;stroke-width:0.99921262;stroke-linecap:butt;stroke-linejoin:miter;stroke-miterlimit:4;stroke-dasharray:none;stroke-opacity:1" />
      <path
         sodipodi:nodetypes="ccccccccc"
         inkscape:connector-curvature="0"
         id="path4344"
         d="m 443.49199,746.3687 c 4.53482,4.1898 -20.99213,18.0804 -14.84924,19.4455 78.48885,-35.0018 82.73149,-17.3241 82.73149,-17.3241 1.64759,5.9697 -38.92674,18.3638 -30.40559,23.3345 9.6242,2.7357 34.23634,-8.0425 37.1035,-8.9228 6.71752,-2.4749 1.08027,6.0944 1.08027,6.0944 22.62741,-8.8389 22.98097,-2.1214 22.98097,-2.1214 4.17955,7.8854 26.69609,0.6061 25.80939,4.5962 6.36397,7.7782 -7.07106,9.8995 -7.07106,9.8995"
         style="fill:none;fill-rule:evenodd;stroke:#000000;stroke-width:0.99921262;stroke-linecap:butt;stroke-linejoin:miter;stroke-miterlimit:4;stroke-dasharray:none;stroke-opacity:1" />
      <path
         sodipodi:nodetypes="cc"
         inkscape:connector-curvature="0"
         id="path4346"
         d="M 124.08189,784.96311 C 94.774816,752.35031 84.204513,647.53285 86.480403,646.62249"
         style="fill:none;fill-rule:evenodd;stroke:#000000;stroke-width:0.99921262;stroke-linecap:butt;stroke-linejoin:miter;stroke-miterlimit:4;stroke-dasharray:none;stroke-opacity:1" />
      <path
         sodipodi:nodetypes="ccccc"
         inkscape:connector-curvature="0"
         id="path4348"
         d="m 86.40307,646.66668 c 79.80406,-48.8375 207.12585,-13.53019 206.47518,-9.19239 6.36396,23.33452 21.56675,25.10229 21.56675,25.10229 103.10986,2.43838 222.18515,38.61473 221.32443,43.13352 2.82842,38.5373 -17.34123,57.10701 -17.34123,57.10701"
         style="fill:none;fill-rule:evenodd;stroke:#000000;stroke-width:0.99921262;stroke-linecap:butt;stroke-linejoin:miter;stroke-miterlimit:4;stroke-dasharray:none;stroke-opacity:1" />
      <path
         sodipodi:nodetypes="cc"
         inkscape:connector-curvature="0"
         id="path4350"
         d="M 98.42388,723.74132 C 243.98695,705.0078 399.62421,704.46865 529.28598,745.8295"
         style="fill:none;fill-rule:evenodd;stroke:#000000;stroke-width:0.99921262;stroke-linecap:butt;stroke-linejoin:miter;stroke-miterlimit:4;stroke-dasharray:none;stroke-opacity:1" />
      <path
         sodipodi:nodetypes="ccc"
         inkscape:connector-curvature="0"
         id="path4352"
         d="m 117.69561,632.54967 c 2.82843,-41.01219 29.87219,-68.26093 29.87219,-68.26093 -7.2102,21.6346 -17.31667,43.591 -16.61701,64.34672"
         style="fill:none;fill-rule:evenodd;stroke:#000000;stroke-width:0.99921262;stroke-linecap:butt;stroke-linejoin:miter;stroke-miterlimit:4;stroke-dasharray:none;stroke-opacity:1" />
      <path
         sodipodi:nodetypes="ccc"
         inkscape:connector-curvature="0"
         id="path4354"
         d="m 514.43122,697.01587 c -5.65685,-30.05204 3.66054,-30.90375 3.66054,-30.90375 l 6.3658,34.48401"
         style="fill:none;fill-rule:evenodd;stroke:#000000;stroke-width:0.99921262;stroke-linecap:butt;stroke-linejoin:miter;stroke-miterlimit:4;stroke-dasharray:none;stroke-opacity:1" />
      <path
         sodipodi:nodetypes="ccccc"
         inkscape:connector-curvature="0"
         id="path4360"
         d="m 500.47659,692.83941 c 0,0 4.18014,-51.47603 -19.50794,-75.87122 -1.10083,-3.19889 -146.34064,-44.11694 -240.06275,-37.47666 0,0 -30.51283,-5.09251 -47.12984,41.57654 -4.52606,-0.70586 -6.65106,0.0441 -6.65106,0.0441"
         style="fill:none;fill-rule:evenodd;stroke:#000000;stroke-width:0.99921262;stroke-linecap:butt;stroke-linejoin:miter;stroke-miterlimit:4;stroke-dasharray:none;stroke-opacity:1" />
      <path
         sodipodi:nodetypes="ccccc"
         inkscape:connector-curvature="0"
         id="path4362"
         d="m 250.36345,579.31476 c 14.14214,-37.47666 76.10237,-30.22882 76.10237,-30.22882 6.36396,8.48528 3.18198,17.67767 3.18198,17.67767 l 91.92388,0.70711 c 23.68808,7.07107 25.19068,38.89088 25.19068,38.89088"
         style="fill:none;fill-rule:evenodd;stroke:#000000;stroke-width:0.99921262;stroke-linecap:butt;stroke-linejoin:miter;stroke-miterlimit:4;stroke-dasharray:none;stroke-opacity:1" />
      <path
         sodipodi:nodetypes="ccc"
         inkscape:connector-curvature="0"
         id="path4364"
         d="m 344.49704,566.76361 c 9.72272,-32.35013 43.31029,-36.68116 43.31029,-36.68116 31.02431,-10e-6 34.82501,37.74182 34.82501,37.74182"
         style="fill:none;fill-rule:evenodd;stroke:#000000;stroke-width:0.99921262;stroke-linecap:butt;stroke-linejoin:miter;stroke-miterlimit:4;stroke-dasharray:none;stroke-opacity:1" />
      <path
         sodipodi:nodetypes="cc"
         inkscape:connector-curvature="0"
         id="path4368"
         d="m 354.39654,548.11367 c 30.05204,-5.3033 64.70026,5.74524 64.70026,5.74524"
         style="fill:none;fill-rule:evenodd;stroke:#000000;stroke-width:0.99921262;stroke-linecap:butt;stroke-linejoin:miter;stroke-miterlimit:4;stroke-dasharray:none;stroke-opacity:1" />
      <path
         sodipodi:nodetypes="cc"
         inkscape:connector-curvature="0"
         id="path4370"
         d="m 347.23708,558.98544 c 41.36574,-7.77818 75.1301,6.27557 75.1301,6.27557"
         style="fill:none;fill-rule:evenodd;stroke:#000000;stroke-width:0.99921262;stroke-linecap:butt;stroke-linejoin:miter;stroke-miterlimit:4;stroke-dasharray:none;stroke-opacity:1" />
      <path
         sodipodi:nodetypes="ccc"
         inkscape:connector-curvature="0"
         id="path4372"
         d="m 279.00128,553.68214 c -2.74004,-12.75363 -1.07696,-25.06779 12.6157,-23.4927 3.77687,0.8141 3.64429,19.68501 3.64429,19.68501"
         style="fill:none;fill-rule:evenodd;stroke:#000000;stroke-width:0.99921262;stroke-linecap:butt;stroke-linejoin:miter;stroke-miterlimit:4;stroke-dasharray:none;stroke-opacity:1" />
      <path
         sodipodi:nodetypes="ccc"
         inkscape:connector-curvature="0"
         id="path4376"
         d="m 301.98224,549.08595 c 3.88909,-13.08148 15.86572,-11.09275 15.86572,-11.09275 5.11147,1.58101 6.49653,11.00435 6.49653,11.00435"
         style="fill:none;fill-rule:evenodd;stroke:#000000;stroke-width:0.99921262;stroke-linecap:butt;stroke-linejoin:miter;stroke-miterlimit:4;stroke-dasharray:none;stroke-opacity:1" />
      <path
         sodipodi:nodetypes="ccccccccccccccccccc"
         inkscape:connector-curvature="0"
         id="path4380"
         d="m 154.63887,674.24384 7.42462,-2.82842 -6.36396,-7.07107 -9.19239,4.59619 5.65686,5.65686 -1.901,5.56846 c 0,0 -4.9491,6.40816 -8.26366,-3.80069 l -0.0884,-17.67768 c 0,0 3.13909,-2.21814 8.19239,-3.43198 0,0 -12.78859,-14.24569 -20.92031,3.07843 11.77449,-3.66789 7.52449,13.35292 7.52449,13.35292 -3.66421,20.49569 -10.70647,5.73896 -10.70647,5.73896 l 4.94974,-6.0104 -7.07106,-3.18198 -5.65686,7.07106 4.24264,0.70711 -0.35355,4.94975 c 1.41421,14.14213 18.62222,11.7967 18.62222,11.7967 18.31156,-2.98972 13.9047,-18.51422 13.9047,-18.51422 z"
         style="fill:none;fill-rule:evenodd;stroke:#000000;stroke-width:0.99921262;stroke-linecap:butt;stroke-linejoin:miter;stroke-miterlimit:4;stroke-dasharray:none;stroke-opacity:1" />
      <ellipse
         ry="6.4593654"
         rx="8.2268543"
         cy="599.82086"
         cx="227.29443"
         id="path4384"
         style="opacity:1;fill:none;fill-opacity:1;stroke:#000000;stroke-width:0.99921262;stroke-miterlimit:4;stroke-dasharray:none;stroke-opacity:1" />
      <ellipse
         ry="6.8942909"
         rx="7.7781744"
         cy="601.23505"
         cx="255.40158"
         id="path4386"
         style="opacity:1;fill:none;fill-opacity:1;stroke:#000000;stroke-width:0.99921262;stroke-miterlimit:4;stroke-dasharray:none;stroke-opacity:1" />
      <ellipse
         ry="7.7781744"
         rx="8.1317282"
         cy="605.30096"
         cx="298.88864"
         id="path4388"
         style="opacity:1;fill:none;fill-opacity:1;stroke:#000000;stroke-width:0.99921262;stroke-miterlimit:4;stroke-dasharray:none;stroke-opacity:1" />
      <ellipse
         ry="7.4246211"
         rx="6.7175145"
         cy="636.76721"
         cx="325.7587"
         id="path4390"
         style="opacity:1;fill:none;fill-opacity:1;stroke:#000000;stroke-width:0.99921262;stroke-miterlimit:4;stroke-dasharray:none;stroke-opacity:1" />
      <ellipse
         ry="9.7686415"
         rx="10.299378"
         cy="632.52478"
         cx="369.06882"
         id="path4392"
         style="opacity:1;fill:none;fill-opacity:1;stroke:#000000;stroke-width:0.99921262;stroke-miterlimit:4;stroke-dasharray:none;stroke-opacity:1" />
      <ellipse
         ry="8.8061686"
         rx="9.8667984"
         cy="636.06006"
         cx="409.90442"
         id="path4394"
         style="opacity:1;fill:none;fill-opacity:1;stroke:#000000;stroke-width:0.99921262;stroke-miterlimit:4;stroke-dasharray:none;stroke-opacity:1" />
      <ellipse
         ry="10.914563"
         rx="11.621448"
         cy="642.77759"
         cx="451.27045"
         id="path4396"
         style="opacity:1;fill:none;fill-opacity:1;stroke:#000000;stroke-width:0.99921262;stroke-miterlimit:4;stroke-dasharray:none;stroke-opacity:1" />
      <ellipse
         ry="7.0131412"
         rx="7.5431046"
         cy="649.14154"
         cx="476.90323"
         id="path4398"
         style="opacity:1;fill:none;fill-opacity:1;stroke:#000000;stroke-width:0.99921262;stroke-miterlimit:4;stroke-dasharray:none;stroke-opacity:1" />
      <ellipse
         ry="7.1951323"
         rx="9.1397295"
         cy="682.90588"
         cx="305.2525"
         id="path4400"
         style="opacity:1;fill:none;fill-opacity:1;stroke:#000000;stroke-width:0.99921262;stroke-miterlimit:4;stroke-dasharray:none;stroke-opacity:1" />
      <ellipse
         ry="6.8000755"
         rx="11.396881"
         cy="683.61304"
         cx="355.27942"
         id="path4402"
         style="opacity:1;fill:none;fill-opacity:1;stroke:#000000;stroke-width:0.99921262;stroke-miterlimit:4;stroke-dasharray:none;stroke-opacity:1" />
      <ellipse
         ry="7.6972909"
         rx="9.6415167"
         cy="694.39642"
         cx="404.77826"
         id="path4404"
         style="opacity:1;fill:none;fill-opacity:1;stroke:#000000;stroke-width:0.99921262;stroke-miterlimit:4;stroke-dasharray:none;stroke-opacity:1" />
      <ellipse
         ry="8.9157639"
         rx="8.7373161"
         cy="704.47266"
         cx="457.6358"
         id="path4406"
         style="opacity:1;fill:none;fill-opacity:1;stroke:#000000;stroke-width:0.99921262;stroke-miterlimit:4;stroke-dasharray:none;stroke-opacity:1" />
      <ellipse
         ry="7.8888764"
         rx="7.5345397"
         cy="712.25085"
         cx="497.40976"
         id="path4408"
         style="opacity:1;fill:none;fill-opacity:1;stroke:#000000;stroke-width:0.99921262;stroke-miterlimit:4;stroke-dasharray:none;stroke-opacity:1" />
      <ellipse
         ry="3.7123106"
         rx="4.2426405"
         cy="580.37543"
         cx="393.64096"
         id="path4410"
         style="opacity:1;fill:none;fill-opacity:1;stroke:#000000;stroke-width:0.99921262;stroke-miterlimit:4;stroke-dasharray:none;stroke-opacity:1" />
      <ellipse
         ry="3.1819806"
         rx="3.0052037"
         cy="581.61285"
         cx="404.42435"
         id="path4412"
         style="opacity:1;fill:none;fill-opacity:1;stroke:#000000;stroke-width:0.99921262;stroke-miterlimit:4;stroke-dasharray:none;stroke-opacity:1" />
      <circle
         r="3.5355339"
         cy="584.44128"
         cx="416.97549"
         id="path4414"
         style="opacity:1;fill:none;fill-opacity:1;stroke:#000000;stroke-width:0.99921262;stroke-miterlimit:4;stroke-dasharray:none;stroke-opacity:1" />
    </g>
  </g>
  <WCB
     pausedposy="0"
     pausedposx="0"
     lastknownposy="0"
     lastknownposx="0"
     lastpathnc="0"
     lastpath="0"
     node="0"
     layer="0" />
</svg>
