<?xml version="1.0" encoding="UTF-8" standalone="no"?>
<!-- Created with Inkscape (http://www.inkscape.org/) -->

<svg
   xmlns:osb="http://www.openswatchbook.org/uri/2009/osb"
   xmlns:dc="http://purl.org/dc/elements/1.1/"
   xmlns:cc="http://creativecommons.org/ns#"
   xmlns:rdf="http://www.w3.org/1999/02/22-rdf-syntax-ns#"
   xmlns:svg="http://www.w3.org/2000/svg"
   xmlns="http://www.w3.org/2000/svg"
   xmlns:sodipodi="http://sodipodi.sourceforge.net/DTD/sodipodi-0.dtd"
   xmlns:inkscape="http://www.inkscape.org/namespaces/inkscape"
   width="180mm"
   height="180mm"
   viewBox="0 0 637.79528 637.79527"
   id="svg3409"
   version="1.1"
   inkscape:version="0.91 r"
   sodipodi:docname="1.svg">
  <sodipodi:namedview
     id="base"
     pagecolor="#ffffff"
     bordercolor="#666666"
     borderopacity="1.0"
     inkscape:pageopacity="0.0"
     inkscape:pageshadow="2"
     inkscape:zoom="0.64"
     inkscape:cx="239.58008"
     inkscape:cy="333.94926"
     inkscape:document-units="mm"
     inkscape:current-layer="layer1"
     showgrid="false"
     inkscape:window-width="1851"
     inkscape:window-height="904"
     inkscape:window-x="65"
     inkscape:window-y="24"
     inkscape:window-maximized="1"
     units="mm" />
  <defs
     id="defs3411">
    <linearGradient
       id="linearGradient4148"
       osb:paint="solid">
      <stop
         style="stop-color:#550044;stop-opacity:1;"
         offset="0"
         id="stop4150" />
    </linearGradient>
  </defs>
  <metadata
     id="metadata3414">
    <rdf:RDF>
      <cc:Work
         rdf:about="">
        <dc:format>image/svg+xml</dc:format>
        <dc:type
           rdf:resource="http://purl.org/dc/dcmitype/StillImage" />
        <dc:title />
      </cc:Work>
    </rdf:RDF>
  </metadata>
  <g
     transform="translate(0,-414.56693)"
     id="layer1"
     inkscape:groupmode="layer"
     inkscape:label="Layer 1">
    <g
       id="g4223"
       transform="matrix(0.99992381,0,0,1.086924,-2.9893354,-66.433793)">
      <path
         sodipodi:nodetypes="caaaaaaaaaaaac"
         inkscape:connector-curvature="0"
         id="path4191"
         d="m 66.291261,947.40104 c 0,0 -9.238082,-12.89599 -9.943689,-20.4398 -0.782108,-8.36169 -0.680511,-20.17174 6.629126,-24.3068 6.494573,-3.67398 15.298208,1.9951 21.54466,6.0767 8.980545,5.86813 16.471612,14.89234 20.439802,24.85922 2.93602,7.37439 5.361,16.73409 1.65728,23.75437 -2.88838,5.47483 -9.894643,10.28109 -16.020384,9.39126 -15.471302,-2.24737 -28.797997,-18.95681 -32.040776,-34.25048 -2.911124,-13.72951 2.027456,-32.15048 13.810679,-39.77476 5.27687,-3.41438 13.184163,-1.19958 18.782525,1.65728 8.254973,4.21254 14.308856,12.59498 18.230096,20.99224 3.94516,8.44849 5.96248,18.4257 4.41942,27.62136 -1.48604,8.85584 -4.63135,19.82536 -12.70583,23.75436 -6.220288,3.02676 -17.125239,-0.82864 -20.439802,-3.59077"
         style="fill:none;fill-rule:evenodd;stroke:#00f500;stroke-width:1px;stroke-linecap:butt;stroke-linejoin:miter;stroke-opacity:1" />
      <path
         sodipodi:nodetypes="caaaaaaaaaaaasssaaaaaac"
         inkscape:connector-curvature="0"
         id="path4193"
         d="m 58.281067,932.76172 c 0,0 1.809328,-17.08049 0.276213,-25.41165 -2.184611,-11.87148 -11.610204,-21.74028 -13.258252,-33.69806 -2.994477,-21.72709 -1.069845,-44.92584 6.629126,-65.46262 8.833011,-23.5618 27.043598,-42.68314 43.641747,-61.59562 8.853179,-10.0876 19.252219,-18.74315 29.554849,-27.34515 11.05365,-9.22905 24.51924,-15.60989 34.5267,-25.96408 7.81052,-8.08113 15.57621,-17.02982 19.33495,-27.62136 3.02538,-8.52505 0.31143,-18.16958 1.9335,-27.06893 1.44693,-7.93845 2.52871,-16.42273 6.90534,-23.20194 4.42536,-6.8547 15.29924,-8.51803 18.50631,-16.02039 2.93498,-6.86584 -1.22107,-14.90735 -1.10486,-22.3733 0.17826,-11.4525 -4.37298,-25.29047 2.76214,-34.25048 9.62293,-12.0841 28.49649,-12.84824 44.18604,-13.97248 4.99072,-0.35762 9.33622,-7.25791 11.60911,-11.71539 7.48409,-14.67744 16.99131,-21.08256 24.78883,-19.90701 12.18336,1.83676 24.65565,10.17904 37.63206,9.98296 15.17845,-0.22936 28.4902,-12.1264 43.64512,-13.00167 10.0796,-0.58214 20.93713,0.46946 29.83107,5.24805 4.10861,2.2075 5.28783,8.44561 9.62822,10.15288 7.91024,3.11146 17.02417,-2.7052 25.45091,-1.59025 7.70672,1.01968 15.53233,3.29396 22.09708,7.45776 6.01654,3.81608 12.6053,13.19699 14.81501,15.4067"
         style="fill:none;fill-rule:evenodd;stroke:#00f200;stroke-width:1px;stroke-linecap:butt;stroke-linejoin:miter;stroke-opacity:1" />
      <path
         sodipodi:nodetypes="caaaaassacsc"
         inkscape:connector-curvature="0"
         id="path4195"
         d="m 99.436891,900.99716 c 0,0 -10.691281,-3.91703 -13.810679,-8.28641 -5.141302,-7.20149 -7.073494,-17.25233 -5.524272,-25.96407 3.390163,-19.0639 17.879759,-34.867 30.93592,-49.16602 27.81392,-30.46162 63.14315,-53.60648 98.33204,-75.1301 38.64468,-23.63739 81.69495,-39.17337 122.63883,-58.55728 18.01787,-8.53013 36.06846,-16.99125 54.13786,-25.41165 29.06202,-13.54299 55.00985,-28.09822 75.1301,-55.24272 10.4003,-14.03118 23.81055,-26.17712 38.6699,-35.35534 8.12105,-5.01616 26.73959,-10.24765 26.73959,-10.24765 0,0 -1.03793,21.89162 -5.19493,31.79231 -3.92571,9.34983 -8.0102,17.67767 -9.94369,28.72622"
         style="fill:none;fill-rule:evenodd;stroke:#00f200;stroke-width:1px;stroke-linecap:butt;stroke-linejoin:miter;stroke-opacity:1" />
      <path
         sodipodi:nodetypes="csaaaaaaaaaac"
         inkscape:connector-curvature="0"
         id="path4197"
         d="m 110.15625,957.04971 c 0,0 4.79294,-13.02232 3.76814,-19.66936 -1.12932,-7.32504 13.76359,7.32444 21.23186,7.16936 10.87921,-0.22592 21.77632,-5.17277 30.46875,-11.71875 11.73278,-8.83557 18.71716,-22.73949 26.5625,-35.15625 11.44776,-18.11829 19.79167,-38.02083 29.6875,-57.03125 9.89583,-19.01042 18.93365,-38.49269 29.6875,-57.03125 8.69908,-14.99634 16.57963,-30.81676 28.125,-43.75 14.99277,-16.79506 34.65481,-28.75523 52.32123,-42.71068 11.18454,-8.83514 22.05061,-18.1551 33.97427,-25.96407 10.30902,-6.75152 21.66989,-11.74921 32.31699,-17.95389 10.53237,-6.13782 21.35062,-11.89256 31.21214,-19.05873 6.52358,-4.74056 15.05364,-12.56772 18.3682,-15.74418"
         style="fill:none;fill-rule:evenodd;stroke:#00eb00;stroke-width:1px;stroke-linecap:butt;stroke-linejoin:miter;stroke-opacity:1" />
      <path
         sodipodi:nodetypes="csssssssssssssssssc"
         inkscape:connector-curvature="0"
         id="path4199"
         d="m 132.22656,796.89346 c 0,0 20.22151,-11.42987 23.82813,-19.14063 3.60662,-7.71076 -1.26758,-10.5907 -0.39063,-20.50781 0.87695,-9.91711 2.52694,-26.6086 7.61719,-38.47656 5.09025,-11.86796 15.46923,-26.40526 22.07031,-31.25 6.60108,-4.84474 6.92406,1.29793 10.35157,-3.32032 3.42751,-4.61825 -1.87193,-16.19246 0.39062,-23.63281 2.26255,-7.44035 7.58723,-14.45426 12.5,-19.33594 4.91277,-4.88168 10.99496,-3.08987 15.625,-9.96094 4.63004,-6.87107 1.93556,-20.50087 5.66406,-30.66406 3.7285,-10.16319 7.2086,-22.57826 16.79688,-29.29687 9.58828,-6.71861 27.92877,-1.78485 35.9375,-6.25 8.00873,-4.46515 6.61807,-9.71776 12.30469,-13.86719 5.68662,-4.14943 12.09585,-8.91841 21.67968,-9.57031 9.58383,-0.6519 22.60846,10.16329 32.61719,9.375 10.00873,-0.78829 15.17968,-5.43801 23.82813,-11.13282 8.64845,-5.69481 17.73312,-18.8454 26.75781,-23.82812 9.02469,-4.98272 17.55651,-6.32835 25,-7.22656 7.44349,-0.89821 13.86719,-0.97656 18.94531,0.78125"
         style="fill:none;fill-rule:evenodd;stroke:#00ef00;stroke-width:1px;stroke-linecap:butt;stroke-linejoin:miter;stroke-opacity:1" />
      <path
         sodipodi:nodetypes="caaaaaaassaacaaaaaaaaassc"
         inkscape:connector-curvature="0"
         id="path4201"
         d="m 220.41844,842.71609 c 0,0 9.42896,-28.47638 19.88738,-38.39369 6.15954,-5.84085 14.82028,-9.1533 23.20194,-10.49611 8.50354,-1.36234 17.69994,5.9807 25.68787,2.76213 7.57748,-3.05319 11.32031,-11.9145 15.74417,-18.78252 2.65371,-4.11988 1.78226,-11.49053 6.35291,-13.25825 5.93205,-2.29424 11.43544,5.962 17.67767,7.18155 4.87959,0.95333 10.25043,1.7193 14.91554,0 3.86062,-1.42281 8.25125,-4.05681 9.39126,-8.01019 2.54142,-8.81329 3.72184,-11.625 14.3631,-7.45777 11.14809,4.36571 24.35706,3.97832 35.90777,0.82864 9.09565,-2.48023 17.80563,-7.8351 24.03058,-14.91553 5.57713,-6.34358 7.96212,-14.7463 10.49612,-23.06384 5.45961,-2.78616 10.16024,-5.18644 15.19175,-7.87208 10.28769,-5.49119 22.03976,-8.99496 30.6597,-16.84903 7.64487,-6.96564 13.34301,-16.17508 17.40146,-25.68787 4.1384,-9.70017 4.46293,-20.61472 6.62913,-30.93592 2.1141,-10.07297 3.36023,-20.35673 6.2148,-30.24539 2.35959,-8.17399 6.82435,-15.66155 8.97694,-23.89247 1.92078,-7.34454 3.46664,-14.91987 3.45267,-22.51141 -0.012,-6.52406 0.28941,-13.72339 -3.03835,-19.33495 -3.34874,-5.64693 -9.46861,-9.6843 -15.60606,-12.01529 -6.16921,-2.34305 -13.01001,-5.11717 -19.74928,-1.38107 -15.73395,8.72254 -16.87323,1.6117 -25.68786,-8.70073 -6.2138,-7.26967 -23.34005,-11.46286 -26.24029,-11.60097"
         style="fill:none;fill-rule:evenodd;stroke:#00ee00;stroke-width:1px;stroke-linecap:butt;stroke-linejoin:miter;stroke-opacity:1" />
      <path
         inkscape:connector-curvature="0"
         id="path4203"
         d="m 219.86602,736.09765 25.96407,-12.98204 c 0,0 5.24806,-18.78252 6.62913,-35.63155 1.38107,-16.84903 3.03835,-38.6699 5.24806,-51.09952 2.20971,-12.42961 6.62912,-35.63155 7.73398,-39.22233"
         style="fill:none;fill-rule:evenodd;stroke:#00f200;stroke-width:1px;stroke-linecap:butt;stroke-linejoin:miter;stroke-opacity:1" />
      <path
         inkscape:connector-curvature="0"
         id="path4205"
         d="m 274.21875,709.00283 22.26563,-8.98437 c 0,0 4.29687,-16.01563 7.42187,-27.73438 3.125,-11.71875 9.76563,-33.98437 10.54688,-41.01562 0.78125,-7.03125 2.34375,-23.04688 2.73437,-27.73438 0.39063,-4.6875 16.40625,-37.89062 19.14063,-41.01562"
         style="fill:none;fill-rule:evenodd;stroke:#00eb00;stroke-width:1px;stroke-linecap:butt;stroke-linejoin:miter;stroke-opacity:1" />
      <path
         sodipodi:nodetypes="ccaaac"
         inkscape:connector-curvature="0"
         id="path4207"
         d="m 342.78106,678.64522 24.85922,-11.87718 c 0,0 1.94474,-18.05539 3.03835,-27.06893 1.54334,-12.72017 2.43622,-25.55742 4.97185,-38.11748 2.60791,-12.91811 5.8133,-25.79878 10.49611,-38.11747 2.51656,-6.62012 8.0102,-16.84903 9.39127,-19.05874"
         style="fill:none;fill-rule:evenodd;stroke:#00ea00;stroke-width:1px;stroke-linecap:butt;stroke-linejoin:miter;stroke-opacity:1" />
      <path
         sodipodi:nodetypes="ccaaascac"
         inkscape:connector-curvature="0"
         id="path4209"
         d="m 400.5097,651.57629 18.2301,-10.2199 c 0,0 2.7752,-13.25555 4.1432,-19.88738 2.69582,-13.06882 4.54283,-26.33672 8.0102,-39.22233 3.00352,-11.16183 5.99591,-22.47333 11.04854,-32.86942 4.47621,-9.21007 15.46796,-23.75436 16.84903,-25.68786 1.38107,-1.93349 2.48592,-4.48847 3.17645,-4.28131 0.69054,0.20716 5.29602,8.98484 9.73653,11.1176 3.30223,1.58605 4.90279,3.38361 10.97949,0.48337"
         style="fill:none;fill-rule:evenodd;stroke:#00fb00;stroke-width:1px;stroke-linecap:butt;stroke-linejoin:miter;stroke-opacity:1" />
      <path
         sodipodi:nodetypes="ccaac"
         inkscape:connector-curvature="0"
         id="path4211"
         d="m 293.35938,726.19033 21.875,-16.40625 c 0,0 9.09105,7.58066 13.67187,11.32813 5.05238,4.13324 10.12086,8.24733 15.23438,12.30468 4.39698,3.4888 8.39843,7.22657 13.28125,10.35157"
         style="fill:none;fill-rule:evenodd;stroke:#00ee00;stroke-width:1px;stroke-linecap:butt;stroke-linejoin:miter;stroke-opacity:1" />
      <path
         sodipodi:nodetypes="ccaaaac"
         inkscape:connector-curvature="0"
         id="path4213"
         d="m 338.86719,691.62002 17.77344,-13.67188 c 0,0 13.16595,6.39078 20.11718,8.59375 8.6302,2.73506 17.60367,4.36015 26.5625,5.66407 8.98312,1.30745 18.07963,1.74518 27.14844,2.14843 6.56935,0.29211 13.15112,0.26766 19.72656,0.19532 6.12254,-0.0674 12.69532,-0.39063 18.35938,-0.58594"
         style="fill:none;fill-rule:evenodd;stroke:#00f200;stroke-width:1px;stroke-linecap:butt;stroke-linejoin:miter;stroke-opacity:1" />
      <path
         sodipodi:nodetypes="cccccacccc"
         inkscape:connector-curvature="0"
         id="path4215"
         d="m 401.33834,651.02386 17.67767,-9.94369 18.16105,2.9693 34.80291,-1.51917 19.88738,-3.03835 c 0,0 9.47268,-1.13131 13.12014,-3.86699 2.31899,-1.73931 4.69563,-7.31966 4.69563,-7.31966 l 3.45267,-18.2301 6.62913,-17.12524 4.1432,-12.2915"
         style="fill:none;fill-rule:evenodd;stroke:#00e500;stroke-width:1px;stroke-linecap:butt;stroke-linejoin:miter;stroke-opacity:1" />
      <path
         sodipodi:nodetypes="ccaaaaaacasc"
         inkscape:connector-curvature="0"
         id="path4217"
         d="m 146.94563,942.4292 c 0,0 11.87718,-3.59078 19.05874,-10.2199 7.18155,-6.62913 22.71455,-13.84909 32.5932,-22.64952 8.52389,-7.59354 15.49592,-16.79153 22.64951,-25.68786 6.93551,-8.62513 12.5778,-18.2472 19.61117,-26.79272 7.24602,-8.80389 14.92143,-17.29666 23.20194,-25.13544 12.49053,-11.82422 26.6054,-21.80626 39.77476,-32.86941 8.25056,-6.93103 15.46456,-15.25073 24.583,-20.99224 3.5579,-2.24026 11.53192,-5.10995 11.53192,-5.10995 0,0 5.85117,-1.35786 8.18975,-3.10579 2.32698,-1.73926 2.77726,-0.0428 5.27141,-6.94053 1.26922,-3.51012 3.01922,-7.50684 5.84143,-8.82377"
         style="fill:none;fill-rule:evenodd;stroke:#00ea00;stroke-width:1px;stroke-linecap:butt;stroke-linejoin:miter;stroke-opacity:1" />
      <path
         inkscape:connector-curvature="0"
         id="path4219"
         d="m 85.253906,965.5458 c 0,0 8.398438,3.80859 14.0625,1.85547 5.664064,-1.95313 8.007814,-5.76172 8.593754,-6.83594 0.58593,-1.07422 1.75781,2.73438 7.03125,5.85938 5.27343,3.125 12.79297,6.83593 16.5039,7.91015 3.71094,1.07422 13.57422,4.49219 18.94532,4.49219 5.37109,0 20.89843,-1.07422 28.125,-4.58984 7.22656,-3.51563 17.87223,-10.81578 22.01543,-15.2352 4.14321,-4.41941 16.84903,-18.23009 19.33496,-21.68276 2.48592,-3.45267 12.2915,-17.26335 14.22499,-20.57792 1.9335,-3.31456 9.66748,-14.63932 12.84394,-19.88737 3.17645,-5.24806 12.44005,-20.66363 26.11193,-42.53863 13.67187,-21.875 26.64486,-52.06453 29.26889,-53.99802 2.62403,-1.9335 14.63932,-13.53447 16.57282,-15.05364 1.93349,-1.51918 7.73398,-6.35292 9.94369,-7.45777"
         style="fill:none;fill-rule:evenodd;stroke:#00f600;stroke-width:1px;stroke-linecap:butt;stroke-linejoin:miter;stroke-opacity:1" />
      <path
         sodipodi:nodetypes="ccaassaaaassaaaaaaasaaassaasac"
         inkscape:connector-curvature="0"
         id="path4221"
         d="m 253.32031,885.95596 c 0,0 13.88485,-22.39251 19.92188,-32.03125 2.62985,-1.12441 5.5418,1.89938 8.39844,1.75781 6.27241,-0.31085 12.49998,-2.57662 17.96875,-5.66406 5.74396,-3.2428 11.11451,-7.29101 14.84375,-13.08594 8.76202,-13.61545 8.99583,-8.75875 15.42968,-5.66406 5.35185,2.57425 11.44802,4.12352 17.38282,3.90625 6.73023,-0.2464 12.60123,-5.8374 19.33593,-5.85938 6.65366,-0.0217 12.49942,5.25658 19.14063,5.66406 7.51013,0.4608 15.66587,-0.0974 22.26562,-3.71093 10.22942,-5.60088 17.49502,-15.94174 23.4375,-25.97657 3.43936,-5.80791 3.40901,-11.76071 8.42621,-13.1946 3.58979,-1.02594 5.70286,3.3411 8.56598,4.99148 7.40189,4.26664 13.75499,11.94623 22.26563,12.69531 10.81031,0.95148 22.17265,-4.17997 30.66406,-10.9375 6.71235,-5.34174 6.65733,-17.03128 13.86719,-21.67969 4.58878,-2.95852 10.78086,-1.77448 16.21093,-2.34375 6.94299,-0.72788 14.5844,1.61071 20.89844,-1.36718 6.79005,-3.20239 11.15045,-10.23794 15.42969,-16.40625 3.10351,-4.47355 -2.32756,-14.77651 7.22656,-14.64844 5.95534,0.0798 12.86174,-0.78888 17.1875,-4.88281 7.40206,-7.00537 9.18023,-18.74474 9.96094,-28.90625 0.98315,-12.7964 -1.60115,-26.17263 -6.83594,-37.89063 -3.19772,-7.15806 -6.97198,-16.2104 -14.45312,-18.55469 -11.73109,-3.67605 -9.67252,0.0112 -13.67188,-15.625 -2.4763,-9.68156 -7.33944,-19.99899 -15.625,-25.58594 -7.92093,-5.34108 -19.06919,-7.22926 -28.27586,-4.67869 -4.65807,1.29045 -9.49723,4.81345 -11.04854,9.39126 -1.40427,4.14391 -1.90051,9.1957 -2.76214,13.81068 -0.84037,4.50109 -1.38107,9.25316 -2.34781,13.53447"
         style="fill:none;fill-rule:evenodd;stroke:#00ec00;stroke-width:1px;stroke-linecap:butt;stroke-linejoin:miter;stroke-opacity:1" />
    </g>
  </g>
  <WCB
     pausedposy="0"
     pausedposx="0"
     lastknownposy="0"
     lastknownposx="0"
     lastpathnc="0"
     lastpath="0"
     node="0"
     layer="0" />
</svg>
