<?xml version="1.0" encoding="UTF-8" standalone="no"?>
<!-- Creator: CorelDRAW X7 -->

<svg
   xmlns:dc="http://purl.org/dc/elements/1.1/"
   xmlns:cc="http://creativecommons.org/ns#"
   xmlns:rdf="http://www.w3.org/1999/02/22-rdf-syntax-ns#"
   xmlns:svg="http://www.w3.org/2000/svg"
   xmlns="http://www.w3.org/2000/svg"
   xmlns:sodipodi="http://sodipodi.sourceforge.net/DTD/sodipodi-0.dtd"
   xmlns:inkscape="http://www.inkscape.org/namespaces/inkscape"
   xml:space="preserve"
   width="180mm"
   height="180mm"
   version="1.1"
   style="shape-rendering:geometricPrecision; text-rendering:geometricPrecision; image-rendering:optimizeQuality; fill-rule:evenodd; clip-rule:evenodd"
   viewBox="0 0 18000 18000"
   id="svg2"
   inkscape:version="0.91 r"
   sodipodi:docname="2.svg"><sodipodi:namedview
   pagecolor="#ffffff"
   bordercolor="#666666"
   borderopacity="1"
   objecttolerance="10"
   gridtolerance="10"
   guidetolerance="10"
   inkscape:pageopacity="0"
   inkscape:pageshadow="2"
   inkscape:window-width="796"
   inkscape:window-height="654"
   id="namedview21"
   showgrid="false"
   inkscape:zoom="0.52329394"
   inkscape:cx="101.26497"
   inkscape:cy="463.45032"
   inkscape:window-x="964"
   inkscape:window-y="111"
   inkscape:window-maximized="0"
   inkscape:current-layer="svg2" /><metadata
   id="metadata23"><rdf:RDF><cc:Work
       rdf:about=""><dc:format>image/svg+xml</dc:format><dc:type
         rdf:resource="http://purl.org/dc/dcmitype/StillImage" /></cc:Work></rdf:RDF></metadata>
 <defs
   id="defs4">
  <style
   id="style6"
   type="text/css">
   
    .str0 {stroke:#E62129;stroke-width:20}
    .fil0 {fill:none}
   
  </style>
 </defs>
 <g
   id="图层_x0020_1"
   transform="matrix(2.3010731,0,0,2.3412599,-10901.673,-12164.844)">
  <metadata
   id="CorelCorpID_0Corel-Layer" />
  <g
   id="_836029920">
   <path
   id="path11"
   d="m 5325,12456 c 0,0 807,-2692 1733,-3975 926,-1284 1770,-1370 2143,-1353 374,16 913,284 1184,575 271,291 493,1211 314,1628 -178,416 -833,1117 -1190,1415 -357,298 -1614,1240 -2613,1485 -999,245 -1571,225 -1571,225 z"
   class="fil0 str0"
   inkscape:connector-curvature="0"
   style="fill:none;stroke:#e62129;stroke-width:20" />
   <path
   id="path13"
   d="m 9201,7128 c 0,0 -284,-612 -198,-962 86,-351 516,-424 608,-424 93,0 536,7 702,182 165,175 155,490 49,615 -106,126 29,541 64,546 35,5 218,-323 468,-390 250,-68 640,-126 878,1 238,128 365,427 279,702 -86,274 -367,545 -416,588 -50,43 -232,126 -229,154 4,28 377,101 639,346 261,244 86,698 13,810 -73,112 -273,331 -539,317 -266,-13 -808,-241 -827,-266"
   class="fil0 str0"
   inkscape:connector-curvature="0"
   style="fill:none;stroke:#e62129;stroke-width:20" />
   <path
   id="path15"
   d="m 7880,7603 c 0,0 971,497 866,937"
   class="fil0 str0"
   inkscape:connector-curvature="0"
   style="fill:none;stroke:#e62129;stroke-width:20" />
   <path
   id="path17"
   d="m 7934,11806 c 0,0 -137,-570 -445,-640"
   class="fil0 str0"
   inkscape:connector-curvature="0"
   style="fill:none;stroke:#e62129;stroke-width:20" />
   <path
   id="path19"
   d="m 8557,11436 c 0,0 -56,-713 -565,-753"
   class="fil0 str0"
   inkscape:connector-curvature="0"
   style="fill:none;stroke:#e62129;stroke-width:20" />
  </g>
 </g>
<WCB
   pausedposy="0"
   pausedposx="0"
   lastknownposy="0"
   lastknownposx="0"
   lastpathnc="0"
   lastpath="0"
   node="0"
   layer="0" /></svg>