<?xml version="1.0" encoding="UTF-8" standalone="no"?>
<!-- Created with Inkscape (http://www.inkscape.org/) -->

<svg
   xmlns:osb="http://www.openswatchbook.org/uri/2009/osb"
   xmlns:dc="http://purl.org/dc/elements/1.1/"
   xmlns:cc="http://creativecommons.org/ns#"
   xmlns:rdf="http://www.w3.org/1999/02/22-rdf-syntax-ns#"
   xmlns:svg="http://www.w3.org/2000/svg"
   xmlns="http://www.w3.org/2000/svg"
   xmlns:sodipodi="http://sodipodi.sourceforge.net/DTD/sodipodi-0.dtd"
   xmlns:inkscape="http://www.inkscape.org/namespaces/inkscape"
   width="180mm"
   height="180mm"
   viewBox="0 0 637.79528 637.79527"
   id="svg3409"
   version="1.1"
   inkscape:version="0.91 r"
   sodipodi:docname="3.svg">
  <sodipodi:namedview
     id="base"
     pagecolor="#ffffff"
     bordercolor="#666666"
     borderopacity="1.0"
     inkscape:pageopacity="0.0"
     inkscape:pageshadow="2"
     inkscape:zoom="0.35355339"
     inkscape:cx="-163.94084"
     inkscape:cy="437.59179"
     inkscape:document-units="mm"
     inkscape:current-layer="layer1"
     showgrid="false"
     inkscape:window-width="838"
     inkscape:window-height="684"
     inkscape:window-x="989"
     inkscape:window-y="152"
     inkscape:window-maximized="0"
     units="mm" />
  <defs
     id="defs3411">
    <linearGradient
       id="linearGradient4148"
       osb:paint="solid">
      <stop
         style="stop-color:#550044;stop-opacity:1;"
         offset="0"
         id="stop4150" />
    </linearGradient>
  </defs>
  <metadata
     id="metadata3414">
    <rdf:RDF>
      <cc:Work
         rdf:about="">
        <dc:format>image/svg+xml</dc:format>
        <dc:type
           rdf:resource="http://purl.org/dc/dcmitype/StillImage" />
        <dc:title />
      </cc:Work>
    </rdf:RDF>
  </metadata>
  <g
     transform="translate(0,-414.56693)"
     id="layer1"
     inkscape:groupmode="layer"
     inkscape:label="Layer 1">
    <g
       id="g3342"
       transform="matrix(0.99996037,0,0,1.0490442,0.01307852,-22.846845)">
      <path
         sodipodi:nodetypes="ccccccc"
         inkscape:connector-curvature="0"
         id="path4138"
         d="m 133.42675,589.81025 c 0,0 -101.612748,-17.96661 -107.59653,173.33898 -0.664861,29.43163 27.924302,264.88467 168.21066,214.43041 10.6379,-11.21205 -58.508,18.92034 -107.0431,-125.43477 0,0 -58.5081,-272.59294 103.05396,-280.30123 -0.51695,0.15204 48.82088,-5.15154 49.15208,-65.00852 0,0 -0.047,-0.86652 -1.14728,-2.0766"
         style="fill:none;fill-rule:evenodd;stroke:#000000;stroke-width:0.99921262;stroke-linecap:butt;stroke-linejoin:miter;stroke-miterlimit:4;stroke-dasharray:none;stroke-opacity:1" />
      <path
         sodipodi:nodetypes="cc"
         inkscape:connector-curvature="0"
         id="path4142"
         d="m 195.12332,976.32082 c 91.08646,11.21204 127.38562,3.95593 127.38562,3.95593"
         style="fill:none;fill-rule:evenodd;stroke:#000000;stroke-width:0.99921262;stroke-linecap:butt;stroke-linejoin:miter;stroke-miterlimit:4;stroke-dasharray:none;stroke-opacity:1" />
      <path
         sodipodi:nodetypes="cc"
         inkscape:connector-curvature="0"
         id="path4146"
         d="M 245.11057,981.3672 C 134.90627,855.22992 106.76227,746.99032 195.65281,570.85575 c 2.55806,-0.92709 3.20622,-1.09766 3.20622,-1.09766"
         style="fill:none;fill-rule:evenodd;stroke:#000000;stroke-width:0.99921262;stroke-linecap:butt;stroke-linejoin:miter;stroke-miterlimit:4;stroke-dasharray:none;stroke-opacity:1" />
      <path
         sodipodi:nodetypes="cccsssc"
         inkscape:connector-curvature="0"
         id="path4148"
         d="m 275.15434,575.34741 c 6.64869,-30.83313 65.15669,-58.86325 93.74586,-29.43162 28.58917,29.43162 63.16213,302.72532 40.55673,359.48631 -22.60538,56.76103 0,0 -21.75563,54.00583 -11.79246,29.27342 -48.56437,26.81647 -64.6767,20.97474 0,0 -117.01616,-63.76852 -47.87026,-405.03526 0,0 -5.97406,-29.6333 -56.50371,-17.01975 l -2.76877,2.42438"
         style="fill:none;fill-rule:evenodd;stroke:#000000;stroke-width:0.99921262;stroke-linecap:butt;stroke-linejoin:miter;stroke-miterlimit:4;stroke-dasharray:none;stroke-opacity:1" />
      <path
         sodipodi:nodetypes="ccsssc"
         inkscape:connector-curvature="0"
         id="path4152"
         d="m 384.54561,966.26168 c 53.85404,43.44662 115.99779,-5.50007 115.99779,-5.50007 l 0.66483,-0.70079 c 59.60827,-62.8266 4.99021,-429.49232 -37.23243,-444.27741 -36.70927,-12.85451 -48.47309,-48.69813 -103.05395,8.40903 -20.17392,21.10772 -31.7124,-37.51252 -31.7124,-37.51252"
         style="fill:none;fill-rule:evenodd;stroke:#000000;stroke-width:0.99921262;stroke-linecap:butt;stroke-linejoin:miter;stroke-miterlimit:4;stroke-dasharray:none;stroke-opacity:1" />
      <path
         sodipodi:nodetypes="ccsc"
         inkscape:connector-curvature="0"
         id="path4154"
         d="m 459.98666,513.68115 c 144.94042,-75.68134 174.19443,270.49067 174.19443,270.49067 l 0,-0.70075 c 0,62.12801 -4.93542,209.50451 -142.3718,183.09821"
         style="fill:none;fill-rule:evenodd;stroke:#000000;stroke-width:0.99921262;stroke-linecap:butt;stroke-linejoin:miter;stroke-miterlimit:4;stroke-dasharray:none;stroke-opacity:1" />
      <path
         sodipodi:nodetypes="cccccc"
         inkscape:connector-curvature="0"
         id="path4158"
         d="m 329.00838,487.05252 c -80.44856,46.24972 -93.08103,14.71581 -93.08103,14.71581 l 0,0 c 18.61625,-36.43915 53.1892,-33.63614 53.1892,-33.63614 l 0,0 c 51.85939,-9.81054 39.89183,18.92033 39.89183,18.92033 z"
         style="fill:none;fill-rule:evenodd;stroke:#000000;stroke-width:0.99921262;stroke-linecap:butt;stroke-linejoin:miter;stroke-miterlimit:4;stroke-dasharray:none;stroke-opacity:1" />
    </g>
  </g>
  <WCB
     pausedposy="0"
     pausedposx="0"
     lastknownposy="0"
     lastknownposx="0"
     lastpathnc="0"
     lastpath="0"
     node="0"
     layer="0" />
</svg>
