<?xml version="1.0" encoding="UTF-8" standalone="no"?>
<!-- Created with Inkscape (http://www.inkscape.org/) -->

<svg
   xmlns:osb="http://www.openswatchbook.org/uri/2009/osb"
   xmlns:dc="http://purl.org/dc/elements/1.1/"
   xmlns:cc="http://creativecommons.org/ns#"
   xmlns:rdf="http://www.w3.org/1999/02/22-rdf-syntax-ns#"
   xmlns:svg="http://www.w3.org/2000/svg"
   xmlns="http://www.w3.org/2000/svg"
   xmlns:sodipodi="http://sodipodi.sourceforge.net/DTD/sodipodi-0.dtd"
   xmlns:inkscape="http://www.inkscape.org/namespaces/inkscape"
   width="180mm"
   height="180mm"
   viewBox="0 0 637.79528 637.79527"
   id="svg3409"
   version="1.1"
   inkscape:version="0.91 r"
   sodipodi:docname="6.svg">
  <sodipodi:namedview
     id="base"
     pagecolor="#ffffff"
     bordercolor="#666666"
     borderopacity="1.0"
     inkscape:pageopacity="0.0"
     inkscape:pageshadow="2"
     inkscape:zoom="0.7071068"
     inkscape:cx="177.14971"
     inkscape:cy="310.79056"
     inkscape:document-units="mm"
     inkscape:current-layer="layer2"
     showgrid="false"
     inkscape:window-width="822"
     inkscape:window-height="682"
     inkscape:window-x="1009"
     inkscape:window-y="162"
     inkscape:window-maximized="0"
     units="mm" />
  <defs
     id="defs3411">
    <linearGradient
       id="linearGradient4148"
       osb:paint="solid">
      <stop
         style="stop-color:#550044;stop-opacity:1;"
         offset="0"
         id="stop4150" />
    </linearGradient>
  </defs>
  <metadata
     id="metadata3414">
    <rdf:RDF>
      <cc:Work
         rdf:about="">
        <dc:format>image/svg+xml</dc:format>
        <dc:type
           rdf:resource="http://purl.org/dc/dcmitype/StillImage" />
        <dc:title />
      </cc:Work>
    </rdf:RDF>
  </metadata>
  <g
     inkscape:groupmode="layer"
     id="layer2"
     inkscape:label="Layer 4">
    <g
       id="g3342"
       transform="matrix(1.5339629,0,0,1.2760893,-150.54424,-80.119369)">
      <path
         sodipodi:nodetypes="sscssssss"
         inkscape:connector-curvature="0"
         id="path4151-6"
         d="m 498.58031,381.27037 c 10e-6,-58.07946 -10.01073,-98.8126 -62.66085,-129.8578 -33.25552,-19.60916 -116.21615,-12.73684 -121.92969,5.8675 -5.71353,-18.87232 -88.67416,-25.74464 -121.92968,-6.13548 -52.65012,31.0452 -71.14614,71.07123 -71.14613,129.1507 1e-5,80.9615 49.45092,142.37487 134.95368,158.63118 14.57707,2.77148 30.20201,-0.0196 46.80843,-10e-6 17.46277,0.0205 34.17199,2.70968 49.94884,-0.28916 87.22843,-16.58024 145.95539,-77.11722 145.9554,-157.36693 z"
         style="opacity:1;fill:none;fill-opacity:1;stroke:#ff0000;stroke-width:1.41732287;stroke-miterlimit:4;stroke-dasharray:none;stroke-dashoffset:0;stroke-opacity:1" />
      <path
         sodipodi:nodetypes="cscssc"
         inkscape:connector-curvature="0"
         id="path4169"
         d="m 313.89643,256.21946 c 0,0 2.23791,-31.94485 12.20529,-64.53415 10.22142,-33.41996 28.5861,-64.85971 33.51177,-69.84451 4.39905,-0.14905 12.38649,7.9545 11.13649,8.7045 -1.25,0.75 -27.5,42.875 -34,57.625 -6.5,14.75 -22.85355,68.04916 -22.85355,68.04916 z"
         style="opacity:1;fill:none;fill-opacity:1;stroke:#ff0000;stroke-width:1.41732287;stroke-miterlimit:4;stroke-dasharray:none;stroke-dashoffset:0;stroke-opacity:1" />
      <path
         sodipodi:nodetypes="zcscz"
         inkscape:connector-curvature="0"
         id="path4174"
         d="M 2.9329666,304.50046 C 2.3833158,264.72579 30.807216,241.08436 58.470013,216.41288 96.07866,261.52112 108.94072,317.69881 84.399072,349.12201 70.344269,367.11781 44.054043,381.71766 21.313911,386.90473 12.470494,356.59477 3.4826174,344.27513 2.9329666,304.50046 Z"
         style="opacity:1;fill:none;fill-opacity:1;stroke:#ff0000;stroke-width:1.72776806;stroke-miterlimit:4;stroke-dasharray:none;stroke-dashoffset:0;stroke-opacity:1"
         transform="matrix(0.56244636,-0.82683377,0.76220228,0.64733892,0,0)" />
      <path
         sodipodi:nodetypes="cc"
         inkscape:connector-curvature="0"
         id="path4177"
         d="m 267.28635,142.467 c 30.32412,11.46751 40.49442,64.54646 39.59798,89.80256"
         style="opacity:1;fill:none;fill-opacity:1;stroke:#ff0000;stroke-width:1.41732287;stroke-miterlimit:4;stroke-dasharray:none;stroke-dashoffset:0;stroke-opacity:1" />
      <path
         sodipodi:nodetypes="cc"
         inkscape:connector-curvature="0"
         id="path4179"
         d="m 262.49999,175.7953 c 20.25,-2.75 42.49999,39 44.24999,56.25"
         style="opacity:1;fill:none;fill-opacity:1;stroke:#ff0000;stroke-width:1.41732287;stroke-miterlimit:4;stroke-dasharray:none;stroke-dashoffset:0;stroke-opacity:1" />
      <path
         sodipodi:nodetypes="cscsc"
         inkscape:connector-curvature="0"
         id="path4183"
         d="m 336.74998,225.0453 c 0,0 0.0675,-48.15966 35.75,-70.75 34.75,-22 90.75,2.25 90.75,2.25 0,0 -20,55.25 -64,65.25 -44,10 -62.5,3.25 -62.5,3.25 z"
         style="opacity:1;fill:none;fill-opacity:1;stroke:#ff0000;stroke-width:1.41732287;stroke-miterlimit:4;stroke-dasharray:none;stroke-dashoffset:0;stroke-opacity:1" />
      <path
         sodipodi:nodetypes="cscc"
         inkscape:connector-curvature="0"
         id="path4185"
         d="m 397.74998,172.0453 c 0,0 -9.27253,-5.32356 -28.25,7.75 -20.07322,13.82843 -33,44.75 -33,44.75 19.40165,-21.98223 35.50736,-28.42157 49.5,-29"
         style="opacity:1;fill:none;fill-opacity:1;stroke:#ff0000;stroke-width:1.41732287;stroke-miterlimit:4;stroke-dasharray:none;stroke-dashoffset:0;stroke-opacity:1" />
    </g>
  </g>
  <WCB
     pausedposy="0"
     pausedposx="0"
     lastknownposy="0"
     lastknownposx="0"
     lastpathnc="0"
     lastpath="0"
     node="0"
     layer="0" />
</svg>
