<?xml version="1.0" encoding="UTF-8" standalone="no"?>
<!-- Created with Inkscape (http://www.inkscape.org/) -->

<svg
   xmlns:osb="http://www.openswatchbook.org/uri/2009/osb"
   xmlns:dc="http://purl.org/dc/elements/1.1/"
   xmlns:cc="http://creativecommons.org/ns#"
   xmlns:rdf="http://www.w3.org/1999/02/22-rdf-syntax-ns#"
   xmlns:svg="http://www.w3.org/2000/svg"
   xmlns="http://www.w3.org/2000/svg"
   xmlns:sodipodi="http://sodipodi.sourceforge.net/DTD/sodipodi-0.dtd"
   xmlns:inkscape="http://www.inkscape.org/namespaces/inkscape"
   width="180mm"
   height="180mm"
   viewBox="0 0 637.79528 637.79527"
   id="svg3409"
   version="1.1"
   inkscape:version="0.91 r"
   sodipodi:docname="1.svg">
  <sodipodi:namedview
     id="base"
     pagecolor="#ffffff"
     bordercolor="#666666"
     borderopacity="1.0"
     inkscape:pageopacity="0.0"
     inkscape:pageshadow="2"
     inkscape:zoom="0.70710682"
     inkscape:cx="138.92096"
     inkscape:cy="370.90061"
     inkscape:document-units="mm"
     inkscape:current-layer="layer2"
     showgrid="false"
     inkscape:window-width="1851"
     inkscape:window-height="904"
     inkscape:window-x="65"
     inkscape:window-y="24"
     inkscape:window-maximized="1"
     units="mm" />
  <defs
     id="defs3411">
    <linearGradient
       id="linearGradient4148"
       osb:paint="solid">
      <stop
         style="stop-color:#550044;stop-opacity:1;"
         offset="0"
         id="stop4150" />
    </linearGradient>
  </defs>
  <metadata
     id="metadata3414">
    <rdf:RDF>
      <cc:Work
         rdf:about="">
        <dc:format>image/svg+xml</dc:format>
        <dc:type
           rdf:resource="http://purl.org/dc/dcmitype/StillImage" />
        <dc:title />
      </cc:Work>
    </rdf:RDF>
  </metadata>
  <g
     inkscape:groupmode="layer"
     id="layer2"
     inkscape:label="Layer 4">
    <g
       id="g3354"
       transform="matrix(1.5576454,0,0,1.3561179,-144.91406,-71.956449)">
      <path
         sodipodi:nodetypes="cscc"
         inkscape:connector-curvature="0"
         id="path4151"
         d="m 298.89467,64.419191 c -25.51228,14.619237 -56.78149,10.162017 -68.53657,-3.318197 -20.14848,-23.105412 -9.23713,-67.5768423 40.29423,-68.6607351 14.12385,0.8102071 31.23079,6.66735901 40.73414,15.0210425"
         style="opacity:1;fill:none;fill-opacity:1;stroke:#ff0000;stroke-width:1.28407276;stroke-miterlimit:4;stroke-dasharray:none;stroke-dashoffset:0;stroke-opacity:1"
         transform="matrix(0.92632402,0.37672776,-0.3627351,0.93189229,0,0)" />
      <path
         sodipodi:nodetypes="cssc"
         inkscape:connector-curvature="0"
         id="path4154"
         d="M 246.68045,92.702395 C 252.74199,77.217529 263.53,71.981962 277.3125,71.981964 c 18.45507,3e-6 29.44416,16.309381 36.78043,34.533506 0.35084,0.87151 3.56937,0.0453 3.78551,0.96733"
         style="opacity:1;fill:none;fill-opacity:1;stroke:#ff0000;stroke-width:1.55639517;stroke-miterlimit:4;stroke-dasharray:none;stroke-dashoffset:0;stroke-opacity:1" />
      <path
         sodipodi:nodetypes="cc"
         inkscape:connector-curvature="0"
         id="path4157"
         d="m 275.41537,110.26256 c 50.99596,-12.637869 134.58911,8.79549 169.7013,47.75571"
         style="opacity:1;fill:none;fill-opacity:1;stroke:#ff0000;stroke-width:1.63492036;stroke-miterlimit:4;stroke-dasharray:none;stroke-dashoffset:0;stroke-opacity:1" />
      <path
         sodipodi:nodetypes="cc"
         inkscape:connector-curvature="0"
         id="path4160"
         d="m 460.37116,272.56247 c -17.96156,38.97882 -60.50864,68.52687 -110.38469,32.72357"
         style="opacity:1;fill:none;fill-opacity:1;stroke:#ff0000;stroke-width:1.78384709;stroke-miterlimit:4;stroke-dasharray:none;stroke-dashoffset:0;stroke-opacity:1"
         transform="matrix(0.98401634,-0.17807822,0,1,0,0)" />
      <path
         sodipodi:nodetypes="cc"
         inkscape:connector-curvature="0"
         id="path4163"
         d="m 346.23,227.78346 c 3.62539,7.61345 -3.70259,20.33531 -9.99958,23.40371"
         style="opacity:1;fill:none;fill-opacity:1;stroke:#ff0000;stroke-width:1.6830709;stroke-miterlimit:4;stroke-dasharray:none;stroke-dashoffset:0;stroke-opacity:1" />
      <path
         sodipodi:nodetypes="sssss"
         inkscape:connector-curvature="0"
         id="path4166"
         d="m 482.33576,171.13997 c 0,12.90966 -7.62537,21.43046 -19.43046,21.43046 -11.80509,0 -21.90533,-7.99047 -21.90533,-20.90013 0,-12.90965 9.56992,-23.37499 21.375,-23.37499 11.80508,0 19.96078,9.93501 19.96079,22.84466 z"
         style="opacity:1;fill:none;fill-opacity:1;stroke:#ff0000;stroke-width:1.6830709;stroke-miterlimit:4;stroke-dasharray:none;stroke-dashoffset:0;stroke-opacity:1" />
      <path
         sodipodi:nodetypes="csscsc"
         inkscape:connector-curvature="0"
         id="path4169"
         d="m 354.31086,260.22845 c -0.34212,0.12028 -0.87208,2.20832 -1.21486,2.32661 -31.85657,10.99353 -67.25235,13.11744 -92.6451,-2.42959 -23.05021,-14.11278 -34.46147,-34.61109 -35.22979,-63.91835 -0.33661,-7.61314 0.32829,-16.88151 2.59265,-24.43842 0.26891,-0.89743 -3.71667,-1.02348 -3.90619,-1.95158"
         style="opacity:1;fill:none;fill-opacity:1;stroke:#ff0000;stroke-width:1.69828022;stroke-miterlimit:4;stroke-dasharray:none;stroke-dashoffset:0;stroke-opacity:1" />
      <path
         sodipodi:nodetypes="cssc"
         inkscape:connector-curvature="0"
         id="path4172"
         d="m 460.74433,-69.303949 c 1.55292,3.031534 1.20862,7.062889 1.20862,10.996481 0,10.491442 -6.02624,19.082328 -13.983,19.082329 -6.50765,10e-7 -6.07351,-9.048512 -10.90034,-15.121427"
         style="opacity:1;fill:none;fill-opacity:1;stroke:#ff0000;stroke-width:1.58826852;stroke-miterlimit:4;stroke-dasharray:none;stroke-dashoffset:0;stroke-opacity:1"
         transform="matrix(0.74321041,0.66905776,-0.58157998,0.81348923,0,0)" />
      <path
         sodipodi:nodetypes="cc"
         inkscape:connector-curvature="0"
         id="path4175"
         d="m 220.97709,134.1683 c 17.46856,-8.85483 38.28018,-4.05777 47.82103,7.33637"
         style="opacity:1;fill:none;fill-opacity:1;stroke:#ff0000;stroke-width:1.6830709;stroke-miterlimit:4;stroke-dasharray:none;stroke-dashoffset:0;stroke-opacity:1" />
      <path
         sodipodi:nodetypes="cc"
         inkscape:connector-curvature="0"
         id="path4178"
         d="m 240.01327,149.64621 c -2.25205,-6.14757 -3.02397,-17.02719 1.9631,-20.21018"
         style="opacity:1;fill:none;fill-opacity:1;stroke:#ff0000;stroke-width:1.6888411;stroke-miterlimit:4;stroke-dasharray:none;stroke-dashoffset:0;stroke-opacity:1" />
      <path
         sodipodi:nodetypes="ssccs"
         inkscape:connector-curvature="0"
         id="path4183"
         d="m 339.85318,122.13768 c -8.05457,0 -14.58408,6.13379 -14.58408,13.7002 0,3.72118 1.5793,7.09585 4.23288,9.64527 -1.24243,-15.18914 9.48193,-20.26162 19.54397,-18.24539 0,0 -2.56904,-5.10008 -9.19277,-5.10008 z"
         style="opacity:1;fill:none;fill-opacity:1;stroke:#ff0000;stroke-width:1.6830709;stroke-miterlimit:4;stroke-dasharray:none;stroke-dashoffset:0;stroke-opacity:1" />
      <ellipse
         ry="12.374999"
         rx="9.25"
         cy="171.9203"
         cx="351.74997"
         id="path4202"
         style="opacity:1;fill:none;fill-opacity:1;stroke:#ff0000;stroke-width:1.6830709;stroke-miterlimit:4;stroke-dasharray:none;stroke-dashoffset:0;stroke-opacity:1" />
      <path
         sodipodi:nodetypes="ccssszc"
         inkscape:connector-curvature="0"
         id="path4204"
         d="m 273.65031,266.56423 c -12.66085,64.5726 -50.61547,196.46393 19.79899,221.32442 0,0 -3.53553,22.62741 43.48706,18.38477 47.0226,-4.24264 44.04479,-18.97884 41.01219,-22.45063 -6.73925,-7.71527 -18.34984,-1.81061 -24.94675,-1.75381 -1.87665,0.0161 -0.4765,-3.1061 0.52202,-16.95084 0.99851,-13.84473 -4.34022,-31.55448 -31.79024,-30.96961"
         style="opacity:1;fill:none;fill-opacity:1;stroke:#ff0000;stroke-width:1.6830709;stroke-miterlimit:4;stroke-dasharray:none;stroke-dashoffset:0;stroke-opacity:1" />
      <path
         sodipodi:nodetypes="csc"
         inkscape:connector-curvature="0"
         id="path4206"
         d="m 369.48436,376.40467 c 0,0 1.88684,0.26122 1.99704,0.90731 6.85087,40.16591 0.68362,61.15166 -17.73142,86.9833"
         style="opacity:1;fill:none;fill-opacity:1;stroke:#ff0000;stroke-width:1.6830709;stroke-miterlimit:4;stroke-dasharray:none;stroke-dashoffset:0;stroke-opacity:1" />
      <path
         sodipodi:nodetypes="csc"
         inkscape:connector-curvature="0"
         id="path4208"
         d="m 333.22405,361.82476 c -0.009,0.54653 2.9008,1.5556 2.89531,2.09902 -0.31812,31.5077 4.8601,59.64241 36.5259,60.50203"
         style="opacity:1;fill:none;fill-opacity:1;stroke:#ff0000;stroke-width:1.6830709;stroke-miterlimit:4;stroke-dasharray:none;stroke-dashoffset:0;stroke-opacity:1" />
      <path
         sodipodi:nodetypes="cszzsszsssc"
         inkscape:connector-curvature="0"
         id="path4210"
         d="m 303.74998,287.04529 c 17.46801,19.97189 37.63798,35.50994 55.4726,36.34551 7.87957,0.36917 16.70196,-4.92423 20.67905,-1.72419 3.97709,3.20004 -3.98744,9.55285 -0.15165,12.12868 3.83579,2.57583 14.646,-4.79549 17.83318,3.58579 3.37202,8.86733 -7.94471,12.32152 -8.58578,16.53033 -0.63389,4.16161 4.30676,7.22072 1.5026,10.69638 -2.80416,3.47566 -9.41581,-0.10243 -10,2.6875 -0.57583,2.75 6.55285,8.26517 -0.19715,10.51517 -6.75,2.25 -45.98201,-13.766 -55.80285,-20.64017 -8.51605,-5.96087 -36.74999,-26.625 -36.74999,-28.125"
         style="opacity:1;fill:none;fill-opacity:1;stroke:#ff0000;stroke-width:1.6830709;stroke-miterlimit:4;stroke-dasharray:none;stroke-dashoffset:0;stroke-opacity:1" />
      <path
         sodipodi:nodetypes="cssc"
         inkscape:connector-curvature="0"
         id="path4212"
         d="m 320.16467,270.23235 c 0,0 2.13555,-0.20535 2.62977,0.34765 15.21052,17.01914 22.8461,32.13559 33.25287,52.05469 0.31448,0.60191 3.95841,0.76325 3.95841,0.76325"
         style="opacity:1;fill:none;fill-opacity:1;stroke:#ff0000;stroke-width:1.6830709;stroke-miterlimit:4;stroke-dasharray:none;stroke-dashoffset:0;stroke-opacity:1" />
      <path
         sodipodi:nodetypes="cszszzsssc"
         inkscape:connector-curvature="0"
         id="path4214"
         d="m 254.38166,434.63467 c 0,0 0.27268,3.12154 -0.36653,4.20061 -2.43996,4.11895 -14.99218,16.41879 -33.5982,13.61224 -18.60601,-2.80655 -33.48554,-8.74632 -54.12685,-86.23137 -10.00165,-37.54503 -18.49711,-78.94525 -40.07153,-89.75242 -21.57442,-10.80717 -18.89612,-1.75183 -15.55634,-0.70711 3.33978,1.04472 33.00935,42.29908 39.83778,81.78867 7.78258,45.00757 29.2043,106.95339 51.68674,114.02512 21.69973,6.82553 48.33963,6.04832 62.02902,-6.73278 0.49377,-0.46101 -1.72336,-3.76687 -1.26044,-4.26099"
         style="opacity:1;fill:none;fill-opacity:1;stroke:#ff0000;stroke-width:1.6830709;stroke-miterlimit:4;stroke-dasharray:none;stroke-dashoffset:0;stroke-opacity:1" />
      <ellipse
         ry="5.0381355"
         rx="3.7565045"
         cy="178.08751"
         cx="354.39307"
         id="path4216"
         style="opacity:1;fill:none;fill-opacity:1;stroke:#ff0000;stroke-width:1.6830709;stroke-miterlimit:4;stroke-dasharray:none;stroke-dashoffset:0;stroke-opacity:1" />
    </g>
  </g>
  <WCB
     pausedposy="0"
     pausedposx="0"
     lastknownposy="0"
     lastknownposx="0"
     lastpathnc="0"
     lastpath="0"
     node="0"
     layer="0" />
</svg>
