<?xml version="1.0" encoding="UTF-8" standalone="no"?>
<!-- Created with Inkscape (http://www.inkscape.org/) -->

<svg
   xmlns:osb="http://www.openswatchbook.org/uri/2009/osb"
   xmlns:dc="http://purl.org/dc/elements/1.1/"
   xmlns:cc="http://creativecommons.org/ns#"
   xmlns:rdf="http://www.w3.org/1999/02/22-rdf-syntax-ns#"
   xmlns:svg="http://www.w3.org/2000/svg"
   xmlns="http://www.w3.org/2000/svg"
   xmlns:sodipodi="http://sodipodi.sourceforge.net/DTD/sodipodi-0.dtd"
   xmlns:inkscape="http://www.inkscape.org/namespaces/inkscape"
   width="180mm"
   height="180mm"
   viewBox="0 0 637.79528 637.79527"
   id="svg3409"
   version="1.1"
   inkscape:version="0.91 r"
   sodipodi:docname="10.svg">
  <sodipodi:namedview
     id="base"
     pagecolor="#ffffff"
     bordercolor="#666666"
     borderopacity="1.0"
     inkscape:pageopacity="0.0"
     inkscape:pageshadow="2"
     inkscape:zoom="1"
     inkscape:cx="464.86998"
     inkscape:cy="304.39477"
     inkscape:document-units="mm"
     inkscape:current-layer="layer2"
     showgrid="false"
     inkscape:window-width="1851"
     inkscape:window-height="904"
     inkscape:window-x="65"
     inkscape:window-y="24"
     inkscape:window-maximized="1"
     units="mm" />
  <defs
     id="defs3411">
    <linearGradient
       id="linearGradient4148"
       osb:paint="solid">
      <stop
         style="stop-color:#550044;stop-opacity:1;"
         offset="0"
         id="stop4150" />
    </linearGradient>
  </defs>
  <metadata
     id="metadata3414">
    <rdf:RDF>
      <cc:Work
         rdf:about="">
        <dc:format>image/svg+xml</dc:format>
        <dc:type
           rdf:resource="http://purl.org/dc/dcmitype/StillImage" />
        <dc:title />
      </cc:Work>
    </rdf:RDF>
  </metadata>
  <g
     inkscape:groupmode="layer"
     id="layer2"
     inkscape:label="Layer 2">
    <g
       id="g3349"
       transform="matrix(1.2351148,0,0,1.214345,-72.459933,-83.444804)">
      <path
         sodipodi:nodetypes="csscssssszzssssssssssc"
         inkscape:connector-curvature="0"
         id="path4194"
         d="m 150.8125,152.79529 c 0,0 -8.55834,3.38358 -9.12097,3.05558 -5.86299,-3.41805 -39.65166,-24.08779 -39.56653,-26.11808 0.31935,-7.61628 52.75,-6.6875 52.75,-6.6875 0,0 4.01589,-14.89486 28.875,-13.875 24.37499,1 55.82321,38.83731 63.07321,49.08731 7.25,10.25 38.89375,76.41091 36.52513,79.32614 -1.25731,1.54745 -8.27815,-4.82487 -19.52919,-8.1634 -9.94474,-2.95092 -22.52887,-1.7715 -22.52887,-1.7715 -0.13376,1.37428 3.96242,10.66304 1.47817,20.36538 -2.48425,9.70235 -7.70294,23.70958 -9.78753,22.0627 -2.08458,-1.64688 -6.38949,-10.17919 -11.90813,-15.91422 -5.87966,-6.11021 -16.99758,-9.05887 -18.9478,-7.92991 -1.98819,1.15094 -4.55861,13.16046 -9.37785,21.65211 -5.15907,9.09043 -15.33834,16.04487 -16.98718,15.72104 -1.57518,-0.30936 -0.0229,-10.56554 -3.71534,-18.39182 -3.92599,-8.3213 -13.30949,-14.32572 -16.54722,-13.934 -1.48643,0.17984 -8.62914,10.72741 -21.58043,15.57233 -15.25908,5.70824 -31.24891,2.92182 -38.477632,-1.19104 -0.832409,-0.47361 6.908012,-5.73641 13.892962,-13.30819 4.99046,-5.40972 11.36134,-15.90862 11.00515,-21.41672 -0.0375,-0.57996 2.34347,2.03765 2.55455,1.66422"
         style="fill:none;fill-rule:evenodd;stroke:#ff0000;stroke-width:1.41732287;stroke-linecap:butt;stroke-linejoin:miter;stroke-miterlimit:4;stroke-dasharray:none;stroke-opacity:1" />
      <ellipse
         ry="23.430956"
         rx="23.865334"
         cy="140.64571"
         cx="170.82753"
         id="path4196"
         style="opacity:1;fill:none;fill-opacity:1;stroke:#ff0000;stroke-width:1.41732287;stroke-miterlimit:4;stroke-dasharray:none;stroke-dashoffset:0;stroke-opacity:1" />
      <path
         sodipodi:nodetypes="cszccsssc"
         inkscape:connector-curvature="0"
         id="path4198"
         d="m 120.6059,230.50178 c 0,0 -18.31048,4.35432 -25.027991,-4.13096 -6.717514,-8.48529 -3.895466,-28.61806 6.584931,-43.57546 15.24048,-21.75089 47.11879,-29.03243 47.11879,-29.03243 -12.74022,16.62176 -28.80469,37.06342 -32.85013,53.12247 -2.59738,11.13161 -4.07475,26.35273 18.37589,30.77215 22.45064,4.41942 30.56721,-21.3863 32.68853,-32.16967 1.82326,-9.26827 -0.30802,-34.59747 -1.98761,-41.11984 -0.27456,-1.06622 -2.68771,-1.45033 -2.68771,-1.45033"
         style="fill:none;fill-rule:evenodd;stroke:#ff0000;stroke-width:1.41732287;stroke-linecap:butt;stroke-linejoin:miter;stroke-miterlimit:4;stroke-dasharray:none;stroke-opacity:1" />
      <ellipse
         ry="15.597126"
         rx="15.886275"
         cy="136.11049"
         cx="164.20255"
         id="path4196-5"
         style="opacity:1;fill:none;fill-opacity:1;stroke:#ff0000;stroke-width:1.41732287;stroke-miterlimit:4;stroke-dasharray:none;stroke-dashoffset:0;stroke-opacity:1" />
      <path
         sodipodi:nodetypes="csssszscc"
         inkscape:connector-curvature="0"
         id="path4215"
         d="m 175.53925,109.23297 c 0,0 19.51682,-13.040422 27.64855,-15.338519 8.13173,-2.298097 18.05083,-3.973033 21.93992,-0.260723 3.88908,3.712311 3.22855,12.917262 7.11764,16.276022 3.88909,3.35875 14.95984,-3.25705 21.3238,6.11212 6.36396,9.36916 -5.8048,15.32379 -3.88541,18.60628 1.91939,3.28249 16.45356,0.32583 17.33744,11.10921 0.94974,11.58681 -12.99309,24.66035 -12.99309,24.66035 l 1.76777,3.18198"
         style="fill:none;fill-rule:evenodd;stroke:#ff0000;stroke-width:1.41732287;stroke-linecap:butt;stroke-linejoin:miter;stroke-miterlimit:4;stroke-dasharray:none;stroke-opacity:1" />
      <path
         sodipodi:nodetypes="cssssssssssscsssc"
         inkscape:connector-curvature="0"
         id="path4217"
         d="m 281.64947,230.59017 c 0,0 0.64876,1.82834 0.8781,2.43224 1.44223,3.79763 0.59686,15.50966 4.20422,18.51579 2.32093,1.93411 13.80163,-3.35373 30.41891,-2.58669 13.75899,0.6351 30.65407,9.488 40.42045,13.87007 6.33516,2.84252 79.77596,-40.3336 114.06906,-33.02691 28.3097,6.03183 15.86701,25.72729 15.51346,27.14151 -0.35356,1.41421 51.69922,-28.61928 58.3259,6.45038 3.48153,18.42494 -33.40743,23.16783 -33.68072,25.39087 -0.46463,3.77943 30.9164,-0.4201 30.19848,14.55635 -0.97521,20.34358 -33.21383,18.76308 -32.87234,21.8365 0.375,3.375 34.16481,4.92567 23.56954,24.66789 -10.10557,18.82977 -46.97878,20.43608 -46.97878,20.43608 -31.85082,52.20535 -98.17781,88.67367 -179.18499,88.67367 -111.13215,0 -201.22256,-67.92963 -201.22256,-151.72508 0,-11.45495 1.0938,-25.98188 2.43393,-37.41869 0.0471,-0.4022 4.40043,0.16112 4.40043,0.16112"
         style="fill:none;fill-rule:evenodd;stroke:#ff0000;stroke-width:1.41732287;stroke-linecap:butt;stroke-linejoin:miter;stroke-miterlimit:4;stroke-dasharray:none;stroke-opacity:1" />
      <path
         sodipodi:nodetypes="csszssc"
         inkscape:connector-curvature="0"
         id="path4219"
         d="m 243.24473,273.63529 c 0,0 -23.97361,34.92336 -25.03427,51.54037 -1.06066,16.61701 -4.41092,31.67588 29.27691,44.09583 33.77691,12.45279 59.92159,20.4136 86.18733,29.21777 26.26574,8.80417 46.27746,21.41997 50.04496,33.25056 0,0 10.66421,-24.99479 -3.96447,-39.73223 -9.41755,-9.48757 -37.13521,-25.18135 -51.22172,-23.53129"
         style="fill:none;fill-rule:evenodd;stroke:#ff0000;stroke-width:1.41732287;stroke-linecap:butt;stroke-linejoin:miter;stroke-miterlimit:4;stroke-dasharray:none;stroke-opacity:1" />
      <path
         sodipodi:nodetypes="cssc"
         inkscape:connector-curvature="0"
         id="path4221"
         d="m 316.22101,304.13299 c 7.16262,-1.17279 37.14287,8.16663 46.38828,14.63842 9.31603,6.52122 13.20534,18.49344 10.08112,25.1138 -0.3266,0.69209 2.51919,1.68431 2.51919,2.13601"
         style="fill:none;fill-rule:evenodd;stroke:#ff0000;stroke-width:1.41732287;stroke-linecap:butt;stroke-linejoin:miter;stroke-miterlimit:4;stroke-dasharray:none;stroke-opacity:1" />
      <path
         sodipodi:nodetypes="cssc"
         inkscape:connector-curvature="0"
         id="path4225"
         d="m 323.43747,350.15577 c 18.4817,0.01 54.44024,21.16166 63.29475,29.9805 10.82927,10.78563 8.46283,23.6212 0.17891,25.05629 -0.45241,0.0784 0.44801,3.04475 0.24511,3.10272"
         style="fill:none;fill-rule:evenodd;stroke:#ff0000;stroke-width:1.41732287;stroke-linecap:butt;stroke-linejoin:miter;stroke-miterlimit:4;stroke-dasharray:none;stroke-opacity:1" />
      <path
         sodipodi:nodetypes="czsc"
         inkscape:connector-curvature="0"
         id="path4223"
         d="m 325.97526,327.49734 c 11.24629,-0.27995 53.41079,17.25771 59.31981,26.09786 5.90903,8.84016 5.06664,21.29343 0.64722,25.01037 0,0 3.66471,4.21095 3.52005,4.76547"
         style="fill:none;fill-rule:evenodd;stroke:#ff0000;stroke-width:1.41732287;stroke-linecap:butt;stroke-linejoin:miter;stroke-miterlimit:4;stroke-dasharray:none;stroke-opacity:1" />
      <path
         sodipodi:nodetypes="cssscc"
         inkscape:connector-curvature="0"
         id="path4229"
         d="m 253.03124,453.51403 c 0,0 4.18871,0.76158 4.05652,1.22878 -1.0662,3.76836 -4.2097,21.95749 6.66223,29.92747 6.43686,4.71872 18.11523,0.60265 27.42719,-6.66776 10.22258,-7.98139 18.83202,-18.07351 19.51031,-18.76974 l 8.10669,-0.58395"
         style="fill:none;fill-rule:evenodd;stroke:#ff0000;stroke-width:1.41732287;stroke-linecap:butt;stroke-linejoin:miter;stroke-miterlimit:4;stroke-dasharray:none;stroke-opacity:1" />
      <path
         sodipodi:nodetypes="cssssc"
         inkscape:connector-curvature="0"
         id="path4231"
         d="m 337.03124,457.23278 4.43055,-0.50856 c 0.70189,-0.0806 1.5708,24.5558 13.96758,33.12804 11.75,8.125 31.80692,-7.71923 39.7045,-29.49372 3.29347,-9.08043 4.85719,-16.29307 6.46671,-19.80092 0.40958,-0.89268 4.35652,-2.05523 4.35652,-2.05523"
         style="fill:none;fill-rule:evenodd;stroke:#ff0000;stroke-width:1.41732287;stroke-linecap:butt;stroke-linejoin:miter;stroke-miterlimit:4;stroke-dasharray:none;stroke-opacity:1" />
      <path
         sodipodi:nodetypes="cszzzcsssssssc"
         inkscape:connector-curvature="0"
         id="path4233"
         d="m 261.18803,482.32171 c 0,0 1.92118,1.69072 1.6026,2.54622 -1.8826,5.05558 -10.84493,20.15716 -15.74407,24.16218 -4.89914,4.00503 -39.91424,2.36344 -44.41161,9.76778 -4.49736,7.40434 30.63001,4.00941 38.02145,4.77588 7.39144,0.76647 -18.07581,29.26434 -14.28141,32.97151 11.625,7.625 24.125,-16.75 28.25,-23 2.53926,-3.84736 13.16485,19.10789 24.125,14.9375 2.41372,-0.91843 5.99992,-7.28879 1.84512,-14.56322 -3.98048,-6.96922 -15.14645,-12.31491 -17.104,-15.08767 -3.25778,-4.61445 13.311,-1.99166 13.98743,-4.36244 0.80806,-2.8321 -9.96078,-7.53033 -9.71078,-9.78033 0.25,-2.25 4.91973,-18.20634 5.35723,-18.20634 0.4375,0 2.9375,-0.5625 2.9375,-0.5625"
         style="fill:none;fill-rule:evenodd;stroke:#ff0000;stroke-width:1.41732287;stroke-linecap:butt;stroke-linejoin:miter;stroke-miterlimit:4;stroke-dasharray:none;stroke-opacity:1" />
      <path
         sodipodi:nodetypes="csszszsszzscc"
         inkscape:connector-curvature="0"
         id="path4235"
         d="m 350.30511,484.57408 c -0.10912,-0.0298 1.33602,1.85038 1.15905,2.50506 -1.39991,5.17871 -5.03411,29.45725 -7.54511,29.53571 -2.82842,0.0884 -28.27857,-2.73102 -29.78687,4.41942 -1.5083,7.15045 15.11781,6.26101 19.49281,9.63601 4.375,3.375 -20.88352,35.62444 -7.30779,35.17689 13.57574,-0.44755 13.20154,-23.9098 21.93288,-26.51651 5.28706,-1.57843 21.92399,12.09924 29.34861,5.20495 7.42462,-6.89429 -19.6259,-15.10445 -18.74201,-19.70064 0.88389,-4.59619 14.94427,-0.90495 15.02602,-5.83363 0.0817,-4.92868 -15.37957,-2.65165 -15.37957,-6.18718 0,-3.53554 2.28737,-20.6409 2.55254,-20.72929 1.23391,0.3491 4.49984,-0.41069 4.49984,-0.41069"
         style="fill:none;fill-rule:evenodd;stroke:#ff0000;stroke-width:1.41732287;stroke-linecap:butt;stroke-linejoin:miter;stroke-miterlimit:4;stroke-dasharray:none;stroke-opacity:1" />
    </g>
  </g>
  <WCB
     pausedposy="0"
     pausedposx="0"
     lastknownposy="0"
     lastknownposx="0"
     lastpathnc="0"
     lastpath="0"
     node="0"
     layer="0" />
</svg>
