<?xml version="1.0" encoding="UTF-8" standalone="no"?>
<!-- Created with Inkscape (http://www.inkscape.org/) -->

<svg
   xmlns:dc="http://purl.org/dc/elements/1.1/"
   xmlns:cc="http://creativecommons.org/ns#"
   xmlns:rdf="http://www.w3.org/1999/02/22-rdf-syntax-ns#"
   xmlns:svg="http://www.w3.org/2000/svg"
   xmlns="http://www.w3.org/2000/svg"
   xmlns:sodipodi="http://sodipodi.sourceforge.net/DTD/sodipodi-0.dtd"
   xmlns:inkscape="http://www.inkscape.org/namespaces/inkscape"
   width="180mm"
   height="180mm"
   viewBox="0 0 637.79528 637.79527"
   id="svg3409"
   version="1.1"
   inkscape:version="0.91 r13725"
   sodipodi:docname="11.svg">
  <sodipodi:namedview
     id="base"
     pagecolor="#ffffff"
     bordercolor="#666666"
     borderopacity="1.0"
     inkscape:pageopacity="0.0"
     inkscape:pageshadow="2"
     inkscape:zoom="0.49497475"
     inkscape:cx="513.47045"
     inkscape:cy="440.92697"
     inkscape:document-units="mm"
     inkscape:current-layer="layer2"
     showgrid="false"
     inkscape:window-width="1920"
     inkscape:window-height="1018"
     inkscape:window-x="-8"
     inkscape:window-y="-8"
     inkscape:window-maximized="1"
     units="mm" />
  <defs
     id="defs3411" />
  <metadata
     id="metadata3414">
    <rdf:RDF>
      <cc:Work
         rdf:about="">
        <dc:format>image/svg+xml</dc:format>
        <dc:type
           rdf:resource="http://purl.org/dc/dcmitype/StillImage" />
        <dc:title />
      </cc:Work>
    </rdf:RDF>
  </metadata>
  <g
     inkscape:groupmode="layer"
     id="layer2"
     inkscape:label="Layer 2"
     style="display:inline">
    <g
       id="g4172">
      <g
         transform="matrix(1.2604519,0,0,1.5122332,-78.734298,-180.01217)"
         id="g4240">
        <path
           style="fill:none;fill-rule:evenodd;stroke:#ff0000;stroke-width:1px;stroke-linecap:butt;stroke-linejoin:miter;stroke-opacity:1"
           d="m 159.84176,338.14937 c 0,0 -6.31652,7.10213 -22.86674,4.20692 -15.86812,-2.77589 -26.49856,-18.25454 -35.35534,-38.76089 -5.406186,-12.51708 -5.168058,-35.50718 -1.34364,-61.90938 3.59974,-24.85117 14.90055,-50.00828 30.08748,-72.50744 15.18693,-22.49916 57.58291,-31.91901 66.15434,-30.1333 8.57143,1.78571 -2.76786,10.17857 -0.98215,13.39285 1.78572,3.21429 11.33666,-1.67925 13.83666,0.99932 2.5,2.67858 -1.07819,7.67875 -4.81648,11.41703 -3.91434,3.91434 -23.29664,26.1377 -37.94385,64.01842 -14.64721,37.88072 6.69233,62.80869 12.33633,64.32099"
           id="path4145"
           inkscape:connector-curvature="0"
           sodipodi:nodetypes="cssszsssssc" />
        <path
           style="fill:none;fill-rule:evenodd;stroke:#ff0000;stroke-width:1px;stroke-linecap:butt;stroke-linejoin:miter;stroke-opacity:1"
           d="m 318.05756,271.24251 c 0,0 -93.69165,3.283 -112.12694,8.08123 -18.43528,4.79822 -30.28168,12.44952 -37.60498,25.95649 -7.32331,13.50697 -9.12867,31.20407 -9.67762,56.4747 -0.54895,25.27064 1.3454,19.13029 -0.34993,27.59288 -1.35269,6.75227 -5.50326,10.11901 -7.40523,13.44747 -4.28571,7.5 -16.39422,19.94026 -18.93755,34.30738 -2.54333,14.36711 -0.99932,53.73731 7.92925,66.23731 8.92857,12.5 19.43788,11.06837 23.35588,11.35646 6.07142,0.44643 10.36797,-4.55357 10.36797,-4.55357"
           id="path4147"
           inkscape:connector-curvature="0"
           sodipodi:nodetypes="cszzsszssc" />
        <path
           style="fill:none;fill-rule:evenodd;stroke:#ff0000;stroke-width:1px;stroke-linecap:butt;stroke-linejoin:miter;stroke-opacity:1"
           d="m 169.55357,499.67028 c 0,0 3.48214,12.05357 7.41071,13.75 3.92857,1.69643 8.30357,0.98214 10.71429,-0.35715 2.41071,-1.33928 5.17092,-4.33543 5.61866,-8.02488 0.44773,-3.68944 -0.71084,-8.71882 -1.69195,-10.45091 -0.98111,-1.73209 -4.044,-5.50957 -4.044,-5.50957"
           id="path4149"
           inkscape:connector-curvature="0"
           sodipodi:nodetypes="csszzc" />
        <path
           style="fill:none;fill-rule:evenodd;stroke:#ff0000;stroke-width:1px;stroke-linecap:butt;stroke-linejoin:miter;stroke-opacity:1"
           d="m 193.14481,501.87626 c 0,0 5.60519,1.27616 7.83733,-1.93813 2.23215,-3.21428 2.67858,-9.10714 0.0893,-14.10714 -2.58929,-5 -15.64336,-18.45429 -16.26396,-26.21034 -0.62059,-7.75605 1.75907,-12.55329 8.46669,-18.16326 6.70762,-5.60997 32.8802,-23.71442 38.95163,-31.21442 6.07143,-7.5 11.34564,-19.94769 13.66707,-30.66198 2.32143,-10.71429 -1.07143,-19.91071 -1.07143,-19.91071"
           id="path4151"
           inkscape:connector-curvature="0"
           sodipodi:nodetypes="csszzssc" />
        <path
           style="fill:none;fill-rule:evenodd;stroke:#ff0000;stroke-width:1px;stroke-linecap:butt;stroke-linejoin:miter;stroke-opacity:1"
           d="m 227.41059,415.30917 c 0,0 20.30241,12.46661 40.91119,17.04633 20.45558,4.54568 36.68115,0.88387 36.68115,0.88387"
           id="path4153"
           inkscape:connector-curvature="0"
           sodipodi:nodetypes="csc" />
        <path
           style="fill:none;fill-rule:evenodd;stroke:#ff0000;stroke-width:1px;stroke-linecap:butt;stroke-linejoin:miter;stroke-opacity:1"
           d="m 208.52888,430.06099 c 0.0277,-0.0923 4.07083,2.78971 2.30085,9.27892 -1.76998,6.48921 -1.42069,14.22399 -1.04188,17.38071 0.3788,3.15673 2.85969,11.48204 5.24017,14.96584 2.38048,3.4838 9.21096,12.08201 13.25694,15.46982 4.04598,3.38781 11.6435,5.79436 13.66058,1.96932 2.01708,-3.82504 -1.14408,-11.89885 -1.14408,-11.89885"
           id="path4155"
           inkscape:connector-curvature="0"
           sodipodi:nodetypes="czzzzzc" />
        <path
           style="fill:none;fill-rule:evenodd;stroke:#ff0000;stroke-width:1px;stroke-linecap:butt;stroke-linejoin:miter;stroke-opacity:1"
           d="m 240.85666,477.21642 c 1.047,4.47147 3.03299,6.18956 6.17794,9.46821 3.14496,3.27864 7.84798,1.78516 10.649,-0.0334 2.80102,-1.81858 5.0192,-3.53554 5.71368,-6.56599 0.69448,-3.03046 -5.80839,-9.59645 -5.80839,-9.59645"
           id="path4157"
           inkscape:connector-curvature="0"
           sodipodi:nodetypes="czzzc" />
        <path
           style="fill:none;fill-rule:evenodd;stroke:#ff0000;stroke-width:1px;stroke-linecap:butt;stroke-linejoin:miter;stroke-opacity:1"
           d="m 262.76593,431.09281 c 0.88388,1.6415 1.54904,10.19529 0.22322,14.93038 -0.73338,2.61919 -3.37995,6.15656 -2.87487,8.05059 0.50508,1.89404 9.59645,5.4705 11.11168,10.52126 1.51523,5.05076 1.49356,9.20976 -0.13262,10.94951 -1.39299,1.49028 -3.81296,2.31699 -5.88103,1.47824 -2.06807,-0.83875 -7.63107,-6.49705 -7.63107,-6.49705"
           id="path4159"
           inkscape:connector-curvature="0"
           sodipodi:nodetypes="csszszc" />
        <path
           style="fill:none;fill-rule:evenodd;stroke:#ff0000;stroke-width:1px;stroke-linecap:butt;stroke-linejoin:miter;stroke-opacity:1"
           d="m 319.2082,366.31678 c 0,1.01015 4.29315,6.31345 2.27285,13.13198 -2.02031,6.81853 -7.29541,25.64225 -9.72272,32.57742 -2.42731,6.93517 -8.644,20.65275 -8.59264,34.6194 0.0234,6.35526 5.57662,18.56886 8.49011,24.15089 2.91349,5.58203 13.41015,18.74641 13.28555,20.62067 -0.12459,1.87427 2.64345,11.09945 6.92916,14.49231 4.28572,3.39285 10.5286,4.6232 13.45041,3.86543 2.92181,-0.75776 5.08108,-2.04083 7.04512,-4.16664 1.96405,-2.12581 -0.23138,-14.9187 -0.23138,-14.9187"
           id="path4161"
           inkscape:connector-curvature="0"
           sodipodi:nodetypes="cszszzzzzc" />
        <path
           style="fill:none;fill-rule:evenodd;stroke:#ff0000;stroke-width:1px;stroke-linecap:butt;stroke-linejoin:miter;stroke-opacity:1"
           d="m 352.09008,490.69435 c 0,0 1.47908,11.39604 4.52154,14.42498 3.04927,3.03572 6.38496,3.73655 9.27041,2.89599 2.88544,-0.84056 7.03578,-2.92342 9.99551,-8.78885 2.95973,-5.86542 0.33729,-9.5376 -0.42848,-12.79137 -0.76577,-3.25378 -6.65047,-8.7859 -6.65047,-8.7859"
           id="path4163"
           inkscape:connector-curvature="0"
           sodipodi:nodetypes="cszzzc" />
        <path
           style="fill:none;fill-rule:evenodd;stroke:#ff0000;stroke-width:1px;stroke-linecap:butt;stroke-linejoin:miter;stroke-opacity:1"
           d="m 384.61558,384.49952 c 0,0 -16.04886,29.66426 -19.07931,43.80639 -3.03046,14.14214 -1.75374,27.36091 -0.36612,29.93475 1.38762,2.57385 4.25093,3.55051 13.73486,9.29905 5.10188,3.09243 5.44348,6.97707 7.46954,10.10909 1.74019,2.69011 3.68197,4.16125 1.41045,7.39077 -2.22163,3.15858 -6.4225,2.23676 -9.03907,0.62423 -2.61657,-1.61252 -9.80303,-8.09763 -9.80303,-8.09763"
           id="path4165"
           inkscape:connector-curvature="0"
           sodipodi:nodetypes="cszssszc" />
        <path
           style="fill:none;fill-rule:evenodd;stroke:#ff0000;stroke-width:1px;stroke-linecap:butt;stroke-linejoin:miter;stroke-opacity:1"
           d="m 371.01009,412.24715 c 0,0 8.70382,56.05381 13.66863,61.96654 6.34921,7.56146 11.95863,9.24573 15.02602,9.59645 3.06739,0.35072 12.01331,0.67652 16.47978,-1.44453 3.96643,-2.21534 0.0372,-11.94461 -2.90586,-15.85432"
           id="path4167"
           inkscape:connector-curvature="0"
           sodipodi:nodetypes="cszcc" />
        <path
           style="fill:none;fill-rule:evenodd;stroke:#ff0000;stroke-width:1px;stroke-linecap:butt;stroke-linejoin:miter;stroke-opacity:1"
           d="m 413.33513,466.52362 c 0,0 7.36833,11.63777 15.0469,9.5842 7.67857,-2.05358 10.48974,-8.04847 10.53571,-11.78571 0.046,-3.73724 -12.22131,-8.66969 -12.22131,-8.66969 0,0 10.34149,1.96813 12.15172,-1.38924 1.25054,-2.31934 0.50241,-7.9113 -0.44194,-10.22779 -0.80412,-1.97249 -2.37625,-6.36003 -7.19768,-7.07432 -4.82143,-0.71429 -11.47482,0.4458 -12.54782,-0.77294 -0.97569,-1.10821 -5.74352,-46.86825 -6.42314,-54.70876 -0.0678,-0.782 1.3467,-2.57551 1.3467,-2.57551"
           id="path4169"
           inkscape:connector-curvature="0"
           sodipodi:nodetypes="czzcsssssc" />
        <path
           style="fill:none;fill-rule:evenodd;stroke:#ff0000;stroke-width:0.99921262;stroke-linecap:butt;stroke-linejoin:miter;stroke-miterlimit:4;stroke-dasharray:none;stroke-opacity:1"
           d="m 336.60714,238.8667 c 0,0 8.39286,-41.96428 39.46429,-56.25 31.07142,-14.28571 50.77827,-12.39022 76.25,-0.89286 25.47174,11.49737 37.82279,53.86019 37.36475,58.71565 -0.45803,4.85546 3.39453,7.18437 14.00113,11.85632 10.60661,4.67196 16.44655,5.93464 16.44655,5.93464"
           id="path4204"
           inkscape:connector-curvature="0"
           sodipodi:nodetypes="cszzsc" />
        <path
           style="fill:none;fill-rule:evenodd;stroke:#ff0000;stroke-width:1px;stroke-linecap:butt;stroke-linejoin:miter;stroke-opacity:1"
           d="m 360.49819,234.87068 c 0,0 -14.52094,-4.29315 -25.12754,5.05076 -10.6066,9.34391 -21.51394,42.01558 -23.63399,48.4963 -2.12004,6.48072 -9.87541,24.46313 -3.07379,42.42641 4.9245,13.00571 13.82833,19.05765 22.41462,21.58303 8.5863,2.52538 22.89807,1.21745 30.05204,-4.92449 7.15398,-6.14194 13.3716,-16.89421 17.42514,-27.40039 4.05353,-10.50617 8.41035,-41.51343 11.91788,-46.2657 3.62413,-4.91025 13.08339,-4.747 13.08339,-4.747"
           id="path4206"
           inkscape:connector-curvature="0"
           sodipodi:nodetypes="cszszzzsc" />
        <path
           style="fill:none;fill-rule:evenodd;stroke:#ff0000;stroke-width:1px;stroke-linecap:butt;stroke-linejoin:miter;stroke-opacity:1"
           d="m 368.07433,339.54774 c 1.13643,-0.12627 8.66398,12.18047 37.70587,14.45332 29.04188,2.27284 49.54606,-9.59197 52.57651,-12.36989 3.03046,-2.77791 6.7201,-9.06926 9.97526,-10.29093 3.25516,-1.22166 24.96692,1.64336 30.7753,-1.89217"
           id="path4208"
           inkscape:connector-curvature="0"
           sodipodi:nodetypes="csszc" />
        <ellipse
           style="opacity:1;fill:none;fill-opacity:1;stroke:#ff0000;stroke-width:0.94218576;stroke-miterlimit:4;stroke-dasharray:none;stroke-dashoffset:0"
           id="path4210"
           cx="523.66064"
           cy="269.08994"
           rx="10.653514"
           ry="11.680299" />
        <path
           style="fill:none;fill-rule:evenodd;stroke:#ff0000;stroke-width:1px;stroke-linecap:butt;stroke-linejoin:miter;stroke-opacity:1"
           d="m 531.43718,276.93995 c 0,0 2.16718,9.83958 0.50508,14.21347 -1.6621,4.37389 -7.83717,11.88064 -15.05797,13.90754 -7.2208,2.0269 -18.91276,1.86415 -23.73487,0.99221 -4.8221,-0.87194 -11.68546,-5.14377 -11.68546,-5.14377 0,0 13.25649,10.33402 15.49398,17.0465 2.23214,6.69643 2.01922,8.17992 2.01922,11.66207 0,4.2446 3.61493,18.29434 8.40707,18.65503 5.87152,0.44193 12.16934,-6.99558 15.5622,-13.60272 3.19202,-6.21604 4.10714,-12.85715 3.57143,-18.83929 -0.49874,-5.56931 -4.73214,-13.48214 -4.73214,-13.48214"
           id="path4212"
           inkscape:connector-curvature="0"
           sodipodi:nodetypes="czzzcsssssc" />
        <path
           style="fill:none;fill-rule:evenodd;stroke:#ff0000;stroke-width:1px;stroke-linecap:butt;stroke-linejoin:miter;stroke-opacity:1"
           d="m 511.25,306.00956 c 0,0 3.83294,3.71937 3.83294,8.5408 0,4.82142 -1.2825,8.09698 -1.2825,8.09698"
           id="path4214"
           inkscape:connector-curvature="0"
           sodipodi:nodetypes="csc" />
        <path
           style="fill:none;fill-rule:evenodd;stroke:#ff0000;stroke-width:1px;stroke-linecap:butt;stroke-linejoin:miter;stroke-opacity:1"
           d="m 394.73214,175.20599 c 0,0 10.80357,-17.23214 34.01786,-15.08929 23.21429,2.14286 30.44643,25.71429 30.44643,25.71429"
           id="path4216"
           inkscape:connector-curvature="0" />
        <ellipse
           style="opacity:1;fill:none;fill-opacity:1;stroke:#ff0000;stroke-width:0.99921262;stroke-miterlimit:4;stroke-dasharray:none;stroke-dashoffset:0"
           id="path4218"
           cx="247.27818"
           cy="474.86227"
           rx="11.517858"
           ry="16.517857"
           transform="matrix(0.82130154,-0.57049432,0.57049432,0.82130154,0,0)"
           inkscape:transform-center-x="2.8571429"
           inkscape:transform-center-y="1.6071429" />
        <path
           style="fill:none;fill-rule:evenodd;stroke:#ff0000;stroke-width:1px;stroke-linecap:butt;stroke-linejoin:miter;stroke-opacity:1"
           d="m 481.56221,240.18296 c 0,0 -7.80659,3.89814 -9.65772,8.60424 -1.70169,4.32619 -0.42511,12.89521 0.7522,13.79954"
           id="path4220"
           inkscape:connector-curvature="0"
           sodipodi:nodetypes="csc" />
        <ellipse
           style="opacity:1;fill:none;fill-opacity:1;stroke:#ff0000;stroke-width:0.99921262;stroke-miterlimit:4;stroke-dasharray:none;stroke-dashoffset:0"
           id="path4218-8"
           cx="216.42702"
           cy="482.12405"
           rx="11.517858"
           ry="16.517857"
           transform="matrix(0.82130154,-0.57049432,0.57049432,0.82130154,0,0)"
           inkscape:transform-center-x="2.8571429"
           inkscape:transform-center-y="1.6071429" />
        <path
           style="fill:none;fill-rule:evenodd;stroke:#ff0000;stroke-width:1px;stroke-linecap:butt;stroke-linejoin:miter;stroke-opacity:1"
           d="m 460.3669,263.7475 c 0,0 -8.05023,1.56226 -8.64757,6.58393 -1.07034,8.99815 5.63581,16.32746 6.81312,17.23179"
           id="path4220-1"
           inkscape:connector-curvature="0"
           sodipodi:nodetypes="csc" />
      </g>
      <path
         sodipodi:nodetypes="cssc"
         inkscape:connector-curvature="0"
         id="path4170"
         d="m 389.56437,448.73753 c 0,0 -0.8587,-4.24042 -0.34076,-4.35944 14.21775,-3.26715 64.43085,-47.95239 66.45607,-89.38476 0.0272,-0.55573 1.61935,-0.18478 2.17591,-0.58349"
         style="opacity:1;fill:none;fill-opacity:1;stroke:#ff0000;stroke-width:1.41732287;stroke-miterlimit:4;stroke-dasharray:none;stroke-dashoffset:0;stroke-opacity:1" />
    </g>
  </g>
  <WCB
     pausedposy="0"
     pausedposx="0"
     lastknownposy="0"
     lastknownposx="0"
     lastpathnc="0"
     lastpath="0"
     node="0"
     layer="0" />
</svg>
