<?xml version="1.0" encoding="UTF-8" standalone="no"?>
<!-- Created with Inkscape (http://www.inkscape.org/) -->

<svg
   xmlns:osb="http://www.openswatchbook.org/uri/2009/osb"
   xmlns:dc="http://purl.org/dc/elements/1.1/"
   xmlns:cc="http://creativecommons.org/ns#"
   xmlns:rdf="http://www.w3.org/1999/02/22-rdf-syntax-ns#"
   xmlns:svg="http://www.w3.org/2000/svg"
   xmlns="http://www.w3.org/2000/svg"
   xmlns:sodipodi="http://sodipodi.sourceforge.net/DTD/sodipodi-0.dtd"
   xmlns:inkscape="http://www.inkscape.org/namespaces/inkscape"
   width="180mm"
   height="180mm"
   viewBox="0 0 637.79528 637.79527"
   id="svg3409"
   version="1.1"
   inkscape:version="0.91 r"
   sodipodi:docname="12.svg">
  <sodipodi:namedview
     id="base"
     pagecolor="#ffffff"
     bordercolor="#666666"
     borderopacity="1.0"
     inkscape:pageopacity="0.0"
     inkscape:pageshadow="2"
     inkscape:zoom="1.0000001"
     inkscape:cx="299.17852"
     inkscape:cy="372.89779"
     inkscape:document-units="mm"
     inkscape:current-layer="layer2"
     showgrid="false"
     inkscape:window-width="1851"
     inkscape:window-height="904"
     inkscape:window-x="65"
     inkscape:window-y="24"
     inkscape:window-maximized="1"
     units="mm" />
  <defs
     id="defs3411">
    <inkscape:perspective
       sodipodi:type="inkscape:persp3d"
       inkscape:vp_x="0 : 318.89763 : 1"
       inkscape:vp_y="0 : 1000 : 0"
       inkscape:vp_z="637.79528 : 318.89763 : 1"
       inkscape:persp3d-origin="318.89764 : 212.59842 : 1"
       id="perspective4153" />
    <linearGradient
       id="linearGradient4148"
       osb:paint="solid">
      <stop
         style="stop-color:#550044;stop-opacity:1;"
         offset="0"
         id="stop4150" />
    </linearGradient>
  </defs>
  <metadata
     id="metadata3414">
    <rdf:RDF>
      <cc:Work
         rdf:about="">
        <dc:format>image/svg+xml</dc:format>
        <dc:type
           rdf:resource="http://purl.org/dc/dcmitype/StillImage" />
        <dc:title />
      </cc:Work>
    </rdf:RDF>
  </metadata>
  <g
     inkscape:groupmode="layer"
     id="layer2"
     inkscape:label="Layer 4">
    <g
       id="g3357"
       transform="matrix(1.1980515,0,0,1.5565131,-54.985707,-188.24751)">
      <path
         sodipodi:nodetypes="csszszscsc"
         inkscape:connector-curvature="0"
         id="path4169"
         d="m 205.41147,261.15923 c -1.03382,0.27114 -2.12325,-4.44869 -2.73692,-4.28459 -54.97998,14.70206 -89.33023,56.77274 -87.97965,108.67502 1.5,57.64422 57.57054,101.52084 65.05443,105.23771 7.4839,3.71687 9.79237,5.83534 15.97907,4.34119 4.65058,-1.12316 5.05671,-8.22649 7.82995,-9.07184 2.77324,-0.84535 7.33074,6.40308 10.27308,5.20391 10.24296,-4.17455 12.38612,-14.78568 9.82702,-15.40598 -7.69965,-1.35483 -27.88845,-0.85656 -48.45924,11.78536 -0.47801,0.29375 3.16582,2.34917 3.16582,2.34917"
         style="opacity:1;fill:none;fill-opacity:1;stroke:#ff0000;stroke-width:1.41732287;stroke-miterlimit:4;stroke-dasharray:none;stroke-dashoffset:0;stroke-opacity:1" />
      <path
         sodipodi:nodetypes="cccsc"
         inkscape:connector-curvature="0"
         id="path4172"
         d="m 410.54195,438.49904 c -21.59756,21.27663 -26.04928,19.86569 -48.22255,24.43339 m -101.14422,7.50847 c -0.72269,0.0446 -6.96885,0.90842 -7.6945,0.94719 -39.01198,2.08403 -82.02203,-4.45142 -99.05876,-38.8643"
         style="opacity:1;fill:none;fill-opacity:1;stroke:#ff0000;stroke-width:1.53800559;stroke-miterlimit:4;stroke-dasharray:none;stroke-dashoffset:0;stroke-opacity:1"
         transform="matrix(0.9982385,-0.05932865,0.03903183,0.99923797,0,0)" />
      <path
         sodipodi:nodetypes="csssc"
         inkscape:connector-curvature="0"
         id="path4175"
         d="m 267.23903,436.37997 c 7.24712,21.57842 33.43066,53.62593 47.20289,60.40275 15.75,7.75 16.73773,-3.48412 22.20339,-4.45321 6.04258,-1.07138 6.95863,8.01377 15.62405,4.73376 13.45987,-5.09479 30.98249,-44.52996 27.97729,-68.57159"
         style="opacity:1;fill:none;fill-opacity:1;stroke:#ff0000;stroke-width:1.41732287;stroke-miterlimit:4;stroke-dasharray:none;stroke-dashoffset:0;stroke-opacity:1" />
      <path
         sodipodi:nodetypes="cssc"
         inkscape:connector-curvature="0"
         id="path4177"
         d="m 307.30483,492.22401 c 0.25244,-0.26059 -1.93212,-1.66456 -1.64893,-1.91388 12.5004,-11.00504 55.23148,-11.23938 58.83667,-5.44963 0.0851,0.13669 -1.4136,2.11162 -1.30509,2.2004"
         style="opacity:1;fill:none;fill-opacity:1;stroke:#ff0000;stroke-width:1.41732287;stroke-miterlimit:4;stroke-dasharray:none;stroke-dashoffset:0;stroke-opacity:1" />
      <path
         sodipodi:nodetypes="cszssc"
         inkscape:connector-curvature="0"
         id="path4184"
         d="m 494.41511,209.07602 c 9.03811,25.88181 30.82534,44.4269 46.83484,72.96927 25.98462,46.3264 -18.75867,73.12618 -50.11954,88.08756 -31.36087,14.96138 -56.15859,30.36691 -115.17207,36.03681 -58.76211,5.64575 -154.06083,4.54023 -150.18827,-135.54696 0.0166,-0.59929 -4.62353,-0.96819 -4.60333,-1.57271"
         style="opacity:1;fill:none;fill-opacity:1;stroke:#ff0000;stroke-width:1.41732287;stroke-miterlimit:4;stroke-dasharray:none;stroke-dashoffset:0;stroke-opacity:1" />
      <path
         sodipodi:nodetypes="csc"
         inkscape:connector-curvature="0"
         id="path4189"
         d="m 271.17543,194.7929 c 40.6563,-35.09645 92.9246,-43.21205 134.65055,-38.10934 0.72812,0.089 -0.53571,3.40828 0.18587,3.5053"
         style="opacity:1;fill:none;fill-opacity:1;stroke:#ff0000;stroke-width:1.41732287;stroke-miterlimit:4;stroke-dasharray:none;stroke-dashoffset:0;stroke-opacity:1" />
      <path
         sodipodi:nodetypes="cssszzzzsc"
         inkscape:connector-curvature="0"
         id="path4191"
         d="m 271.52899,193.73224 c 0,0 0.10355,-6.89214 -14.14213,-8.83884 -15.29322,-2.08985 -20.42767,12.92031 -30.74138,26.69849 -8.22754,10.99125 -30.78503,19.88913 -25.47361,40.1231 3.71231,14.14213 9.79883,13.92934 12.80832,15.49093 3.00948,1.56159 12.90713,2.84774 29.69505,7.01398 16.78793,4.16624 36.22504,12.21569 45.19151,9.68514 8.96647,-2.53055 13.45601,-7.75599 14.66816,-19.40105 1.21215,-11.64506 -10.48279,-34.74637 -19.65668,-42.44459 -14.67997,-12.31862 -12.34924,-28.32716 -12.34924,-28.32716 z"
         style="opacity:1;fill:none;fill-opacity:1;stroke:#ff0000;stroke-width:1.41732287;stroke-miterlimit:4;stroke-dasharray:none;stroke-dashoffset:0;stroke-opacity:1" />
      <path
         sodipodi:nodetypes="ssszss"
         inkscape:connector-curvature="0"
         id="path4193"
         d="m 466.62498,161.2953 c 26.00716,1.93169 47.87664,4.98505 42.62499,34.875 -4.03598,22.97092 -45.21715,13.81017 -55.99999,-4.625 -15.5,-26.5 -40.41116,-19.17165 -46,-27.125 -5.58884,-7.95335 4.37595,-23.19287 21.75,-16.125 18.54723,7.54512 26.17786,12.14976 37.625,13 z"
         style="opacity:1;fill:none;fill-opacity:1;stroke:#ff0000;stroke-width:1.41732287;stroke-miterlimit:4;stroke-dasharray:none;stroke-dashoffset:0;stroke-opacity:1" />
      <ellipse
         ry="16.2796"
         rx="20.406124"
         cy="309.04395"
         cx="370.7865"
         id="path4195"
         style="opacity:1;fill:none;fill-opacity:1;stroke:#ff0000;stroke-width:1.38503063;stroke-miterlimit:4;stroke-dasharray:none;stroke-dashoffset:0;stroke-opacity:1" />
      <path
         sodipodi:nodetypes="cssc"
         inkscape:connector-curvature="0"
         id="path4197"
         d="m 380.96724,294.911 c 0,0 -3.03297,-1.24606 -3.40563,-0.94553 -10.61352,8.55933 -11.29429,20.88188 -3.81135,31.01715 0.28959,0.39224 3.4771,-0.61241 3.4771,-0.61241"
         style="opacity:1;fill:none;fill-opacity:1;stroke:#ff0000;stroke-width:1.41732287;stroke-miterlimit:4;stroke-dasharray:none;stroke-dashoffset:0;stroke-opacity:1" />
      <ellipse
         ry="13.749999"
         rx="17.5"
         cy="261.04529"
         cx="491.74997"
         id="path4199"
         style="opacity:1;fill:none;fill-opacity:1;stroke:#ff0000;stroke-width:1.41732287;stroke-miterlimit:4;stroke-dasharray:none;stroke-dashoffset:0;stroke-opacity:1" />
      <path
         sodipodi:nodetypes="cssc"
         inkscape:connector-curvature="0"
         id="path4201"
         d="m 493.71873,247.38904 c 0,0 -2.6191,-0.26696 -2.8188,0.0716 -4.23774,7.18464 -3.44209,20.80179 0.72049,27.21458 0.18582,0.28627 2.89752,-0.1886 3.09685,0.0772"
         style="opacity:1;fill:none;fill-opacity:1;stroke:#ff0000;stroke-width:1.41732287;stroke-miterlimit:4;stroke-dasharray:none;stroke-dashoffset:0;stroke-opacity:1" />
      <path
         sodipodi:nodetypes="zzzzzsz"
         inkscape:connector-curvature="0"
         id="path4203"
         d="m 379.65456,486.593 c -0.13643,12.44311 -3.83455,18.51904 -14.5338,25.73976 -10.69924,7.22073 -28.48643,-7.34618 -41.77581,-7.34618 -13.28939,0 -25.55623,11.02495 -40.26728,5.36565 -14.71104,-5.6593 -16.57035,-14.92341 -15.6245,-29.06085 0.94586,-14.13744 25.80606,-37.20306 57.18103,-34.34591 31.39257,2.85875 55.15679,27.20442 55.02036,39.64753 z"
         style="opacity:1;fill:none;fill-opacity:1;stroke:#ff0000;stroke-width:1.38699234;stroke-miterlimit:4;stroke-dasharray:none;stroke-dashoffset:0;stroke-opacity:1"
         transform="matrix(0.91311775,-0.40769593,0.35269363,0.93573885,0,0)" />
      <ellipse
         ry="12.180434"
         rx="10.677833"
         cy="329.14319"
         cx="446.62628"
         id="path4206"
         style="opacity:1;fill:none;fill-opacity:1;stroke:#ff0000;stroke-width:1.45163774;stroke-miterlimit:4;stroke-dasharray:none;stroke-dashoffset:0;stroke-opacity:1" />
      <ellipse
         transform="matrix(0.47452973,-0.88023948,0.90906035,0.41666446,0,0)"
         ry="12.783154"
         rx="10.671263"
         cy="582.31042"
         cx="-73.383255"
         id="path4206-6"
         style="opacity:1;fill:none;fill-opacity:1;stroke:#ff0000;stroke-width:1.48666191;stroke-miterlimit:4;stroke-dasharray:none;stroke-dashoffset:0;stroke-opacity:1" />
      <path
         sodipodi:nodetypes="cc"
         inkscape:connector-curvature="0"
         id="path4223"
         d="m 389.74998,359.04529 c -10.5,4.25 -18.75,16 -12.5,27.25"
         style="opacity:1;fill:none;fill-opacity:1;stroke:#ff0000;stroke-width:1.41732287;stroke-miterlimit:4;stroke-dasharray:none;stroke-dashoffset:0;stroke-opacity:1" />
      <path
         sodipodi:nodetypes="cszssc"
         inkscape:connector-curvature="0"
         id="path4225"
         d="m 376.24998,370.54529 c 28.25,19 76.25,0.125 81.5,-3.125 5.25,-3.25 13.92227,-12.72979 23.54289,-16.4231 9.62063,-3.6933 22.01524,0.77089 34.38344,-6.59148 7.76007,-4.6193 11.29038,-14.46412 12.70738,-21.00877 0.48252,-2.22858 -3.149,-2.28222 -3.149,-2.28222"
         style="opacity:1;fill:none;fill-opacity:1;stroke:#ff0000;stroke-width:1.41732287;stroke-miterlimit:4;stroke-dasharray:none;stroke-dashoffset:0;stroke-opacity:1" />
      <path
         sodipodi:nodetypes="csc"
         inkscape:connector-curvature="0"
         id="path4227"
         d="m 517.116,325.60765 c 0,0 0.80764,-2.34379 1.5468,-2.82843 3.84283,-2.51961 14.4868,-3.08915 15.58852,5.47748"
         style="opacity:1;fill:none;fill-opacity:1;stroke:#ff0000;stroke-width:1.41732287;stroke-miterlimit:4;stroke-dasharray:none;stroke-dashoffset:0;stroke-opacity:1" />
      <path
         sodipodi:nodetypes="cssssszsc"
         inkscape:connector-curvature="0"
         id="path4229"
         d="m 401.051,434.92702 2.73468,-1.20082 c 0.74614,-0.32763 9.74932,13.51027 10.9643,18.69408 1.90281,8.11853 11.875,23.375 20,25 8.125,1.625 12.86872,-9.6276 15.86872,-9.3776 3,0.25 1.88018,8.15577 8.63128,8.1276 12.40685,-0.0518 29.07615,-39.31705 32.46967,-56.65532 3.39353,-17.33827 2.98991,-50.7738 1.92925,-50.59702 -1.06066,0.17677 -3.88909,1.94454 -3.88909,1.94454"
         style="opacity:1;fill:none;fill-opacity:1;stroke:#ff0000;stroke-width:1.41732287;stroke-miterlimit:4;stroke-dasharray:none;stroke-dashoffset:0;stroke-opacity:1" />
      <path
         sodipodi:nodetypes="cssc"
         inkscape:connector-curvature="0"
         id="path4231"
         d="m 423.56248,468.70153 c 0,0 -2.13201,-2.22616 -1.74934,-2.39746 23.81065,-10.65858 32.95039,-11.7358 54.56935,-7.47545 0.32321,0.0637 -1.28091,2.31588 -1.28091,2.31588"
         style="opacity:1;fill:none;fill-opacity:1;stroke:#ff0000;stroke-width:1.41732287;stroke-miterlimit:4;stroke-dasharray:none;stroke-dashoffset:0;stroke-opacity:1" />
      <path
         sodipodi:nodetypes="csszzssssssc"
         inkscape:connector-curvature="0"
         id="path4233"
         d="m 119.62944,329.93871 c -0.35355,1.2647 -2.46067,5.26766 -2.98967,6.21711 -3.77111,6.76837 -7.58664,12.38444 -14.90478,12.38444 -8.418359,0 -17.492786,-10.77229 -14.055289,-19.43473 3.437497,-8.66244 9.510109,-13.19251 16.692809,-7.52957 7.1827,5.66294 -4.14043,21.88744 -13.349523,21.88744 -4.214738,0 -11.523145,-4.62318 -14.205724,-10.57156 -1.398877,-3.10189 -3.327061,-8.30066 -3.064623,-12.41964 0.333922,-5.24093 3.612585,-9.00728 9.488702,-7.4599 6.086296,1.60273 5.96322,7.69292 2.693338,11.93235 -2.368217,3.07041 -6.891362,4.83382 -9.478761,4.83382 -6.159913,0 -9.56252,-9.13573 -9.56252,-18.22458"
         style="opacity:1;fill:none;fill-opacity:1;stroke:#ff0000;stroke-width:1.51410413;stroke-miterlimit:4;stroke-dasharray:none;stroke-dashoffset:0;stroke-opacity:1" />
    </g>
  </g>
  <WCB
     pausedposy="0"
     pausedposx="0"
     lastknownposy="0"
     lastknownposx="0"
     lastpathnc="0"
     lastpath="0"
     node="0"
     layer="0" />
</svg>
