<?xml version="1.0" encoding="UTF-8" standalone="no"?>
<!-- Created with Inkscape (http://www.inkscape.org/) -->

<svg
   xmlns:osb="http://www.openswatchbook.org/uri/2009/osb"
   xmlns:dc="http://purl.org/dc/elements/1.1/"
   xmlns:cc="http://creativecommons.org/ns#"
   xmlns:rdf="http://www.w3.org/1999/02/22-rdf-syntax-ns#"
   xmlns:svg="http://www.w3.org/2000/svg"
   xmlns="http://www.w3.org/2000/svg"
   xmlns:sodipodi="http://sodipodi.sourceforge.net/DTD/sodipodi-0.dtd"
   xmlns:inkscape="http://www.inkscape.org/namespaces/inkscape"
   width="180mm"
   height="180mm"
   viewBox="0 0 637.79528 637.79527"
   id="svg3409"
   version="1.1"
   inkscape:version="0.91 r"
   sodipodi:docname="2.svg">
  <sodipodi:namedview
     id="base"
     pagecolor="#ffffff"
     bordercolor="#666666"
     borderopacity="1.0"
     inkscape:pageopacity="0.0"
     inkscape:pageshadow="2"
     inkscape:zoom="1"
     inkscape:cx="374.97208"
     inkscape:cy="375.61334"
     inkscape:document-units="mm"
     inkscape:current-layer="layer2"
     showgrid="false"
     inkscape:window-width="1851"
     inkscape:window-height="904"
     inkscape:window-x="65"
     inkscape:window-y="24"
     inkscape:window-maximized="1"
     units="mm" />
  <defs
     id="defs3411">
    <linearGradient
       id="linearGradient4148"
       osb:paint="solid">
      <stop
         style="stop-color:#550044;stop-opacity:1;"
         offset="0"
         id="stop4150" />
    </linearGradient>
  </defs>
  <metadata
     id="metadata3414">
    <rdf:RDF>
      <cc:Work
         rdf:about="">
        <dc:format>image/svg+xml</dc:format>
        <dc:type
           rdf:resource="http://purl.org/dc/dcmitype/StillImage" />
        <dc:title />
      </cc:Work>
    </rdf:RDF>
  </metadata>
  <g
     inkscape:groupmode="layer"
     id="layer2"
     inkscape:label="Layer 2">
    <g
       id="g4233"
       transform="matrix(1.2080233,0,0,1.4952305,-41.472799,-140.32955)">
      <path
         sodipodi:nodetypes="csszzzssssc"
         inkscape:connector-curvature="0"
         id="path4180"
         d="m 275.39296,259.34303 c 0,0 2.19224,2.85237 1.86359,3.43506 -1.57213,2.78738 -8.71941,6.22982 -13.1773,7.01101 -16.23565,2.8451 -75.01792,-7.35014 -97.78048,0.25 -22.76256,7.60014 -50.06549,37.07285 -47.85839,69.71067 2.20711,32.63783 21.09816,46.70463 28.28427,57.00789 7.18611,10.30326 13.09489,30.85908 11.66726,48.70458 -1.41421,17.67767 6.84983,33.3917 23.39887,39.24442 14.49569,5.12653 23.29163,-1.72855 25.41295,-7.73896 2.12132,-6.01041 1.03921,-34.68744 -3.55699,-50.24379 -4.59619,-15.55635 -23.33452,-30.05204 -23.33452,-30.05204"
         style="fill:none;fill-rule:evenodd;stroke:#ff0000;stroke-width:1.41732287;stroke-linecap:butt;stroke-linejoin:miter;stroke-miterlimit:4;stroke-dasharray:none;stroke-opacity:1" />
      <path
         sodipodi:nodetypes="csssc"
         inkscape:connector-curvature="0"
         id="path4182"
         d="m 203.91191,427.4752 c 0.0971,0.26694 0.57213,2.17577 1.1945,2.68443 3.9115,3.19684 18.37038,10.48365 27.52099,12.61879 8.59083,2.00452 32.44577,2.32306 32.12287,0.70458 l -0.71922,-3.60494"
         style="fill:none;fill-rule:evenodd;stroke:#ff0000;stroke-width:1.41732287;stroke-linecap:butt;stroke-linejoin:miter;stroke-miterlimit:4;stroke-dasharray:none;stroke-opacity:1" />
      <path
         sodipodi:nodetypes="czsszsszc"
         inkscape:connector-curvature="0"
         id="path4184"
         d="m 254.77442,425.88108 c 0.88389,0 9.57679,12.10356 9.97557,16.7892 0.39878,4.68564 -1.82239,23.27752 -2.2366,29.57362 -0.44194,6.71752 0.7071,16.52863 10.6066,19.53383 9.89949,3.0052 15.02791,-0.78988 17.43655,-3.47303 2.40864,-2.68315 2.18566,-18.62406 1.125,-23.5738 -1.06066,-4.94975 -2.04767,-24.43562 5.45233,-29.68562 7.5,-5.25 17.15278,-2.48628 23.80421,-3.46001 6.65144,-0.97373 42.45934,-7.24829 42.86835,-42.69158"
         style="fill:none;fill-rule:evenodd;stroke:#ff0000;stroke-width:1.41732287;stroke-linecap:butt;stroke-linejoin:miter;stroke-miterlimit:4;stroke-dasharray:none;stroke-opacity:1" />
      <path
         sodipodi:nodetypes="cssc"
         inkscape:connector-curvature="0"
         id="path4186"
         d="m 292.38865,467.55932 c 0,0 4.16053,14.44912 13.97792,14.1599 9.29651,-0.27387 12.84924,-8.67982 13.55635,-14.33667 0.7071,-5.65686 0.75,-35.17857 0.75,-35.17857"
         style="fill:none;fill-rule:evenodd;stroke:#ff0000;stroke-width:1.41732287;stroke-linecap:butt;stroke-linejoin:miter;stroke-miterlimit:4;stroke-dasharray:none;stroke-opacity:1" />
      <path
         sodipodi:nodetypes="cczzsc"
         inkscape:connector-curvature="0"
         id="path4188"
         d="m 235.44971,443.19447 -2.86506,-0.36729 c 1.04913,6.15773 1.32797,20.7463 0.172,28.13769 -1.15598,7.39138 -8.55711,9.68507 -11.69371,10.24547 -3.13661,0.56041 -12.81448,-0.34786 -13.45769,-3.53264 -0.15199,-0.75257 0.35829,-5.29915 0.35829,-5.29915"
         style="fill:none;fill-rule:evenodd;stroke:#ff0000;stroke-width:1.41732287;stroke-linecap:butt;stroke-linejoin:miter;stroke-miterlimit:4;stroke-dasharray:none;stroke-opacity:1" />
      <path
         sodipodi:nodetypes="cczzzssc"
         inkscape:connector-curvature="0"
         id="path4190"
         d="m 120.40625,319.95153 c 0,0 -0.49154,4.80329 -2.18904,5.17057 -15.69724,2.74733 -13.05757,30.09018 -11.21721,47.29818 1.84036,17.208 9.6425,28.14304 0.93556,38.49458 -8.706941,10.35154 -37.326043,2.90305 -42.685562,9.88042 -5.359519,6.97737 -7.420363,25.62994 5.910534,28.55178 9.125,2 25.129756,-12.4205 28.339465,-19.55178 3.207213,-7.12575 0.732383,-14.73863 0.732383,-14.73863"
         style="fill:none;fill-rule:evenodd;stroke:#ff0000;stroke-width:1.41732287;stroke-linecap:butt;stroke-linejoin:miter;stroke-miterlimit:4;stroke-dasharray:none;stroke-opacity:1" />
      <path
         sodipodi:nodetypes="zssssszsz"
         inkscape:connector-curvature="0"
         id="path4192"
         d="m 401.49479,289.73462 c -13.39989,3.51377 -30.90381,17.82054 -30.90381,55.15685 0,31 30.15901,46.65381 51.15901,42.65381 21,-4 30.57972,-21.76514 53.81066,-26.18934 16.81282,-3.2019 27.66164,3.06306 40.20711,2.08579 9.68877,-0.75474 28.83177,-14.70563 22.48223,-51.14645 -5.75,-32.99999 -35.39515,-36.02367 -45,-33.12499 -9.60485,2.89868 -13.14429,25.12499 -28.14429,25.12499 -15,0 -50.21102,-18.07443 -63.61091,-14.56066 z"
         style="fill:none;fill-rule:evenodd;stroke:#ff0000;stroke-width:1.41732287;stroke-linecap:butt;stroke-linejoin:miter;stroke-miterlimit:4;stroke-dasharray:none;stroke-opacity:1" />
      <path
         sodipodi:nodetypes="zssszz"
         inkscape:connector-curvature="0"
         id="path4194"
         d="m 442.0156,355.44574 c 0.0172,7.83417 -7.71173,11.0141 -13.06696,11.0141 -9.23541,0 -16.89896,-9.17916 -16.89896,-20.61126 0,-11.4321 7.84033,-20.87643 17.07573,-20.87643 5.01958,0 11.49274,1.84736 11.24307,8.23061 -0.24966,6.38326 1.62993,14.40882 1.64712,22.24298 z"
         style="opacity:1;fill:none;fill-opacity:1;stroke:#ff0000;stroke-width:1.41732287;stroke-miterlimit:4;stroke-dasharray:none;stroke-dashoffset:0;stroke-opacity:1" />
      <ellipse
         transform="matrix(0.99405871,-0.10884521,0.10884521,0.99405871,0,0)"
         ry="19.119576"
         rx="13.727887"
         cy="379.60941"
         cx="468.10446"
         id="path4197"
         style="opacity:1;fill:none;fill-opacity:1;stroke:#ff0000;stroke-width:1.18516028;stroke-miterlimit:4;stroke-dasharray:none;stroke-dashoffset:0;stroke-opacity:1" />
      <path
         sodipodi:nodetypes="cszszscc"
         inkscape:connector-curvature="0"
         id="path4199"
         d="m 428.86025,385.71171 c 0,0 6.80272,-2.00526 7.86212,-2.05698 2.56066,-0.125 9.36915,0.69867 14.58853,2.67571 5.21938,1.97703 14.31891,10.07626 33.58757,5.65684 19.26866,-4.41942 19.18627,-10.60553 19.88737,-13.16986 0.70111,-2.56433 0.7955,-6.0104 1.85616,-9.19238 1.06066,-3.18198 2.62905,-4.37856 3.53553,-5.25911 l 3.66811,-0.92808"
         style="fill:none;fill-rule:evenodd;stroke:#ff0000;stroke-width:1.41732287;stroke-linecap:butt;stroke-linejoin:miter;stroke-miterlimit:4;stroke-dasharray:none;stroke-opacity:1" />
      <path
         sodipodi:nodetypes="cssc"
         inkscape:connector-curvature="0"
         id="path4201"
         d="m 301.99999,307.04528 c 0,0 3.99297,43.78966 33.375,63 28.09077,18.3661 46.09732,13.90897 60.10493,13.87911 0.67891,-0.001 3.10145,1.19171 3.77007,1.24589"
         style="fill:none;fill-rule:evenodd;stroke:#ff0000;stroke-width:1.41732287;stroke-linecap:butt;stroke-linejoin:miter;stroke-miterlimit:4;stroke-dasharray:none;stroke-opacity:1" />
      <path
         sodipodi:nodetypes="czsc"
         inkscape:connector-curvature="0"
         id="path4203"
         d="m 417.38387,240.79529 c 0.17684,-0.70736 -5.29181,-8.90246 -14.124,-7.25451 -8.83218,1.64795 -20.20051,9.84615 -23.04021,27.22723 -2.12573,13.01102 13.40113,24.61177 27.3112,21.11981"
         style="fill:none;fill-rule:evenodd;stroke:#ff0000;stroke-width:1.59448814;stroke-linecap:butt;stroke-linejoin:miter;stroke-miterlimit:4;stroke-dasharray:none;stroke-opacity:1" />
      <path
         sodipodi:nodetypes="cssc"
         inkscape:connector-curvature="0"
         id="path4205"
         d="m 431.5119,242.34582 c 0,0 -1.94454,-8.13173 5.48008,-12.02082 7.42462,-3.88908 25.32196,13.46904 23.73097,31.14671 -1.59099,17.67767 -11.71016,15.25717 -11.71016,15.25717"
         style="fill:none;fill-rule:evenodd;stroke:#ff0000;stroke-width:1.41732287;stroke-linecap:butt;stroke-linejoin:miter;stroke-miterlimit:4;stroke-dasharray:none;stroke-opacity:1" />
      <ellipse
         transform="matrix(0.97403893,-0.22638056,0.38764805,0.92180746,0,0)"
         ry="13.448544"
         rx="10.356349"
         cy="353.36868"
         cx="282.73233"
         id="path4207"
         style="opacity:1;fill:none;fill-opacity:1;stroke:#ff0000;stroke-width:1.42761564;stroke-miterlimit:4;stroke-dasharray:none;stroke-dashoffset:0;stroke-opacity:1" />
      <ellipse
         ry="9.8387842"
         rx="8.0887842"
         cy="260.10779"
         cx="441.4375"
         id="path4209"
         style="opacity:1;fill:none;fill-opacity:1;stroke:#ff0000;stroke-width:1.41732287;stroke-miterlimit:4;stroke-dasharray:none;stroke-dashoffset:0;stroke-opacity:1" />
      <path
         sodipodi:nodetypes="czccsc"
         inkscape:connector-curvature="0"
         id="path4211"
         d="m 337.99999,267.54529 c -1.36154,17.89745 -38.09705,12.0515 -50.03033,3.79289 -11.93328,-8.2586 -15.91033,-16.618 -15.91033,-19.6232 5.5406,0.33982 11.12292,1.28006 18.17579,0.70911 7.02576,-1.29791 16.80914,-8.39105 20.97681,-13.36499 0.62352,-0.74414 2.34507,0.19025 2.96595,-0.25059"
         style="fill:none;fill-rule:evenodd;stroke:#ff0000;stroke-width:1.41732287;stroke-linecap:butt;stroke-linejoin:miter;stroke-miterlimit:4;stroke-dasharray:none;stroke-opacity:1" />
      <path
         sodipodi:nodetypes="szsccssszs"
         inkscape:connector-curvature="0"
         id="path4222"
         d="m 288.06529,316.40661 c 1.52428,6.31104 -3.37118,11.84928 -8.92895,12.90892 -5.55777,1.05963 -17.54361,1.16659 -30.67099,-3.00016 -39.49461,-12.53594 -63.52884,-52.14685 -52.34643,-94.47187 6.63195,-25.40258 32.0224,-39.73419 78.99048,-21.74603 -10.28219,-3.17449 -20.81508,3.41686 -29.9886,6.17424 -15.03584,4.51947 -25.78949,9.85871 -30.14668,26.06241 -7.01556,26.08976 7.59451,53.86511 33.95498,62.23216 8.00626,2.54126 13.66067,2.88928 22.07147,2.21803 8.41081,-0.67125 15.98502,5.15198 17.06472,9.6223 z"
         style="opacity:1;fill:none;fill-opacity:1;stroke:#ff0000;stroke-width:1.65040493;stroke-miterlimit:4;stroke-dasharray:none;stroke-dashoffset:0;stroke-opacity:1"
         transform="matrix(0.95176182,-0.30683779,0.2559295,0.96669545,0,0)" />
      <path
         sodipodi:nodetypes="ccssssc"
         inkscape:connector-curvature="0"
         id="path4225"
         d="m 335.24999,213.79529 4.5,-1.375 c 0,0 17.75221,-18.63141 51.39645,-18.06434 37.34648,0.62947 49.73462,10.51321 62.99288,27.83732 13.25825,17.32412 17.76606,40.65865 27.93072,48.87876 8.35763,6.75878 14.17995,7.47325 14.86745,7.47325 l 6.875,0"
         style="fill:none;fill-rule:evenodd;stroke:#ff0000;stroke-width:1.41732287;stroke-linecap:butt;stroke-linejoin:miter;stroke-miterlimit:4;stroke-dasharray:none;stroke-opacity:1" />
      <path
         sodipodi:nodetypes="cssccsc"
         inkscape:connector-curvature="0"
         id="path4229"
         d="m 433.25979,202.542 c 0,0 5.59804,2.72575 6.21823,2.74454 24.28289,0.73597 35.96686,-19.23264 35.96686,-36.3448 0,-17.93534 -16.16434,-31.38418 -34.74195,-38.57502 28.29659,-1.31943 57.98361,16.56135 59.62833,42.39976 -1.73232,22.55981 -20.81327,44.95137 -45.64779,49.75689 -0.50973,0.0986 2.46176,3.41847 1.94259,3.48089"
         style="opacity:1;fill:none;fill-opacity:1;stroke:#ff0000;stroke-width:1.50244343;stroke-miterlimit:4;stroke-dasharray:none;stroke-dashoffset:0;stroke-opacity:1" />
    </g>
  </g>
  <WCB
     pausedposy="0"
     pausedposx="0"
     lastknownposy="0"
     lastknownposx="0"
     lastpathnc="0"
     lastpath="0"
     node="0"
     layer="0" />
</svg>
