<?xml version="1.0" encoding="UTF-8" standalone="no"?>
<!-- Created with Inkscape (http://www.inkscape.org/) -->

<svg
   xmlns:osb="http://www.openswatchbook.org/uri/2009/osb"
   xmlns:dc="http://purl.org/dc/elements/1.1/"
   xmlns:cc="http://creativecommons.org/ns#"
   xmlns:rdf="http://www.w3.org/1999/02/22-rdf-syntax-ns#"
   xmlns:svg="http://www.w3.org/2000/svg"
   xmlns="http://www.w3.org/2000/svg"
   xmlns:sodipodi="http://sodipodi.sourceforge.net/DTD/sodipodi-0.dtd"
   xmlns:inkscape="http://www.inkscape.org/namespaces/inkscape"
   width="180mm"
   height="180mm"
   viewBox="0 0 637.79528 637.79527"
   id="svg3409"
   version="1.1"
   inkscape:version="0.91 r"
   sodipodi:docname="3.svg">
  <sodipodi:namedview
     id="base"
     pagecolor="#ffffff"
     bordercolor="#666666"
     borderopacity="1.0"
     inkscape:pageopacity="0.0"
     inkscape:pageshadow="2"
     inkscape:zoom="0.7"
     inkscape:cx="293.77575"
     inkscape:cy="290.69295"
     inkscape:document-units="mm"
     inkscape:current-layer="layer1"
     showgrid="false"
     inkscape:window-width="1851"
     inkscape:window-height="904"
     inkscape:window-x="65"
     inkscape:window-y="24"
     inkscape:window-maximized="1"
     units="mm" />
  <defs
     id="defs3411">
    <linearGradient
       id="linearGradient4200"
       osb:paint="solid">
      <stop
         style="stop-color:#ff0000;stop-opacity:1;"
         offset="0"
         id="stop4202" />
    </linearGradient>
    <linearGradient
       id="linearGradient4194"
       osb:paint="solid">
      <stop
         style="stop-color:#000000;stop-opacity:1;"
         offset="0"
         id="stop4196" />
    </linearGradient>
    <linearGradient
       id="linearGradient4184"
       osb:paint="solid">
      <stop
         style="stop-color:#000000;stop-opacity:1;"
         offset="0"
         id="stop4186" />
    </linearGradient>
  </defs>
  <metadata
     id="metadata3414">
    <rdf:RDF>
      <cc:Work
         rdf:about="">
        <dc:format>image/svg+xml</dc:format>
        <dc:type
           rdf:resource="http://purl.org/dc/dcmitype/StillImage" />
        <dc:title />
      </cc:Work>
    </rdf:RDF>
  </metadata>
  <g
     transform="translate(0,-414.56693)"
     id="layer1"
     inkscape:groupmode="layer"
     inkscape:label="Layer 1"
     style="display:inline">
    <g
       id="g3369"
       transform="matrix(1.4687253,0,0,1.1628556,-163.4056,-74.591809)">
      <path
         sodipodi:nodetypes="zssszsszccscscsz"
         inkscape:connector-curvature="0"
         id="path4182"
         d="m 231.81919,482.31887 c 6.83305,1.41059 50.17331,-14.40826 94.45903,-7.62254 44.28571,6.78571 76.20363,29.97902 82.72715,28.33683 4.18682,-1.05396 23.17096,-22.66588 42.45667,-10.88017 19.28572,11.78572 -4.46151,48.15243 -5,58.36222 -0.5385,10.20979 6.50036,59.04061 -0.97426,97.2549 -7.58261,38.76643 -23.75526,54.53081 -37.68383,59.88796 -13.92857,5.35714 -27.64794,8.85927 -43.05148,11.44652 -15.40354,2.58725 -35.61404,-2.81753 -36.21629,3.25762 -8.46665,43.18695 -84.71824,23.97086 -77.79215,-9.05484 1.97545,-4.189 -40.05755,-12.26913 -54.70041,-23.34056 -14.64286,-11.07143 -39.5562,-28.9137 -41.69905,-52.68383 -4.07004,-24.30216 0.90093,-49.07666 8.50739,-70.79936 5.77189,-16.48346 13.48979,-30.13843 17.452,-46.68269 0.71428,-3.92857 -16.33661,-45.61174 6.15808,-57.02031 21.96884,-11.14187 38.5241,18.12766 45.35715,19.53825 z"
         style="fill:none;fill-opacity:1;fill-rule:evenodd;stroke:#ff0000;stroke-width:2.42621613;stroke-linecap:butt;stroke-linejoin:miter;stroke-miterlimit:4;stroke-dasharray:none;stroke-opacity:1" />
      <path
         sodipodi:nodetypes="cscssscsscscsscscsc"
         inkscape:connector-curvature="0"
         id="path4190"
         d="m 230.06229,704.50335 c 0,0 -8.39225,12.47 -17.73616,15.50046 -9.34391,3.03045 -54.01625,-5.27266 -54.01625,-5.27266 0,0 -15.59793,-2.00546 -18.68781,3.78807 -3.03046,5.68211 4.47051,16.40189 13.25825,23.61231 7.94289,6.51721 49.87628,15.15229 51.39151,18.94036 1.51522,3.78807 1.54215,48.26542 4.06753,59.88217 0.33874,9.1253 7.09137,20.27087 3.66182,23.88994 -18.72347,19.75812 -42.19078,43.0817 -27.79582,54.38963 20.38186,16.01093 35.30629,-25.64376 98.61129,-30.11922 54.51219,-4.13683 87.16896,26.97924 104.82312,27.95781 24.9068,1.38059 10.58523,-25.40774 3.19493,-30.69193 -7.42296,-6.36204 -22.48901,-12.95477 -24.14124,-18.80511 -2.31582,-8.20005 -11.64601,-72.16613 -7.06364,-78.28682 1.96592,-2.6259 17.19265,-2.21692 30.06445,-4.13731 15.75515,-2.22456 29.74016,-8.28462 34.36378,-18.55315 3.43052,-7.61879 -4.16808,-14.99973 -13.61204,-15.46972 -11.11168,-2.52538 -53.64114,3.30093 -57.17668,1.28063 -3.53553,-2.02031 -8.46003,-12.75317 -8.46003,-12.75317"
         style="fill:none;fill-rule:evenodd;stroke:#ff0000;stroke-width:2.05979347;stroke-linecap:butt;stroke-linejoin:miter;stroke-miterlimit:4;stroke-dasharray:none;stroke-opacity:1" />
      <path
         sodipodi:nodetypes="ssscscs"
         inkscape:connector-curvature="0"
         id="path4192"
         d="m 341.77091,798.72947 c 0,31.77758 -25.76081,57.53839 -57.53839,57.53839 -31.77757,0 -57.53838,-25.76082 -57.53838,-57.53839 0,-27.29621 19.0074,-50.153 44.50864,-56.05681 0,0 11.78051,3.63802 17.55199,4.07628 6.42514,0.48791 17.85252,-1.04541 17.85252,-1.04541 20.66298,8.72964 35.16362,29.18439 35.16362,53.02594 z"
         style="opacity:1;fill:none;fill-opacity:1;stroke:#ff0000;stroke-width:2.34439349;stroke-miterlimit:4;stroke-dasharray:none;stroke-dashoffset:0" />
      <path
         sodipodi:nodetypes="cssssszzcssc"
         inkscape:connector-curvature="0"
         id="path4207"
         d="m 273.41498,870.0944 c 0,0 10.84118,29.3198 40.90374,44.90846 23.96421,12.42641 52.39487,13.87165 71.58777,14.37672 19.1929,0.50508 43.71665,-0.94361 59.87909,-6.75199 16.16245,-5.80837 43.8994,-20.24633 60.39559,-40.58993 10.82715,-13.35238 12.06056,-30.30983 12.31309,-41.92658 0.25254,-11.61675 -2.36889,-21.94212 -20.58557,-20.35843 -18.21668,1.58369 -17.7965,29.83864 -27.609,44.93457 -9.8125,15.09594 -22.76048,24.68311 -40.89011,33.26034 -13.13199,6.06092 -33.0825,7.07107 -43.18402,7.07107 -10.10153,0 -35.7812,-5.48187 -47.90303,-10.02756 -12.12183,-4.54569 -28.36349,-24.31763 -28.36349,-24.31763"
         style="fill:none;fill-rule:evenodd;stroke:#ff0000;stroke-width:2.42621613;stroke-linecap:butt;stroke-linejoin:miter;stroke-miterlimit:4;stroke-dasharray:none;stroke-opacity:1" />
      <path
         inkscape:connector-curvature="0"
         id="path4209"
         d="m 282.17984,885.82573 c 0,0 10.10153,1.76777 19.95052,-1.51523 9.84898,-3.28299 13.88959,-8.08122 13.88959,-8.08122"
         style="fill:none;fill-rule:evenodd;stroke:#ff0000;stroke-width:2.42621613;stroke-linecap:butt;stroke-linejoin:miter;stroke-miterlimit:4;stroke-dasharray:none;stroke-opacity:1" />
      <path
         inkscape:connector-curvature="0"
         id="path4211"
         d="m 342.789,924.7166 c 0,0 7.07107,-15.15229 7.82868,-20.45559 0.75761,-5.3033 1.01015,-5.80837 1.01015,-5.80837"
         style="fill:none;fill-rule:evenodd;stroke:#ff0000;stroke-width:2.42621613;stroke-linecap:butt;stroke-linejoin:miter;stroke-miterlimit:4;stroke-dasharray:none;stroke-opacity:1" />
      <path
         sodipodi:nodetypes="csc"
         inkscape:connector-curvature="0"
         id="path4213"
         d="m 386.22556,905.27117 c 0,0 0.17872,9.69987 -0.12628,13.25825 -0.3788,4.41941 -1.89403,10.98541 -1.89403,10.98541"
         style="fill:none;fill-rule:evenodd;stroke:#ff0000;stroke-width:2.07046604;stroke-linecap:butt;stroke-linejoin:miter;stroke-miterlimit:4;stroke-dasharray:none;stroke-opacity:1" />
      <path
         sodipodi:nodetypes="csc"
         inkscape:connector-curvature="0"
         id="path4215"
         d="m 432.94511,896.17979 c 0,0 4.92449,7.44988 5.3033,13.63707 0.37881,6.18718 -1.13642,15.65736 -1.13642,15.65736"
         style="fill:none;fill-rule:evenodd;stroke:#ff0000;stroke-width:2.07046604;stroke-linecap:butt;stroke-linejoin:miter;stroke-miterlimit:4;stroke-dasharray:none;stroke-opacity:1" />
      <path
         sodipodi:nodetypes="csc"
         inkscape:connector-curvature="0"
         id="path4217"
         d="m 455.92608,881.28004 c 0,0 8.45105,7.90791 10.7239,12.95867 2.27284,5.05076 5.69108,15.07307 5.69108,15.07307"
         style="fill:none;fill-rule:evenodd;stroke:#ff0000;stroke-width:2.42621613;stroke-linecap:butt;stroke-linejoin:miter;stroke-miterlimit:4;stroke-dasharray:none;stroke-opacity:1" />
      <path
         sodipodi:nodetypes="csc"
         inkscape:connector-curvature="0"
         id="path4219"
         d="m 474.76824,855.51521 c 0,0 12.85714,1.42858 19.82143,6.07143 6.96428,4.64286 14.28571,16.25 14.28571,16.25"
         style="fill:none;fill-rule:evenodd;stroke:#ff0000;stroke-width:2.42621613;stroke-linecap:butt;stroke-linejoin:miter;stroke-miterlimit:4;stroke-dasharray:none;stroke-opacity:1" />
      <path
         sodipodi:nodetypes="csc"
         inkscape:connector-curvature="0"
         id="path4221"
         d="m 196.31688,501.46269 c 0,0 -5.55584,-12.87945 1.26269,-16.92006 6.81853,-4.04061 14.89975,8.5863 14.89975,8.5863"
         style="fill:none;fill-rule:evenodd;stroke:#ff0000;stroke-width:2.42621613;stroke-linecap:butt;stroke-linejoin:miter;stroke-miterlimit:4;stroke-dasharray:none;stroke-opacity:1" />
      <path
         inkscape:connector-curvature="0"
         id="path4223"
         d="m 421.37538,515.33664 c 0,0 10,-9.64285 15.89286,-5.35714 5.89286,4.28571 -3.75,18.57143 -3.75,18.57143"
         style="fill:none;fill-rule:evenodd;stroke:#ff0000;stroke-width:2.42621613;stroke-linecap:butt;stroke-linejoin:miter;stroke-miterlimit:4;stroke-dasharray:none;stroke-opacity:1" />
      <path
         sodipodi:nodetypes="csc"
         inkscape:connector-curvature="0"
         id="path4225"
         d="m 292.56454,490.72084 c 0,0 15.74402,0.60968 29.63362,2.62999 13.8896,2.0203 27.40937,9.12201 27.40937,9.12201"
         style="fill:none;fill-rule:evenodd;stroke:#ff0000;stroke-width:2.42621613;stroke-linecap:butt;stroke-linejoin:miter;stroke-miterlimit:4;stroke-dasharray:none;stroke-opacity:1" />
      <path
         sodipodi:nodetypes="csc"
         inkscape:connector-curvature="0"
         id="path4225-6"
         d="m 300.78848,511.64625 c 0,0 7.54621,0.7063 17.14471,2.20768 10.6641,1.66805 19.84428,5.50206 19.84428,5.50206"
         style="fill:none;fill-rule:evenodd;stroke:#ff0000;stroke-width:2.16928339;stroke-linecap:butt;stroke-linejoin:miter;stroke-miterlimit:4;stroke-dasharray:none;stroke-opacity:1" />
      <path
         sodipodi:nodetypes="csc"
         inkscape:connector-curvature="0"
         id="path4225-5"
         d="m 288.49858,526.87444 c 0,0 11.70031,0.66074 25.43719,3.54187 13.8896,2.91316 23.99484,8.00726 23.99484,8.00726"
         style="fill:none;fill-rule:evenodd;stroke:#ff0000;stroke-width:2.42621613;stroke-linecap:butt;stroke-linejoin:miter;stroke-miterlimit:4;stroke-dasharray:none;stroke-opacity:1" />
      <path
         inkscape:connector-curvature="0"
         id="path4254"
         d="m 322.44681,493.55093 -7.67857,36.42857"
         style="fill:none;fill-rule:evenodd;stroke:#ff0000;stroke-width:3.49346638;stroke-linecap:butt;stroke-linejoin:miter;stroke-miterlimit:4;stroke-dasharray:none;stroke-opacity:1" />
      <ellipse
         ry="35.234718"
         rx="37.020435"
         cy="557.47949"
         cx="252.6254"
         id="path4256"
         style="opacity:1;fill:none;fill-opacity:1;stroke:#ff0000;stroke-width:2.67165351;stroke-miterlimit:4;stroke-dasharray:none;stroke-dashoffset:0" />
      <ellipse
         ry="35.246399"
         rx="36.496403"
         cy="577.3009"
         cx="366.73257"
         id="path4256-4"
         style="opacity:1;fill:none;fill-opacity:1;stroke:#ff0000;stroke-width:2.64685035;stroke-miterlimit:4;stroke-dasharray:none;stroke-dashoffset:0" />
      <ellipse
         ry="13.933427"
         rx="14.538635"
         cy="556.58661"
         cx="252.80399"
         id="path4256-6"
         style="opacity:1;fill:none;fill-opacity:1;stroke:#ff0000;stroke-width:2.39775634;stroke-miterlimit:4;stroke-dasharray:none;stroke-dashoffset:0" />
      <ellipse
         ry="13.933427"
         rx="14.538635"
         cy="576.58661"
         cx="366.01822"
         id="path4256-6-2"
         style="opacity:1;fill:none;fill-opacity:1;stroke:#ff0000;stroke-width:2.39775634;stroke-miterlimit:4;stroke-dasharray:none;stroke-dashoffset:0" />
      <path
         sodipodi:nodetypes="csssssc"
         inkscape:connector-curvature="0"
         id="path4303"
         d="m 183.68997,680.00715 c 0,0 14.89974,-37.62818 31.31473,-54.04317 9.96657,-9.96657 27.92918,-27.36892 48.97564,-35.14815 12.6562,-4.67801 25.56793,-7.40717 38.6551,-5.51048 13.43127,1.94656 27.076,7.71277 40.16471,18.99879 20.8727,17.99793 36.26216,51.28014 40.14241,63.0761 6.31691,19.20339 10.35407,44.69925 10.35407,44.69925"
         style="fill:none;fill-rule:evenodd;stroke:#ff0000;stroke-width:2.42621613;stroke-linecap:butt;stroke-linejoin:miter;stroke-miterlimit:4;stroke-dasharray:none;stroke-opacity:1" />
      <path
         sodipodi:nodetypes="csc"
         inkscape:connector-curvature="0"
         id="path4307"
         d="m 262.86068,701.8517 c 0,0 12.87944,7.82868 24.49619,9.09137 11.61676,1.26269 25.00128,1.26269 25.00128,1.26269"
         style="fill:none;fill-rule:evenodd;stroke:#ff0000;stroke-width:2.42621613;stroke-linecap:butt;stroke-linejoin:miter;stroke-miterlimit:4;stroke-dasharray:none;stroke-opacity:1" />
      <path
         sodipodi:nodetypes="czzzc"
         inkscape:connector-curvature="0"
         id="path4309"
         d="m 274.6037,707.40754 c 0,0 -9e-5,7.19647 0.50508,11.74302 0.50517,4.54656 5.93464,9.59645 10.85914,9.97525 4.92449,0.37881 9.10065,-1.8253 11.86929,-6.43971 2.76865,-4.61442 1.51523,-10.98542 1.51523,-10.98542"
         style="fill:none;fill-rule:evenodd;stroke:#ff0000;stroke-width:2.42621613;stroke-linecap:butt;stroke-linejoin:miter;stroke-miterlimit:4;stroke-dasharray:none;stroke-opacity:1" />
      <path
         sodipodi:nodetypes="czc"
         inkscape:connector-curvature="0"
         id="path4311"
         d="m 159.95139,575.45636 c 0,0 8.57622,9.22398 13.25453,13.31055 4.6783,4.08657 15.33829,9.87963 15.33829,9.87963"
         style="fill:none;fill-rule:evenodd;stroke:#ff0000;stroke-width:2.78196621;stroke-linecap:butt;stroke-linejoin:miter;stroke-miterlimit:4;stroke-dasharray:none;stroke-opacity:1" />
      <path
         sodipodi:nodetypes="czc"
         inkscape:connector-curvature="0"
         id="path4311-3"
         d="m 153.50552,605.56887 c 0,0 6.8798,5.3847 13.16524,8.39985 6.28545,3.01514 17.65972,5.41534 17.65972,5.41534"
         style="fill:none;fill-rule:evenodd;stroke:#ff0000;stroke-width:2.78196621;stroke-linecap:butt;stroke-linejoin:miter;stroke-miterlimit:4;stroke-dasharray:none;stroke-opacity:1" />
      <path
         sodipodi:nodetypes="czc"
         inkscape:connector-curvature="0"
         id="path4311-3-0"
         d="m 153.66167,636.03356 c 0,0 4.35441,3.42753 10.95553,4.04357 6.60111,0.61604 12.79836,0.11204 12.79836,0.11204"
         style="fill:none;fill-rule:evenodd;stroke:#ff0000;stroke-width:2.78196621;stroke-linecap:butt;stroke-linejoin:miter;stroke-miterlimit:4;stroke-dasharray:none;stroke-opacity:1" />
      <path
         inkscape:connector-curvature="0"
         id="path4343"
         d="m 448.1611,627.30093 c 0,0 -5.35714,5.35714 -13.03572,6.60714 -7.67857,1.25 -19.64285,1.07143 -19.64285,1.07143"
         style="fill:none;fill-rule:evenodd;stroke:#ff0000;stroke-width:2.42621613;stroke-linecap:butt;stroke-linejoin:miter;stroke-miterlimit:4;stroke-dasharray:none;stroke-opacity:1" />
      <path
         sodipodi:nodetypes="csc"
         inkscape:connector-curvature="0"
         id="path4347"
         d="m 443.60752,657.74736 c 0,0 -5.53571,0.80357 -11.60713,0.71428 -6.48958,-0.0954 -18.39287,-1.96428 -18.39287,-1.96428"
         style="fill:none;fill-rule:evenodd;stroke:#ff0000;stroke-width:2.78196621;stroke-linecap:butt;stroke-linejoin:miter;stroke-miterlimit:4;stroke-dasharray:none;stroke-opacity:1" />
      <path
         sodipodi:nodetypes="csc"
         inkscape:connector-curvature="0"
         id="path4349"
         d="m 430.55463,687.62295 c 0,0 -7.69753,-2.46437 -10.53199,-4.04324 -3.24364,-1.8068 -9.18483,-4.85207 -9.18483,-4.85207"
         style="fill:none;fill-rule:evenodd;stroke:#ff0000;stroke-width:2.42621613;stroke-linecap:butt;stroke-linejoin:miter;stroke-miterlimit:4;stroke-dasharray:none;stroke-opacity:1" />
      <ellipse
         transform="matrix(0.99097327,0.1340596,-0.16923199,0.98557624,0,0)"
         ry="19.502993"
         rx="36.407093"
         cy="559.57465"
         cx="399.23062"
         id="path4351"
         style="opacity:1;fill:none;fill-opacity:1;stroke:#ff0000;stroke-width:2.99109221;stroke-miterlimit:4;stroke-dasharray:none;stroke-dashoffset:0" />
    </g>
  </g>
  <WCB
     pausedposy="0"
     pausedposx="0"
     lastknownposy="0"
     lastknownposx="0"
     lastpathnc="0"
     lastpath="0"
     node="0"
     layer="0" />
</svg>
