<?xml version="1.0" encoding="UTF-8" standalone="no"?>
<!-- Created with Inkscape (http://www.inkscape.org/) -->

<svg
   xmlns:osb="http://www.openswatchbook.org/uri/2009/osb"
   xmlns:dc="http://purl.org/dc/elements/1.1/"
   xmlns:cc="http://creativecommons.org/ns#"
   xmlns:rdf="http://www.w3.org/1999/02/22-rdf-syntax-ns#"
   xmlns:svg="http://www.w3.org/2000/svg"
   xmlns="http://www.w3.org/2000/svg"
   xmlns:sodipodi="http://sodipodi.sourceforge.net/DTD/sodipodi-0.dtd"
   xmlns:inkscape="http://www.inkscape.org/namespaces/inkscape"
   width="180mm"
   height="180mm"
   viewBox="0 0 637.79528 637.79527"
   id="svg3409"
   version="1.1"
   inkscape:version="0.91 r"
   sodipodi:docname="4.svg">
  <sodipodi:namedview
     id="base"
     pagecolor="#ffffff"
     bordercolor="#666666"
     borderopacity="1.0"
     inkscape:pageopacity="0.0"
     inkscape:pageshadow="2"
     inkscape:zoom="1.0000001"
     inkscape:cx="383.30437"
     inkscape:cy="358.53991"
     inkscape:document-units="mm"
     inkscape:current-layer="layer2"
     showgrid="false"
     inkscape:window-width="1851"
     inkscape:window-height="904"
     inkscape:window-x="65"
     inkscape:window-y="24"
     inkscape:window-maximized="1"
     units="mm" />
  <defs
     id="defs3411">
    <linearGradient
       id="linearGradient4148"
       osb:paint="solid">
      <stop
         style="stop-color:#550044;stop-opacity:1;"
         offset="0"
         id="stop4150" />
    </linearGradient>
  </defs>
  <metadata
     id="metadata3414">
    <rdf:RDF>
      <cc:Work
         rdf:about="">
        <dc:format>image/svg+xml</dc:format>
        <dc:type
           rdf:resource="http://purl.org/dc/dcmitype/StillImage" />
        <dc:title />
      </cc:Work>
    </rdf:RDF>
  </metadata>
  <g
     inkscape:groupmode="layer"
     id="layer2"
     inkscape:label="Layer 4">
    <g
       id="g3356"
       transform="matrix(1.0722898,0,0,1.2788054,-8.3401362,-86.812193)">
      <path
         sodipodi:nodetypes="csczscsszsccc"
         inkscape:connector-curvature="0"
         id="path4156"
         d="m -143.01307,402.21288 c 0,0 -2.01051,2.89732 -2.44326,2.50743 -37.15119,-33.4722 -3.33481,-119.55518 67.427105,-115.69665 21.926688,1.449 40.818162,-4.21962 63.301285,-9.97609 22.4831231,-5.75648 47.301696,-6.5787 74.428129,9.04445 21.657451,12.47335 36.797124,31.29222 43.755081,50.55138 63.32607,-12.91669 137.78242,-5.71697 185.09937,23.47168 67.7079,41.76732 77.73785,91.97698 66.9289,107.46143 -16.19493,23.20019 -56.82944,8.43877 -82.42377,-14.54398 -25.59432,-22.98275 -52.90787,-43.7609 -68.49971,-52.57675 -53.6163,-30.31543 -89.23081,-36.18184 -92.72962,-30.04826 2.21934,28.57587 -2.37262,58.10608 -17.774553,84.84841 -54.773053,89.21292 -161.97734,97.24734 -201.987337,-0.25393"
         style="opacity:1;fill:none;fill-opacity:1;stroke:#ff0000;stroke-width:1.41732287;stroke-miterlimit:4;stroke-dasharray:none;stroke-dashoffset:0;stroke-opacity:1"
         transform="matrix(0.86655479,-0.49908195,0.49908195,0.86655479,0,0)" />
      <path
         sodipodi:nodetypes="cszzcc"
         inkscape:connector-curvature="0"
         id="path4181"
         d="m 232.99167,226.96626 c 0,0 38.53732,-48.43682 43.84062,-54.44722 5.3033,-6.01041 62.20588,-59.19656 106.54825,-72.332 44.34237,-13.135436 98.19264,-19.312826 98.90395,13.08363 0.71131,32.39646 -67.00297,45.13877 -71.71956,56.49132 3.73589,0.47517 14.87255,-0.27919 14.87255,-0.27919"
         style="opacity:1;fill:none;fill-opacity:1;stroke:#ff0000;stroke-width:1.6830709;stroke-miterlimit:4;stroke-dasharray:none;stroke-dashoffset:0;stroke-opacity:1" />
      <path
         sodipodi:nodetypes="cc"
         inkscape:connector-curvature="0"
         id="path4183"
         d="m 227.67129,248.59683 c 10.94002,-9.72971 29.87408,-2.87268 33.41815,8.07961"
         style="opacity:1;fill:none;fill-opacity:1;stroke:#ff0000;stroke-width:1.6830709;stroke-miterlimit:4;stroke-dasharray:none;stroke-dashoffset:0;stroke-opacity:1"
         transform="matrix(0.86103336,0.50854848,-0.50854848,0.86103336,0,0)" />
      <path
         sodipodi:nodetypes="cc"
         inkscape:connector-curvature="0"
         id="path4186"
         d="m 213.19268,356.19001 c 9.41776,-3.31984 19.62968,0.41421 20.78827,2.49632"
         style="opacity:1;fill:none;fill-opacity:1;stroke:#ff0000;stroke-width:1.6830709;stroke-miterlimit:4;stroke-dasharray:none;stroke-dashoffset:0;stroke-opacity:1" />
      <path
         sodipodi:nodetypes="cc"
         inkscape:connector-curvature="0"
         id="path4190"
         d="m 124.56249,283.10779 c 5.59932,1.49854 8.40878,7.72122 9.75,14.125"
         style="opacity:1;fill:none;fill-opacity:1;stroke:#ff0000;stroke-width:1.6830709;stroke-miterlimit:4;stroke-dasharray:none;stroke-dashoffset:0;stroke-opacity:1" />
      <path
         sodipodi:nodetypes="cc"
         inkscape:connector-curvature="0"
         id="path4192"
         d="m 325.02006,294.0575 c 12.20222,-13.23799 34.83789,-12.70159 44.83336,-1.59551"
         style="opacity:1;fill:none;fill-opacity:1;stroke:#ff0000;stroke-width:1.6830709;stroke-miterlimit:4;stroke-dasharray:none;stroke-dashoffset:0;stroke-opacity:1"
         transform="matrix(0.90080632,0.43422112,-0.43422112,0.90080632,0,0)" />
      <path
         sodipodi:nodetypes="sssss"
         inkscape:connector-curvature="0"
         id="path4195"
         d="m 133.96636,398.44727 c -1e-5,9.953 -6.94467,15.15987 -17.45901,17.0215 -9.17788,1.625 -19.084007,-9.0685 -19.084012,-19.0215 -10e-7,-9.95301 1.656132,-17.52151 12.334012,-17.52151 10.67788,0 24.20901,9.5685 24.20901,19.52151 z"
         style="opacity:1;fill:none;fill-opacity:1;stroke:#ff0000;stroke-width:1.76505315;stroke-miterlimit:4;stroke-dasharray:none;stroke-dashoffset:0;stroke-opacity:1" />
      <path
         sodipodi:nodetypes="csc"
         inkscape:connector-curvature="0"
         id="path4198"
         d="m 197.57581,377.05373 c -1.69319,10.16405 -7.90406,25.27407 -15.90751,25.27407 -8.00345,0 -13.31908,-11.08725 -7.48852,-20.87811"
         style="opacity:1;fill:none;fill-opacity:1;stroke:#ff0000;stroke-width:1.41732287;stroke-miterlimit:4;stroke-dasharray:none;stroke-dashoffset:0;stroke-opacity:1"
         transform="matrix(0.9729115,0.23117788,-0.23117788,0.9729115,0,0)" />
      <path
         sodipodi:nodetypes="czssc"
         inkscape:connector-curvature="0"
         id="path4201"
         d="m 144.78898,448.41348 c -2.2673,-1.85877 -5.35779,-4.16172 -8.36315,-0.38987 -3.00535,3.77186 -8.31953,5.31754 -11.8885,6.10067 -14.09845,3.09359 -24.30495,-10.52637 -24.30495,-23.5113 0,-5.82409 2.31609,-13.30982 5.35031,-17.97922"
         style="opacity:1;fill:none;fill-opacity:1;stroke:#ff0000;stroke-width:1.41732287;stroke-miterlimit:4;stroke-dasharray:none;stroke-dashoffset:0;stroke-opacity:1" />
      <path
         sodipodi:nodetypes="cszccsscsc"
         inkscape:connector-curvature="0"
         id="path4204"
         d="m 305.94316,316.37414 c 56.46282,-48.02526 145.44031,-35.99672 192.02091,-0.0276 38.82152,29.97762 29.62149,112.21166 12.09247,145.86065 -17.52903,33.64899 -23.12757,46.04284 -26.19732,57.34907 l -159.47719,11.25176 c -0.5634,-2.36164 -0.85863,-5.4207 -0.85863,-7.91758 0,-20.88088 20.64714,-37.80817 48.01997,-37.92511 -10.54372,-12.61314 -19.64859,-26.81809 -19.64859,-45.17004 0,-31.71803 33.84959,-70.10519 75.60519,-70.10519 19.81555,0 37.8506,7.06862 51.33246,18.63486"
         style="opacity:1;fill:none;fill-opacity:1;stroke:#ff0000;stroke-width:1.38670778;stroke-miterlimit:4;stroke-dasharray:none;stroke-dashoffset:0;stroke-opacity:1" />
      <path
         sodipodi:nodetypes="csc"
         inkscape:connector-curvature="0"
         id="path4213"
         d="m 354.0837,512.4606 c 0,0 -7.48354,4.74123 -6.67257,16.52453 0.0218,0.31742 2.2186,-0.1782 2.25684,0.13538"
         style="opacity:1;fill:none;fill-opacity:1;stroke:#ff0000;stroke-width:1.41732287;stroke-miterlimit:4;stroke-dasharray:none;stroke-dashoffset:0;stroke-opacity:1" />
      <path
         sodipodi:nodetypes="cc"
         inkscape:connector-curvature="0"
         id="path4220"
         d="m 311.48052,520.94589 c 0,0 3.88909,2.82842 11.57887,1.14904"
         style="opacity:1;fill:none;fill-opacity:1;stroke:#ff0000;stroke-width:1.41732287;stroke-miterlimit:4;stroke-dasharray:none;stroke-dashoffset:0;stroke-opacity:1" />
      <path
         sodipodi:nodetypes="csssc"
         inkscape:connector-curvature="0"
         id="path4222"
         d="m 523.42548,415.12915 c 0.47439,-0.18394 0.46639,-3.85132 1.99442,-4.41651 31.9362,-11.81269 58.63533,14.18955 58.63533,44.58265 0,30.44302 -54.52581,68.52166 -86.61568,32.51175 -0.42104,-0.47247 1.72405,-3.39541 1.31045,-3.89402"
         style="opacity:1;fill:none;fill-opacity:1;stroke:#ff0000;stroke-width:1.30685246;stroke-miterlimit:4;stroke-dasharray:none;stroke-dashoffset:0;stroke-opacity:1" />
      <path
         sodipodi:nodetypes="csczszsc"
         inkscape:connector-curvature="0"
         id="path4225"
         d="m 249.4319,464.7309 c 0,0 -5.21491,4.24264 -8.13172,9.72272 -2.91682,5.48007 -7.40298,22.28477 -7.40298,22.28477 -34.48487,-12.94851 -62.82032,16.46719 -60.41664,30.86023 2.40368,14.39304 10.26943,11.94666 19.14443,12.69666 8.50272,0.71854 49.22095,-0.62218 63.33337,-3.08058 14.11242,-2.45841 53.16662,-5.10692 54.41662,-6.54442 0.99784,-1.14752 -0.75,-33.25 19.625,-54.25"
         style="opacity:1;fill:none;fill-opacity:1;stroke:#ff0000;stroke-width:1.41732287;stroke-miterlimit:4;stroke-dasharray:none;stroke-dashoffset:0;stroke-opacity:1" />
      <path
         sodipodi:nodetypes="cc"
         inkscape:connector-curvature="0"
         id="path4227"
         d="m 196.74999,518.42028 c -8.70402,5.8531 -10.8799,10.29753 -7.875,21.5"
         style="opacity:1;fill:none;fill-opacity:1;stroke:#ff0000;stroke-width:1.41732287;stroke-miterlimit:4;stroke-dasharray:none;stroke-dashoffset:0;stroke-opacity:1" />
      <path
         sodipodi:nodetypes="ccc"
         inkscape:connector-curvature="0"
         id="path4229"
         d="m 174.74999,518.54528 c 0,0 -92.916282,-2.82417 -95.999994,-6.25 1.65017,-22.70802 34.466464,-45.51796 57.940634,-34.65468"
         style="opacity:1;fill:none;fill-opacity:1;stroke:#ff0000;stroke-width:1.41732287;stroke-miterlimit:4;stroke-dasharray:none;stroke-dashoffset:0;stroke-opacity:1" />
      <path
         sodipodi:nodetypes="csc"
         inkscape:connector-curvature="0"
         id="path4231"
         d="m 106.59634,499.37913 c 0,0 -7.14641,4.70355 -7.66629,15.387 -0.01637,0.33634 1.83266,0.30193 1.83266,0.30193"
         style="opacity:1;fill:none;fill-opacity:1;stroke:#ff0000;stroke-width:1.41732287;stroke-miterlimit:4;stroke-dasharray:none;stroke-dashoffset:0;stroke-opacity:1" />
      <path
         sodipodi:nodetypes="cssssc"
         inkscape:connector-curvature="0"
         id="path4233"
         d="m 192.86041,475.58565 c 0.16713,0.32315 3.28441,0.33729 3.44251,0.65386 8.57413,17.16844 -9.92725,32.36047 -27.48119,32.36047 -17.88221,0 -32.3786,-13.62579 -32.3786,-30.43406 0,-6.95678 4.35832,-14.96214 8.53717,-20.08812 0.65396,-0.80217 3.17718,1.31577 3.17718,1.31577"
         style="opacity:1;fill:none;fill-opacity:1;stroke:#ff0000;stroke-width:1.36038554;stroke-miterlimit:4;stroke-dasharray:none;stroke-dashoffset:0;stroke-opacity:1" />
      <path
         sodipodi:nodetypes="cssc"
         inkscape:connector-curvature="0"
         id="path4236"
         d="m 136.21662,477.45121 c 0.28465,-0.0223 0.54582,-3.664 0.82768,-3.67727 21.46602,-1.01113 35.68787,24.10257 33.17309,34.50222 -0.10168,0.4205 -3.52992,0.3099 -3.52992,0.3099"
         style="opacity:1;fill:none;fill-opacity:1;stroke:#ff0000;stroke-width:1.41732287;stroke-miterlimit:4;stroke-dasharray:none;stroke-dashoffset:0;stroke-opacity:1" />
      <path
         sodipodi:nodetypes="ssssss"
         inkscape:connector-curvature="0"
         id="path4238"
         d="m 275.49999,213.3578 c -4.22468,-0.25915 3.92678,-23.39201 27.99999,-38.9375 10.61073,-6.85197 21.54767,-11.24988 28.56176,-10.85683 8.50746,0.47673 11.3845,7.76157 -1.93048,15.00956 -9.3411,5.08481 -18.87573,11.61288 -27.30328,17.07795 -14.23949,9.23398 -24.67403,17.86962 -27.32799,17.70682 z"
         style="opacity:1;fill:none;fill-opacity:1;stroke:#ff0000;stroke-width:1.41732287;stroke-miterlimit:4;stroke-dasharray:none;stroke-dashoffset:0;stroke-opacity:1" />
      <path
         sodipodi:nodetypes="ssszs"
         inkscape:connector-curvature="0"
         id="path4240"
         d="m 370.70071,208.75826 c 30.75915,-3.53554 37.11422,2.11243 36.40712,6.8854 -0.70711,4.77298 -5.76257,11.08516 -36.34493,10.73161 -30.58237,-0.35356 -51.06151,7.43684 -51.10646,3.94974 -0.0449,-3.4871 20.28513,-18.03122 51.04427,-21.56675 z"
         style="opacity:1;fill:none;fill-opacity:1;stroke:#ff0000;stroke-width:1.41732287;stroke-miterlimit:4;stroke-dasharray:none;stroke-dashoffset:0;stroke-opacity:1" />
    </g>
  </g>
  <WCB
     pausedposy="0"
     pausedposx="0"
     lastknownposy="0"
     lastknownposx="0"
     lastpathnc="0"
     lastpath="0"
     node="0"
     layer="0" />
</svg>
