<?xml version="1.0" encoding="UTF-8" standalone="no"?>
<!-- Created with Inkscape (http://www.inkscape.org/) -->

<svg
   xmlns:osb="http://www.openswatchbook.org/uri/2009/osb"
   xmlns:dc="http://purl.org/dc/elements/1.1/"
   xmlns:cc="http://creativecommons.org/ns#"
   xmlns:rdf="http://www.w3.org/1999/02/22-rdf-syntax-ns#"
   xmlns:svg="http://www.w3.org/2000/svg"
   xmlns="http://www.w3.org/2000/svg"
   xmlns:sodipodi="http://sodipodi.sourceforge.net/DTD/sodipodi-0.dtd"
   xmlns:inkscape="http://www.inkscape.org/namespaces/inkscape"
   width="180mm"
   height="180mm"
   viewBox="0 0 637.79528 637.79527"
   id="svg3409"
   version="1.1"
   inkscape:version="0.91 r"
   sodipodi:docname="5.svg">
  <sodipodi:namedview
     id="base"
     pagecolor="#ffffff"
     bordercolor="#666666"
     borderopacity="1.0"
     inkscape:pageopacity="0.0"
     inkscape:pageshadow="2"
     inkscape:zoom="1"
     inkscape:cx="357.18661"
     inkscape:cy="320.7466"
     inkscape:document-units="mm"
     inkscape:current-layer="layer2"
     showgrid="false"
     inkscape:window-width="1851"
     inkscape:window-height="904"
     inkscape:window-x="65"
     inkscape:window-y="24"
     inkscape:window-maximized="1"
     units="mm" />
  <defs
     id="defs3411">
    <linearGradient
       id="linearGradient4148"
       osb:paint="solid">
      <stop
         style="stop-color:#550044;stop-opacity:1;"
         offset="0"
         id="stop4150" />
    </linearGradient>
  </defs>
  <metadata
     id="metadata3414">
    <rdf:RDF>
      <cc:Work
         rdf:about="">
        <dc:format>image/svg+xml</dc:format>
        <dc:type
           rdf:resource="http://purl.org/dc/dcmitype/StillImage" />
        <dc:title />
      </cc:Work>
    </rdf:RDF>
  </metadata>
  <g
     inkscape:groupmode="layer"
     id="layer2"
     inkscape:label="Layer 2">
    <g
       id="g3369"
       transform="matrix(1.3468409,0,0,1.4452142,-117.88478,-147.4734)">
      <path
         sodipodi:nodetypes="zzzcszzscsczzzzssssszzcczz"
         inkscape:connector-curvature="0"
         id="path4199"
         d="m 519.43025,279.77357 c -1.5277,-20.2699 -20.83618,-43.54076 -59.21739,-40.58461 -38.38121,2.95615 -63.70441,41.15159 -60.03012,70.68144 3.67429,29.52985 2.99041,90.78365 2.99041,90.78365 -0.65648,65.41492 -35.06506,84.84242 -70.67315,84.67487 -49.7242,0 -90.03363,-36.05613 -90.03363,-80.53363 0,-35.42365 26.18765,-61.26285 54.79314,-73.99355 26.30537,-10.51865 54.558,-67.72446 45.75992,-118.03385 -8.90166,-50.90175 -68.40481,-71.23477 -106.91731,-55.87624 -38.51251,15.35852 -59.30313,53.17738 -63.98236,67.71029 -4.67922,14.5329 -0.50841,25.71536 10.7155,27.83748 10.51681,0.53114 17.38163,-8.67969 24.03898,-22.64528 6.65734,-13.96559 29.86278,-63.69816 79.73323,-41.29996 49.87045,22.3982 20.63035,91.35013 4.11556,105.77822 -16.5148,14.42809 -30.77338,17.61427 -49.34022,37.52277 -18.56685,19.90849 -31.60842,48.06091 -31.60842,73.3013 0,63.15278 45.93788,109.04846 118.99468,111.84822 32.76327,1.25559 62.93412,-10.91702 80.53622,-33.4105 21.64775,-27.66335 26.97587,-68.2464 27.45847,-85.93772 0.875,-32.07639 0.40412,-45.55119 -0.97088,-56.80119 -1.30665,-10.69077 -2.91472,-28.64985 -3.11867,-42.1206 -0.20394,-13.47074 8.31976,-40.19488 35.25371,-40.37166 26.93395,-0.17677 32.24738,29.641 32.24738,42.61287 0,12.97187 -13.63898,41.79043 -21.68051,54.20782 6.92148,-1.67812 24.31345,-24.49071 29.10715,-33.72102 4.7937,-9.23032 13.35601,-21.35922 11.82831,-41.62912 z"
         style="opacity:1;fill:none;fill-opacity:1;stroke:#ff0000;stroke-width:1.41732287;stroke-miterlimit:4;stroke-dasharray:none;stroke-dashoffset:0;stroke-opacity:1" />
      <path
         sodipodi:nodetypes="cssssc"
         inkscape:connector-curvature="0"
         id="path4218"
         d="m 189.6237,193.37046 c 0,0 1.88063,-2.35853 1.88063,-2.85853 0,-0.5 2.78141,-44.84125 10.76971,-40.93003 1.59361,0.78026 0.61944,8.38053 2.76576,13.62886 2.00555,4.90411 6.04759,7.97449 6.33151,7.76629 l 3.75,-2.75"
         style="fill:none;fill-rule:evenodd;stroke:#ff0000;stroke-width:1.41732287;stroke-linecap:butt;stroke-linejoin:miter;stroke-miterlimit:4;stroke-dasharray:none;stroke-opacity:1" />
      <path
         sodipodi:nodetypes="cszszsc"
         inkscape:connector-curvature="0"
         id="path4220"
         d="m 226.53933,161.20531 c 0,0 1.79854,-0.43624 2.17406,-1.27325 1.93864,-4.3211 6.57355,-14.28901 13.9116,-23.38677 7.33805,-9.09776 15.875,-16.5 16.75,-15.75 0.875,0.75 -3.01205,11.03713 -1.59911,18.66605 1.41294,7.62892 4.22411,12.08395 4.66161,12.08395 0.4375,0 2.25,0.3125 2.25,0.3125"
         style="fill:none;fill-rule:evenodd;stroke:#ff0000;stroke-width:1.41732287;stroke-linecap:butt;stroke-linejoin:miter;stroke-miterlimit:4;stroke-dasharray:none;stroke-opacity:1" />
      <path
         sodipodi:nodetypes="csszssc"
         inkscape:connector-curvature="0"
         id="path4222"
         d="m 270.43749,152.35779 c 0,0 2.75,0.0625 3,0.0625 0.25,0 3.5625,-8.25 13.6875,-14.5 10.125,-6.25 18.49976,-8.7006 19.03033,-6.92678 0.53057,1.77383 -5.97294,8.94123 -7.25,14.70971 -1.49632,6.75889 -0.15271,12.85045 0.55439,13.29239 0.70711,0.44194 2.38649,1.41421 2.38649,1.41421"
         style="fill:none;fill-rule:evenodd;stroke:#ff0000;stroke-width:1.41732287;stroke-linecap:butt;stroke-linejoin:miter;stroke-miterlimit:4;stroke-dasharray:none;stroke-opacity:1" />
      <path
         sodipodi:nodetypes="ccszssc"
         inkscape:connector-curvature="0"
         id="path4224"
         d="m 308.03338,163.5918 c 0,0 3.00521,1.85616 3.53554,2.03293 0.53033,0.17678 10.51821,-9.01561 22.89258,-9.28078 12.37436,-0.26516 19.83873,2.69429 17.94283,3.18199 -1.8959,0.4877 -11.947,5.01688 -14.98756,7.72195 -4.5481,4.04626 -8.25229,14.19484 -7.81035,15.16711 0.44194,0.97227 2.31326,3.62928 2.31326,3.62928"
         style="fill:none;fill-rule:evenodd;stroke:#ff0000;stroke-width:1.41732287;stroke-linecap:butt;stroke-linejoin:miter;stroke-miterlimit:4;stroke-dasharray:none;stroke-opacity:1" />
      <path
         sodipodi:nodetypes="csszssc"
         inkscape:connector-curvature="0"
         id="path4226"
         d="m 340.87499,204.67029 c 0,0 1.125,2.625 1.125,3.375 0,0.75 14.71338,2.9686 22.21338,12.8436 7.88055,10.37605 9.80045,18.2771 7.78662,16.7814 -2.01383,-1.4957 -7.21543,-3.35943 -13.5,-3.5 -7.06066,-0.15793 -14.25,6.375 -14.375,7.375 -0.125,1 -0.375,3.75 -0.375,3.75"
         style="fill:none;fill-rule:evenodd;stroke:#ff0000;stroke-width:1.41732287;stroke-linecap:butt;stroke-linejoin:miter;stroke-miterlimit:4;stroke-dasharray:none;stroke-opacity:1" />
      <path
         sodipodi:nodetypes="csszsc"
         inkscape:connector-curvature="0"
         id="path4228"
         d="m 342.99999,252.79529 c 0,0 11.98863,4.74104 15.38128,12.06326 3.22227,6.95451 4.84422,19.72882 3.55622,18.81173 -1.48995,-1.06089 -8.47938,-5.99494 -13.5,-6.8125 -5.02062,-0.81756 -10.97079,-1.36633 -11.32434,-0.48245 -0.35355,0.88388 -1.76777,4.86136 -1.76777,4.86136"
         style="fill:none;fill-rule:evenodd;stroke:#ff0000;stroke-width:1.41732287;stroke-linecap:butt;stroke-linejoin:miter;stroke-miterlimit:4;stroke-dasharray:none;stroke-opacity:1" />
      <path
         sodipodi:nodetypes="cssszsc"
         inkscape:connector-curvature="0"
         id="path4230"
         d="m 328.18593,297.50015 c -0.26517,0.44194 -1.50261,2.12132 -1.50261,2.56326 0,0.44194 6.94312,12.36 6.82923,20.74075 -0.11351,8.35356 -3.17677,22.38042 -3.88756,21.05362 -0.9375,-1.75 -4.52869,-12.82586 -7.5625,-15.75 -3.03382,-2.92414 -8.99127,-7.11627 -9.0625,-6.75 -0.0643,0.33038 -2.0625,1.9375 -2.25,2.125"
         style="fill:none;fill-rule:evenodd;stroke:#ff0000;stroke-width:1.41732287;stroke-linecap:butt;stroke-linejoin:miter;stroke-miterlimit:4;stroke-dasharray:none;stroke-opacity:1" />
      <path
         sodipodi:nodetypes="cszsssc"
         inkscape:connector-curvature="0"
         id="path4232"
         d="m 296.06249,331.29528 c 0,0 -4.57046,1.92586 -4.44546,2.42586 0.125,0.5 8.96818,6.46264 9.90701,16.73943 0.93884,10.27678 -8.51142,21.68955 -9.4194,20.84883 -1.19325,-1.10486 -2.10248,-14.97034 -10.41098,-17.79877 -8.30851,-2.82842 -17.00617,-0.59035 -17.31867,-0.15285 -0.3125,0.4375 -1.4375,1.8125 -1.4375,1.8125"
         style="fill:none;fill-rule:evenodd;stroke:#ff0000;stroke-width:1.41732287;stroke-linecap:butt;stroke-linejoin:miter;stroke-miterlimit:4;stroke-dasharray:none;stroke-opacity:1" />
      <path
         sodipodi:nodetypes="cczszsc"
         inkscape:connector-curvature="0"
         id="path4234"
         d="m 254.55843,365.20562 -1.5026,2.56326 c 0,0 11.2036,-0.37859 18.41511,5.21676 7.21151,5.59534 8.09588,12.45593 6.59328,13.33981 -1.5026,0.88388 -8.47842,-3.74137 -16.16955,-2.73505 -7.69113,1.00631 -18.10001,7.66497 -18.10001,8.28369 0,0.61872 -1.01332,4.86764 -0.92493,5.22119"
         style="fill:none;fill-rule:evenodd;stroke:#ff0000;stroke-width:1.41732287;stroke-linecap:butt;stroke-linejoin:miter;stroke-miterlimit:4;stroke-dasharray:none;stroke-opacity:1" />
      <path
         sodipodi:nodetypes="cczzssc"
         inkscape:connector-curvature="0"
         id="path4147"
         d="m 242.59374,404.73278 -0.125,3.625 c 0,0 8.62906,-1.21339 15.21875,1 6.58969,2.21339 12.83027,7.05882 11.05752,7.77091 -1.77275,0.71208 -9.0493,1.43855 -13.3763,3.06618 -4.49259,1.68991 -8.57953,7.43258 -8.4703,8.60925 0.11147,1.20077 1.02484,3.23065 1.29352,3.45455"
         style="fill:none;fill-rule:evenodd;stroke:#ff0000;stroke-width:1.41732287;stroke-linecap:butt;stroke-linejoin:miter;stroke-miterlimit:4;stroke-dasharray:none;stroke-opacity:1" />
      <path
         sodipodi:nodetypes="cssszsc"
         inkscape:connector-curvature="0"
         id="path4149"
         d="m 254.27182,444.09796 c 0,0 1.27777,2.08968 2.03293,3.09359 0,0 8.20051,-3.03553 17.92323,-2.5052 9.72272,0.53033 16.02786,4.60875 14.87881,5.84619 -1.14905,1.23744 -10.24241,1.88409 -13.39029,3.83179 -3.14788,1.9477 -6.85915,6.70392 -5.66866,8.02558 l 2.18826,2.42937"
         style="fill:none;fill-rule:evenodd;stroke:#ff0000;stroke-width:1.41732287;stroke-linecap:butt;stroke-linejoin:miter;stroke-miterlimit:4;stroke-dasharray:none;stroke-opacity:1" />
      <path
         sodipodi:nodetypes="ccszssc"
         inkscape:connector-curvature="0"
         id="path4151"
         d="m 282.1356,471.71357 c 0.35355,0.17678 4.59619,2.56327 5.48008,2.82843 0.88388,0.26517 5.37347,-7.39823 12.38585,-11.47348 6.96567,-4.0481 14.84413,-5.59815 15.63249,-4.78737 0.78836,0.81078 -7.17583,6.71025 -7.26225,11.18242 -0.12849,6.64966 5.65101,11.95386 7.00651,14.07927 0.38683,0.60656 3.93472,1.03173 4.13096,1.0906"
         style="fill:none;fill-rule:evenodd;stroke:#ff0000;stroke-width:1.41732287;stroke-linecap:butt;stroke-linejoin:miter;stroke-miterlimit:4;stroke-dasharray:none;stroke-opacity:1" />
      <path
         sodipodi:nodetypes="cszzzcc"
         inkscape:connector-curvature="0"
         id="path4153"
         d="m 326.87499,484.98278 c 0.26693,-0.0297 4.13811,0.90507 4.28077,0.13654 0,0 1.58715,-8.40097 4.95406,-14.5552 3.36692,-6.15422 9.83108,-14.42337 10.82767,-13.20634 0.99659,1.21703 1.14629,10.65674 3.5,15.8125 2.35371,5.15576 7.5625,8.5 7.5625,8.5 0,0 0.875,-0.75 1.5,-0.75"
         style="fill:none;fill-rule:evenodd;stroke:#ff0000;stroke-width:1.41732287;stroke-linecap:butt;stroke-linejoin:miter;stroke-miterlimit:4;stroke-dasharray:none;stroke-opacity:1" />
      <path
         sodipodi:nodetypes="ccsszcc"
         inkscape:connector-curvature="0"
         id="path4155"
         d="m 378.39051,469.85742 2.56326,-2.56326 c 0,0 -4.11006,-6.0546 -5.52428,-12.06501 -1.41421,-6.01041 -2.46912,-14.19629 -0.7058,-14.55873 1.77645,-0.36514 5.50753,2.80706 9.92094,3.63388 4.41341,0.82683 11.21644,-0.72595 11.4816,-1.16789 0.26517,-0.44194 0.79485,-2.52091 1.1484,-3.2943"
         style="fill:none;fill-rule:evenodd;stroke:#ff0000;stroke-width:1.41732287;stroke-linecap:butt;stroke-linejoin:miter;stroke-miterlimit:4;stroke-dasharray:none;stroke-opacity:1" />
      <path
         sodipodi:nodetypes="csssscc"
         inkscape:connector-curvature="0"
         id="path4157"
         d="m 399.28124,433.07653 c 0.25,-0.875 1.15625,-4.40625 1.28125,-5.03125 0.125,-0.625 -8.3125,-5.1875 -12.3125,-12.875 -2.50503,-4.81435 -6.125,-20.1875 -4.875,-23.6875 1.25,-3.5 5.77448,3.60494 9.75,6.4375 5,3.5625 10,4 10,4 0,0 0.25,-3.625 0.375,-4"
         style="fill:none;fill-rule:evenodd;stroke:#ff0000;stroke-width:1.41732287;stroke-linecap:butt;stroke-linejoin:miter;stroke-miterlimit:4;stroke-dasharray:none;stroke-opacity:1" />
      <path
         sodipodi:nodetypes="ccsszscc"
         inkscape:connector-curvature="0"
         id="path4159"
         d="m 403.58838,389.37371 -0.25,-4.25 c 0,0 -10.53033,-3.96231 -15.99004,-9.91682 -5.06301,-5.52186 -7.58357,-18.75151 -5.79289,-20.22487 1.70143,-1.39993 7.4857,2.85173 11.60983,3.35247 4.12413,0.50074 7.92134,0.20575 9.66207,-0.0706 0.74471,-0.11824 -0.13005,-4.02652 -0.13005,-4.02652 0.0884,-0.79549 0.26517,-0.25704 0.26517,-0.25704"
         style="fill:none;fill-rule:evenodd;stroke:#ff0000;stroke-width:1.41732287;stroke-linecap:butt;stroke-linejoin:miter;stroke-miterlimit:4;stroke-dasharray:none;stroke-opacity:1" />
      <path
         sodipodi:nodetypes="cszszcc"
         inkscape:connector-curvature="0"
         id="path4161"
         d="m 402.49999,347.04528 c 0,-0.625 -0.14232,-2.80784 -0.14232,-2.80784 -3.29295,-2.18666 -8.76407,-7.75182 -11.94423,-13.0039 -3.18016,-5.25208 -4.91237,-16.71361 -4.03737,-17.21361 0.875,-0.5 4.29949,1.89429 7.37132,2.89277 3.07182,0.99848 7.09099,1.23743 7.09099,1.23743 l -0.0884,-4.22985"
         style="fill:none;fill-rule:evenodd;stroke:#ff0000;stroke-width:1.41732287;stroke-linecap:butt;stroke-linejoin:miter;stroke-miterlimit:4;stroke-dasharray:none;stroke-opacity:1" />
      <path
         sodipodi:nodetypes="cczczcc"
         inkscape:connector-curvature="0"
         id="path4163"
         d="m 399.81526,307.71214 c 0,-0.38537 -0.36782,-4.75389 -0.36782,-4.75389 0,0 -5.42481,-6.34572 -6.9148,-13.14789 -1.48998,-6.80217 -1.85615,-19.13608 -0.92808,-20.15255 0.92808,-1.01646 3.47683,4.45405 6.86787,6.19163 3.39104,1.73758 7.40228,1.6158 7.40228,1.6158 l 2.01529,-3.06586"
         style="fill:none;fill-rule:evenodd;stroke:#ff0000;stroke-width:1.41732287;stroke-linecap:butt;stroke-linejoin:miter;stroke-miterlimit:4;stroke-dasharray:none;stroke-opacity:1" />
      <path
         sodipodi:nodetypes="cczszcc"
         inkscape:connector-curvature="0"
         id="path4165"
         d="m 415.74999,263.10779 c 0.75,-1 1.6875,-2.125 1.6875,-2.125 0,0 -0.18813,-13.17205 4.20711,-20.17233 4.39523,-7.00029 10.59543,-9.25521 11.59543,-9.50521 1,-0.25 -0.67238,4.49246 -0.48246,7.93198 0.18992,3.43952 3.55492,6.85494 3.55492,6.85494 0,0 1.71726,-0.75169 2.8125,-1.54688"
         style="fill:none;fill-rule:evenodd;stroke:#ff0000;stroke-width:1.41732287;stroke-linecap:butt;stroke-linejoin:miter;stroke-miterlimit:4;stroke-dasharray:none;stroke-opacity:1" />
      <path
         sodipodi:nodetypes="csssssc"
         inkscape:connector-curvature="0"
         id="path4167"
         d="m 451.43673,240.36981 c 0,0 3.25,-0.25 4.125,-0.625 0.875,-0.375 4.04702,-6.91811 10.92202,-10.29311 6.875,-3.375 14.31304,-5.46837 15.43804,-5.59337 1.125,-0.125 -4.18196,5.21513 -5.5468,8.31196 -1.48744,3.375 -0.875,6.875 -0.375,7.125 0.5,0.25 2,0.5 2,0.5"
         style="fill:none;fill-rule:evenodd;stroke:#ff0000;stroke-width:1.41732287;stroke-linecap:butt;stroke-linejoin:miter;stroke-miterlimit:4;stroke-dasharray:none;stroke-opacity:1" />
      <path
         sodipodi:nodetypes="cszzzsc"
         inkscape:connector-curvature="0"
         id="path4169"
         d="m 495.62499,245.35779 c 1.625,0.875 3.0625,2.0625 3.8125,2.0625 0.75,0 5.96635,-2.39319 13.9375,-2.25 7.97115,0.14319 20.4375,3.91038 19.4375,6.1875 -1,2.27712 -8.25377,1.31701 -12.6875,2.8125 -4.43373,1.49549 -7.75,6 -7.5,6.625 0.25,0.625 1.84375,2.59375 1.84375,2.59375"
         style="fill:none;fill-rule:evenodd;stroke:#ff0000;stroke-width:1.41732287;stroke-linecap:butt;stroke-linejoin:miter;stroke-miterlimit:4;stroke-dasharray:none;stroke-opacity:1" />
      <path
         sodipodi:nodetypes="ccsszsc"
         inkscape:connector-curvature="0"
         id="path4171"
         d="m 519.12499,277.67029 c 0,1 0.3125,3.28124 0.3125,3.28124 0,0 7.70289,2.72893 11.82789,6.47893 4.125,3.75 8.5479,9.35898 6.07744,10.08135 -1.10095,0.32192 -5.25422,-0.99273 -9.39699,-1.30676 -4.14276,-0.31403 -9.69584,0.21523 -9.82084,1.09023 -0.125,0.875 -0.5,2.125 -0.5,2.125"
         style="fill:none;fill-rule:evenodd;stroke:#ff0000;stroke-width:1.41732287;stroke-linecap:butt;stroke-linejoin:miter;stroke-miterlimit:4;stroke-dasharray:none;stroke-opacity:1" />
      <path
         sodipodi:nodetypes="ccssssc"
         inkscape:connector-curvature="0"
         id="path4173"
         d="m 517.07674,301.67396 -2.0625,5.15625 c 0,0 4.73575,7.27618 4.73575,12.90257 0,7.75 -2.65988,11.64777 -3.89461,11.24448 -1.29756,-0.42381 -2.54289,-3.71323 -4.07414,-4.96323 -2.04269,-1.6675 -4.8125,-3.4375 -5.3125,-2.4375 -0.5,1 -1.90625,3.15625 -1.90625,3.15625"
         style="fill:none;fill-rule:evenodd;stroke:#ff0000;stroke-width:1.41732287;stroke-linecap:butt;stroke-linejoin:miter;stroke-miterlimit:4;stroke-dasharray:none;stroke-opacity:1" />
      <path
         sodipodi:nodetypes="csssssssssssssssssssssssssszccszsssszssssc"
         inkscape:connector-curvature="0"
         id="path4175"
         d="m 148.91227,288.7497 c 0,0 -0.85895,3.40295 -1.63372,2.87117 -5.06608,-3.47717 -16.31796,-17.05122 -14.43087,-23.1121 1.39877,-4.49252 5.83992,-2.9856 6.90058,-4.22303 1.06066,-1.23744 0.1263,-9.12361 4.54571,-11.77526 4.41942,-2.65165 6.46622,-0.82767 7.70365,-1.358 1.23744,-0.53033 1.24448,-5.31738 -0.45894,-10.19575 -1.63277,-4.67603 -6.47824,-7.47119 -6.47824,-8.53185 0,-0.54701 3.30905,-1.01205 6.17531,0.45758 2.69142,1.38 4.9259,4.68761 5.65356,4.602 0.89416,-0.1052 -0.0379,-5.39375 0.68518,-9.60314 0.49204,-2.86434 2.22734,-6.63579 3.59331,-6.44172 0.69214,0.0983 0.29829,5.12572 0.80637,9.15568 0.49463,3.92335 1.54778,6.6282 3.5772,7.15434 0.82309,0.21339 2.1103,-6.12581 3.64836,-10.10101 2.25421,-5.82607 4.84432,-10.12569 5.63242,-10.49347 0.74875,-0.34942 3.62565,6.39284 6.65794,12.09353 2.33701,4.39358 5.84657,8.35331 7.13876,8.30901 0.57318,-0.0197 -0.31126,-7.87616 2.05604,-12.92527 2.72016,-5.80175 7.81139,-8.14679 9.86827,-6.94694 1.08853,0.63498 -2.80084,5.80704 -4.0287,10.81588 -1.09229,4.4558 0.54773,10.10783 2.17254,10.13216 2.61549,0.0392 3.86342,-6.61911 8.86735,-10.36283 3.56302,-2.66569 12.19876,-3.68235 15.52783,-1.30444 1.77506,1.2679 -5.64941,4.03278 -9.21626,7.21021 -3.12268,2.78176 -5.20882,9.29458 -3.68844,11.26296 0.58915,0.76275 8.58881,-6.46762 11.47552,-7.19863 5.26907,-1.33432 8.50228,1.56731 8.41186,2.16049 -0.0904,0.59318 -5.48614,1.67905 -8.73749,3.29722 -8.82975,5.76212 4.7341,11.56463 7.22285,17.99496 4.12307,12.07593 -8.30682,20.10138 -14.07093,28.07677 -1.71072,2.367 -2.51056,4.90488 -2.71081,10.91191 -0.20025,6.00703 0.68234,14.93762 2.74003,15.73312 1.58581,0.61307 4.24265,-9.36917 6.45236,-8.04334 2.20971,1.32582 -1.67939,9.63433 -0.17678,10.78338 1.5026,1.14905 6.87024,-8.95755 8.54962,-6.21751 1.67938,2.74004 -0.034,9.07612 -1.31079,11.13155 -1.27679,2.05543 -10.53293,-1.96155 -8.72043,-0.27405 1.8125,1.6875 6.0577,6.38186 6.02145,7.83915 -0.0758,3.0481 -4.3963,8.6777 -7.0838,10.4277 -1.72987,1.12643 -8.02502,2.94183 -10.61903,3.03284 -0.64447,0.0226 1.31986,-2.22739 1.31986,-2.22739"
         style="fill:none;fill-rule:evenodd;stroke:#ff0000;stroke-width:1.41732287;stroke-linecap:butt;stroke-linejoin:miter;stroke-miterlimit:4;stroke-dasharray:none;stroke-opacity:1" />
      <circle
         r="10.585207"
         cy="294.73279"
         cx="157.8125"
         id="path4177"
         style="opacity:1;fill:none;fill-opacity:1;stroke:#ff0000;stroke-width:1.41732287;stroke-miterlimit:4;stroke-dasharray:none;stroke-dashoffset:0;stroke-opacity:1" />
      <ellipse
         ry="5.6635261"
         rx="5.7961082"
         cy="292.08633"
         cx="160.767"
         id="path4179"
         style="opacity:1;fill:none;fill-opacity:1;stroke:#ff0000;stroke-width:1.41732287;stroke-miterlimit:4;stroke-dasharray:none;stroke-dashoffset:0;stroke-opacity:1" />
      <ellipse
         ry="13.183563"
         rx="12.996063"
         cy="271.03983"
         cx="183.81116"
         id="path4183"
         style="opacity:1;fill:none;fill-opacity:1;stroke:#ff0000;stroke-width:1.67913687;stroke-miterlimit:4;stroke-dasharray:none;stroke-dashoffset:0;stroke-opacity:1" />
      <ellipse
         ry="6.7826428"
         rx="6.6861787"
         cy="269.65518"
         cx="185.26198"
         id="path4183-2"
         style="opacity:1;fill:none;fill-opacity:1;stroke:#ff0000;stroke-width:0.86456692;stroke-miterlimit:4;stroke-dasharray:none;stroke-dashoffset:0;stroke-opacity:1" />
      <ellipse
         ry="5.3081794"
         rx="5.1519294"
         cy="347.13904"
         cx="178.5"
         id="path4200"
         style="opacity:1;fill:none;fill-opacity:1;stroke:#ff0000;stroke-width:1.61346376;stroke-miterlimit:4;stroke-dasharray:none;stroke-dashoffset:0;stroke-opacity:1" />
      <ellipse
         ry="5.7150879"
         rx="5.5468602"
         cy="336.20154"
         cx="189.33177"
         id="path4200-0"
         style="opacity:1;fill:none;fill-opacity:1;stroke:#ff0000;stroke-width:1.73714685;stroke-miterlimit:4;stroke-dasharray:none;stroke-dashoffset:0;stroke-opacity:1" />
      <path
         sodipodi:nodetypes="cczzzzszzzssssc"
         inkscape:connector-curvature="0"
         id="path4217"
         d="m 161.08776,304.52702 1.81196,-0.57452 c 0,0 7.53939,17.37128 8.13173,28.10749 0.59234,10.73621 -1.51837,24.39541 2.80622,29.31015 4.32459,4.91475 15.78305,1.45515 18.16232,0.67514 2.37927,-0.78001 5.84251,-4.35521 4.625,-4.9375 -1.21751,-0.58229 -6.24574,-1.31798 -5.25811,-1.85669 1.375,-0.75 14.26332,-8.18617 16.551,-11.01517 2.28768,-2.829 8.18683,-11.9218 7.9817,-13.45581 -0.20513,-1.534 -8.83709,3.14017 -11.02459,2.82767 -2.1875,-0.3125 -2.78125,-1.15625 -3.0625,-2.9375 -0.13081,-0.82845 -0.8103,-7.22515 -0.63515,-14.06755 0.20141,-7.86953 1.29118,-16.2681 1.62214,-16.45722 0.61871,-0.35355 10.12881,-5.10215 12.33147,-13.71796 1.3152,-5.14447 -4.61732,-20.56231 -11.12621,-20.89182"
         style="fill:none;fill-rule:evenodd;stroke:#ff0000;stroke-width:1.41732287;stroke-linecap:butt;stroke-linejoin:miter;stroke-miterlimit:4;stroke-dasharray:none;stroke-opacity:1" />
      <path
         sodipodi:nodetypes="ccszszszsszsszsc"
         inkscape:connector-curvature="0"
         id="path4219"
         d="m 137.62065,264.79646 c 0,0 1.32583,-0.17678 1.50261,-0.44194 0.17677,-0.26517 -5.03814,-22.09709 -7.07107,-27.13522 -1.86541,-4.62297 -8.40468,-17.17389 -11.94315,-18.24278 -3.53847,-1.06889 -9.88877,-4.7382 -8.56295,-7.38985 1.32583,-2.65165 6.74497,-0.45907 7.6014,-1.76776 0.85643,-1.30869 -0.91013,-3.98135 -2.9861,-6.96737 -2.28755,-3.29035 -6.07467,-5.55025 -6.16524,-6.57658 -0.0906,-1.02633 4.02481,-10.85123 9.06295,-7.93442 2.52345,1.46094 8.8091,8.9794 12.41526,17.26787 3.59364,8.25967 3.91476,17.29197 4.82047,17.29197 0.90571,0 -0.48608,-15.47175 4.02167,-15.2028 2.5002,0.14918 0.31439,10.38798 0.16826,18.06945 -0.11733,6.16789 3.49466,13.35828 5.15855,15.81617 1.66389,2.45789 7.10669,7.02459 7.16919,6.33709 0.0625,-0.6875 -0.5,-4.375 -0.5,-4.375"
         style="fill:none;fill-rule:evenodd;stroke:#ff0000;stroke-width:1.41732287;stroke-linecap:butt;stroke-linejoin:miter;stroke-miterlimit:4;stroke-dasharray:none;stroke-opacity:1" />
      <path
         sodipodi:nodetypes="csssszssscscc"
         inkscape:connector-curvature="0"
         id="path4221"
         d="m 166.4375,236.26404 c 0.375,-1 0.84375,-2.65625 0.96875,-3.28125 0.125,-0.625 -1.53794,-25.3333 -7.37157,-39.12188 -5.83363,-13.78858 -17.24017,-26.71749 -16.84556,-28.41295 0.35842,-1.53999 2.13112,-7.08271 3.31678,-7.39429 1.14691,-0.3014 12.34145,8.68663 16.12996,13.77525 3.78851,5.08862 7.36833,13.65007 8.0572,14.59741 0.34936,0.48044 0.92152,-4.69581 2.11297,-9.18573 1.15787,-4.36335 2.83677,-8.74388 3.88227,-8.78744 2.35645,-0.0982 6.23138,2.87262 6.58494,3.57973 0.35355,0.70711 -8.82682,22.26 -9.35715,29.50784 -0.53033,7.24785 1.03922,15.83148 1.03922,15.83148 0,0 2.79469,-6.70192 3.29469,-6.88942"
         style="fill:none;fill-rule:evenodd;stroke:#ff0000;stroke-width:1.41732287;stroke-linecap:butt;stroke-linejoin:miter;stroke-miterlimit:4;stroke-dasharray:none;stroke-opacity:1" />
    </g>
  </g>
  <WCB
     pausedposy="0"
     pausedposx="0"
     lastknownposy="0"
     lastknownposx="0"
     lastpathnc="0"
     lastpath="0"
     node="0"
     layer="0" />
</svg>
