<?xml version="1.0" encoding="UTF-8" standalone="no"?>
<!-- Created with Inkscape (http://www.inkscape.org/) -->

<svg
   xmlns:osb="http://www.openswatchbook.org/uri/2009/osb"
   xmlns:dc="http://purl.org/dc/elements/1.1/"
   xmlns:cc="http://creativecommons.org/ns#"
   xmlns:rdf="http://www.w3.org/1999/02/22-rdf-syntax-ns#"
   xmlns:svg="http://www.w3.org/2000/svg"
   xmlns="http://www.w3.org/2000/svg"
   xmlns:sodipodi="http://sodipodi.sourceforge.net/DTD/sodipodi-0.dtd"
   xmlns:inkscape="http://www.inkscape.org/namespaces/inkscape"
   width="180mm"
   height="180mm"
   viewBox="0 0 637.79528 637.79527"
   id="svg3409"
   version="1.1"
   inkscape:version="0.91 r"
   sodipodi:docname="7.svg">
  <sodipodi:namedview
     id="base"
     pagecolor="#ffffff"
     bordercolor="#666666"
     borderopacity="1.0"
     inkscape:pageopacity="0.0"
     inkscape:pageshadow="2"
     inkscape:zoom="0.7071068"
     inkscape:cx="317.43577"
     inkscape:cy="305.72839"
     inkscape:document-units="mm"
     inkscape:current-layer="layer2"
     showgrid="false"
     inkscape:window-width="1851"
     inkscape:window-height="904"
     inkscape:window-x="65"
     inkscape:window-y="24"
     inkscape:window-maximized="1"
     units="mm" />
  <defs
     id="defs3411">
    <linearGradient
       id="linearGradient4148"
       osb:paint="solid">
      <stop
         style="stop-color:#550044;stop-opacity:1;"
         offset="0"
         id="stop4150" />
    </linearGradient>
  </defs>
  <metadata
     id="metadata3414">
    <rdf:RDF>
      <cc:Work
         rdf:about="">
        <dc:format>image/svg+xml</dc:format>
        <dc:type
           rdf:resource="http://purl.org/dc/dcmitype/StillImage" />
        <dc:title />
      </cc:Work>
    </rdf:RDF>
  </metadata>
  <g
     inkscape:groupmode="layer"
     id="layer2"
     inkscape:label="Layer 2">
    <g
       id="g3351"
       transform="matrix(1.157642,0.03165649,-0.03492697,1.2772398,-37.145248,-105.58925)">
      <path
         sodipodi:nodetypes="csssszsssszzszzsssszcsszzzszsssccsczzsszssc"
         inkscape:connector-curvature="0"
         id="path4180"
         d="m 204.95189,205.07562 c 0,0 11.52241,11.73498 16.27202,25.62825 3.67105,10.73834 2.39371,23.62451 -0.47392,29.84142 -3.12208,6.76854 -13.59883,9.34078 -24.94086,14.00614 -13.56192,5.57848 -27.17468,13.2628 -33.0288,20.3422 -10.75,13 -7.37614,30.45985 -9.90533,41.77665 -2.52918,11.3168 -18.8059,25.59577 -50.30025,15.39016 -11.850678,-3.84016 -21.995471,-14.75569 -27.534019,-26.31061 -9.180694,-19.15344 -7.866027,-43.0226 -6.923092,-49.28557 1.511788,-10.0413 9.23009,-24.6808 22.697453,-49.09176 10.576858,-19.17162 25.494838,-41.67872 28.960138,-47.32593 3.46531,-5.64722 8.1034,-9.20876 7.84977,-10.68878 -0.25363,-1.48002 -6.13359,2.4959 -8.14983,0.59201 -9.45644,-8.92953 -26.988096,-29.97684 -11.97517,-38.02951 15.01293,-8.05267 39.75,29.4375 41.625,28.1875 1.875,-1.25 -29.375,-49.6875 -4.375,-53.9375 10.79594,-1.83531 23.58108,4.30829 31.34713,14.12098 10.21769,12.91042 12.96501,30.71906 12.89399,33.48885 -0.125,4.875 2.86504,6.03662 3.49004,6.16162 0.40234,0.0805 17.35368,6.15159 48.48133,32.72442 31.12765,26.57283 60.97842,104.10047 83.95307,112.43538 32.17336,7.77817 73.41042,-39.4693 123.96855,-24.2665 50.55814,15.2028 65.18251,103.46246 64.4754,132.10028 -0.70711,28.63783 -17.20833,138.84562 -37.58021,134.72529 -20.37188,-4.12033 -18.52452,-17.47221 -12.67969,-48.16248 5.84482,-30.69027 9.15207,-78.05429 -10.92475,-79.78463 -20.07683,-1.73034 -12.79095,67.43597 -13.76867,83.73149 -1.06065,17.67767 -6.74069,38.77532 -24.39518,35.35534 -17.65448,-3.41998 -10.30853,-22.03527 -8.04976,-44.55724 2.90608,-28.97621 8.13987,-63.82768 -0.082,-69.99406 -3.24065,-2.43049 -18.47127,2.3907 -35.78935,5.04731 -24.24855,3.71977 -54.27856,2.68549 -58.83994,2.12394 2.96075,23.35917 -0.10523,109.26057 -27.75,105.875 -21.07676,-5.73117 -8.74691,-43.43225 -10.6656,-71.30743 -2.30634,-33.50708 -14.72282,-64.68103 -57.0844,-56.94257 -18.75,3.75 -12,26.125 -9,29.875 3,3.75 20.07322,25.53617 14.51256,34.03401 -5.56066,8.49784 -23.51256,12.83579 -34.01255,0.33579 -10.5,-12.5 -25.75,-66.8698 -6.75,-87.8698 18.99999,-21 34.84487,-15.98445 39.13941,-18.70448 4.29454,-2.72002 8.0169,-30.75947 5.86967,-55.67688 -1.98732,-23.06177 -10.17516,-44.04705 -13.26656,-42.79531 l -7.20365,2.91681"
         style="fill:none;fill-rule:evenodd;stroke:#ff0000;stroke-width:1.41732287;stroke-linecap:butt;stroke-linejoin:miter;stroke-miterlimit:4;stroke-dasharray:none;stroke-opacity:1" />
      <path
         sodipodi:nodetypes="ccccccc"
         inkscape:connector-curvature="0"
         id="path4186"
         d="m 115.33071,355.02135 6.64521,0.63832 c 14.13341,-6.76641 18.66422,-18.74057 14.89343,-39.77475 -0.13258,-0.97227 2.91682,-2.78423 5.25911,-1.06065 3.69699,5.31555 0.50357,27.30682 -0.56596,30.28351 -1.40267,4.3809 0.71875,5.375 0.71875,5.375 1.14037,-0.82537 2.07033,-1.07517 4.59375,-3.875"
         style="fill:none;fill-rule:evenodd;stroke:#ff0000;stroke-width:1.41732287;stroke-linecap:butt;stroke-linejoin:miter;stroke-miterlimit:4;stroke-dasharray:none;stroke-opacity:1" />
      <path
         sodipodi:nodetypes="zzzzzz"
         inkscape:connector-curvature="0"
         id="path4188"
         d="m 95.187498,283.51403 c -0.412387,0.78354 -1.157863,5.62373 -1.248303,9.62292 -0.09044,3.9992 0.681206,6.99043 1.092053,7.72083 0.410847,0.7304 2.21875,2.65625 3.53125,1.84375 1.3125,-0.8125 1.786612,-17.34781 0.849112,-18.53531 -0.937501,-1.1875 -3.811725,-1.43573 -4.224112,-0.65219 z"
         style="fill:none;fill-rule:evenodd;stroke:#ff0000;stroke-width:1.41732287;stroke-linecap:butt;stroke-linejoin:miter;stroke-miterlimit:4;stroke-dasharray:none;stroke-opacity:1" />
      <path
         sodipodi:nodetypes="zzzssszz"
         inkscape:connector-curvature="0"
         id="path4190"
         d="m 127.6263,237.69488 c -0.65533,-1.42364 -1.48492,-20.68628 10.6237,-27.46209 12.10862,-6.77581 24.5,-5.6875 25,-4.1875 0.5,1.5 0.875,4.6875 -1.25,5.0625 -1.25325,0.22116 -8.77878,-0.35388 -15.70387,1.75885 -4.817,1.46958 -9.15801,5.14491 -10.87586,7.31146 -4.1875,5.28125 -2.25996,16.53508 -2.63366,17.57928 -0.3737,1.04419 -4.50498,1.36113 -5.16031,-0.0625 z"
         style="fill:none;fill-rule:evenodd;stroke:#ff0000;stroke-width:1.41732287;stroke-linecap:butt;stroke-linejoin:miter;stroke-miterlimit:4;stroke-dasharray:none;stroke-opacity:1" />
      <path
         sodipodi:nodetypes="ccszcczssc"
         inkscape:connector-curvature="0"
         id="path4192"
         d="m 78.624998,250.04529 c 0.375,-1.25 1.5,-2.75 1.5,-2.75 0,0 3.6875,-1.9375 5.4375,-0.8125 1.317492,0.84696 68.897902,48.47209 70.177762,50.13347 1.27986,1.66138 1.91422,6.9139 1.91422,6.9139 l 7.3131,-10.99324 c 1.3e-4,6e-5 -4.10897,0.36237 -6.19086,-0.69271 -2.08189,-1.05508 -69.459758,-48.29036 -70.907061,-49.99563 -1.166548,-1.37447 -1.448224,-6.17278 -0.91789,-6.87989 0.53033,-0.70711 1.070464,-2.80882 1.070464,-2.80882"
         style="fill:none;fill-rule:evenodd;stroke:#ff0000;stroke-width:1.41732287;stroke-linecap:butt;stroke-linejoin:miter;stroke-miterlimit:4;stroke-dasharray:none;stroke-opacity:1" />
      <path
         sodipodi:nodetypes="ccccc"
         inkscape:connector-curvature="0"
         id="path4194"
         d="m 178.375,455.67028 c 0,0 1.61513,5.42711 2.375,4.6875 1.29112,-1.83336 11.03921,-6.99372 14.91421,-8.18122 2.81511,-0.92147 16.22743,-5.11931 14.94692,-7.95764 -0.8125,-1.375 -2.29864,-3.54864 -2.29864,-3.54864"
         style="fill:none;fill-rule:evenodd;stroke:#ff0000;stroke-width:1.41732287;stroke-linecap:butt;stroke-linejoin:miter;stroke-miterlimit:4;stroke-dasharray:none;stroke-opacity:1" />
      <path
         sodipodi:nodetypes="cczsc"
         inkscape:connector-curvature="0"
         id="path4196"
         d="m 185.03255,470.29566 c 0,-0.375 -0.90625,-2.40625 -0.90625,-2.40625 3.72461,-4.77468 7.04847,-8.15647 11.77529,-10.07728 4.72682,-1.92082 13.87842,-5.88294 18.9181,-5.36753 1.56859,0.16042 2.67846,2.28764 2.92846,2.66264"
         style="fill:none;fill-rule:evenodd;stroke:#ff0000;stroke-width:1.41732287;stroke-linecap:butt;stroke-linejoin:miter;stroke-miterlimit:4;stroke-dasharray:none;stroke-opacity:1" />
      <path
         sodipodi:nodetypes="czszc"
         inkscape:connector-curvature="0"
         id="path4198"
         d="m 271.61739,497.34619 c 0,0 0.0589,3.29193 1.39644,4.48284 1.33759,1.19091 10.52154,3.08728 14.24829,3.38372 3.88909,0.30936 15.51422,-0.005 16.91955,-0.43657 1.40533,-0.43122 3.56445,-2.90008 3.67494,-3.54089"
         style="fill:none;fill-rule:evenodd;stroke:#ff0000;stroke-width:1.41732287;stroke-linecap:butt;stroke-linejoin:miter;stroke-miterlimit:4;stroke-dasharray:none;stroke-opacity:1" />
      <path
         sodipodi:nodetypes="csssc"
         inkscape:connector-curvature="0"
         id="path4200"
         d="m 270.68709,513.07044 c 0.10836,-0.32475 0.74738,-2.81712 3.94086,-3.4686 1.82076,-0.37144 7.94959,1.09099 13.07611,1.26777 5.12653,0.17678 13.41435,-0.58399 14.68487,-0.002 1.87056,0.85708 1.11612,5.68014 1.11612,5.68014"
         style="fill:none;fill-rule:evenodd;stroke:#ff0000;stroke-width:1.41732287;stroke-linecap:butt;stroke-linejoin:miter;stroke-miterlimit:4;stroke-dasharray:none;stroke-opacity:1" />
      <path
         sodipodi:nodetypes="cssc"
         inkscape:connector-curvature="0"
         id="path4202"
         d="m 405.41918,497.96945 c 0.375,0.75 1.14515,3.216 3.89515,4.216 2.75,1 22.51018,1.91919 25.44584,0.94822 1.91729,-0.63414 3.90143,-3.39147 3.90143,-3.39147"
         style="fill:none;fill-rule:evenodd;stroke:#ff0000;stroke-width:1.41732287;stroke-linecap:butt;stroke-linejoin:miter;stroke-miterlimit:4;stroke-dasharray:none;stroke-opacity:1" />
      <path
         sodipodi:nodetypes="csssc"
         inkscape:connector-curvature="0"
         id="path4204"
         d="m 403.53699,510.82542 c 0.17678,-0.35355 1.01647,-2.2981 2.96101,-3.0936 1.94454,-0.79549 8.82839,-0.3129 14.43947,-0.15939 5.90937,0.16167 12.36147,0.90672 14.13217,2.40702 1.5723,1.3322 1.95007,3.49188 2.30362,4.28737"
         style="fill:none;fill-rule:evenodd;stroke:#ff0000;stroke-width:1.41732287;stroke-linecap:butt;stroke-linejoin:miter;stroke-miterlimit:4;stroke-dasharray:none;stroke-opacity:1" />
      <path
         sodipodi:nodetypes="csszc"
         inkscape:connector-curvature="0"
         id="path4206"
         d="m 462.00822,505.35334 c 0,0 -0.17612,2.05308 0.0739,3.17808 0.25,1.125 4.85539,3.76386 12.98039,6.13886 8.125,2.375 17.05144,5.07451 18,4.75 0.94856,-0.32451 2.4375,-1.375 2.6875,-2.125"
         style="fill:none;fill-rule:evenodd;stroke:#ff0000;stroke-width:1.41732287;stroke-linecap:butt;stroke-linejoin:miter;stroke-miterlimit:4;stroke-dasharray:none;stroke-opacity:1" />
      <path
         sodipodi:nodetypes="ccssc"
         inkscape:connector-curvature="0"
         id="path4208"
         d="m 459.88456,519.62006 c -0.0518,-3.70389 2.63579,-3.31889 5.23008,-3.18642 2.74004,0.17677 10.33279,2.56949 13.42614,3.40425 3.29181,0.88832 11.30917,3.11449 12.19132,5.21805 0.34859,0.83125 0.92807,3.53553 0.83968,3.97748"
         style="fill:none;fill-rule:evenodd;stroke:#ff0000;stroke-width:1.41732287;stroke-linecap:butt;stroke-linejoin:miter;stroke-miterlimit:4;stroke-dasharray:none;stroke-opacity:1" />
      <path
         sodipodi:nodetypes="csscc"
         inkscape:connector-curvature="0"
         id="path4210"
         d="m 480.37499,303.92028 c 0,0 14.56739,-11.86612 34.69239,-8.99112 20.125,2.875 40.01143,33.15335 45.66828,61.08407 5.65686,27.93072 5.83363,48.68738 5.83363,48.68738 l -53.1943,-0.90533"
         style="fill:none;fill-rule:evenodd;stroke:#ff0000;stroke-width:1.41732287;stroke-linecap:butt;stroke-linejoin:miter;stroke-miterlimit:4;stroke-dasharray:none;stroke-opacity:1" />
      <path
         sodipodi:nodetypes="cssc"
         inkscape:connector-curvature="0"
         id="path4212"
         d="m 486.04751,312.17261 c 0,0 15.11441,-10.6066 26.60489,-4.41942 11.49049,6.18719 31.84759,32.79209 34.34759,58.79209 2.5,26 1.5,37.5 1.5,37.5"
         style="fill:none;fill-rule:evenodd;stroke:#ff0000;stroke-width:1.41732287;stroke-linecap:butt;stroke-linejoin:miter;stroke-miterlimit:4;stroke-dasharray:none;stroke-opacity:1" />
      <path
         inkscape:connector-curvature="0"
         id="path4214"
         d="m 490.55532,319.42046 c 0,0 3.53553,-5.48008 10.42982,-3.00521 6.89429,2.47488 22.76485,21.38003 25.76485,42.63003 3,21.25 -1.01611,44.87443 -1.01611,44.87443"
         style="fill:none;fill-rule:evenodd;stroke:#ff0000;stroke-width:1.41732287;stroke-linecap:butt;stroke-linejoin:miter;stroke-miterlimit:4;stroke-dasharray:none;stroke-opacity:1" />
    </g>
  </g>
  <WCB
     pausedposy="0"
     pausedposx="0"
     lastknownposy="0"
     lastknownposx="0"
     lastpathnc="0"
     lastpath="0"
     node="0"
     layer="0" />
</svg>
