<?xml version="1.0" encoding="UTF-8" standalone="no"?>
<!-- Created with Inkscape (http://www.inkscape.org/) -->

<svg
   xmlns:osb="http://www.openswatchbook.org/uri/2009/osb"
   xmlns:dc="http://purl.org/dc/elements/1.1/"
   xmlns:cc="http://creativecommons.org/ns#"
   xmlns:rdf="http://www.w3.org/1999/02/22-rdf-syntax-ns#"
   xmlns:svg="http://www.w3.org/2000/svg"
   xmlns="http://www.w3.org/2000/svg"
   xmlns:sodipodi="http://sodipodi.sourceforge.net/DTD/sodipodi-0.dtd"
   xmlns:inkscape="http://www.inkscape.org/namespaces/inkscape"
   width="180mm"
   height="180mm"
   viewBox="0 0 637.79528 637.79527"
   id="svg3409"
   version="1.1"
   inkscape:version="0.91 r"
   sodipodi:docname="8.svg">
  <sodipodi:namedview
     id="base"
     pagecolor="#ffffff"
     bordercolor="#666666"
     borderopacity="1.0"
     inkscape:pageopacity="0.0"
     inkscape:pageshadow="2"
     inkscape:zoom="0.70710682"
     inkscape:cx="207.19978"
     inkscape:cy="425.74441"
     inkscape:document-units="mm"
     inkscape:current-layer="layer1"
     showgrid="false"
     inkscape:window-width="1851"
     inkscape:window-height="904"
     inkscape:window-x="65"
     inkscape:window-y="24"
     inkscape:window-maximized="1"
     units="mm" />
  <defs
     id="defs3411">
    <linearGradient
       id="linearGradient4148"
       osb:paint="solid">
      <stop
         style="stop-color:#550044;stop-opacity:1;"
         offset="0"
         id="stop4150" />
    </linearGradient>
  </defs>
  <metadata
     id="metadata3414">
    <rdf:RDF>
      <cc:Work
         rdf:about="">
        <dc:format>image/svg+xml</dc:format>
        <dc:type
           rdf:resource="http://purl.org/dc/dcmitype/StillImage" />
        <dc:title />
      </cc:Work>
    </rdf:RDF>
  </metadata>
  <g
     inkscape:groupmode="layer"
     id="layer1"
     inkscape:label="Layer 3"
     style="display:inline">
    <g
       inkscape:groupmode="layer"
       id="layer2"
       inkscape:label="Layer 4"
       style="display:inline" />
    <g
       id="g3351"
       transform="matrix(1.2039393,0,0,1.0486533,-93.166763,-29.64237)">
      <path
         sodipodi:nodetypes="ccszsc"
         inkscape:connector-curvature="0"
         id="path4175"
         d="m 320.24998,510.79528 c -1.27269,16.54336 4.70206,68.95832 16.04289,87.59835 2.71967,3.57843 15.45711,2.65165 16.95711,0.90165 1.5,-1.75 -0.70078,-30.40148 1.46231,-51.88388 2.16309,-21.48241 7.62294,-50.26358 9.03769,-51.01257 l 4.25,-2.25"
         style="display:inline;opacity:1;fill:none;fill-opacity:1;stroke:#ff0000;stroke-width:1.41732287;stroke-miterlimit:4;stroke-dasharray:none;stroke-dashoffset:0;stroke-opacity:1" />
      <path
         sodipodi:nodetypes="csccsc"
         inkscape:connector-curvature="0"
         id="path4150"
         d="m 412.59909,350.19508 c 0.21238,0.30684 -0.0946,4.66028 0.19119,4.89729 11.23912,9.32125 19.6843,29.69809 19.6843,46.88281 0,53.70247 -57.38256,103.19258 -127.42614,111.47968 m -40.7617,0.65838 c -28.56654,-2.43023 -55.38856,-6.85971 -76.56211,-19.52557"
         style="opacity:1;fill:none;fill-opacity:1;stroke:#ff0000;stroke-width:1.41732287;stroke-miterlimit:4;stroke-dasharray:none;stroke-dashoffset:0;stroke-opacity:1" />
      <path
         sodipodi:nodetypes="czssszccczsss"
         inkscape:connector-curvature="0"
         id="path4153"
         d="m 193.43933,477.8633 c 2.94454,10.34619 -23.39611,36.56942 -28.18934,52.18198 -4.79323,15.61256 20.55655,55.85945 13.91206,62.68934 -2.88391,2.96437 -15.06081,1.91134 -17.64337,0.15718 -22.00511,-14.94658 -26.80821,-59.37079 -24.37745,-70.95743 2.71604,-12.94647 19.06758,-43.78202 15.53423,-55.50957 -3.53334,-11.72754 -32.51261,-67.66617 -3.75025,-115.94032 -34.25596,30.04161 -65.72362,-26.90975 -46.28524,-46.08169 1.89787,-2.33259 13.32659,5.97353 26.7469,11.84758 19.4201,8.87927 40.03971,11.00348 40.0447,14.2453 0.005,3.24182 -1.78634,6.58976 5.71193,2.54261 3.05819,-1.65064 17.56155,-12.48332 38.28178,-19.46102 30.08304,-10.13071 70.96366,-12.50126 99.62633,-7.82799"
         style="opacity:1;fill:none;fill-opacity:1;stroke:#ff0000;stroke-width:1.41732287;stroke-miterlimit:4;stroke-dasharray:none;stroke-dashoffset:0;stroke-opacity:1" />
      <path
         sodipodi:nodetypes="csssc"
         inkscape:connector-curvature="0"
         id="path4155"
         d="m 201.17187,501.67723 c 0,0 7.21919,49.99908 25.27907,80.43339 3.51517,5.92372 19.37007,0.78741 18.9151,-2.82843 -1.1447,-9.09749 -10.31249,-56.09406 -7.62547,-67.58286 0.1194,-0.51051 2.5544,-0.35116 2.5544,-0.35116"
         style="opacity:1;fill:none;fill-opacity:1;stroke:#ff0000;stroke-width:1.41732287;stroke-miterlimit:4;stroke-dasharray:none;stroke-dashoffset:0;stroke-opacity:1" />
      <path
         sodipodi:nodetypes="ccssc"
         inkscape:connector-curvature="0"
         id="path4157"
         d="m 257.24999,477.79528 c 2.30088,37.81111 17.14677,98.99161 36.8007,124.92678 9.0259,7.12833 22.33423,5.21061 24.96706,1.31802 3.27353,-4.83986 -17.39644,-39.32323 -13.64645,-87.82323 3.19159,-41.27803 15.37868,-56.67157 15.37868,-56.67157"
         style="opacity:1;fill:none;fill-opacity:1;stroke:#ff0000;stroke-width:1.41732287;stroke-miterlimit:4;stroke-dasharray:none;stroke-dashoffset:0;stroke-opacity:1" />
      <path
         sodipodi:nodetypes="csc"
         inkscape:connector-curvature="0"
         id="path4177"
         d="m 296.98483,327.02186 c 25.47472,-17.53455 69.24924,-104.76613 74.43452,-123.30924 0.35598,-1.27302 -4.62455,0.49188 -4.64726,-0.0986"
         style="opacity:1;fill:none;fill-opacity:1;stroke:#ff0000;stroke-width:1.41732287;stroke-miterlimit:4;stroke-dasharray:none;stroke-dashoffset:0;stroke-opacity:1" />
      <path
         sodipodi:nodetypes="csc"
         inkscape:connector-curvature="0"
         id="path4179"
         d="m 415.96007,282.42567 c 1.17035,1.08126 3.39509,3.16883 3.1848,4.38681 -3.47422,20.12231 -8.97452,83.73752 -6.10874,95.07081"
         style="opacity:1;fill:none;fill-opacity:1;stroke:#ff0000;stroke-width:1.41732287;stroke-miterlimit:4;stroke-dasharray:none;stroke-dashoffset:0;stroke-opacity:1" />
      <path
         sodipodi:nodetypes="czzssssc"
         inkscape:connector-curvature="0"
         id="path4181"
         d="m 385.49998,235.7953 c 5.9194,44.65224 130.2941,136.69496 129.73222,44.08578 -0.56188,-92.60919 -9.91104,-106.31644 -11.73223,-113.58578 -1.82119,-7.26934 4.25,-5.75 6,-4.25 1.75,1.5 58.25,45.875 69.75,49.375 3.83416,1.16692 1.75022,7.97761 -3.61351,11.68306 -3.97595,2.74672 -34.99257,8.8105 -60.25586,-4.77408 -0.90708,-0.48775 -2.50563,-2.15898 -2.50563,-2.15898"
         style="opacity:1;fill:none;fill-opacity:1;stroke:#ff0000;stroke-width:1.41732287;stroke-miterlimit:4;stroke-dasharray:none;stroke-dashoffset:0;stroke-opacity:1" />
      <ellipse
         ry="6.7499995"
         rx="4.9999995"
         cy="204.4203"
         cx="446.62497"
         id="path4204"
         style="opacity:1;fill:none;fill-opacity:1;stroke:#ff0000;stroke-width:1.41732287;stroke-miterlimit:4;stroke-dasharray:none;stroke-dashoffset:0;stroke-opacity:1" />
      <ellipse
         ry="6.7499995"
         rx="4.9999995"
         cy="211.0453"
         cx="494.24997"
         id="path4204-7"
         style="display:inline;opacity:1;fill:none;fill-opacity:1;stroke:#ff0000;stroke-width:1.41732287;stroke-miterlimit:4;stroke-dasharray:none;stroke-dashoffset:0;stroke-opacity:1" />
      <path
         sodipodi:nodetypes="csszzzczzssc"
         inkscape:connector-curvature="0"
         id="path4148"
         d="m 423.52213,152.46059 c 0,0.57311 1.79868,-0.71221 1.77233,-0.14379 -1.2342,26.62793 -31.45325,52.00326 -68.16949,52.00326 -19.71664,0 -46.29798,-11.07524 -46.66679,-15.63001 -0.36882,-4.55476 18.06555,-8.77385 27.51827,-12.89945 9.45271,-4.1256 12.8053,-4.89878 23.71322,-14.58092 10.90791,-9.68213 23.29179,-17.25801 37.36463,-19.89075 0.40941,-37.07337 -30.69441,-60.158947 -48.92305,-60.158947 -18.22863,0 -26.64595,8.964984 -29.93614,-0.78746 -3.29019,-9.752443 23.10758,-21.67617 40.69451,-21.676169 32.63311,2e-6 59.69872,25.3993 60.64487,56.184916 0.0173,0.56451 -1.47392,1.91233 -1.47392,2.48084"
         style="opacity:1;fill:none;fill-opacity:1;stroke:#ff0000;stroke-width:1.36781049;stroke-miterlimit:4;stroke-dasharray:none;stroke-dashoffset:0;stroke-opacity:1" />
      <path
         sodipodi:nodetypes="sszssssssssss"
         inkscape:connector-curvature="0"
         id="path4176"
         d="m 460.62498,124.7953 c -4.78846,1.77173 3.50298,-19.05923 -14,-19.25 -22.36136,-0.24372 -30.22228,16.69567 -31.8125,19.0625 -1.59022,2.36683 -24.12385,10.55914 -12.517,25.03001 9.625,12 20.1127,2.21263 22.79289,2.35311 3.61244,0.18934 2.53661,14.05438 16.53661,13.92938 8.50058,-0.0759 12.59807,-10.901 14.37048,-13.11186 3.61525,-4.50957 10.29079,21.53577 38.27216,12.28598 11.14109,-3.6829 12.81695,-10.89007 8.06212,-15.57793 -2.92204,-2.88089 -11.62815,-3.60016 -12.12799,-5.54689 -1.31319,-5.11449 19.79778,-13.41947 8.13173,-26.5165 -6.09762,-6.84556 -16.38312,-6.67635 -23.76114,-3.29336 -7.223,3.31191 -11.57855,9.7591 -13.94736,10.63556 z"
         style="opacity:1;fill:none;fill-opacity:1;stroke:#ff0000;stroke-width:1.41732287;stroke-miterlimit:4;stroke-dasharray:none;stroke-dashoffset:0;stroke-opacity:1" />
      <path
         sodipodi:nodetypes="cszszcc"
         inkscape:connector-curvature="0"
         id="path4178"
         d="m 484.58154,207.51621 c 14.87831,-10.59683 21.08983,-24.20041 23.74691,-38.44213 5.33221,-28.58023 -42.68883,-55.13939 -68.55425,-57.89535 -25.86541,-2.75596 -29.75355,0.93933 -25.94749,5.75338 4.74073,5.99624 47.74211,17.53448 58.38973,29.70935 10.64763,12.17487 3.44862,17.83619 2.39392,20.11658 -1.84826,-0.4429 -3.42798,-1.06019 -6.10196,-0.80015"
         style="opacity:1;fill:none;fill-opacity:1;stroke:#ff0000;stroke-width:1.46695411;stroke-miterlimit:4;stroke-dasharray:none;stroke-dashoffset:0;stroke-opacity:1"
         transform="matrix(0.99357893,-0.11314109,0.10836585,0.99411108,0,0)" />
      <path
         sodipodi:nodetypes="cc"
         inkscape:connector-curvature="0"
         id="path4182"
         d="m 479.41837,290.78264 c 11.31371,25.10229 21.21321,9.72272 22.27387,-0.35355"
         style="opacity:1;fill:none;fill-opacity:1;stroke:#ff0000;stroke-width:1.41732287;stroke-miterlimit:4;stroke-dasharray:none;stroke-dashoffset:0;stroke-opacity:1" />
    </g>
  </g>
  <WCB
     pausedposy="0"
     pausedposx="0"
     lastknownposy="0"
     lastknownposx="0"
     lastpathnc="0"
     lastpath="0"
     node="0"
     layer="0" />
</svg>
