<?xml version="1.0" encoding="UTF-8" standalone="no"?>
<!-- Created with Inkscape (http://www.inkscape.org/) -->

<svg
   xmlns:dc="http://purl.org/dc/elements/1.1/"
   xmlns:cc="http://creativecommons.org/ns#"
   xmlns:rdf="http://www.w3.org/1999/02/22-rdf-syntax-ns#"
   xmlns:svg="http://www.w3.org/2000/svg"
   xmlns="http://www.w3.org/2000/svg"
   xmlns:sodipodi="http://sodipodi.sourceforge.net/DTD/sodipodi-0.dtd"
   xmlns:inkscape="http://www.inkscape.org/namespaces/inkscape"
   width="180mm"
   height="180mm"
   viewBox="0 0 637.79528 637.79527"
   id="svg3409"
   version="1.1"
   inkscape:version="0.91 r"
   sodipodi:docname="9.svg">
  <sodipodi:namedview
     id="base"
     pagecolor="#ffffff"
     bordercolor="#666666"
     borderopacity="1.0"
     inkscape:pageopacity="0.0"
     inkscape:pageshadow="2"
     inkscape:zoom="0.70000001"
     inkscape:cx="191.79125"
     inkscape:cy="346.99223"
     inkscape:document-units="mm"
     inkscape:current-layer="layer2"
     showgrid="false"
     inkscape:window-width="1851"
     inkscape:window-height="904"
     inkscape:window-x="65"
     inkscape:window-y="24"
     inkscape:window-maximized="1"
     units="mm" />
  <defs
     id="defs3411" />
  <metadata
     id="metadata3414">
    <rdf:RDF>
      <cc:Work
         rdf:about="">
        <dc:format>image/svg+xml</dc:format>
        <dc:type
           rdf:resource="http://purl.org/dc/dcmitype/StillImage" />
        <dc:title />
      </cc:Work>
    </rdf:RDF>
  </metadata>
  <g
     inkscape:groupmode="layer"
     id="layer2"
     inkscape:label="Layer 2"
     style="display:inline">
    <g
       id="g3357"
       transform="matrix(1.9554254,0,0,1.4557167,-257.82886,-121.6717)">
      <path
         sodipodi:nodetypes="czszzzzzzsscscccc"
         inkscape:connector-curvature="0"
         id="path4218"
         d="m 206.35602,418.20902 c -7.72977,5.60055 -25.47682,12.77993 -51.85461,12.94525 -26.3778,0.16532 -56.884165,-28.34587 -52.64705,-61.34176 3.8587,-30.04897 28.03044,-57.6001 60.08125,-56.14173 32.05082,1.45838 28.45521,31.19831 26.51247,41.13929 -1.94275,9.94098 -18.49395,25.63256 -30.91888,26.65656 -12.42493,1.02399 -18.15207,-4.42025 -20.16335,-7.83989 -2.01127,-3.41963 -1.45415,-10.80443 4.41987,-14.28176 5.87403,-3.47733 9.91145,2.20638 12.60242,3.38723 2.69097,1.18087 7.72015,1.10926 12.22295,-1.62352 3.8751,-2.35178 6.97265,-7.34049 7.59897,-12.0878 1.35411,-10.26365 -4.48821,-20.07002 -16.84225,-19.6289 -21.37875,0.75787 -37.48498,18.1846 -40.29365,39.47385 -1.41505,10.7251 1.72476,20.80739 8.66479,27.82369 l 0.21829,-0.14363 c 7.45355,9.46924 22.86747,16.03563 41.30104,15.39923 15.07774,-0.52998 26.31297,-3.29134 36.34733,-9.95653 0,0 0.77693,-0.22102 1.00089,-1.57997"
         style="opacity:1;fill:none;fill-opacity:1;stroke:#ff0000;stroke-width:0.8329289;stroke-miterlimit:4;stroke-dasharray:none;stroke-dashoffset:0"
         transform="matrix(0.99939223,0.03485933,0.1318519,0.99126943,0,0)" />
      <path
         sodipodi:nodetypes="czzzzszzsc"
         inkscape:connector-curvature="0"
         id="path4221"
         d="m 308.03572,325.47385 c 0,0 0.4319,20.7598 -6.22834,29.27673 -6.66024,8.51693 -15.38182,14.79527 -23.05738,17.24112 -7.67556,2.44586 -18.10494,13.29708 -21.17975,29.0185 -3.07481,15.72141 12.96546,38.57079 17.42975,45.53507 4.46428,6.96429 9.79929,18.33586 8.13134,24.17368 -1.78571,6.25 -2.94379,16.83648 -0.44379,23.97934 2.5,7.14285 25.26097,1.38036 34.92449,1.41587 9.66352,0.0355 31.63778,3.36594 34.47326,0.96683 2.4538,-2.07618 0.26676,-15.73595 -4.9245,-16.45024"
         style="fill:none;fill-rule:evenodd;stroke:#ff0000;stroke-width:1px;stroke-linecap:butt;stroke-linejoin:miter;stroke-opacity:1" />
      <path
         sodipodi:nodetypes="czszzzzzssc"
         inkscape:connector-curvature="0"
         id="path4223"
         d="m 316.68282,353.43733 c 0.0656,-0.0328 8.20799,16.91938 8.71257,24.62247 0.50457,7.70309 1.73098,20.08474 9.47018,24.24366 7.86488,4.22646 16.92256,2.64305 21.2132,3.91434 4.29065,1.2713 2.6888,11.15394 -0.38143,15.89087 -3.07024,4.73693 -21.84036,12.28303 -22.56147,14.66888 -0.72111,2.38585 1.3418,10.98268 2.97707,17.36866 1.63527,6.38598 2.50471,9.48391 8.85755,15.07351 6.35284,5.58961 10.95587,6.11323 13.48125,11.03772 2.52538,4.92449 2.12361,11.83396 1.7276,12.35007 -0.5735,0.74742 -5.42059,2.94249 -7.21265,1.9157"
         style="fill:none;fill-rule:evenodd;stroke:#ff0000;stroke-width:1px;stroke-linecap:butt;stroke-linejoin:miter;stroke-opacity:1" />
      <path
         sodipodi:nodetypes="czzszzc"
         inkscape:connector-curvature="0"
         id="path4225"
         d="m 354.85941,423.22978 c 0,0 -7.73994,8.2693 -8.70993,11.82595 -0.97,3.55665 -0.22964,10.47774 0.98848,14.20451 1.21811,3.72677 5.91208,10.6609 10.6299,13.71361 4.55357,2.94643 9.07278,5.33177 10.88651,8.59835 1.81372,3.26659 3.64802,9.49559 1.65047,12.77157 -1.99755,3.27598 -9.67984,5.14793 -9.9477,4.25508"
         style="fill:none;fill-rule:evenodd;stroke:#ff0000;stroke-width:1px;stroke-linecap:butt;stroke-linejoin:miter;stroke-opacity:1" />
      <path
         sodipodi:nodetypes="csc"
         inkscape:connector-curvature="0"
         id="path4227"
         d="m 360.81386,472.88787 c 0,0 3.85121,3.85121 4.54569,6.81854 0.64886,2.77244 0.56821,7.76554 0.56821,7.76554"
         style="fill:none;fill-rule:evenodd;stroke:#ff0000;stroke-width:1px;stroke-linecap:butt;stroke-linejoin:miter;stroke-opacity:1" />
      <path
         sodipodi:nodetypes="cszzsc"
         inkscape:connector-curvature="0"
         id="path4229"
         d="m 356.78571,406.54528 c 0,0 1.78257,1.28227 3.21429,5.35714 1.16072,3.30357 4.01785,7.58928 7.5,6.78571 3.48215,-0.80357 5.97569,-5.95634 6.60714,-8.92857 0.63145,-2.97223 -0.89438,-9.96754 -1.69642,-12.23214 -1.51786,-4.28572 -6.51786,-10.08929 -6.51786,-10.08929"
         style="fill:none;fill-rule:evenodd;stroke:#ff0000;stroke-width:1px;stroke-linecap:butt;stroke-linejoin:miter;stroke-opacity:1" />
      <path
         sodipodi:nodetypes="cssszsszc"
         inkscape:connector-curvature="0"
         id="path4231"
         d="m 348.83177,336.19077 c 0,0 -0.93516,-0.8593 -1.22137,-0.67414 -0.79477,0.51416 -2.86822,2.46226 -2.64067,3.94182 0.46176,3.00245 13.97887,23.28209 18.27202,27.3227 4.29315,4.04061 13.39586,5.92359 17.52186,9.53517 4.126,3.61159 8.44098,16.89128 7.13497,21.63086 -1.26046,4.57428 -4.47392,4.60565 -4.54569,5.68211 -0.12627,1.89404 -1.45868,7.10049 -4.35628,8.08122 -2.8976,0.98072 -5.24017,-1.38896 -5.24017,-1.38896"
         style="fill:none;fill-rule:evenodd;stroke:#ff0000;stroke-width:1px;stroke-linecap:butt;stroke-linejoin:miter;stroke-opacity:1" />
      <path
         sodipodi:nodetypes="csc"
         inkscape:connector-curvature="0"
         id="path4233"
         d="m 383.32291,403.60379 c 0,0 -0.37884,-6.06091 -1.57837,-9.78584 -0.79791,-2.47781 -5.02077,-10.20231 -6.03093,-10.89679"
         style="fill:none;fill-rule:evenodd;stroke:#ff0000;stroke-width:1px;stroke-linecap:butt;stroke-linejoin:miter;stroke-opacity:1" />
      <path
         sodipodi:nodetypes="cssssscsccssscssssc"
         inkscape:connector-curvature="0"
         id="path4235"
         d="m 340.15998,322.60046 c -0.24256,0.0542 0.49778,-2.39204 0.25671,-2.33875 -24.12511,5.33357 -41.32073,6.38007 -54.26127,5.71507 -20.51541,-1.05427 -29.48532,-6.11517 -36.09677,-12.30003 -6.61144,-6.18486 -5.52009,-16.72485 -3.61739,-21.94787 1.9027,-5.22302 5.96285,-7.01866 9.23977,-9.40253 2.82239,-2.05321 8.30787,-3.36827 8.30787,-3.36827 -10.08721,-6.43132 -20.32622,-16.78908 -29.15275,-36.90417 -8.82653,-20.11508 1.61561,-50.95524 24.09242,-62.47292 27.47068,-12.31991 41.07143,0 41.07143,0 0,0 14.17372,-18.95963 28.92857,-22.85714 14.75486,-3.89751 33.52793,0.7488 48.74927,14.08269 12.00807,10.51906 15.75522,24.13782 16.25073,45.3816 0.14489,6.21183 -3.32843,19.37803 -6.69328,26.0672 0,0 8.56587,-2.00217 15.95114,1.09889 7.38527,3.10106 9.47849,7.59304 10.91312,12.68452 1.64398,5.83445 1.26979,12.11762 -1.67305,17.56218 -3.74281,6.92458 -17.62717,21.61017 -35.09138,32.54173 -0.25764,0.16127 0.81835,2.02833 0.81835,2.02833"
         style="fill:none;fill-rule:evenodd;stroke:#ff0000;stroke-width:1px;stroke-linecap:butt;stroke-linejoin:miter;stroke-opacity:1" />
      <path
         sodipodi:nodetypes="cscszcsscsczsc"
         inkscape:connector-curvature="0"
         id="path4259"
         d="m 300.92717,232.4727 c -26.04759,-18.24881 -43.40229,-46.76591 -43.40229,-69.76891 0,-36.94733 21.08332,-55.01677 39.6656,-64.176344 -9.35908,0.409499 -17.63326,-3.212922 -18.23874,-8.071116 -0.60549,-4.858195 5.59443,-8.780676 12.68826,-9.068619 7.09382,-0.287944 16.92298,2.283803 20.24904,3.640016 -3.01327,-1.509042 -15.78789,-6.913294 -20.37448,-12.581694 -3.83498,-4.739524 -4.42897,-11.732066 -4.21675,-14.243272 0.46601,-5.514574 3.66439,-8.623772 8.75494,-9.690396 6.24658,-1.298152 16.49152,4.595542 21.00887,9.076988 7.15957,7.102668 14.90532,15.315151 14.90532,15.315151 10.61249,-7.162397 39.53998,-13.59261 59.17399,-3.588631 19.63401,10.00398 41.69053,33.516817 47.08057,60.980207 1.70605,8.69268 3.68079,22.794 2.26675,30.38392"
         style="opacity:1;fill:none;fill-opacity:1;stroke:#ff0000;stroke-width:0.90708661;stroke-miterlimit:4;stroke-dasharray:none;stroke-dashoffset:0"
         transform="matrix(0.98127956,0.19258875,-0.19258875,0.98127956,0,0)" />
      <path
         sodipodi:nodetypes="czsc"
         inkscape:connector-curvature="0"
         id="path4267"
         d="m 404.67242,224.75695 c 2.14507,-4.08131 9.31747,-8.21579 17.54041,-8.21579 8.22293,0 17.76611,10.5338 17.76611,22.97719 0,12.44339 -12.86868,23.69146 -24.99826,23.69147"
         style="opacity:1;fill:none;fill-opacity:1;stroke:#ff0000;stroke-width:0.88239354;stroke-miterlimit:4;stroke-dasharray:none;stroke-dashoffset:0" />
      <path
         sodipodi:nodetypes="csc"
         inkscape:connector-curvature="0"
         id="path4270"
         d="m 418.75,236.63456 c 0,0 -2.44696,1.73698 -4.32834,4.61499 -1.80089,2.7549 -3.03871,6.62256 -3.08237,8.06358"
         style="fill:none;fill-rule:evenodd;stroke:#ff0000;stroke-width:1px;stroke-linecap:butt;stroke-linejoin:miter;stroke-opacity:1" />
      <path
         sodipodi:nodetypes="cssc"
         inkscape:connector-curvature="0"
         id="path4272"
         d="m 250.73364,314.38003 c -16.69706,7.19733 -35.18819,-10.7662 -35.18819,-22.72301 0,-11.81529 10.87075,-19.27654 24.60741,-17.86872 0.16454,0.0169 0.56324,0.81417 0.72873,0.8336"
         style="opacity:1;fill:none;fill-opacity:1;stroke:#ff0000;stroke-width:0.90697312;stroke-miterlimit:4;stroke-dasharray:none;stroke-dashoffset:0" />
      <path
         sodipodi:nodetypes="csc"
         inkscape:connector-curvature="0"
         id="path4275"
         d="m 230.78829,289.54519 c 0,0 4.54568,-1.45209 8.64943,0.0631 4.10374,1.51523 4.76665,5.01919 6.21876,5.52427"
         style="fill:none;fill-rule:evenodd;stroke:#ff0000;stroke-width:1px;stroke-linecap:butt;stroke-linejoin:miter;stroke-opacity:1" />
      <path
         sodipodi:nodetypes="zczcz"
         inkscape:connector-curvature="0"
         id="path4279"
         d="m 255.08928,204.26849 c -2.16947,2.10306 -4.41964,6.94197 -4.41964,6.94197 0,0 -4.15178,-5.73662 1.20536,-9.93305 5.35715,-4.19642 9.53125,-1.60714 9.53125,-1.60714 0,0 -4.14749,2.49517 -6.31697,4.59822 z"
         style="fill:none;fill-rule:evenodd;stroke:#ff0000;stroke-width:1px;stroke-linecap:butt;stroke-linejoin:miter;stroke-opacity:1" />
      <path
         sodipodi:nodetypes="zczcz"
         inkscape:connector-curvature="0"
         id="path4279-8"
         d="m 353.03224,177.97047 c -2.67043,-1.41361 -7.9678,-2.05874 -7.9678,-2.05874 0,0 4.17331,-5.72097 9.81952,-1.92238 5.64619,3.79861 4.47315,8.56846 4.47315,8.56846 0,0 -3.65445,-3.17372 -6.32487,-4.58734 z"
         style="fill:none;fill-rule:evenodd;stroke:#ff0000;stroke-width:1px;stroke-linecap:butt;stroke-linejoin:miter;stroke-opacity:1" />
      <path
         inkscape:connector-curvature="0"
         id="path4165"
         d="m 287.31055,240.58594 a 12.753176,8.8388348 73.012616 0 0 -1.75391,0.27148 12.753176,8.8388348 73.012616 0 0 -4.89844,5.46485 l 0.64258,0.40039 4.83984,3.01562 -5.03124,2.68555 -0.88477,0.4707 a 12.753176,8.8388348 73.012616 0 0 0.60547,2.74219 12.753176,8.8388348 73.012616 0 0 12.17773,9.61328 12.753176,8.8388348 73.012616 0 0 4.72852,-14.7793 12.753176,8.8388348 73.012616 0 0 -10.42578,-9.88476 z"
         style="opacity:1;fill:none;fill-opacity:1;stroke:#ff0000;stroke-width:0.90708661;stroke-miterlimit:4;stroke-dasharray:none;stroke-dashoffset:0;stroke-opacity:1" />
      <path
         id="path4165-2"
         d="m 343.4615,221.0135 a 12.753176,8.8388348 66.227432 0 0 -1.70955,0.4768 12.753176,8.8388348 66.227432 0 0 -4.21848,6.00531 l 0.68539,0.32167 5.16223,2.42269 -4.67872,3.26116 -0.82296,0.57194 a 12.753176,8.8388348 66.227432 0 0 0.92521,2.65145 12.753176,8.8388348 66.227432 0 0 13.22822,8.10718 12.753176,8.8388348 66.227432 0 0 2.94927,-15.23444 12.753176,8.8388348 66.227432 0 0 -11.52061,-8.58376 z"
         style="opacity:1;fill:none;fill-opacity:1;stroke:#ff0000;stroke-width:0.90708661;stroke-miterlimit:4;stroke-dasharray:none;stroke-dashoffset:0;stroke-opacity:1"
         inkscape:connector-curvature="0" />
      <path
         sodipodi:nodetypes="csssc"
         inkscape:connector-curvature="0"
         id="path4185"
         d="m 255.48855,318.84859 c 5.18685,0.50512 9.12377,2.97414 9.12377,5.94386 0,3.33492 -4.96471,6.0384 -11.08899,6.0384 -6.12428,0 -11.08899,-2.70348 -11.08899,-6.0384 0,-2.86011 3.65166,-5.25579 8.55468,-5.87998"
         style="opacity:1;fill:none;fill-opacity:1;stroke:#ff0000;stroke-width:1.04304111;stroke-miterlimit:4;stroke-dasharray:none;stroke-dashoffset:0;stroke-opacity:1"
         transform="matrix(0.97835024,-0.20695606,0.23311931,0.97244814,0,0)" />
      <path
         inkscape:connector-curvature="0"
         id="path4191"
         d="m 348.57143,336.00956 c 3.86171,2.87393 9.82143,-0.71428 12.85714,2.85714 3.03572,3.57143 4.79976,14.98731 10.51405,18.2016 5.71428,3.21429 15.81338,4.05097 20.51777,-0.89286 4.70439,-4.94383 6.3641,-11.37642 5.26677,-17.17721 -1.11476,-5.89286 -8.0843,-11.29224 -11.65573,-16.29224 -3.57143,-5 -5.57285,-8.70933 -9.01786,-17.05357 -1.99028,-4.82069 -12.05357,-3.75 -14.55357,-7.32143 -2.5,-3.57143 -9.88828,-12.58108 -14.88828,-9.3668 -5,3.21429 0.60257,10.6168 -0.64743,15.97394 -1.25,5.35715 -7.67858,13.39286 -6.60715,18.57143 1.07143,5.17857 4.35259,9.62607 8.21429,12.5 z"
         style="fill:none;fill-rule:evenodd;stroke:#ff0000;stroke-width:1px;stroke-linecap:butt;stroke-linejoin:miter;stroke-opacity:1" />
      <path
         inkscape:connector-curvature="0"
         id="path4200"
         d="m 271.35223,292.07057 c 0,0 0,-3.283 2.14657,-5.42957 2.14658,-2.14658 4.41942,-1.89404 4.41942,-1.89404"
         style="fill:none;fill-rule:evenodd;stroke:#ff0000;stroke-width:1px;stroke-linecap:butt;stroke-linejoin:miter;stroke-opacity:1" />
      <path
         inkscape:connector-curvature="0"
         id="path4202"
         d="m 380.0699,252.80089 c 0,0 3.78807,-1.89404 6.81853,-0.37881 3.03045,1.51523 4.04061,4.29315 4.04061,4.29315"
         style="fill:none;fill-rule:evenodd;stroke:#ff0000;stroke-width:1px;stroke-linecap:butt;stroke-linejoin:miter;stroke-opacity:1" />
      <path
         sodipodi:nodetypes="csssccsssc"
         inkscape:connector-curvature="0"
         id="path4204"
         d="m 272.57531,287.78005 c 0,0 1.09587,-1.71561 1.48591,-1.42738 4.39509,3.24782 34.46177,22.57968 63.456,14.80927 2.73157,-0.73206 6.058,-2.1033 8.57287,-3.3192 0.23358,-0.11293 0.48484,1.27349 0.48484,1.27349 m 10.86572,-6.75729 c 0,0 -1.3439,-1.00437 -1.12992,-1.18275 0.32216,-0.26856 0.90242,-0.73556 0.94876,-0.77449 15.05656,-12.648 24.55871,-31.53944 27.91696,-38.28567 0.36926,-0.74178 2.91153,1.07945 2.91153,1.07945"
         style="fill:none;fill-rule:evenodd;stroke:#ff0000;stroke-width:1px;stroke-linecap:butt;stroke-linejoin:miter;stroke-opacity:1" />
      <path
         sodipodi:nodetypes="csssszszzzc"
         inkscape:connector-curvature="0"
         id="path4206"
         d="m 362.55006,264.48077 c 0,0 7.49466,6.59149 7.73399,8.87041 0.29373,2.79694 -1.6415,5.24017 -2.11501,5.83994 -0.47351,0.59978 -5.33487,5.87151 -5.77681,5.99778 -0.44195,0.12627 -13.95274,-8.33376 -16.09931,-13.06885 -2.14657,-4.73509 -1.65997,-11.5571 3.15673,-17.23572 4.81669,-5.67861 9.40704,-5.1139 12.2481,-4.29315 2.84105,0.82075 15.02051,8.05833 15.9099,9.84898 0.88939,1.79065 -0.15986,5.44084 -0.52357,6.1234 -0.36371,0.68255 -2.13322,3.23417 -4.8113,3.56776 -2.67808,0.33359 -9.72272,-5.65055 -9.72272,-5.65055 z"
         style="fill:none;fill-rule:evenodd;stroke:#ff0000;stroke-width:1px;stroke-linecap:butt;stroke-linejoin:miter;stroke-opacity:1" />
    </g>
  </g>
  <WCB
     pausedposy="0"
     pausedposx="0"
     lastknownposy="0"
     lastknownposx="0"
     lastpathnc="0"
     lastpath="0"
     node="0"
     layer="0" />
</svg>
