<?xml version="1.0" encoding="UTF-8" standalone="no"?>
<!-- Created with Inkscape (http://www.inkscape.org/) -->

<svg
   xmlns:osb="http://www.openswatchbook.org/uri/2009/osb"
   xmlns:dc="http://purl.org/dc/elements/1.1/"
   xmlns:cc="http://creativecommons.org/ns#"
   xmlns:rdf="http://www.w3.org/1999/02/22-rdf-syntax-ns#"
   xmlns:svg="http://www.w3.org/2000/svg"
   xmlns="http://www.w3.org/2000/svg"
   xmlns:sodipodi="http://sodipodi.sourceforge.net/DTD/sodipodi-0.dtd"
   xmlns:inkscape="http://www.inkscape.org/namespaces/inkscape"
   width="180mm"
   height="180mm"
   viewBox="0 0 637.79528 637.79527"
   id="svg3409"
   version="1.1"
   inkscape:version="0.91 r"
   sodipodi:docname="1.svg">
  <sodipodi:namedview
     id="base"
     pagecolor="#ffffff"
     bordercolor="#666666"
     borderopacity="1.0"
     inkscape:pageopacity="0.0"
     inkscape:pageshadow="2"
     inkscape:zoom="0.35355339"
     inkscape:cx="131.63639"
     inkscape:cy="276.19483"
     inkscape:document-units="mm"
     inkscape:current-layer="layer1"
     showgrid="false"
     inkscape:window-width="1851"
     inkscape:window-height="904"
     inkscape:window-x="65"
     inkscape:window-y="24"
     inkscape:window-maximized="1"
     units="mm" />
  <defs
     id="defs3411">
    <linearGradient
       id="linearGradient4148"
       osb:paint="solid">
      <stop
         style="stop-color:#550044;stop-opacity:1;"
         offset="0"
         id="stop4150" />
    </linearGradient>
  </defs>
  <metadata
     id="metadata3414">
    <rdf:RDF>
      <cc:Work
         rdf:about="">
        <dc:format>image/svg+xml</dc:format>
        <dc:type
           rdf:resource="http://purl.org/dc/dcmitype/StillImage" />
        <dc:title />
      </cc:Work>
    </rdf:RDF>
  </metadata>
  <g
     transform="translate(0,-414.56693)"
     id="layer1"
     inkscape:groupmode="layer"
     inkscape:label="Layer 1">
    <g
       inkscape:label="Layer 1"
       id="layer1-7"
       transform="matrix(0.96119338,0,0,0.97038892,14.117116,26.574575)">
      <g
         transform="matrix(1.0810154,0.01359182,-0.01357188,1.0826026,-15.329812,-69.584215)"
         id="g4184">
        <path
           style="fill:none;fill-rule:evenodd;stroke:#00f700;stroke-width:1px;stroke-linecap:butt;stroke-linejoin:miter;stroke-opacity:1"
           d="m 112.5,627.36221 -67.96875,38.28125 0.78125,33.59375 196.875,188.28125 330.46875,-228.125 1.17188,-137.10938 L 307.8125,721.89346 113.57422,574.33486 Z"
           id="path4156-3"
           inkscape:connector-curvature="0" />
        <path
           style="fill:none;fill-rule:evenodd;stroke:#00fa00;stroke-width:1px;stroke-linecap:butt;stroke-linejoin:miter;stroke-opacity:1"
           d="m 112.89063,603.33877 -0.58594,23.63281 195.4663,168.92631 0.0691,-74.02524 -78.99708,-59.80024"
           id="path4158-5"
           inkscape:connector-curvature="0" />
        <path
           style="fill:none;fill-rule:evenodd;stroke:#00f900;stroke-width:1px;stroke-linecap:butt;stroke-linejoin:miter;stroke-opacity:1"
           d="m 62.976698,655.23612 -18.50631,10.42706 197.561772,183.8892 65.78034,-53.68432 -0.11056,-39.05439"
           id="path4160-0"
           inkscape:connector-curvature="0" />
        <path
           style="fill:none;fill-rule:evenodd;stroke:#00f700;stroke-width:1px;stroke-linecap:butt;stroke-linejoin:miter;stroke-opacity:1"
           d="m 221.38672,830.29189 20.80078,19.14063 0,38.08594 26.26953,-18.16407"
           id="path4162"
           inkscape:connector-curvature="0" />
        <path
           style="fill:none;fill-rule:evenodd;stroke:#00f700;stroke-width:1px;stroke-linecap:butt;stroke-linejoin:miter;stroke-opacity:1"
           d="m 137.89063,592.79189 -24.31641,-18.16406 c 0,0 0.97656,-4.29688 5.56641,-8.30078 4.58984,-4.00391 20.50781,-16.79688 26.26953,-20.3125 5.76172,-3.51563 15.23437,-9.08203 20.01953,-11.42578 4.78515,-2.34375 13.08594,-5.66407 17.1875,-7.03125 4.10156,-1.36719 11.13281,-3.41797 17.48047,-4.6875 6.34765,-1.26953 17.97297,-3.39288 23.84251,-3.53098 5.86953,-0.13811 51.9972,0.20716 55.86419,0.0691 3.86699,-0.13811 28.88705,-2.29979 36.89486,-5.32714 8.00781,-3.02734 23.14453,-11.42578 28.61328,-14.74609 5.46875,-3.32031 31.73828,-15.03906 41.40625,-18.35937 9.66797,-3.32032 25.48828,-7.51954 33.10547,-8.78907 7.61719,-1.26953 37.59766,-3.125 46.97266,-2.4414 9.375,0.68359 24.21875,3.80859 31.34765,6.05468 7.12891,2.2461 21.58203,7.51954 26.5625,9.96094 4.98047,2.44141 16.50391,8.88672 21.97266,12.98828 5.46875,4.10157 9.66797,6.9336 13.67187,10.35157 4.00391,3.41796 7.22657,5.46875 9.57032,8.00781 2.34375,2.53906 3.70469,3.81896 3.84279,5.13098 0.13811,1.31201 -0.27621,33.90522 -0.27621,33.90522"
           id="path4164-2"
           inkscape:connector-curvature="0" />
        <path
           style="fill:none;fill-rule:evenodd;stroke:#00fa00;stroke-width:1px;stroke-linecap:butt;stroke-linejoin:miter;stroke-opacity:1"
           d="m 112.59766,627.26455 10.05859,8.49609 -31.347656,23.63281 11.523436,12.20704 30.46875,-26.36719 9.27735,7.71484 -29.98047,25.87891 11.13281,11.71875 30.46875,-27.14844 26.46484,22.65625 -29.10156,29.58984 10.74219,10.0586 29.78515,-30.07813 9.27735,8.30078 -29.10156,30.56641 8.98437,9.17969 29.78516,-31.34766 10.2539,8.98438 -29.88281,30.46875 11.42578,11.32812 30.95703,-31.34765 26.95657,23.60681 -30.65971,32.31699 9.87463,9.73652 34.25049,-30.5216 8.06435,7.04878 -34.22851,31.25 12.01171,11.91406 35.64454,-31.73828 11.68807,10.38976"
           id="path4166"
           inkscape:connector-curvature="0" />
        <path
           style="fill:none;fill-rule:evenodd;stroke:#00fa00;stroke-width:1px;stroke-linecap:butt;stroke-linejoin:miter;stroke-opacity:1"
           d="m 91.40625,659.58877 5.664063,6.00586 -28.710938,22.31445 22.460938,20.99609 27.246097,-24.3164 5.37109,5.76172"
           id="path4168"
           inkscape:connector-curvature="0" />
        <path
           style="fill:none;fill-rule:evenodd;stroke:#00fd00;stroke-width:1px;stroke-linecap:butt;stroke-linejoin:miter;stroke-opacity:1"
           d="m 151.5625,715.69228 5.22461,4.83399 -25.58566,26.06749 21.92355,20.07509 23.51359,-27.84359 4.41942,4.6611"
           id="path4170"
           inkscape:connector-curvature="0" />
        <path
           style="fill:none;fill-rule:evenodd;stroke:#00f900;stroke-width:1px;stroke-linecap:butt;stroke-linejoin:miter;stroke-opacity:1"
           d="m 191.40625,751.87392 5.76172,5.56641 -24.95117,27.24609 14.35547,13.47657 22.36328,-28.22266 6.37294,4.96533 33.62901,-29.83107 11.67002,10.2199"
           id="path4172"
           inkscape:connector-curvature="0" />
        <path
           style="fill:none;fill-rule:evenodd;stroke:#00fa00;stroke-width:1px;stroke-linecap:butt;stroke-linejoin:miter;stroke-opacity:1"
           d="m 197.00934,757.64231 18.16104,17.19429"
           id="path4174"
           inkscape:connector-curvature="0" />
        <path
           style="fill:none;fill-rule:evenodd;stroke:#00fa00;stroke-width:1px;stroke-linecap:butt;stroke-linejoin:miter;stroke-opacity:1"
           d="m 230.15497,787.74959 4.76469,4.69563 -25.93528,26.32324 20.50781,18.94531 24.60937,-26.75781 6.05469,5.85937"
           id="path4176"
           inkscape:connector-curvature="0" />
        <path
           style="fill:none;fill-rule:evenodd;stroke:#00fb00;stroke-width:1px;stroke-linecap:butt;stroke-linejoin:miter;stroke-opacity:1"
           d="m 44.53125,666.13174 c 0,0 0.683594,32.42187 0.878906,33.20312 0.195313,0.78125 4.179677,10.5014 5.761719,15.91797 1.664997,5.70059 2.758981,11.55591 3.90625,17.38281 1.581756,8.03363 3.241705,16.07616 4.101563,24.21875 1.122286,10.62771 2.306476,21.3858 1.367187,32.03125 -0.633069,7.17489 -2.161981,14.34826 -4.6875,21.09375 -1.195129,3.19211 -2.34375,6.25 -4.882812,8.98438 -2.539063,2.73437 -4.492188,3.51562 -4.492188,3.51562 l 16.40625,20.3125 c 0,0 31.835938,-8.59375 32.226563,-8.78906 0.390625,-0.19531 -2.476206,-8.9277 -3.320313,-13.47656 -1.424696,-7.67763 -2.072717,-15.48065 -2.929687,-23.24219 -0.832525,-7.54014 -1.789965,-15.07876 -2.148438,-22.65625 -0.283037,-5.98289 0.06457,-11.97951 0,-17.96875 -0.06511,-6.03946 -0.390625,-18.11523 -0.390625,-18.11523 L 68.91529,721.8036 c 0,0 0.983874,15.05564 1.519175,22.58046 0.524128,7.36776 1.309923,14.71887 1.657281,22.09708 0.337788,7.17493 0.377045,14.36188 0.414321,21.54466 0.027,5.20216 0.265527,10.41953 -0.138107,15.60607 -0.660723,8.49004 -1.491558,17.05699 -3.728884,25.27354 -1.311659,4.81705 -5.627851,13.87974 -5.627851,13.87974 L 49.87793,826.8251"
           id="path4178"
           inkscape:connector-curvature="0"
           sodipodi:nodetypes="ccaaaaascccaaaaccaaaaacc" />
        <path
           style="fill:none;fill-rule:evenodd;stroke:#00fa00;stroke-width:1px;stroke-linecap:butt;stroke-linejoin:miter;stroke-opacity:1"
           d="m 198.04514,845.20202 21.95898,21.26844 c 0,0 0.20772,7.40793 0.82864,11.04855 1.04199,6.10951 3.36483,11.93274 4.83374,17.95388 1.5302,6.27236 2.92498,12.58029 4.1432,18.92063 1.32949,6.91944 2.74776,13.84347 3.45267,20.85412 0.50695,5.04184 0.61848,10.12492 0.55243,15.19175 -0.0673,5.16561 0.46801,10.50515 -0.96675,15.46796 -0.93264,3.22597 -2.31216,6.6211 -4.83373,8.83884 -2.37515,2.08896 -8.83884,3.45267 -8.83884,3.45267 l 23.61626,21.82084 43.50364,-20.43977 c 0,0 -4.23984,-4.09502 -5.66238,-6.62913 -2.53692,-4.51927 -3.87722,-9.68383 -4.83373,-14.77743 -1.23384,-6.57047 -0.92065,-13.34271 -1.10486,-20.02548 -0.12812,-4.64783 -0.0484,-9.29945 0,-13.94879 0.0691,-6.63021 0.0713,-13.26569 0.41432,-19.88738 0.43255,-8.34981 1.28642,-16.67327 2.0716,-24.99733 0.54253,-5.75167 1.82358,-17.23539 1.82358,-17.23539 l -36.81641,25.48828 c 0,0 2.69259,10.55692 3.64259,15.9158 1.27977,7.21911 2.17606,14.51267 2.76214,21.82088 0.75483,9.41258 1.14226,18.87072 0.96675,28.31189 -0.14411,7.75235 -0.55313,15.52728 -1.65729,23.20194 -0.67765,4.71012 -2.01938,9.30054 -3.03835,13.94879 -0.67625,3.08488 -2.04107,9.25192 -2.04107,9.25192 l -17.75998,-16.34716"
           id="path4180"
           inkscape:connector-curvature="0"
           sodipodi:nodetypes="ccaaaaaaacccaaaaaaccaaaaacc" />
        <path
           style="fill:none;fill-rule:evenodd;stroke:#00f700;stroke-width:1px;stroke-linecap:butt;stroke-linejoin:miter;stroke-opacity:1"
           d="m 502.63672,707.7333 29.6875,-20.41016 c 0,0 1.27104,49.94648 0.49179,79.43422 -0.0802,3.03654 -2.63565,5.54788 -4.59335,7.87047 -2.21878,2.63232 -7.91016,6.64063 -7.91016,6.64063 l 34.76563,20.50781 28.90625,-16.40625 c 0,0 -2.77202,-4.58643 -3.71094,-7.08008 -1.29228,-3.43212 -1.99202,-7.07474 -2.58789,-10.69336 -2.11339,-12.83433 -2.73337,-25.88072 -3.4668,-38.86719 -1.30904,-23.17844 -1.66251,-69.62628 -1.66251,-69.62628 l -19.7838,13.98331 c 0,0 -1.64631,38.39004 -1.60056,57.5961 0.0334,14.00477 0.56284,28.01049 1.36718,41.99219 0.40895,7.10875 1.08959,14.19998 1.75782,21.28906 0.2444,2.59272 0.82338,7.76913 0.82338,7.76913 l 18.40273,-10.42706"
           id="path4182"
           inkscape:connector-curvature="0"
           sodipodi:nodetypes="ccsacccaaaccaaacc" />
      </g>
    </g>
  </g>
  <WCB
     pausedposy="0"
     pausedposx="0"
     lastknownposy="0"
     lastknownposx="0"
     lastpathnc="0"
     lastpath="0"
     node="0"
     layer="0" />
</svg>
