<?xml version="1.0" encoding="UTF-8" standalone="no"?>
<!-- Created with Inkscape (http://www.inkscape.org/) -->

<svg
   xmlns:osb="http://www.openswatchbook.org/uri/2009/osb"
   xmlns:dc="http://purl.org/dc/elements/1.1/"
   xmlns:cc="http://creativecommons.org/ns#"
   xmlns:rdf="http://www.w3.org/1999/02/22-rdf-syntax-ns#"
   xmlns:svg="http://www.w3.org/2000/svg"
   xmlns="http://www.w3.org/2000/svg"
   xmlns:sodipodi="http://sodipodi.sourceforge.net/DTD/sodipodi-0.dtd"
   xmlns:inkscape="http://www.inkscape.org/namespaces/inkscape"
   width="180mm"
   height="180mm"
   viewBox="0 0 637.79528 637.79527"
   id="svg3409"
   version="1.1"
   inkscape:version="0.91 r"
   sodipodi:docname="3.svg">
  <sodipodi:namedview
     id="base"
     pagecolor="#ffffff"
     bordercolor="#666666"
     borderopacity="1.0"
     inkscape:pageopacity="0.0"
     inkscape:pageshadow="2"
     inkscape:zoom="0.64"
     inkscape:cx="241.12926"
     inkscape:cy="256.19172"
     inkscape:document-units="mm"
     inkscape:current-layer="layer1"
     showgrid="false"
     inkscape:window-width="800"
     inkscape:window-height="673"
     inkscape:window-x="948"
     inkscape:window-y="128"
     inkscape:window-maximized="0"
     units="mm" />
  <defs
     id="defs3411">
    <linearGradient
       id="linearGradient4148"
       osb:paint="solid">
      <stop
         style="stop-color:#550044;stop-opacity:1;"
         offset="0"
         id="stop4150" />
    </linearGradient>
  </defs>
  <metadata
     id="metadata3414">
    <rdf:RDF>
      <cc:Work
         rdf:about="">
        <dc:format>image/svg+xml</dc:format>
        <dc:type
           rdf:resource="http://purl.org/dc/dcmitype/StillImage" />
        <dc:title />
      </cc:Work>
    </rdf:RDF>
  </metadata>
  <g
     transform="translate(0,-414.56693)"
     id="layer1"
     inkscape:groupmode="layer"
     inkscape:label="Layer 1">
    <g
       id="g4196"
       transform="matrix(1.2042633,0,0,1.1040569,-69.161498,-85.805361)">
      <path
         sodipodi:nodetypes="caaaaaaaaaac"
         inkscape:connector-curvature="0"
         id="path4161"
         d="m 230.29798,515.98893 c 0,0 -8.43663,4.02572 -10.98439,7.70047 -3.14275,4.53293 -4.09846,10.50474 -4.14321,16.02039 -0.0446,5.49332 0.77212,11.48164 3.86699,16.02039 2.53263,3.71419 6.67748,6.68368 11.04855,7.73398 4.51981,1.08604 9.61241,0.0622 13.81068,-1.9335 3.17733,-1.51035 5.82937,-4.22368 7.73398,-7.18155 2.3644,-3.67193 3.92165,-8.06791 4.1432,-12.42961 0.32068,-6.31334 -0.35238,-13.44758 -4.1432,-18.50631 -2.39714,-3.19892 -6.64529,-4.72789 -10.49612,-5.80049 -4.61554,-1.2856 -10.11185,-2.76214 -14.36311,-0.55243 -6.32223,3.28615 -10.49611,9.39127 -11.60097,17.95389"
         style="fill:none;fill-rule:evenodd;stroke:#00f400;stroke-width:1px;stroke-linecap:butt;stroke-linejoin:miter;stroke-opacity:1" />
      <path
         sodipodi:nodetypes="caaaaaaaaaac"
         inkscape:connector-curvature="0"
         id="path4161-3"
         d="m 401.16543,515.70156 c 0,0 -8.06147,4.5524 -10.49611,8.28641 -3.01261,4.62045 -4.09846,10.50474 -4.14321,16.02039 -0.0446,5.49332 0.77212,11.48164 3.86699,16.02039 2.53263,3.71419 6.67748,6.68368 11.04855,7.73398 4.51981,1.08604 9.61241,0.0622 13.81068,-1.9335 3.17733,-1.51035 5.82937,-4.22368 7.73398,-7.18155 2.3644,-3.67193 3.92165,-8.06791 4.1432,-12.42961 0.32068,-6.31334 -0.35238,-13.44758 -4.1432,-18.50631 -2.39714,-3.19892 -6.64529,-4.72789 -10.49612,-5.80049 -4.61554,-1.2856 -10.11185,-2.76214 -14.36311,-0.55243 -6.32223,3.28615 -10.49611,9.39127 -11.60097,17.95389"
         style="fill:none;fill-rule:evenodd;stroke:#00f400;stroke-width:1px;stroke-linecap:butt;stroke-linejoin:miter;stroke-opacity:1" />
      <path
         inkscape:connector-curvature="0"
         id="path4178"
         d="m 254.1165,527.97071 c 0,0 1.51917,3.31456 1.51917,5.10995 0,1.79539 0.3798,5.90407 0.27622,6.76723 -0.10358,0.86317 6.62912,3.03835 8.42451,3.72889 1.79539,0.69053 20.43981,9.52937 22.64952,10.49611 2.20971,0.96675 92.70158,49.07057 96.21721,50.24244 3.51562,1.17188 57.42187,32.8125 61.32812,35.15625 3.90625,2.34375 37.10938,18.35938 42.1875,22.26563 5.07813,3.90625 5.83913,5.16893 6.80588,6.34284 0.96674,1.17391 2.0716,4.0051 1.10485,7.1125 -0.96675,3.10741 -1.0358,4.21226 -4.83374,3.93605 -3.79793,-0.27622 -10.15085,-1.58823 -14.57026,-3.45267 -4.41942,-1.86445 -24.99733,-10.56517 -26.3784,-11.1176 -1.38107,-0.55243 -42.20645,-20.10628 -44.84317,-21.1805 -2.63672,-1.07422 -33.69141,-16.69922 -36.13282,-17.87109 -2.4414,-1.17188 -53.41796,-26.26953 -55.76171,-28.22266 -2.34375,-1.95312 -42.96875,-23.04688 -44.92188,-24.12109 -1.95312,-1.07422 -19.82422,-14.0625 -19.82422,-14.0625 0,0 3.22266,-3.07618 3.78418,-3.85743 0.56153,-0.78125 2.34375,-4.0039 2.36817,-4.29687"
         style="fill:none;fill-rule:evenodd;stroke:#00f700;stroke-width:1px;stroke-linecap:butt;stroke-linejoin:miter;stroke-opacity:1" />
      <path
         inkscape:connector-curvature="0"
         id="path4180"
         d="m 391.80897,522.03212 c 0,0 -2.76213,4.28131 -3.59077,7.04345 -0.82864,2.76213 -1.79539,7.31966 -1.79539,9.25315 0,1.9335 -16.98714,8.56262 -16.98714,8.56262 0,0 -18.55676,8.3029 -19.63098,8.98649 -1.07422,0.68359 -19.53125,10.35156 -21.38672,11.52344 -1.85547,1.17187 -7.52684,4.4874 -7.52684,4.4874 l 28.79527,15.19175 44.55188,-27.10103 c 0,0 3.09497,2.51802 5.23562,3.17403 2.14066,0.656 6.83629,1.51917 10.25443,0.69053"
         style="fill:none;fill-rule:evenodd;stroke:#00f600;stroke-width:1px;stroke-linecap:butt;stroke-linejoin:miter;stroke-opacity:1" />
      <path
         inkscape:connector-curvature="0"
         id="path4182"
         d="m 306.45897,594.19292 -13.74162,-7.66493 -139.69502,78.30655 c 0,0 -7.61217,5.9847 -5.85436,9.79329 1.75781,3.80859 5.32226,5.76172 12.20703,3.51562 6.88477,-2.24609 60.49102,-27.11959 68.50121,-30.15794 8.01019,-3.03834 62.14806,-30.38349 70.71068,-35.35533 8.56262,-4.97185 20.64696,-11.32476 20.64696,-11.32476 l -18.02293,-10.15085"
         style="fill:none;fill-rule:evenodd;stroke:#00f600;stroke-width:1px;stroke-linecap:butt;stroke-linejoin:miter;stroke-opacity:1" />
      <path
         sodipodi:nodetypes="caaaaaaacc"
         inkscape:connector-curvature="0"
         id="path4184"
         d="m 331.4563,495.51562 c 0,0 33.22321,-0.037 49.71845,1.65728 22.24084,2.28442 44.51394,5.58189 66.09088,11.43931 18.25193,4.95479 37.3373,9.50882 53.125,19.92187 13.99167,9.22845 31.34148,19.92061 34.76562,36.32812 2.50787,12.01699 -4.8086,25.16302 -12.69531,34.57032 -8.22835,9.81481 -21.614,13.88357 -33.20313,19.33593 -10.41843,4.90158 -21.38585,8.63147 -32.42187,11.91407 -6.40315,1.90458 -19.53125,4.49218 -19.53125,4.49218 l -35.54688,-20.50781"
         style="fill:none;fill-rule:evenodd;stroke:#00f700;stroke-width:1px;stroke-linecap:butt;stroke-linejoin:miter;stroke-opacity:1" />
      <path
         sodipodi:nodetypes="ccaaacc"
         inkscape:connector-curvature="0"
         id="path4186"
         d="m 376.5625,629.80361 23.04688,11.42578 c 0,0 -18.29731,3.34394 -27.53907,4.29688 -12.7743,1.31719 -25.63461,1.90646 -38.47656,1.95312 -23.98081,0.0871 -48.0149,-0.72037 -71.875,-3.125 -6.63407,-0.66858 -19.75565,-3.13611 -19.75565,-3.13611 l 33.21469,-16.2966"
         style="fill:none;fill-rule:evenodd;stroke:#00f900;stroke-width:1px;stroke-linecap:butt;stroke-linejoin:miter;stroke-opacity:1" />
      <path
         sodipodi:nodetypes="ccaaaaaaaaaaaaaac"
         inkscape:connector-curvature="0"
         id="path4188"
         d="m 227.73438,622.96767 -22.16797,12.40235 c 0,0 -14.68781,-4.1775 -21.875,-6.73828 -11.98063,-4.26866 -24.20038,-8.23926 -35.35157,-14.35547 -8.82211,-4.83875 -17.84757,-10.02922 -24.60937,-17.48047 -5.32084,-5.86336 -10.49744,-12.79838 -11.81641,-20.60547 -1.1146,-6.59737 0.65663,-13.77351 3.71094,-19.72656 3.61552,-7.04688 10.16312,-12.3137 16.40625,-17.1875 9.03229,-7.05121 19.46201,-12.22681 29.88281,-16.99219 8.85756,-4.05052 18.24642,-6.84849 27.53907,-9.76563 10.48457,-3.29131 21.02253,-6.54029 31.79395,-8.71643 16.56731,-3.34707 33.42725,-5.22527 50.27088,-6.62912 13.03701,-1.08659 26.14707,-0.95475 39.22233,-1.38107 9.20637,-0.30018 18.41105,-0.96184 27.62135,-0.82864 8.59966,0.12437 17.17911,0.89395 25.75692,1.51917 10.96348,0.79911 21.96836,1.3237 32.8541,2.8525 15.33723,2.15396 25.68359,3.02735 45.60547,8.88672"
         style="fill:none;fill-rule:evenodd;stroke:#00fa00;stroke-width:1px;stroke-linecap:butt;stroke-linejoin:miter;stroke-opacity:1" />
      <path
         sodipodi:nodetypes="cscaaaaaaaaaaaaaaaaaaaasaac"
         inkscape:connector-curvature="0"
         id="path4190"
         d="m 140.03906,533.22158 c 0,0 -15.8477,12.00422 -19.14062,15.82031 -10.44922,12.10937 -9.17969,24.21875 -9.17969,24.21875 0,0 -3.89557,0.24413 -5.07812,1.5625 -4.60387,5.13264 -3.23673,13.45019 -3.90625,20.3125 -1.39714,14.32017 -0.90211,28.79326 -0.19532,43.16406 0.4051,8.23672 0.5865,16.5972 2.53907,24.60938 1.09347,4.48695 2.0347,9.41701 5.07812,12.89062 6.62577,7.56232 17.34561,10.20991 26.36719,14.64844 12.53366,6.16644 25.42315,11.62904 38.47656,16.60157 16.60335,6.32484 33.41812,12.22076 50.58594,16.79687 16.43325,4.38031 33.14536,7.88472 50,10.15625 13.38633,1.8041 26.92423,2.50814 40.42969,2.73438 15.30619,0.25641 30.67597,0.0568 45.89843,-1.5625 14.99723,-1.59533 29.84116,-4.59269 44.53125,-8.00782 14.04997,-3.26632 27.91636,-7.35493 41.60157,-11.91406 10.57655,-3.5235 21.00281,-7.52388 31.25,-11.91406 8.75289,-3.74998 17.23263,-8.10987 25.78125,-12.30469 7.65853,-3.75805 16.21007,-6.16933 22.85156,-11.52344 5.15321,-4.15431 10.00803,-9.29748 12.5,-15.42969 5.11934,-12.59759 3.09181,-27.04106 3.71094,-40.625 0.49207,-10.79608 1.05356,-21.66606 0,-32.42187 -0.58874,-6.0105 -0.51632,-12.5316 -3.51563,-17.77344 -1.16802,-2.04133 -5.2997,-2.33577 -5.27344,-4.6875 0.0458,-4.10194 -0.91543,-8.60073 -2.92968,-12.30469 -3.82779,-7.03883 -10.4641,-12.23222 -16.60157,-17.38281 -5.39428,-4.5269 -14.25781,-9.76562 -17.57812,-11.71875"
         style="fill:none;fill-rule:evenodd;stroke:#00ef00;stroke-width:1px;stroke-linecap:butt;stroke-linejoin:miter;stroke-opacity:1" />
      <path
         inkscape:connector-curvature="0"
         id="path4192"
         d="m 103.02767,649.09037 c 0,0 0.82864,7.18155 1.65728,12.98204 0.82864,5.80048 2.20971,11.60097 3.59078,12.98204 1.38106,1.38106 2.2097,148.87912 2.2097,148.87912 l 56.69284,-120.08386 21.10298,166.48125 61.55394,-140.82791 39.61794,161.23806 44.67773,-154.05273 54.88281,146.33789 28.02735,-158.60596 46.58349,135.07576 27.48877,-161.82137 42.80758,125.08496 2.20971,-151.36504 c 0,0 4.14321,-5.9386 5.0409,-8.83884 0.89769,-2.90024 3.03835,-10.01274 2.9693,-20.09454"
         style="fill:none;fill-rule:evenodd;stroke:#00ff00;stroke-width:1px;stroke-linecap:butt;stroke-linejoin:miter;stroke-opacity:1" />
      <path
         sodipodi:nodetypes="ccssssscccaaaaaaaaaaaaaaaaacc"
         inkscape:connector-curvature="0"
         id="path4194"
         d="m 534.76563,787.51846 c -0.0977,8.20312 -0.78125,35.15625 -0.78125,35.15625 0,0 -46.09375,25.39062 -69.92188,35.9375 -23.82812,10.54687 -50.39062,18.75 -74.60937,25 -24.21875,6.25 -61.71875,8.98437 -99.60938,7.42187 -37.89062,-1.5625 -86.32812,-16.01562 -101.95312,-21.48437 -15.625,-5.46875 -60.34901,-29.87197 -67.73772,-35.32718 -7.38871,-5.45522 -9.80558,-10.84139 -9.80558,-10.84139 l -0.13811,-23.13289 0.27621,23.271 c 0,0 -3.0191,12.26161 -3.86699,18.50631 -1.55161,11.42759 -2.11793,22.99462 -2.2097,34.5267 -0.084,10.55397 0.32271,21.14018 1.51917,31.62645 0.73191,6.4147 -0.35795,13.84691 3.45267,19.05874 6.15025,8.41176 18.25468,10.0733 27.62136,14.63932 16.04164,7.81989 32.12499,15.70318 48.8898,21.82087 20.96937,7.65198 42.4474,14.23979 64.35777,18.50631 19.9007,3.87518 40.23184,5.55908 60.49078,6.35292 20.98339,0.82223 42.13911,0.94541 62.97669,-1.65728 22.38576,-2.79606 44.40469,-8.44001 66.01505,-14.91554 16.02076,-4.80061 31.64018,-10.96003 46.95631,-17.67767 12.74535,-5.5901 25.12889,-12.0128 37.28883,-18.78252 4.6219,-2.57312 10.39581,-4.02827 13.53447,-8.28641 3.32563,-4.5118 3.24406,-10.76418 4.1432,-16.2966 1.61423,-9.93243 2.12346,-20.0449 2.20971,-30.10728 0.0703,-8.20696 -0.68021,-16.40573 -1.38107,-24.58301 -0.82311,-9.60373 0.87923,-20.04743 -3.31456,-28.72621 -1.06223,-2.19821 -5.179,-5.17901 -5.179,-5.17901 l 0.67805,-46.35032"
         style="fill:none;fill-rule:evenodd;stroke:#00f100;stroke-width:1px;stroke-linecap:butt;stroke-linejoin:miter;stroke-opacity:1" />
    </g>
  </g>
  <WCB
     pausedposy="0"
     pausedposx="0"
     lastknownposy="0"
     lastknownposx="0"
     lastpathnc="0"
     lastpath="0"
     node="0"
     layer="0" />
</svg>
