<?xml version="1.0" encoding="UTF-8" standalone="no"?>
<!-- Created with Inkscape (http://www.inkscape.org/) -->

<svg
   xmlns:osb="http://www.openswatchbook.org/uri/2009/osb"
   xmlns:dc="http://purl.org/dc/elements/1.1/"
   xmlns:cc="http://creativecommons.org/ns#"
   xmlns:rdf="http://www.w3.org/1999/02/22-rdf-syntax-ns#"
   xmlns:svg="http://www.w3.org/2000/svg"
   xmlns="http://www.w3.org/2000/svg"
   xmlns:sodipodi="http://sodipodi.sourceforge.net/DTD/sodipodi-0.dtd"
   xmlns:inkscape="http://www.inkscape.org/namespaces/inkscape"
   width="180mm"
   height="180mm"
   viewBox="0 0 637.79528 637.79527"
   id="svg3409"
   version="1.1"
   inkscape:version="0.91 r13725"
   sodipodi:docname="muqing.svg">
  <sodipodi:namedview
     id="base"
     pagecolor="#ffffff"
     bordercolor="#666666"
     borderopacity="1.0"
     inkscape:pageopacity="0.0"
     inkscape:pageshadow="2"
     inkscape:zoom="0.64"
     inkscape:cx="303.4209"
     inkscape:cy="517.10574"
     inkscape:document-units="mm"
     inkscape:current-layer="layer1"
     showgrid="false"
     inkscape:window-width="1920"
     inkscape:window-height="1018"
     inkscape:window-x="-8"
     inkscape:window-y="-8"
     inkscape:window-maximized="1"
     units="mm" />
  <defs
     id="defs3411">
    <linearGradient
       id="linearGradient4148"
       osb:paint="solid">
      <stop
         style="stop-color:#550044;stop-opacity:1;"
         offset="0"
         id="stop4150" />
    </linearGradient>
  </defs>
  <metadata
     id="metadata3414">
    <rdf:RDF>
      <cc:Work
         rdf:about="">
        <dc:format>image/svg+xml</dc:format>
        <dc:type
           rdf:resource="http://purl.org/dc/dcmitype/StillImage" />
        <dc:title></dc:title>
      </cc:Work>
    </rdf:RDF>
  </metadata>
  <g
     transform="translate(0,-414.56693)"
     id="layer1"
     inkscape:groupmode="layer"
     inkscape:label="Layer 1">
    <g
       id="g4181"
       transform="matrix(1.1168865,-0.2274733,0.23402539,1.0856166,-180.70083,-19.533578)"
       inkscape:transform-center-x="-1.7828545"
       inkscape:transform-center-y="-15.377615">
      <path
         sodipodi:nodetypes="caaaaaaaaaacsssc"
         inkscape:connector-curvature="0"
         id="path4163"
         d="m 222.36328,738.2997 c 0,0 -1.6016,5.1324 -3.51562,6.83594 -2.70082,2.40381 -6.5407,3.83264 -10.15625,3.8086 -4.29789,-0.0286 -9.14277,-1.48722 -12.01172,-4.6875 -2.92534,-3.26318 -4.05808,-8.35986 -3.41797,-12.69532 0.62142,-4.20887 3.22028,-8.44727 6.73828,-10.83984 3.31035,-2.25136 7.88575,-2.90799 11.81641,-2.14844 3.36075,0.64942 6.6279,2.73775 8.6914,5.46875 2.02441,2.67926 2.90738,6.31074 2.83203,9.66797 -0.0857,3.81819 -1.21672,7.94764 -3.71093,10.83984 -2.08231,2.41458 -5.37314,3.75166 -8.4961,4.39454 -1.79003,0.36849 -5.46875,-0.39063 -5.46875,-0.39063 0,0 -8.39843,27.2461 -10.83984,34.86328 -2.44141,7.61719 -10.64453,35.0586 -12.20703,39.84375 -1.5625,4.78516 -14.84375,48.82813 -16.99219,54.49219 -2.14844,5.66406 -24.41406,78.125 -26.17187,83.98438"
         style="fill:none;fill-rule:evenodd;stroke:#00f600;stroke-width:1px;stroke-linecap:butt;stroke-linejoin:miter;stroke-opacity:1" />
      <path
         sodipodi:nodetypes="caaaaaaacssc"
         inkscape:connector-curvature="0"
         id="path4165"
         d="m 251.17188,838.69033 c -3.90625,7.61719 -4.5712,8.7714 -8.78907,10.54688 -3.79218,1.59629 -8.85586,1.26718 -12.30468,-0.97657 -4.46854,-2.90717 -7.52983,-8.73222 -7.61719,-14.0625 -0.0787,-4.80341 2.48588,-10.16999 6.44531,-12.89062 3.88159,-2.66714 9.72388,-3.19932 14.0625,-1.36719 4.22436,1.78388 7.59922,6.26577 8.59375,10.74219 1.04512,4.70412 -0.47493,10.22209 -3.40121,14.05065 -2.42157,3.16822 -10.48087,5.76764 -10.48087,5.76764 0,0 -1.74292,52.64265 -2.13354,63.77546 -0.39063,11.13281 -3.71094,65.82031 -4.29688,74.21875 -0.58594,8.39844 -2.14844,46.87498 -2.14844,48.43748"
         style="fill:none;fill-rule:evenodd;stroke:#00f700;stroke-width:1px;stroke-linecap:butt;stroke-linejoin:miter;stroke-opacity:1" />
      <path
         sodipodi:nodetypes="csssssssccccccssaacsssscsc"
         inkscape:connector-curvature="0"
         id="path4167"
         d="m 191.01563,475.40908 c 0,0 -58.59375,-13.28125 -63.67188,-10.54687 -5.07812,2.73437 -20.31099,13.39006 -22.52069,15.73787 -2.20971,2.34782 -15.606071,14.63932 -19.196848,19.19684 -3.590777,4.55753 -11.600971,16.1585 -14.363107,20.71602 -2.762135,4.55753 -9.943689,20.57792 -11.18665,23.89248 -1.242961,3.31456 -7.73398,26.79272 -8.286407,30.79781 -0.552428,4.0051 -1.381068,9.94369 -1.381068,14.63932 0,4.69564 0.690534,18.64442 0.690534,18.64442 l 20.377096,8.82208 6.553728,25.70462 15.053641,-0.13811 8.976941,-16.43471 132.28955,49.42692 c 0,0 127.84861,44.86675 189.57531,67.26592 5.4368,1.97289 6.19533,9.66758 10.83985,13.52539 6.18417,5.13668 14.0316,8.39258 21.875,10.15625 8.2576,1.8568 17.05138,1.64195 25.39062,0.19531 8.94948,-1.5525 23.82813,-6.44531 25.58594,-9.375 1.75781,-2.92968 58.6914,-120.70312 59.96094,-121.1914 1.26953,-0.48829 10.05859,-5.07813 13.3789,-7.61719 3.32031,-2.53906 10.35156,-10.64453 11.42578,-12.59766 1.07422,-1.95312 7.22657,-13.08594 7.71485,-17.77344 0.48828,-4.6875 -0.39063,-19.23828 -2.53906,-21.77734 -2.14844,-2.53906 2.24609,-12.30469 -3.41797,-19.23828 -5.66407,-6.93359 -14.45313,-13.47656 -18.84766,-15.52734"
         style="fill:none;fill-rule:evenodd;stroke:#00f600;stroke-width:1px;stroke-linecap:butt;stroke-linejoin:miter;stroke-opacity:1" />
      <path
         sodipodi:nodetypes="caaaaaaaaac"
         inkscape:connector-curvature="0"
         id="path4169"
         d="m 507.42188,758.02627 c 0,0 8.11392,-12.56464 9.57031,-19.72656 1.28602,-6.3241 -1.34642,-12.89302 -0.97656,-19.33594 0.43123,-7.51188 1.93051,-14.95506 3.71093,-22.26563 1.60281,-6.58129 3.58746,-13.10752 6.25,-19.33594 2.53051,-5.91955 5.31573,-11.84297 9.17969,-16.99218 4.06182,-5.41288 9.09285,-10.12685 14.45313,-14.25782 4.5546,-3.51006 9.77071,-6.08181 14.84375,-8.78906 3.9628,-2.11477 8.32704,-3.46571 12.1582,-5.81054 3.04035,-1.86082 5.9006,-4.05083 8.49609,-6.49415 2.49118,-2.34513 6.32325,-7.1289 6.71387,-7.76367"
         style="fill:none;fill-rule:evenodd;stroke:#00fa00;stroke-width:1px;stroke-linecap:butt;stroke-linejoin:miter;stroke-opacity:1" />
      <path
         sodipodi:nodetypes="caacaaaaaaaaaaaaaaaccccccccccccccccccccccccccccccccccc"
         inkscape:connector-curvature="0"
         id="path4171"
         d="m 444.08239,762.61415 c 0,0 -7.45169,-3.60647 -10.2199,-6.56007 -2.50119,-2.6687 -4.45628,-6.04358 -5.31711,-9.59842 -1.58804,-6.55786 0.62148,-20.23265 0.62148,-20.23265 0,0 11.53885,12.28778 19.2659,14.50122 11.17281,3.20049 24.13795,1.73674 34.73386,-3.03835 6.88752,-3.10389 13.66605,-8.57708 16.43471,-15.60607 1.9438,-4.93487 -0.99463,-10.57846 -0.96675,-15.88228 0.0408,-7.75358 -0.49021,-15.75158 1.65728,-23.20194 3.03454,-10.52786 8.87771,-20.24955 15.46796,-29.00243 7.00063,-9.29794 16.01419,-16.99118 25.06638,-24.3068 7.21449,-5.83046 15.36752,-10.39429 23.13289,-15.46796 6.44658,-4.21201 13.85333,-7.16481 19.47306,-12.42961 4.93882,-4.6269 9.65302,-10.02374 12.01529,-16.36565 2.41805,-6.49168 3.33386,-13.99456 1.65728,-20.71602 -1.28264,-5.14214 -4.82922,-9.63491 -8.56262,-13.39636 -4.19621,-4.22774 -9.59218,-7.20593 -14.98459,-9.73653 -4.84418,-2.27332 -10.16984,-3.34752 -15.32985,-4.76468 -4.1992,-1.15328 -8.44065,-2.15997 -12.70583,-3.03835 -4.09557,-0.84345 -9.59842,-2.07161 -12.36055,-2.14066 -2.76214,-0.069 -3.38362,-0.13811 -3.38362,-0.13811 l -7.73398,14.63932 -10.01274,-1.45012 -1.86444,-15.3989 -30.479,-5.43615 -6.15234,12.40234 -13.57422,-1.17187 -1.26953,-14.45313 -26.75782,-4.98047 -7.03125,13.28125 -13.3789,-2.73437 -1.36719,-13.76953 -28.51562,-5.27344 -8.10547,15.42969 -8.88672,-2.92969 -1.26953,-14.84375 -23.04688,-4.29687 -8.59375,14.64843 -11.8164,-3.71093 -1.36719,-14.25782 -21.48438,-4.49218 -8.30078,12.98828 -13.3789,-1.36719 -1.46485,-14.16016 -19.53125,-4.6875 -8.39844,12.30469 -10.44921,-2.63672 -1.46485,-11.8164 -19.92187,-4.19922 -8.4961,12.79297 -10.35156,-2.2461 -1.66016,-13.47656 -30.17578,-6.73828 -22.16797,-4.00391"
         style="fill:none;fill-rule:evenodd;stroke:#00f600;stroke-width:1px;stroke-linecap:butt;stroke-linejoin:miter;stroke-opacity:1" />
      <path
         inkscape:connector-curvature="0"
         id="path4173"
         d="m 54.785156,562.61611 c 0,0 -3.027343,10.9375 -3.417968,14.94141 -0.390625,4.0039 -1.464844,12.79297 -1.074219,12.89062 0.390625,0.0977 31.054687,10.64453 31.054687,10.64453 l 82.421874,-131.73828 29.88281,6.83594 -82.06205,135.6112 3.45267,19.40401 15.03517,5.62932 -1.66016,-18.75 85.5957,-139.01367 20.07734,4.42913 -82.58786,142.38811 1.45012,19.26589 18.64442,6.90534 -1.38107,-18.57536 84.08026,-147.91897 19.33593,4.39453 -81.25,150.09766 3.32032,20.89843 17.05039,6.29546 -5.31712,-20.85412 89.56226,-153.74739 21.59645,4.54026 -82.55995,158.54119 1.12304,20.45898 17.75241,6.42546 -2.03707,-20.61244 87.47339,-161.51589 23.00756,4.31615 -78.4747,168.11018 1.27749,20.78507 12.98203,4.73016 -1.51917,-20.57791 84.03798,-170.66547 28.48453,5.28258 -79.38093,176.56391 2.39258,21.48437 16.43066,5.88379 -1.46484,-20.28809 83.83789,-180.3955 26.70898,4.80957 -86.32812,183.39843 2.89729,21.53873 14.01784,5.04089 -2.48592,-20.99223 92.89501,-185.66551 30.52978,5.41992 -97.52977,189.32611 -0.1631,19.85358 15.52734,6.73828 0.97657,-19.58008 100.87733,-194.07743"
         style="fill:none;fill-rule:evenodd;stroke:#00f800;stroke-width:1px;stroke-linecap:butt;stroke-linejoin:miter;stroke-opacity:1"
         sodipodi:nodetypes="csccccccccccccccccccccccccccccccccccccccccccccccccccc" />
      <path
         inkscape:connector-curvature="0"
         id="path4175"
         d="m 50.488281,590.64345 15.722657,5.27344 11.84082,46.99707 15.209961,-0.12207 -12.109375,-41.89453 -14.941406,-5.12695"
         style="fill:none;fill-rule:evenodd;stroke:#00f000;stroke-width:1px;stroke-linecap:butt;stroke-linejoin:miter;stroke-opacity:1" />
      <path
         inkscape:connector-curvature="0"
         id="path4177"
         d="m 66.40625,596.1122 45.01953,15.91797 3.61328,19.14063 -28.222654,-10.0586 -5.664062,-19.92187"
         style="fill:none;fill-rule:evenodd;stroke:#00fa00;stroke-width:1px;stroke-linecap:butt;stroke-linejoin:miter;stroke-opacity:1" />
      <path
         inkscape:connector-curvature="0"
         id="path4179"
         d="m 111.31408,611.93964 1.79538,9.66748 16.02039,5.10995 -0.82864,-8.63168 23.34005,7.94114 0.62148,10.91044 18.71347,6.42197 -0.82864,-9.94369 22.16614,6.90534 1.9335,11.04854 16.22754,6.56007 -3.03835,-11.67002 28.72622,9.66747 0.48337,10.35801 17.1943,5.86954 -0.96675,-10.2199 32.04078,11.04854 0.69053,11.04855 12.91298,4.97184 -0.96674,-11.18665 33.28373,11.46287 1.24297,10.77233 16.77997,5.73143 -0.75959,-9.66748 24.3068,8.1483 1.45012,11.67003 14.225,4.90279 -1.31201,-11.39381 25.82597,9.32221 0.1381,11.94623 15.60607,5.24806 c 0,0 -0.31088,9.07845 -0.11556,9.56673 0.19531,0.48828 2.58789,7.42187 5.22461,9.86328 2.63672,2.4414 10.54687,8.05664 17.96875,10.05859 7.42187,2.00196 9.52148,1.70899 9.57031,2.14844 0.0488,0.43945 9.54352,35.20665 9.54352,35.20665 l 15.19174,0 c 0,0 -7.05948,-35.35313 -6.42471,-35.45079 0.63476,-0.0977 8.98437,-1.61133 11.76757,-2.58789 2.78321,-0.97656 7.91016,-2.49024 9.27735,-3.02735 1.36719,-0.5371 7.32422,-4.39453 7.17773,-3.85742 -0.14648,0.53711 -21.79794,44.92345 -21.79794,44.92345 l -15.17448,0 -9.57253,-35.2086"
         style="fill:none;fill-rule:evenodd;stroke:#00f800;stroke-width:1px;stroke-linecap:butt;stroke-linejoin:miter;stroke-opacity:1" />
    </g>
  </g>
  <WCB
     pausedposy="0"
     pausedposx="0"
     lastknownposy="0"
     lastknownposx="0"
     lastpathnc="0"
     lastpath="0"
     node="0"
     layer="0" />
</svg>
