<?xml version="1.0" encoding="UTF-8" standalone="no"?>
<!-- Created with Inkscape (http://www.inkscape.org/) -->

<svg
   xmlns:osb="http://www.openswatchbook.org/uri/2009/osb"
   xmlns:dc="http://purl.org/dc/elements/1.1/"
   xmlns:cc="http://creativecommons.org/ns#"
   xmlns:rdf="http://www.w3.org/1999/02/22-rdf-syntax-ns#"
   xmlns:svg="http://www.w3.org/2000/svg"
   xmlns="http://www.w3.org/2000/svg"
   xmlns:sodipodi="http://sodipodi.sourceforge.net/DTD/sodipodi-0.dtd"
   xmlns:inkscape="http://www.inkscape.org/namespaces/inkscape"
   width="180mm"
   height="180mm"
   viewBox="0 0 637.79528 637.79527"
   id="svg3409"
   version="1.1"
   inkscape:version="0.91 r13725"
   sodipodi:docname="jita.svg">
  <sodipodi:namedview
     id="base"
     pagecolor="#ffffff"
     bordercolor="#666666"
     borderopacity="1.0"
     inkscape:pageopacity="0.0"
     inkscape:pageshadow="2"
     inkscape:zoom="0.90509668"
     inkscape:cx="137.43222"
     inkscape:cy="231.64283"
     inkscape:document-units="mm"
     inkscape:current-layer="g4175"
     showgrid="false"
     inkscape:window-width="1920"
     inkscape:window-height="1018"
     inkscape:window-x="-8"
     inkscape:window-y="-8"
     inkscape:window-maximized="1"
     units="mm" />
  <defs
     id="defs3411">
    <linearGradient
       id="linearGradient4148"
       osb:paint="solid">
      <stop
         style="stop-color:#550044;stop-opacity:1;"
         offset="0"
         id="stop4150" />
    </linearGradient>
  </defs>
  <metadata
     id="metadata3414">
    <rdf:RDF>
      <cc:Work
         rdf:about="">
        <dc:format>image/svg+xml</dc:format>
        <dc:type
           rdf:resource="http://purl.org/dc/dcmitype/StillImage" />
        <dc:title></dc:title>
      </cc:Work>
    </rdf:RDF>
  </metadata>
  <g
     transform="translate(0,-414.56693)"
     id="layer1"
     inkscape:groupmode="layer"
     inkscape:label="Layer 1">
    <g
       id="g4175"
       transform="matrix(0.97309449,0.55854096,-0.5088199,0.87543343,381.53762,-98.395324)">
      <g
         id="g4221"
         transform="matrix(0.82846926,-0.61560149,0.50136971,0.83449814,-334.32553,340.35623)">
        <g
           transform="matrix(1.18641,-0.10489354,-0.1068258,1.060466,51.949347,-31.534052)"
           id="g4185">
          <path
             inkscape:connector-curvature="0"
             id="path4158"
             d="m 121.81019,484.74329 66.29126,-24.3068 22.3733,78.99708 -39.49854,19.61117 -50.47803,-73.67998 10.49611,-3.93604"
             style="fill:none;fill-rule:evenodd;stroke:#00f700;stroke-width:1px;stroke-linecap:butt;stroke-linejoin:miter;stroke-opacity:1" />
          <path
             inkscape:connector-curvature="0"
             id="path4160"
             d="m 192.77344,548.3583 13.3789,-6.73828 219.21658,364.90141"
             style="fill:none;fill-rule:evenodd;stroke:#00fb00;stroke-width:1px;stroke-linecap:butt;stroke-linejoin:miter;stroke-opacity:1" />
          <path
             inkscape:connector-curvature="0"
             id="path4162"
             d="m 175.58594,556.65908 17.08984,-8.39844 206.54297,374.41407"
             style="fill:none;fill-rule:evenodd;stroke:#00f700;stroke-width:1px;stroke-linecap:butt;stroke-linejoin:miter;stroke-opacity:1" />
          <path
             inkscape:connector-curvature="0"
             id="path4164"
             d="m 192.67578,548.06533 -16.60156,8.30078 196.81412,380.2626"
             style="fill:none;fill-rule:evenodd;stroke:#00f700;stroke-width:1px;stroke-linecap:butt;stroke-linejoin:miter;stroke-opacity:1" />
          <path
             inkscape:connector-curvature="0"
             id="path4166"
             d="M 354.93446,925.85638 428.9597,888.01512"
             style="fill:none;fill-rule:evenodd;stroke:#00f800;stroke-width:1px;stroke-linecap:butt;stroke-linejoin:miter;stroke-opacity:1" />
          <path
             sodipodi:nodetypes="cssc"
             inkscape:connector-curvature="0"
             id="path4168"
             d="m 283.72162,829.34342 c -23.80349,-30.1111 -4.47917,-91.38852 52.43032,-81.92101 35.83818,5.96207 59.19939,64.10337 38.6699,85.34999 -53.42241,55.28855 -92.53155,-4.1432 -96.95097,-12.98203"
             style="fill:none;fill-rule:evenodd;stroke:#00f200;stroke-width:1px;stroke-linecap:butt;stroke-linejoin:miter;stroke-opacity:1" />
          <g
             id="g4172">
            <path
               style="fill:none;fill-rule:evenodd;stroke:#00fc00;stroke-width:1px;stroke-linecap:butt;stroke-linejoin:miter;stroke-opacity:1"
               d="m 230.91456,714.8292 c 23.20194,-15.46796 96.01349,-55.17179 120.42912,-43.64174 25.93632,12.24818 30.65081,50.09595 29.83107,71.81553 -1.01267,26.83146 39.49984,33.54947 58.00485,45.85145 52.6051,34.97146 74.04575,93.78388 70.71068,126.50583 -5.5913,54.85883 -81.484,105.02533 -137.00194,105.51363 -53.28125,0.4686 -110.84741,-36.15346 -117.66699,-74.57771 -7.49957,-42.25558 10.09967,-54.28362 8.28641,-81.75922 -1.43786,-21.78739 -33.66098,-22.95416 -59.66213,-51.37573 -16.79633,-18.35989 -18.07647,-38.23404 -12.1534,-53.23883 8.55139,-21.66307 48.61359,-53.37961 69.60582,-63.3233"
               id="path4170"
               inkscape:connector-curvature="0"
               sodipodi:nodetypes="csssssssssc" />
          </g>
        </g>
        <path
           inkscape:connector-curvature="0"
           id="path4209"
           d="m 432.55717,926.07743 11.44361,6.53121 1.13564,-14.33387"
           style="fill:none;fill-rule:evenodd;stroke:#000000;stroke-width:0.93820184px;stroke-linecap:butt;stroke-linejoin:miter;stroke-opacity:1" />
        <path
           inkscape:connector-curvature="0"
           id="path4211"
           d="m 448.08345,916.61761 -1.22692,16.84627 14.08583,7.74579"
           style="fill:none;fill-rule:evenodd;stroke:#000000;stroke-width:0.93820184px;stroke-linecap:butt;stroke-linejoin:miter;stroke-opacity:1" />
        <path
           inkscape:connector-curvature="0"
           id="path4213"
           d="m 457.48078,943.41821 -10.91875,-5.52746 -0.90797,12.85001"
           style="fill:none;fill-rule:evenodd;stroke:#000000;stroke-width:0.93820184px;stroke-linecap:butt;stroke-linejoin:miter;stroke-opacity:1" />
        <path
           inkscape:connector-curvature="0"
           id="path4215"
           d="m 442.12945,953.21261 1.76591,-16.96705 -14.71229,-7.7923"
           style="fill:none;fill-rule:evenodd;stroke:#000000;stroke-width:0.93820184px;stroke-linecap:butt;stroke-linejoin:miter;stroke-opacity:1" />
        <path
           inkscape:connector-curvature="0"
           id="path4219"
           d="m 438.14902,920.89486 10.47391,-6.84028 6.68029,12.77575 1.53448,-1.13679 -7.42255,-14.19527 -12.51321,7.82588 0.7953,1.66111 2.56469,-1.52472"
           style="fill:none;fill-rule:evenodd;stroke:#000000;stroke-width:0.93820184px;stroke-linecap:butt;stroke-linejoin:miter;stroke-opacity:1" />
      </g>
    </g>
  </g>
  <WCB
     pausedposy="0"
     pausedposx="0"
     lastknownposy="0"
     lastknownposx="0"
     lastpathnc="0"
     lastpath="0"
     node="0"
     layer="0" />
</svg>
