<?xml version="1.0" encoding="UTF-8" standalone="no"?>
<!-- Created with Inkscape (http://www.inkscape.org/) -->

<svg
   xmlns:osb="http://www.openswatchbook.org/uri/2009/osb"
   xmlns:dc="http://purl.org/dc/elements/1.1/"
   xmlns:cc="http://creativecommons.org/ns#"
   xmlns:rdf="http://www.w3.org/1999/02/22-rdf-syntax-ns#"
   xmlns:svg="http://www.w3.org/2000/svg"
   xmlns="http://www.w3.org/2000/svg"
   xmlns:sodipodi="http://sodipodi.sourceforge.net/DTD/sodipodi-0.dtd"
   xmlns:inkscape="http://www.inkscape.org/namespaces/inkscape"
   width="180mm"
   height="180mm"
   viewBox="0 0 637.79528 637.79527"
   id="svg3409"
   version="1.1"
   inkscape:version="0.91 r13725"
   sodipodi:docname="pipa.svg">
  <sodipodi:namedview
     id="base"
     pagecolor="#ffffff"
     bordercolor="#666666"
     borderopacity="1.0"
     inkscape:pageopacity="0.0"
     inkscape:pageshadow="2"
     inkscape:zoom="0.47715898"
     inkscape:cx="-444.97447"
     inkscape:cy="552.7687"
     inkscape:document-units="mm"
     inkscape:current-layer="layer1"
     showgrid="false"
     inkscape:window-width="1920"
     inkscape:window-height="1018"
     inkscape:window-x="-8"
     inkscape:window-y="-8"
     inkscape:window-maximized="1"
     units="mm" />
  <defs
     id="defs3411">
    <linearGradient
       id="linearGradient4148"
       osb:paint="solid">
      <stop
         style="stop-color:#550044;stop-opacity:1;"
         offset="0"
         id="stop4150" />
    </linearGradient>
  </defs>
  <metadata
     id="metadata3414">
    <rdf:RDF>
      <cc:Work
         rdf:about="">
        <dc:format>image/svg+xml</dc:format>
        <dc:type
           rdf:resource="http://purl.org/dc/dcmitype/StillImage" />
        <dc:title />
      </cc:Work>
    </rdf:RDF>
  </metadata>
  <g
     transform="translate(0,-414.56693)"
     id="layer1"
     inkscape:groupmode="layer"
     inkscape:label="Layer 1">
    <g
       id="g4151"
       transform="matrix(0.96050438,-0.74435112,0.73600082,0.9524483,-502.55685,275.62802)">
      <path
         sodipodi:nodetypes="cccccc"
         inkscape:connector-curvature="0"
         id="path4140"
         d="m 259.3458,502.16202 c -36.77283,-17.60645 10.49301,-33.44292 10.49301,-33.44292 17.67744,-13.60074 36.1111,-3.35362 39.89238,-0.0932 48.11662,5.40304 12.95083,33.90872 3.87579,37.9144 -7.37494,3.44146 -11.56947,4.05236 -27.45612,3.58655 -15.88665,-0.4658 -25.57615,-7.68538 -26.80506,-7.96483 z"
         style="fill:none;fill-rule:evenodd;stroke:#000000;stroke-width:0.99921262;stroke-linecap:butt;stroke-linejoin:miter;stroke-miterlimit:4;stroke-dasharray:none;stroke-opacity:1" />
      <path
         sodipodi:nodetypes="cc"
         inkscape:connector-curvature="0"
         id="path4142"
         d="m 270.02788,507.56505 c 10.68208,43.5969 -3.97705,71.6208 -3.97705,71.6208"
         style="fill:none;fill-rule:evenodd;stroke:#000000;stroke-width:0.99921262;stroke-linecap:butt;stroke-linejoin:miter;stroke-miterlimit:4;stroke-dasharray:none;stroke-opacity:1" />
      <path
         sodipodi:nodetypes="ccccccc"
         inkscape:connector-curvature="0"
         id="path4144"
         d="m 313.70152,506.44718 4.37419,97.79905 c -11.07793,6.96619 -43.32125,4.39282 -43.32125,4.39282 0,0 -9.2641,-2.79467 -8.69691,-29.62353 -93.58637,-0.74525 -91.69574,5.21673 -91.69574,5.21673 l 2.45782,12.29655 c 0,0 88.85979,-1.86311 89.42698,-7.63877"
         style="fill:none;fill-rule:evenodd;stroke:#000000;stroke-width:0.99921262;stroke-linecap:butt;stroke-linejoin:miter;stroke-miterlimit:4;stroke-dasharray:none;stroke-opacity:1" />
      <path
         sodipodi:nodetypes="ccscccc"
         inkscape:connector-curvature="0"
         id="path4146"
         d="m 314.45777,524.61255 75.81441,-11.55131 c 0,0 -18.52821,2.79467 0,0 18.5169,-2.79297 17.77196,1.86311 17.77196,1.86311 l 0.18906,9.31558 c 1.70158,6.3346 -35.54391,4.28516 -35.54391,4.28516 l -58.42058,1.11787"
         style="fill:none;fill-rule:evenodd;stroke:#000000;stroke-width:0.99921262;stroke-linecap:butt;stroke-linejoin:miter;stroke-miterlimit:4;stroke-dasharray:none;stroke-opacity:1" />
      <path
         sodipodi:nodetypes="cssc"
         inkscape:connector-curvature="0"
         id="path4148"
         d="m 315.81766,566.68114 c 98.31295,-2.98099 90.52491,-0.89373 92.41554,3.20512 1.88415,4.08479 0.56719,10.99238 -0.5672,11.365 -1.13437,0.37262 -91.09889,-7.09733 -91.09889,-7.09733"
         style="fill:none;fill-rule:evenodd;stroke:#000000;stroke-width:0.99921262;stroke-linecap:butt;stroke-linejoin:miter;stroke-miterlimit:4;stroke-dasharray:none;stroke-opacity:1" />
      <path
         sodipodi:nodetypes="ccsc"
         inkscape:connector-curvature="0"
         id="path4150"
         d="m 273.80915,541.00797 c -91.12855,-13.60074 -90.18323,-4.65778 -90.18323,-4.65778 0,0 -2.0797,4.65778 1.32344,9.50188 4.99346,7.10779 88.85979,3.53991 88.85979,3.53991"
         style="fill:none;fill-rule:evenodd;stroke:#000000;stroke-width:0.99921262;stroke-linecap:butt;stroke-linejoin:miter;stroke-miterlimit:4;stroke-dasharray:none;stroke-opacity:1" />
      <path
         sodipodi:nodetypes="ccccc"
         inkscape:connector-curvature="0"
         id="path4154"
         d="m 285.15295,522.37682 c 0.75625,0 16.82663,-0.74524 16.82663,-0.74524 l 0.37813,56.82501 -16.82664,0.37262 z"
         style="fill:none;fill-rule:evenodd;stroke:#000000;stroke-width:0.99921262;stroke-linecap:butt;stroke-linejoin:miter;stroke-miterlimit:4;stroke-dasharray:none;stroke-opacity:1" />
      <path
         sodipodi:nodetypes="cc"
         inkscape:connector-curvature="0"
         id="path4156"
         d="m 266.1778,586.46798 51.21847,0"
         style="fill:none;fill-rule:evenodd;stroke:#000000;stroke-width:0.99921262;stroke-linecap:butt;stroke-linejoin:miter;stroke-miterlimit:4;stroke-dasharray:none;stroke-opacity:1" />
      <path
         sodipodi:nodetypes="cc"
         inkscape:connector-curvature="0"
         id="path4158"
         d="m 304.85973,586.5129 14.63884,327.44515"
         style="fill:none;fill-rule:evenodd;stroke:#000000;stroke-width:0.99921262;stroke-linecap:butt;stroke-linejoin:miter;stroke-miterlimit:4;stroke-dasharray:none;stroke-opacity:1" />
      <path
         sodipodi:nodetypes="cc"
         inkscape:connector-curvature="0"
         id="path4160"
         d="M 294.83313,586.64464 308.06825,914.5509"
         style="fill:none;fill-rule:evenodd;stroke:#000000;stroke-width:0.99921262;stroke-linecap:butt;stroke-linejoin:miter;stroke-miterlimit:4;stroke-dasharray:none;stroke-opacity:1" />
      <path
         sodipodi:nodetypes="cc"
         inkscape:connector-curvature="0"
         id="path4162"
         d="M 283.46965,586.24942 298.2756,914.97906"
         style="fill:none;fill-rule:evenodd;stroke:#000000;stroke-width:0.99921262;stroke-linecap:butt;stroke-linejoin:miter;stroke-miterlimit:4;stroke-dasharray:none;stroke-opacity:1" />
      <path
         sodipodi:nodetypes="cc"
         inkscape:connector-curvature="0"
         id="path4164"
         d="M 275.98312,586.38116 286.4108,915.37428"
         style="fill:none;fill-rule:evenodd;stroke:#000000;stroke-width:0.99921262;stroke-linecap:butt;stroke-linejoin:miter;stroke-miterlimit:4;stroke-dasharray:none;stroke-opacity:1" />
      <path
         sodipodi:nodetypes="cccccsc"
         inkscape:connector-curvature="0"
         id="path4166"
         d="m 280.7959,915.60483 46.52342,-2.10787 0.53475,0 c 3.13993,0.52865 0.4852,6.12928 0.48424,6.12859 -14.79479,0.35133 -17.87659,0.39891 -44.38441,1.05393 0,0 -1.36501,0.0326 -2.41055,-0.72194 -1.81142,-1.30788 -0.74745,-4.35271 -0.74745,-4.35271 z"
         style="fill:none;fill-rule:evenodd;stroke:#000000;stroke-width:0.99921262;stroke-linecap:butt;stroke-linejoin:miter;stroke-miterlimit:4;stroke-dasharray:none;stroke-opacity:1" />
      <path
         sodipodi:nodetypes="cssssc"
         inkscape:connector-curvature="0"
         id="path4168"
         d="m 275.33021,608.57708 c -8.55603,138.59274 -29.38072,111.76023 -73.67761,197.94523 -41.71065,81.15318 3.20852,153.34789 90.90784,158.09061 87.69932,4.74272 136.8965,-56.91261 124.06245,-112.77131 C 403.78884,795.98294 336.94485,730.6388 325.71506,692.69707 314.48527,654.75533 311.00938,606.80119 311.00938,606.80119"
         style="fill:none;fill-rule:evenodd;stroke:#000000;stroke-width:0.99921262;stroke-linecap:butt;stroke-linejoin:miter;stroke-miterlimit:4;stroke-dasharray:none;stroke-opacity:1" />
      <ellipse
         ry="15.5"
         rx="16.125"
         cy="879.73724"
         cx="365.25"
         id="path4161"
         style="opacity:1;fill:none;fill-opacity:1;stroke:#000000;stroke-width:0.99921262;stroke-miterlimit:4;stroke-dasharray:none;stroke-opacity:1" />
      <ellipse
         ry="15.625"
         rx="15.5625"
         cy="881.48724"
         cx="239.3125"
         id="path4172"
         style="opacity:1;fill:none;fill-opacity:1;stroke:#000000;stroke-width:0.99921262;stroke-miterlimit:4;stroke-dasharray:none;stroke-opacity:1" />
    </g>
  </g>
  <WCB
     pausedposy="0"
     pausedposx="0"
     lastknownposy="0"
     lastknownposx="0"
     lastpathnc="0"
     lastpath="0"
     node="0"
     layer="0" />
</svg>
